<svg xmlns="http://www.w3.org/2000/svg" xmlns:xlink="http://www.w3.org/1999/xlink" width="500" zoomAndPan="magnify" viewBox="0 0 375 116.249996" height="155" preserveAspectRatio="xMidYMid meet" version="1.2"><defs><clipPath id="aee684d13e"><path d="M 4.335938 93.714844 L 25.84375 93.714844 L 25.84375 115.222656 L 4.335938 115.222656 Z M 4.335938 93.714844 "/></clipPath><clipPath id="8b35269b46"><path d="M 25.847656 104.46875 C 25.847656 106.390625 25.367188 108.1875 24.40625 109.847656 C 23.441406 111.511719 22.128906 112.820312 20.46875 113.78125 C 18.804688 114.738281 17.011719 115.21875 15.085938 115.21875 C 13.160156 115.21875 11.378906 114.738281 9.71875 113.78125 C 8.058594 112.824219 6.746094 111.511719 5.78125 109.847656 C 4.816406 108.1875 4.335938 106.390625 4.335938 104.46875 C 4.335938 102.542969 4.816406 100.757812 5.777344 99.089844 C 6.742188 97.425781 8.054688 96.109375 9.714844 95.152344 C 11.378906 94.195312 13.167969 93.714844 15.085938 93.714844 C 17.003906 93.714844 18.804688 94.195312 20.46875 95.152344 C 22.128906 96.109375 23.441406 97.425781 24.40625 99.089844 C 25.367188 100.757812 25.847656 102.550781 25.847656 104.46875 Z M 23.761719 104.46875 C 23.761719 102.070312 22.914062 100.027344 21.222656 98.328125 C 19.523438 96.636719 17.480469 95.789062 15.082031 95.789062 C 12.6875 95.789062 10.644531 96.636719 8.945312 98.328125 C 7.25 100.023438 6.40625 102.070312 6.40625 104.46875 C 6.40625 106.863281 7.253906 108.90625 8.945312 110.605469 C 10.640625 112.300781 12.6875 113.148438 15.082031 113.148438 C 17.480469 113.148438 19.523438 112.296875 21.222656 110.605469 C 22.917969 108.910156 23.761719 106.863281 23.761719 104.46875 Z M 17.589844 105.792969 L 20.492188 106.480469 C 20.136719 107.617188 19.640625 108.492188 19.011719 109.101562 C 18.027344 110.050781 16.738281 110.527344 15.152344 110.527344 C 13.421875 110.527344 12.015625 109.96875 10.921875 108.855469 C 9.832031 107.742188 9.289062 106.269531 9.289062 104.441406 C 9.289062 102.703125 9.847656 101.265625 10.96875 100.136719 C 12.085938 99.003906 13.484375 98.4375 15.164062 98.4375 C 16.527344 98.4375 17.671875 98.800781 18.601562 99.523438 C 19.53125 100.246094 20.121094 101.183594 20.363281 102.328125 L 17.589844 102.75 C 17.417969 101.988281 17.113281 101.421875 16.667969 101.050781 C 16.21875 100.683594 15.675781 100.496094 15.039062 100.496094 C 14.308594 100.496094 13.691406 100.808594 13.195312 101.433594 C 12.695312 102.058594 12.445312 103.035156 12.445312 104.371094 C 12.445312 105.703125 12.613281 106.667969 12.953125 107.242188 C 13.453125 108.070312 14.15625 108.484375 15.066406 108.484375 C 15.640625 108.484375 16.15625 108.269531 16.609375 107.851562 C 17.066406 107.429688 17.390625 106.742188 17.589844 105.792969 Z M 17.589844 105.792969 "/></clipPath><linearGradient x1="39.560001" gradientTransform="matrix(0.271915,0,0,0.271915,4.335091,93.715685)" y1="79.079994" x2="39.560001" gradientUnits="userSpaceOnUse" y2="-0.00000632155" id="e67321f813"><stop style="stop-color:#005eff;stop-opacity:1;" offset="0"/><stop style="stop-color:#005fff;stop-opacity:1;" offset="0.00390625"/><stop style="stop-color:#005fff;stop-opacity:1;" offset="0.0078125"/><stop style="stop-color:#0060ff;stop-opacity:1;" offset="0.0117188"/><stop style="stop-color:#0060ff;stop-opacity:1;" offset="0.015625"/><stop style="stop-color:#0061ff;stop-opacity:1;" offset="0.0195312"/><stop style="stop-color:#0061ff;stop-opacity:1;" offset="0.0234375"/><stop style="stop-color:#0062ff;stop-opacity:1;" offset="0.0273437"/><stop style="stop-color:#0063ff;stop-opacity:1;" offset="0.03125"/><stop style="stop-color:#0063ff;stop-opacity:1;" offset="0.0351562"/><stop style="stop-color:#0064ff;stop-opacity:1;" offset="0.0390625"/><stop style="stop-color:#0064ff;stop-opacity:1;" offset="0.0429688"/><stop style="stop-color:#0065ff;stop-opacity:1;" offset="0.046875"/><stop style="stop-color:#0065ff;stop-opacity:1;" offset="0.0507812"/><stop style="stop-color:#0066ff;stop-opacity:1;" offset="0.0546875"/><stop style="stop-color:#0066ff;stop-opacity:1;" offset="0.0585938"/><stop style="stop-color:#0067ff;stop-opacity:1;" offset="0.0625"/><stop style="stop-color:#0068ff;stop-opacity:1;" offset="0.0664062"/><stop style="stop-color:#0068ff;stop-opacity:1;" offset="0.0703125"/><stop style="stop-color:#0069ff;stop-opacity:1;" offset="0.0742188"/><stop style="stop-color:#0069ff;stop-opacity:1;" offset="0.078125"/><stop style="stop-color:#006aff;stop-opacity:1;" offset="0.0820312"/><stop style="stop-color:#006aff;stop-opacity:1;" offset="0.0859375"/><stop style="stop-color:#006bff;stop-opacity:1;" offset="0.0898438"/><stop style="stop-color:#006bff;stop-opacity:1;" offset="0.09375"/><stop style="stop-color:#006cff;stop-opacity:1;" offset="0.0976562"/><stop style="stop-color:#006dff;stop-opacity:1;" offset="0.101562"/><stop style="stop-color:#006dff;stop-opacity:1;" offset="0.105469"/><stop style="stop-color:#006eff;stop-opacity:1;" offset="0.109375"/><stop style="stop-color:#006eff;stop-opacity:1;" offset="0.113281"/><stop style="stop-color:#006fff;stop-opacity:1;" offset="0.117188"/><stop style="stop-color:#006fff;stop-opacity:1;" offset="0.121094"/><stop style="stop-color:#0070ff;stop-opacity:1;" offset="0.125"/><stop style="stop-color:#0070ff;stop-opacity:1;" offset="0.128906"/><stop style="stop-color:#0071ff;stop-opacity:1;" offset="0.132812"/><stop style="stop-color:#0072ff;stop-opacity:1;" offset="0.136719"/><stop style="stop-color:#0072ff;stop-opacity:1;" offset="0.140625"/><stop style="stop-color:#0073ff;stop-opacity:1;" offset="0.144531"/><stop style="stop-color:#0073ff;stop-opacity:1;" offset="0.148437"/><stop style="stop-color:#0074ff;stop-opacity:1;" offset="0.152344"/><stop style="stop-color:#0074ff;stop-opacity:1;" offset="0.15625"/><stop style="stop-color:#0075ff;stop-opacity:1;" offset="0.160156"/><stop style="stop-color:#0076ff;stop-opacity:1;" offset="0.164062"/><stop style="stop-color:#0076ff;stop-opacity:1;" offset="0.167969"/><stop style="stop-color:#0077ff;stop-opacity:1;" offset="0.171875"/><stop style="stop-color:#0077ff;stop-opacity:1;" offset="0.175781"/><stop style="stop-color:#0078ff;stop-opacity:1;" offset="0.179687"/><stop style="stop-color:#0078ff;stop-opacity:1;" offset="0.183594"/><stop style="stop-color:#0079ff;stop-opacity:1;" offset="0.1875"/><stop style="stop-color:#0079ff;stop-opacity:1;" offset="0.191406"/><stop style="stop-color:#007aff;stop-opacity:1;" offset="0.195312"/><stop style="stop-color:#007bff;stop-opacity:1;" offset="0.199219"/><stop style="stop-color:#007bff;stop-opacity:1;" offset="0.203125"/><stop style="stop-color:#007cff;stop-opacity:1;" offset="0.207031"/><stop style="stop-color:#007cff;stop-opacity:1;" offset="0.210937"/><stop style="stop-color:#007dff;stop-opacity:1;" offset="0.214844"/><stop style="stop-color:#007dff;stop-opacity:1;" offset="0.21875"/><stop style="stop-color:#007eff;stop-opacity:1;" offset="0.222656"/><stop style="stop-color:#007eff;stop-opacity:1;" offset="0.226562"/><stop style="stop-color:#007fff;stop-opacity:1;" offset="0.230469"/><stop style="stop-color:#0080ff;stop-opacity:1;" offset="0.234375"/><stop style="stop-color:#0080ff;stop-opacity:1;" offset="0.238281"/><stop style="stop-color:#0081ff;stop-opacity:1;" offset="0.242187"/><stop style="stop-color:#0081ff;stop-opacity:1;" offset="0.246094"/><stop style="stop-color:#0082ff;stop-opacity:1;" offset="0.25"/><stop style="stop-color:#0082ff;stop-opacity:1;" offset="0.253906"/><stop style="stop-color:#0083ff;stop-opacity:1;" offset="0.257812"/><stop style="stop-color:#0083ff;stop-opacity:1;" offset="0.261719"/><stop style="stop-color:#0084ff;stop-opacity:1;" offset="0.265625"/><stop style="stop-color:#0085ff;stop-opacity:1;" offset="0.269531"/><stop style="stop-color:#0085ff;stop-opacity:1;" offset="0.273437"/><stop style="stop-color:#0086ff;stop-opacity:1;" offset="0.277344"/><stop style="stop-color:#0086ff;stop-opacity:1;" offset="0.28125"/><stop style="stop-color:#0087ff;stop-opacity:1;" offset="0.285156"/><stop style="stop-color:#0087ff;stop-opacity:1;" offset="0.289062"/><stop style="stop-color:#0088ff;stop-opacity:1;" offset="0.292969"/><stop style="stop-color:#0088ff;stop-opacity:1;" offset="0.296875"/><stop style="stop-color:#0089ff;stop-opacity:1;" offset="0.300781"/><stop style="stop-color:#008aff;stop-opacity:1;" offset="0.304687"/><stop style="stop-color:#008aff;stop-opacity:1;" offset="0.308594"/><stop style="stop-color:#008bff;stop-opacity:1;" offset="0.3125"/><stop style="stop-color:#008bff;stop-opacity:1;" offset="0.316406"/><stop style="stop-color:#008cff;stop-opacity:1;" offset="0.320312"/><stop style="stop-color:#008cff;stop-opacity:1;" offset="0.324219"/><stop style="stop-color:#008dff;stop-opacity:1;" offset="0.328125"/><stop style="stop-color:#008dff;stop-opacity:1;" offset="0.332031"/><stop style="stop-color:#008eff;stop-opacity:1;" offset="0.335937"/><stop style="stop-color:#008fff;stop-opacity:1;" offset="0.339844"/><stop style="stop-color:#008fff;stop-opacity:1;" offset="0.34375"/><stop style="stop-color:#0090ff;stop-opacity:1;" offset="0.347656"/><stop style="stop-color:#0090ff;stop-opacity:1;" offset="0.351562"/><stop style="stop-color:#0091ff;stop-opacity:1;" offset="0.355469"/><stop style="stop-color:#0091ff;stop-opacity:1;" offset="0.359375"/><stop style="stop-color:#0092ff;stop-opacity:1;" offset="0.363281"/><stop style="stop-color:#0093ff;stop-opacity:1;" offset="0.367187"/><stop style="stop-color:#0093ff;stop-opacity:1;" offset="0.371094"/><stop style="stop-color:#0094ff;stop-opacity:1;" offset="0.375"/><stop style="stop-color:#0094ff;stop-opacity:1;" offset="0.378906"/><stop style="stop-color:#0095ff;stop-opacity:1;" offset="0.382812"/><stop style="stop-color:#0095ff;stop-opacity:1;" offset="0.386719"/><stop style="stop-color:#0096ff;stop-opacity:1;" offset="0.390625"/><stop style="stop-color:#0096ff;stop-opacity:1;" offset="0.394531"/><stop style="stop-color:#0097ff;stop-opacity:1;" offset="0.398437"/><stop style="stop-color:#0098ff;stop-opacity:1;" offset="0.402344"/><stop style="stop-color:#0098ff;stop-opacity:1;" offset="0.40625"/><stop style="stop-color:#0099ff;stop-opacity:1;" offset="0.410156"/><stop style="stop-color:#0099ff;stop-opacity:1;" offset="0.414062"/><stop style="stop-color:#009aff;stop-opacity:1;" offset="0.417969"/><stop style="stop-color:#009aff;stop-opacity:1;" offset="0.421875"/><stop style="stop-color:#009bff;stop-opacity:1;" offset="0.425781"/><stop style="stop-color:#009bff;stop-opacity:1;" offset="0.429687"/><stop style="stop-color:#009cff;stop-opacity:1;" offset="0.433594"/><stop style="stop-color:#009dff;stop-opacity:1;" offset="0.4375"/><stop style="stop-color:#009dff;stop-opacity:1;" offset="0.441406"/><stop style="stop-color:#009eff;stop-opacity:1;" offset="0.445312"/><stop style="stop-color:#009eff;stop-opacity:1;" offset="0.449219"/><stop style="stop-color:#009fff;stop-opacity:1;" offset="0.453125"/><stop style="stop-color:#009fff;stop-opacity:1;" offset="0.457031"/><stop style="stop-color:#00a0ff;stop-opacity:1;" offset="0.460937"/><stop style="stop-color:#00a0ff;stop-opacity:1;" offset="0.464844"/><stop style="stop-color:#00a1ff;stop-opacity:1;" offset="0.46875"/><stop style="stop-color:#00a2ff;stop-opacity:1;" offset="0.472656"/><stop style="stop-color:#00a2ff;stop-opacity:1;" offset="0.476562"/><stop style="stop-color:#00a3ff;stop-opacity:1;" offset="0.480469"/><stop style="stop-color:#00a3ff;stop-opacity:1;" offset="0.484375"/><stop style="stop-color:#00a4ff;stop-opacity:1;" offset="0.488281"/><stop style="stop-color:#00a4ff;stop-opacity:1;" offset="0.492187"/><stop style="stop-color:#00a5ff;stop-opacity:1;" offset="0.496094"/><stop style="stop-color:#00a5ff;stop-opacity:1;" offset="0.5"/><stop style="stop-color:#00a6ff;stop-opacity:1;" offset="0.503906"/><stop style="stop-color:#00a7ff;stop-opacity:1;" offset="0.507812"/><stop style="stop-color:#00a7ff;stop-opacity:1;" offset="0.511719"/><stop style="stop-color:#00a8ff;stop-opacity:1;" offset="0.515625"/><stop style="stop-color:#00a8ff;stop-opacity:1;" offset="0.519531"/><stop style="stop-color:#00a9ff;stop-opacity:1;" offset="0.523437"/><stop style="stop-color:#00a9ff;stop-opacity:1;" offset="0.527344"/><stop style="stop-color:#00aaff;stop-opacity:1;" offset="0.53125"/><stop style="stop-color:#00abff;stop-opacity:1;" offset="0.535156"/><stop style="stop-color:#00abff;stop-opacity:1;" offset="0.539062"/><stop style="stop-color:#00acff;stop-opacity:1;" offset="0.542969"/><stop style="stop-color:#00acff;stop-opacity:1;" offset="0.546875"/><stop style="stop-color:#00adff;stop-opacity:1;" offset="0.550781"/><stop style="stop-color:#00adff;stop-opacity:1;" offset="0.554687"/><stop style="stop-color:#00aeff;stop-opacity:1;" offset="0.558594"/><stop style="stop-color:#00aeff;stop-opacity:1;" offset="0.5625"/><stop style="stop-color:#00afff;stop-opacity:1;" offset="0.566406"/><stop style="stop-color:#00b0ff;stop-opacity:1;" offset="0.570312"/><stop style="stop-color:#00b0ff;stop-opacity:1;" offset="0.574219"/><stop style="stop-color:#00b1ff;stop-opacity:1;" offset="0.578125"/><stop style="stop-color:#00b1ff;stop-opacity:1;" offset="0.582031"/><stop style="stop-color:#00b2ff;stop-opacity:1;" offset="0.585937"/><stop style="stop-color:#00b2ff;stop-opacity:1;" offset="0.589844"/><stop style="stop-color:#00b3ff;stop-opacity:1;" offset="0.59375"/><stop style="stop-color:#00b3ff;stop-opacity:1;" offset="0.597656"/><stop style="stop-color:#00b4ff;stop-opacity:1;" offset="0.601562"/><stop style="stop-color:#00b5ff;stop-opacity:1;" offset="0.605469"/><stop style="stop-color:#00b5ff;stop-opacity:1;" offset="0.609375"/><stop style="stop-color:#00b6ff;stop-opacity:1;" offset="0.613281"/><stop style="stop-color:#00b6ff;stop-opacity:1;" offset="0.617187"/><stop style="stop-color:#00b7ff;stop-opacity:1;" offset="0.621094"/><stop style="stop-color:#00b7ff;stop-opacity:1;" offset="0.625"/><stop style="stop-color:#00b8ff;stop-opacity:1;" offset="0.628906"/><stop style="stop-color:#00b8ff;stop-opacity:1;" offset="0.632812"/><stop style="stop-color:#00b9ff;stop-opacity:1;" offset="0.636719"/><stop style="stop-color:#00baff;stop-opacity:1;" offset="0.640625"/><stop style="stop-color:#00baff;stop-opacity:1;" offset="0.644531"/><stop style="stop-color:#00bbff;stop-opacity:1;" offset="0.648437"/><stop style="stop-color:#00bbff;stop-opacity:1;" offset="0.652344"/><stop style="stop-color:#00bcff;stop-opacity:1;" offset="0.65625"/><stop style="stop-color:#00bcff;stop-opacity:1;" offset="0.660156"/><stop style="stop-color:#00bdff;stop-opacity:1;" offset="0.664062"/><stop style="stop-color:#00bdff;stop-opacity:1;" offset="0.667969"/><stop style="stop-color:#00beff;stop-opacity:1;" offset="0.671875"/><stop style="stop-color:#00bfff;stop-opacity:1;" offset="0.675781"/><stop style="stop-color:#00bfff;stop-opacity:1;" offset="0.679687"/><stop style="stop-color:#00c0ff;stop-opacity:1;" offset="0.683594"/><stop style="stop-color:#00c0ff;stop-opacity:1;" offset="0.6875"/><stop style="stop-color:#00c1ff;stop-opacity:1;" offset="0.691406"/><stop style="stop-color:#00c1ff;stop-opacity:1;" offset="0.695312"/><stop style="stop-color:#00c2ff;stop-opacity:1;" offset="0.699219"/><stop style="stop-color:#00c2ff;stop-opacity:1;" offset="0.703125"/><stop style="stop-color:#00c3ff;stop-opacity:1;" offset="0.707031"/><stop style="stop-color:#00c4ff;stop-opacity:1;" offset="0.710937"/><stop style="stop-color:#00c4ff;stop-opacity:1;" offset="0.714844"/><stop style="stop-color:#00c5ff;stop-opacity:1;" offset="0.71875"/><stop style="stop-color:#00c5ff;stop-opacity:1;" offset="0.722656"/><stop style="stop-color:#00c6ff;stop-opacity:1;" offset="0.726562"/><stop style="stop-color:#00c6ff;stop-opacity:1;" offset="0.730469"/><stop style="stop-color:#00c7ff;stop-opacity:1;" offset="0.734375"/><stop style="stop-color:#00c8ff;stop-opacity:1;" offset="0.738281"/><stop style="stop-color:#00c8ff;stop-opacity:1;" offset="0.742187"/><stop style="stop-color:#00c9ff;stop-opacity:1;" offset="0.746094"/><stop style="stop-color:#00c9ff;stop-opacity:1;" offset="0.75"/><stop style="stop-color:#00caff;stop-opacity:1;" offset="0.753906"/><stop style="stop-color:#00caff;stop-opacity:1;" offset="0.757812"/><stop style="stop-color:#00cbff;stop-opacity:1;" offset="0.761719"/><stop style="stop-color:#00cbff;stop-opacity:1;" offset="0.765625"/><stop style="stop-color:#00ccff;stop-opacity:1;" offset="0.769531"/><stop style="stop-color:#00cdff;stop-opacity:1;" offset="0.773437"/><stop style="stop-color:#00cdff;stop-opacity:1;" offset="0.777344"/><stop style="stop-color:#00ceff;stop-opacity:1;" offset="0.78125"/><stop style="stop-color:#00ceff;stop-opacity:1;" offset="0.785156"/><stop style="stop-color:#00cfff;stop-opacity:1;" offset="0.789062"/><stop style="stop-color:#00cfff;stop-opacity:1;" offset="0.792969"/><stop style="stop-color:#00d0ff;stop-opacity:1;" offset="0.796875"/><stop style="stop-color:#00d0ff;stop-opacity:1;" offset="0.800781"/><stop style="stop-color:#00d1ff;stop-opacity:1;" offset="0.804687"/><stop style="stop-color:#00d2ff;stop-opacity:1;" offset="0.808594"/><stop style="stop-color:#00d2ff;stop-opacity:1;" offset="0.8125"/><stop style="stop-color:#00d3ff;stop-opacity:1;" offset="0.816406"/><stop style="stop-color:#00d3ff;stop-opacity:1;" offset="0.820312"/><stop style="stop-color:#00d4ff;stop-opacity:1;" offset="0.824219"/><stop style="stop-color:#00d4ff;stop-opacity:1;" offset="0.828125"/><stop style="stop-color:#00d5ff;stop-opacity:1;" offset="0.832031"/><stop style="stop-color:#00d5ff;stop-opacity:1;" offset="0.835937"/><stop style="stop-color:#00d6ff;stop-opacity:1;" offset="0.839844"/><stop style="stop-color:#00d7ff;stop-opacity:1;" offset="0.84375"/><stop style="stop-color:#00d7ff;stop-opacity:1;" offset="0.847656"/><stop style="stop-color:#00d8ff;stop-opacity:1;" offset="0.851562"/><stop style="stop-color:#00d8ff;stop-opacity:1;" offset="0.855469"/><stop style="stop-color:#00d9ff;stop-opacity:1;" offset="0.859375"/><stop style="stop-color:#00d9ff;stop-opacity:1;" offset="0.863281"/><stop style="stop-color:#00daff;stop-opacity:1;" offset="0.867187"/><stop style="stop-color:#00daff;stop-opacity:1;" offset="0.871094"/><stop style="stop-color:#00dbff;stop-opacity:1;" offset="0.875"/><stop style="stop-color:#00dcff;stop-opacity:1;" offset="0.878906"/><stop style="stop-color:#00dcff;stop-opacity:1;" offset="0.882812"/><stop style="stop-color:#00ddff;stop-opacity:1;" offset="0.886719"/><stop style="stop-color:#00ddff;stop-opacity:1;" offset="0.890625"/><stop style="stop-color:#00deff;stop-opacity:1;" offset="0.894531"/><stop style="stop-color:#00deff;stop-opacity:1;" offset="0.898437"/><stop style="stop-color:#00dfff;stop-opacity:1;" offset="0.902344"/><stop style="stop-color:#00e0ff;stop-opacity:1;" offset="0.90625"/><stop style="stop-color:#00e0ff;stop-opacity:1;" offset="0.910156"/><stop style="stop-color:#00e1ff;stop-opacity:1;" offset="0.914062"/><stop style="stop-color:#00e1ff;stop-opacity:1;" offset="0.917969"/><stop style="stop-color:#00e2ff;stop-opacity:1;" offset="0.921875"/><stop style="stop-color:#00e2ff;stop-opacity:1;" offset="0.925781"/><stop style="stop-color:#00e3ff;stop-opacity:1;" offset="0.929687"/><stop style="stop-color:#00e3ff;stop-opacity:1;" offset="0.933594"/><stop style="stop-color:#00e4ff;stop-opacity:1;" offset="0.9375"/><stop style="stop-color:#00e5ff;stop-opacity:1;" offset="0.941406"/><stop style="stop-color:#00e5ff;stop-opacity:1;" offset="0.945312"/><stop style="stop-color:#00e6ff;stop-opacity:1;" offset="0.949219"/><stop style="stop-color:#00e6ff;stop-opacity:1;" offset="0.953125"/><stop style="stop-color:#00e7ff;stop-opacity:1;" offset="0.957031"/><stop style="stop-color:#00e7ff;stop-opacity:1;" offset="0.960937"/><stop style="stop-color:#00e8ff;stop-opacity:1;" offset="0.964844"/><stop style="stop-color:#00e8ff;stop-opacity:1;" offset="0.96875"/><stop style="stop-color:#00e9ff;stop-opacity:1;" offset="0.972656"/><stop style="stop-color:#00eaff;stop-opacity:1;" offset="0.976562"/><stop style="stop-color:#00eaff;stop-opacity:1;" offset="0.980469"/><stop style="stop-color:#00ebff;stop-opacity:1;" offset="0.984375"/><stop style="stop-color:#00ebff;stop-opacity:1;" offset="0.988281"/><stop style="stop-color:#00ecff;stop-opacity:1;" offset="0.992187"/><stop style="stop-color:#00ecff;stop-opacity:1;" offset="0.996094"/><stop style="stop-color:#00edff;stop-opacity:1;" offset="1"/></linearGradient></defs><g id="38cecdd32d"><g style="fill:#cb697f;fill-opacity:1;"><g transform="translate(7.120202, 85.700225)"><path style="stroke:none" d="M 43.96875 -75.71875 L 74.53125 0 L 55.984375 0 L 50.390625 -15.140625 L 21.5625 -15.140625 L 15.96875 0 L -2.5625 0 L 28 -75.71875 Z M 44.515625 -30.28125 L 36.0625 -52.3125 L 35.890625 -52.3125 L 27.4375 -30.28125 Z M 44.515625 -30.28125 "/></g></g><g style="fill:#cb697f;fill-opacity:1;"><g transform="translate(70.437653, 85.700225)"><path style="stroke:none" d="M 25.96875 -48.453125 C 28.664062 -48.453125 31.328125 -48.144531 33.953125 -47.53125 C 36.585938 -46.925781 38.546875 -46.316406 39.828125 -45.703125 L 41.765625 -44.796875 L 36.4375 -34.140625 C 32.769531 -36.097656 29.28125 -37.078125 25.96875 -37.078125 C 24.132812 -37.078125 22.832031 -36.878906 22.0625 -36.484375 C 21.300781 -36.085938 20.921875 -35.335938 20.921875 -34.234375 C 20.921875 -33.992188 20.953125 -33.75 21.015625 -33.5 C 21.078125 -33.257812 21.195312 -33.03125 21.375 -32.8125 C 21.5625 -32.59375 21.734375 -32.40625 21.890625 -32.25 C 22.046875 -32.101562 22.304688 -31.9375 22.671875 -31.75 C 23.035156 -31.570312 23.320312 -31.4375 23.53125 -31.34375 C 23.75 -31.25 24.101562 -31.109375 24.59375 -30.921875 C 25.082031 -30.742188 25.445312 -30.609375 25.6875 -30.515625 C 25.9375 -30.421875 26.351562 -30.28125 26.9375 -30.09375 C 27.519531 -29.914062 27.960938 -29.796875 28.265625 -29.734375 C 30.160156 -29.179688 31.8125 -28.566406 33.21875 -27.890625 C 34.625 -27.222656 36.109375 -26.304688 37.671875 -25.140625 C 39.234375 -23.984375 40.441406 -22.515625 41.296875 -20.734375 C 42.160156 -18.960938 42.59375 -16.945312 42.59375 -14.6875 C 42.59375 -3.976562 35.15625 1.375 20.28125 1.375 C 16.914062 1.375 13.71875 0.851562 10.6875 -0.1875 C 7.664062 -1.226562 5.476562 -2.265625 4.125 -3.296875 L 2.109375 -4.953125 L 8.71875 -16.0625 C 9.207031 -15.632812 9.847656 -15.128906 10.640625 -14.546875 C 11.441406 -13.960938 12.878906 -13.164062 14.953125 -12.15625 C 17.035156 -11.144531 18.84375 -10.640625 20.375 -10.640625 C 23.738281 -10.640625 25.421875 -11.773438 25.421875 -14.046875 C 25.421875 -15.085938 24.992188 -15.894531 24.140625 -16.46875 C 23.285156 -17.050781 21.832031 -17.707031 19.78125 -18.4375 C 17.726562 -19.175781 16.117188 -19.851562 14.953125 -20.46875 C 12.023438 -22 9.703125 -23.726562 7.984375 -25.65625 C 6.273438 -27.582031 5.421875 -30.132812 5.421875 -33.3125 C 5.421875 -38.082031 7.269531 -41.796875 10.96875 -44.453125 C 14.664062 -47.117188 19.664062 -48.453125 25.96875 -48.453125 Z M 25.96875 -48.453125 "/></g></g><g style="fill:#cb697f;fill-opacity:1;"><g transform="translate(106.958832, 85.700225)"><path style="stroke:none" d="M 8.71875 -5.828125 C 4.3125 -10.628906 2.109375 -16.515625 2.109375 -23.484375 C 2.109375 -30.460938 4.3125 -36.367188 8.71875 -41.203125 C 13.125 -46.035156 18.722656 -48.453125 25.515625 -48.453125 C 31.753906 -48.453125 36.894531 -46.5 40.9375 -42.59375 L 40.9375 -47.078125 L 57.171875 -47.078125 L 57.171875 0 L 41.125 0 L 41.125 -5.328125 L 40.9375 -5.328125 C 36.894531 -0.859375 31.753906 1.375 25.515625 1.375 C 18.722656 1.375 13.125 -1.023438 8.71875 -5.828125 Z M 22.53125 -31.46875 C 20.414062 -29.394531 19.359375 -26.734375 19.359375 -23.484375 C 19.359375 -20.242188 20.367188 -17.597656 22.390625 -15.546875 C 24.410156 -13.503906 27.070312 -12.484375 30.375 -12.484375 C 33.5625 -12.484375 36.175781 -13.519531 38.21875 -15.59375 C 40.269531 -17.675781 41.296875 -20.3125 41.296875 -23.5 C 41.296875 -26.738281 40.238281 -29.394531 38.125 -31.46875 C 36.019531 -33.550781 33.4375 -34.59375 30.375 -34.59375 C 27.257812 -34.59375 24.644531 -33.550781 22.53125 -31.46875 Z M 22.53125 -31.46875 "/></g></g><g style="fill:#cb697f;fill-opacity:1;"><g transform="translate(161.007705, 85.700225)"><path style="stroke:none" d="M 53.96875 -41.203125 C 58.375 -36.367188 60.578125 -30.460938 60.578125 -23.484375 C 60.578125 -16.515625 58.375 -10.628906 53.96875 -5.828125 C 49.5625 -1.023438 43.960938 1.375 37.171875 1.375 C 30.929688 1.375 25.789062 -0.859375 21.75 -5.328125 L 21.5625 -5.328125 L 21.5625 0 L 5.5 0 L 5.5 -78.9375 L 21.75 -78.9375 L 21.75 -42.59375 C 25.789062 -46.5 30.929688 -48.453125 37.171875 -48.453125 C 43.960938 -48.453125 49.5625 -46.035156 53.96875 -41.203125 Z M 40.296875 -15.546875 C 42.316406 -17.597656 43.328125 -20.242188 43.328125 -23.484375 C 43.328125 -26.734375 42.269531 -29.394531 40.15625 -31.46875 C 38.039062 -33.550781 35.425781 -34.59375 32.3125 -34.59375 C 29.25 -34.59375 26.660156 -33.550781 24.546875 -31.46875 C 22.441406 -29.394531 21.390625 -26.738281 21.390625 -23.5 C 21.390625 -20.3125 22.410156 -17.675781 24.453125 -15.59375 C 26.503906 -13.519531 29.125 -12.484375 32.3125 -12.484375 C 35.613281 -12.484375 38.273438 -13.503906 40.296875 -15.546875 Z M 40.296875 -15.546875 "/></g></g><g style="fill:#cb697f;fill-opacity:1;"><g transform="translate(215.056578, 85.700225)"><path style="stroke:none" d="M 8.71875 -5.828125 C 4.3125 -10.628906 2.109375 -16.515625 2.109375 -23.484375 C 2.109375 -30.460938 4.3125 -36.367188 8.71875 -41.203125 C 13.125 -46.035156 18.722656 -48.453125 25.515625 -48.453125 C 31.753906 -48.453125 36.894531 -46.5 40.9375 -42.59375 L 40.9375 -47.078125 L 57.171875 -47.078125 L 57.171875 0 L 41.125 0 L 41.125 -5.328125 L 40.9375 -5.328125 C 36.894531 -0.859375 31.753906 1.375 25.515625 1.375 C 18.722656 1.375 13.125 -1.023438 8.71875 -5.828125 Z M 22.53125 -31.46875 C 20.414062 -29.394531 19.359375 -26.734375 19.359375 -23.484375 C 19.359375 -20.242188 20.367188 -17.597656 22.390625 -15.546875 C 24.410156 -13.503906 27.070312 -12.484375 30.375 -12.484375 C 33.5625 -12.484375 36.175781 -13.519531 38.21875 -15.59375 C 40.269531 -17.675781 41.296875 -20.3125 41.296875 -23.5 C 41.296875 -26.738281 40.238281 -29.394531 38.125 -31.46875 C 36.019531 -33.550781 33.4375 -34.59375 30.375 -34.59375 C 27.257812 -34.59375 24.644531 -33.550781 22.53125 -31.46875 Z M 22.53125 -31.46875 "/></g></g><g style="fill:#cb697f;fill-opacity:1;"><g transform="translate(269.105451, 85.700225)"><path style="stroke:none" d="M 8.71875 -5.828125 C 4.3125 -10.628906 2.109375 -16.515625 2.109375 -23.484375 C 2.109375 -30.460938 4.3125 -36.367188 8.71875 -41.203125 C 13.125 -46.035156 18.722656 -48.453125 25.515625 -48.453125 C 31.753906 -48.453125 36.894531 -46.5 40.9375 -42.59375 L 40.9375 -47.078125 L 57.171875 -47.078125 L 57.171875 0 L 41.125 0 L 41.125 -5.328125 L 40.9375 -5.328125 C 36.894531 -0.859375 31.753906 1.375 25.515625 1.375 C 18.722656 1.375 13.125 -1.023438 8.71875 -5.828125 Z M 22.53125 -31.46875 C 20.414062 -29.394531 19.359375 -26.734375 19.359375 -23.484375 C 19.359375 -20.242188 20.367188 -17.597656 22.390625 -15.546875 C 24.410156 -13.503906 27.070312 -12.484375 30.375 -12.484375 C 33.5625 -12.484375 36.175781 -13.519531 38.21875 -15.59375 C 40.269531 -17.675781 41.296875 -20.3125 41.296875 -23.5 C 41.296875 -26.738281 40.238281 -29.394531 38.125 -31.46875 C 36.019531 -33.550781 33.4375 -34.59375 30.375 -34.59375 C 27.257812 -34.59375 24.644531 -33.550781 22.53125 -31.46875 Z M 22.53125 -31.46875 "/></g></g><g style="fill:#cb697f;fill-opacity:1;"><g transform="translate(323.154324, 85.700225)"><path style="stroke:none" d="M 5.5 0 L 5.5 -78.9375 L 21.75 -78.9375 L 21.75 0 Z M 5.5 0 "/></g></g><g style="fill:#cb697f;fill-opacity:1;"><g transform="translate(341.780725, 85.700225)"><path style="stroke:none" d="M 15.96875 -19.640625 C 18.90625 -19.640625 21.398438 -18.613281 23.453125 -16.5625 C 25.503906 -14.507812 26.53125 -12.019531 26.53125 -9.09375 C 26.53125 -6.207031 25.503906 -3.738281 23.453125 -1.6875 C 21.398438 0.351562 18.90625 1.375 15.96875 1.375 C 13.09375 1.375 10.628906 0.351562 8.578125 -1.6875 C 6.523438 -3.738281 5.5 -6.207031 5.5 -9.09375 C 5.5 -12.019531 6.523438 -14.507812 8.578125 -16.5625 C 10.628906 -18.613281 13.09375 -19.640625 15.96875 -19.640625 Z M 15.96875 -19.640625 "/></g></g><g clip-rule="nonzero" clip-path="url(#aee684d13e)"><g clip-rule="nonzero" clip-path="url(#8b35269b46)"><path style=" stroke:none;fill-rule:nonzero;fill:url(#e67321f813);" d="M 4.335938 93.714844 L 4.335938 115.21875 L 25.84375 115.21875 L 25.84375 93.714844 Z M 4.335938 93.714844 "/></g></g><g style="fill:#ffffff;fill-opacity:1;"><g transform="translate(110.210095, 110.57091)"><path style="stroke:none" d="M 8.703125 -9.765625 C 8.929688 -9.765625 9.125 -9.6875 9.28125 -9.53125 C 9.445312 -9.382812 9.53125 -9.207031 9.53125 -9 C 9.53125 -8.882812 9.488281 -8.726562 9.40625 -8.53125 L 5.890625 -0.546875 C 5.816406 -0.390625 5.710938 -0.257812 5.578125 -0.15625 C 5.441406 -0.0625 5.296875 -0.0078125 5.140625 0 C 4.941406 0.0195312 4.757812 -0.015625 4.59375 -0.109375 C 4.425781 -0.210938 4.296875 -0.359375 4.203125 -0.546875 L 0.703125 -8.53125 C 0.640625 -8.71875 0.609375 -8.875 0.609375 -9 C 0.609375 -9.195312 0.6875 -9.375 0.84375 -9.53125 C 1.007812 -9.6875 1.222656 -9.765625 1.484375 -9.765625 C 1.660156 -9.765625 1.820312 -9.71875 1.96875 -9.625 C 2.125 -9.539062 2.242188 -9.40625 2.328125 -9.21875 L 5.109375 -2.734375 L 7.90625 -9.21875 C 8.070312 -9.582031 8.335938 -9.765625 8.703125 -9.765625 Z M 8.703125 -9.765625 "/></g></g><g style="fill:#ffffff;fill-opacity:1;"><g transform="translate(132.372816, 110.57091)"><path style="stroke:none" d="M 9.8125 -5.203125 C 9.789062 -4.984375 9.691406 -4.796875 9.515625 -4.640625 C 9.347656 -4.484375 9.148438 -4.40625 8.921875 -4.40625 L 2.421875 -4.40625 C 2.503906 -3.507812 2.84375 -2.789062 3.4375 -2.25 C 4.039062 -1.707031 4.773438 -1.4375 5.640625 -1.4375 C 6.222656 -1.4375 6.695312 -1.519531 7.0625 -1.6875 C 7.4375 -1.863281 7.765625 -2.085938 8.046875 -2.359375 C 8.234375 -2.472656 8.414062 -2.53125 8.59375 -2.53125 C 8.800781 -2.53125 8.972656 -2.457031 9.109375 -2.3125 C 9.253906 -2.164062 9.328125 -1.992188 9.328125 -1.796875 C 9.328125 -1.535156 9.203125 -1.300781 8.953125 -1.09375 C 8.597656 -0.726562 8.125 -0.421875 7.53125 -0.171875 C 6.945312 0.0664062 6.34375 0.1875 5.71875 0.1875 C 4.726562 0.1875 3.851562 -0.0195312 3.09375 -0.4375 C 2.332031 -0.863281 1.742188 -1.453125 1.328125 -2.203125 C 0.921875 -2.953125 0.71875 -3.800781 0.71875 -4.75 C 0.71875 -5.78125 0.929688 -6.6875 1.359375 -7.46875 C 1.785156 -8.25 2.34375 -8.847656 3.03125 -9.265625 C 3.726562 -9.691406 4.476562 -9.90625 5.28125 -9.90625 C 6.070312 -9.90625 6.8125 -9.703125 7.5 -9.296875 C 8.1875 -8.890625 8.738281 -8.328125 9.15625 -7.609375 C 9.570312 -6.890625 9.789062 -6.085938 9.8125 -5.203125 Z M 5.28125 -8.28125 C 4.59375 -8.28125 3.992188 -8.082031 3.484375 -7.6875 C 2.984375 -7.300781 2.65625 -6.703125 2.5 -5.890625 L 7.9375 -5.890625 L 7.9375 -6.046875 C 7.875 -6.691406 7.582031 -7.222656 7.0625 -7.640625 C 6.539062 -8.066406 5.945312 -8.28125 5.28125 -8.28125 Z M 5.28125 -8.28125 "/></g></g><g style="fill:#ffffff;fill-opacity:1;"><g transform="translate(154.941716, 110.57091)"><path style="stroke:none" d="M 6.25 -9.90625 C 8.457031 -9.90625 9.5625 -8.570312 9.5625 -5.90625 L 9.5625 -0.890625 C 9.5625 -0.640625 9.476562 -0.425781 9.3125 -0.25 C 9.144531 -0.0820312 8.9375 0 8.6875 0 C 8.4375 0 8.226562 -0.0820312 8.0625 -0.25 C 7.894531 -0.425781 7.8125 -0.640625 7.8125 -0.890625 L 7.8125 -5.890625 C 7.8125 -6.617188 7.644531 -7.195312 7.3125 -7.625 C 6.976562 -8.0625 6.4375 -8.28125 5.6875 -8.28125 C 5.195312 -8.28125 4.75 -8.171875 4.34375 -7.953125 C 3.945312 -7.734375 3.632812 -7.441406 3.40625 -7.078125 C 3.175781 -6.710938 3.0625 -6.316406 3.0625 -5.890625 L 3.0625 -0.890625 C 3.0625 -0.640625 2.976562 -0.425781 2.8125 -0.25 C 2.644531 -0.0820312 2.429688 0 2.171875 0 C 1.921875 0 1.710938 -0.0820312 1.546875 -0.25 C 1.390625 -0.414062 1.3125 -0.628906 1.3125 -0.890625 L 1.3125 -8.796875 C 1.3125 -9.035156 1.394531 -9.238281 1.5625 -9.40625 C 1.726562 -9.582031 1.929688 -9.671875 2.171875 -9.671875 C 2.429688 -9.671875 2.644531 -9.582031 2.8125 -9.40625 C 2.976562 -9.238281 3.0625 -9.035156 3.0625 -8.796875 L 3.0625 -8.140625 C 3.382812 -8.640625 3.832031 -9.054688 4.40625 -9.390625 C 4.976562 -9.734375 5.59375 -9.90625 6.25 -9.90625 Z M 6.25 -9.90625 "/></g></g><g style="fill:#ffffff;fill-opacity:1;"><g transform="translate(177.861414, 110.57091)"><path style="stroke:none" d="M 3.9375 -7.953125 L 3.9375 -2.453125 C 3.9375 -1.835938 4.210938 -1.53125 4.765625 -1.53125 C 4.847656 -1.53125 4.960938 -1.550781 5.109375 -1.59375 C 5.265625 -1.632812 5.382812 -1.65625 5.46875 -1.65625 C 5.625 -1.65625 5.757812 -1.585938 5.875 -1.453125 C 5.988281 -1.316406 6.046875 -1.144531 6.046875 -0.9375 C 6.046875 -0.675781 5.894531 -0.453125 5.59375 -0.265625 C 5.300781 -0.0859375 4.96875 0 4.59375 0 C 4.1875 0 3.8125 -0.0390625 3.46875 -0.125 C 3.132812 -0.21875 2.832031 -0.4375 2.5625 -0.78125 C 2.300781 -1.132812 2.171875 -1.664062 2.171875 -2.375 L 2.171875 -7.953125 L 1.109375 -7.953125 C 0.867188 -7.953125 0.671875 -8.03125 0.515625 -8.1875 C 0.367188 -8.34375 0.296875 -8.535156 0.296875 -8.765625 C 0.296875 -9.003906 0.367188 -9.195312 0.515625 -9.34375 C 0.671875 -9.488281 0.867188 -9.5625 1.109375 -9.5625 L 2.171875 -9.5625 L 2.171875 -11.125 C 2.171875 -11.363281 2.253906 -11.566406 2.421875 -11.734375 C 2.585938 -11.910156 2.800781 -12 3.0625 -12 C 3.3125 -12 3.519531 -11.910156 3.6875 -11.734375 C 3.851562 -11.566406 3.9375 -11.363281 3.9375 -11.125 L 3.9375 -9.5625 L 5.46875 -9.5625 C 5.695312 -9.5625 5.890625 -9.484375 6.046875 -9.328125 C 6.203125 -9.179688 6.28125 -8.988281 6.28125 -8.75 C 6.28125 -8.519531 6.203125 -8.328125 6.046875 -8.171875 C 5.890625 -8.023438 5.695312 -7.953125 5.46875 -7.953125 Z M 3.9375 -7.953125 "/></g></g><g style="fill:#ffffff;fill-opacity:1;"><g transform="translate(196.922404, 110.57091)"><path style="stroke:none" d="M 8.515625 -9.671875 C 8.773438 -9.671875 8.988281 -9.582031 9.15625 -9.40625 C 9.320312 -9.238281 9.40625 -9.035156 9.40625 -8.796875 L 9.40625 -3.875 C 9.40625 -2.59375 9.050781 -1.597656 8.34375 -0.890625 C 7.632812 -0.179688 6.632812 0.171875 5.34375 0.171875 C 4.0625 0.171875 3.066406 -0.179688 2.359375 -0.890625 C 1.660156 -1.597656 1.3125 -2.59375 1.3125 -3.875 L 1.3125 -8.796875 C 1.3125 -9.035156 1.394531 -9.238281 1.5625 -9.40625 C 1.726562 -9.582031 1.929688 -9.671875 2.171875 -9.671875 C 2.429688 -9.671875 2.644531 -9.582031 2.8125 -9.40625 C 2.976562 -9.238281 3.0625 -9.035156 3.0625 -8.796875 L 3.0625 -3.875 C 3.0625 -2.257812 3.820312 -1.453125 5.34375 -1.453125 C 6.09375 -1.453125 6.660156 -1.65625 7.046875 -2.0625 C 7.441406 -2.46875 7.640625 -3.070312 7.640625 -3.875 L 7.640625 -8.796875 C 7.640625 -9.035156 7.722656 -9.238281 7.890625 -9.40625 C 8.054688 -9.582031 8.265625 -9.671875 8.515625 -9.671875 Z M 8.515625 -9.671875 "/></g></g><g style="fill:#ffffff;fill-opacity:1;"><g transform="translate(219.675933, 110.57091)"><path style="stroke:none" d="M 6.125 -9.90625 C 6.445312 -9.90625 6.722656 -9.820312 6.953125 -9.65625 C 7.191406 -9.488281 7.3125 -9.28125 7.3125 -9.03125 C 7.3125 -8.738281 7.234375 -8.515625 7.078125 -8.359375 C 6.929688 -8.203125 6.742188 -8.125 6.515625 -8.125 C 6.410156 -8.125 6.242188 -8.160156 6.015625 -8.234375 C 5.765625 -8.316406 5.5625 -8.359375 5.40625 -8.359375 C 5.03125 -8.359375 4.660156 -8.226562 4.296875 -7.96875 C 3.929688 -7.707031 3.632812 -7.34375 3.40625 -6.875 C 3.175781 -6.414062 3.0625 -5.90625 3.0625 -5.34375 L 3.0625 -0.890625 C 3.0625 -0.640625 2.976562 -0.425781 2.8125 -0.25 C 2.644531 -0.0820312 2.429688 0 2.171875 0 C 1.921875 0 1.710938 -0.0820312 1.546875 -0.25 C 1.390625 -0.414062 1.3125 -0.628906 1.3125 -0.890625 L 1.3125 -8.796875 C 1.3125 -9.035156 1.394531 -9.238281 1.5625 -9.40625 C 1.726562 -9.582031 1.929688 -9.671875 2.171875 -9.671875 C 2.429688 -9.671875 2.644531 -9.582031 2.8125 -9.40625 C 2.976562 -9.238281 3.0625 -9.035156 3.0625 -8.796875 L 3.0625 -7.84375 C 3.332031 -8.445312 3.738281 -8.9375 4.28125 -9.3125 C 4.820312 -9.6875 5.4375 -9.882812 6.125 -9.90625 Z M 6.125 -9.90625 "/></g></g><g style="fill:#ffffff;fill-opacity:1;"><g transform="translate(239.346193, 110.57091)"><path style="stroke:none" d="M 9.8125 -5.203125 C 9.789062 -4.984375 9.691406 -4.796875 9.515625 -4.640625 C 9.347656 -4.484375 9.148438 -4.40625 8.921875 -4.40625 L 2.421875 -4.40625 C 2.503906 -3.507812 2.84375 -2.789062 3.4375 -2.25 C 4.039062 -1.707031 4.773438 -1.4375 5.640625 -1.4375 C 6.222656 -1.4375 6.695312 -1.519531 7.0625 -1.6875 C 7.4375 -1.863281 7.765625 -2.085938 8.046875 -2.359375 C 8.234375 -2.472656 8.414062 -2.53125 8.59375 -2.53125 C 8.800781 -2.53125 8.972656 -2.457031 9.109375 -2.3125 C 9.253906 -2.164062 9.328125 -1.992188 9.328125 -1.796875 C 9.328125 -1.535156 9.203125 -1.300781 8.953125 -1.09375 C 8.597656 -0.726562 8.125 -0.421875 7.53125 -0.171875 C 6.945312 0.0664062 6.34375 0.1875 5.71875 0.1875 C 4.726562 0.1875 3.851562 -0.0195312 3.09375 -0.4375 C 2.332031 -0.863281 1.742188 -1.453125 1.328125 -2.203125 C 0.921875 -2.953125 0.71875 -3.800781 0.71875 -4.75 C 0.71875 -5.78125 0.929688 -6.6875 1.359375 -7.46875 C 1.785156 -8.25 2.34375 -8.847656 3.03125 -9.265625 C 3.726562 -9.691406 4.476562 -9.90625 5.28125 -9.90625 C 6.070312 -9.90625 6.8125 -9.703125 7.5 -9.296875 C 8.1875 -8.890625 8.738281 -8.328125 9.15625 -7.609375 C 9.570312 -6.890625 9.789062 -6.085938 9.8125 -5.203125 Z M 5.28125 -8.28125 C 4.59375 -8.28125 3.992188 -8.082031 3.484375 -7.6875 C 2.984375 -7.300781 2.65625 -6.703125 2.5 -5.890625 L 7.9375 -5.890625 L 7.9375 -6.046875 C 7.875 -6.691406 7.582031 -7.222656 7.0625 -7.640625 C 6.539062 -8.066406 5.945312 -8.28125 5.28125 -8.28125 Z M 5.28125 -8.28125 "/></g></g><g style="fill:#ffffff;fill-opacity:1;"><g transform="translate(261.915093, 110.57091)"><path style="stroke:none" d="M 0.75 -1.515625 C 0.644531 -1.679688 0.59375 -1.847656 0.59375 -2.015625 C 0.59375 -2.253906 0.722656 -2.460938 0.984375 -2.640625 C 1.097656 -2.722656 1.238281 -2.765625 1.40625 -2.765625 C 1.625 -2.765625 1.828125 -2.675781 2.015625 -2.5 C 2.378906 -2.070312 2.773438 -1.753906 3.203125 -1.546875 C 3.628906 -1.335938 4.140625 -1.234375 4.734375 -1.234375 C 5.203125 -1.242188 5.613281 -1.347656 5.96875 -1.546875 C 6.320312 -1.753906 6.5 -2.085938 6.5 -2.546875 C 6.5 -2.960938 6.316406 -3.28125 5.953125 -3.5 C 5.585938 -3.726562 5.054688 -3.9375 4.359375 -4.125 C 3.671875 -4.300781 3.097656 -4.488281 2.640625 -4.6875 C 2.179688 -4.894531 1.796875 -5.191406 1.484375 -5.578125 C 1.171875 -5.972656 1.015625 -6.484375 1.015625 -7.109375 C 1.015625 -7.660156 1.171875 -8.144531 1.484375 -8.5625 C 1.796875 -8.988281 2.210938 -9.316406 2.734375 -9.546875 C 3.265625 -9.785156 3.835938 -9.90625 4.453125 -9.90625 C 5.046875 -9.90625 5.632812 -9.789062 6.21875 -9.5625 C 6.800781 -9.34375 7.273438 -9.003906 7.640625 -8.546875 C 7.796875 -8.378906 7.875 -8.203125 7.875 -8.015625 C 7.875 -7.816406 7.773438 -7.625 7.578125 -7.4375 C 7.453125 -7.332031 7.296875 -7.28125 7.109375 -7.28125 C 6.890625 -7.28125 6.710938 -7.351562 6.578125 -7.5 C 6.316406 -7.789062 6 -8.015625 5.625 -8.171875 C 5.25 -8.335938 4.832031 -8.421875 4.375 -8.421875 C 3.90625 -8.421875 3.507812 -8.320312 3.1875 -8.125 C 2.863281 -7.9375 2.703125 -7.617188 2.703125 -7.171875 C 2.710938 -6.734375 2.894531 -6.410156 3.25 -6.203125 C 3.613281 -5.992188 4.175781 -5.789062 4.9375 -5.59375 C 5.582031 -5.425781 6.117188 -5.242188 6.546875 -5.046875 C 6.984375 -4.847656 7.347656 -4.550781 7.640625 -4.15625 C 7.941406 -3.769531 8.09375 -3.265625 8.09375 -2.640625 C 8.09375 -2.054688 7.925781 -1.550781 7.59375 -1.125 C 7.257812 -0.707031 6.820312 -0.382812 6.28125 -0.15625 C 5.75 0.0703125 5.179688 0.1875 4.578125 0.1875 C 3.804688 0.1875 3.085938 0.0507812 2.421875 -0.21875 C 1.765625 -0.488281 1.207031 -0.921875 0.75 -1.515625 Z M 0.75 -1.515625 "/></g></g><g style="fill:#ffffff;fill-opacity:1;"><g transform="translate(197.475325, 16.911584)"><path style="stroke:none" d="M 0.75 -1.515625 C 0.644531 -1.679688 0.59375 -1.847656 0.59375 -2.015625 C 0.59375 -2.253906 0.722656 -2.460938 0.984375 -2.640625 C 1.097656 -2.722656 1.238281 -2.765625 1.40625 -2.765625 C 1.625 -2.765625 1.828125 -2.675781 2.015625 -2.5 C 2.378906 -2.070312 2.773438 -1.753906 3.203125 -1.546875 C 3.628906 -1.335938 4.140625 -1.234375 4.734375 -1.234375 C 5.203125 -1.242188 5.613281 -1.347656 5.96875 -1.546875 C 6.320312 -1.753906 6.5 -2.085938 6.5 -2.546875 C 6.5 -2.960938 6.316406 -3.28125 5.953125 -3.5 C 5.585938 -3.726562 5.054688 -3.9375 4.359375 -4.125 C 3.671875 -4.300781 3.097656 -4.488281 2.640625 -4.6875 C 2.179688 -4.894531 1.796875 -5.191406 1.484375 -5.578125 C 1.171875 -5.972656 1.015625 -6.484375 1.015625 -7.109375 C 1.015625 -7.660156 1.171875 -8.144531 1.484375 -8.5625 C 1.796875 -8.988281 2.210938 -9.316406 2.734375 -9.546875 C 3.265625 -9.785156 3.835938 -9.90625 4.453125 -9.90625 C 5.046875 -9.90625 5.632812 -9.789062 6.21875 -9.5625 C 6.800781 -9.34375 7.273438 -9.003906 7.640625 -8.546875 C 7.796875 -8.378906 7.875 -8.203125 7.875 -8.015625 C 7.875 -7.816406 7.773438 -7.625 7.578125 -7.4375 C 7.453125 -7.332031 7.296875 -7.28125 7.109375 -7.28125 C 6.890625 -7.28125 6.710938 -7.351562 6.578125 -7.5 C 6.316406 -7.789062 6 -8.015625 5.625 -8.171875 C 5.25 -8.335938 4.832031 -8.421875 4.375 -8.421875 C 3.90625 -8.421875 3.507812 -8.320312 3.1875 -8.125 C 2.863281 -7.9375 2.703125 -7.617188 2.703125 -7.171875 C 2.710938 -6.734375 2.894531 -6.410156 3.25 -6.203125 C 3.613281 -5.992188 4.175781 -5.789062 4.9375 -5.59375 C 5.582031 -5.425781 6.117188 -5.242188 6.546875 -5.046875 C 6.984375 -4.847656 7.347656 -4.550781 7.640625 -4.15625 C 7.941406 -3.769531 8.09375 -3.265625 8.09375 -2.640625 C 8.09375 -2.054688 7.925781 -1.550781 7.59375 -1.125 C 7.257812 -0.707031 6.820312 -0.382812 6.28125 -0.15625 C 5.75 0.0703125 5.179688 0.1875 4.578125 0.1875 C 3.804688 0.1875 3.085938 0.0507812 2.421875 -0.21875 C 1.765625 -0.488281 1.207031 -0.921875 0.75 -1.515625 Z M 0.75 -1.515625 "/></g></g><g style="fill:#ffffff;fill-opacity:1;"><g transform="translate(207.390504, 16.911584)"><path style="stroke:none" d="M 2.96875 -0.890625 C 2.96875 -0.640625 2.882812 -0.425781 2.71875 -0.25 C 2.550781 -0.0820312 2.34375 0 2.09375 0 C 1.84375 0 1.632812 -0.0820312 1.46875 -0.25 C 1.300781 -0.425781 1.21875 -0.640625 1.21875 -0.890625 L 1.21875 -8.890625 C 1.21875 -9.128906 1.300781 -9.332031 1.46875 -9.5 C 1.632812 -9.675781 1.84375 -9.765625 2.09375 -9.765625 C 2.34375 -9.765625 2.550781 -9.675781 2.71875 -9.5 C 2.882812 -9.332031 2.96875 -9.128906 2.96875 -8.890625 Z M 2.078125 -10.984375 C 1.722656 -10.984375 1.46875 -11.046875 1.3125 -11.171875 C 1.15625 -11.304688 1.078125 -11.515625 1.078125 -11.796875 L 1.078125 -12.09375 C 1.078125 -12.394531 1.160156 -12.601562 1.328125 -12.71875 C 1.492188 -12.84375 1.75 -12.90625 2.09375 -12.90625 C 2.4375 -12.90625 2.6875 -12.835938 2.84375 -12.703125 C 3 -12.578125 3.078125 -12.375 3.078125 -12.09375 L 3.078125 -11.796875 C 3.078125 -11.503906 2.992188 -11.296875 2.828125 -11.171875 C 2.671875 -11.046875 2.421875 -10.984375 2.078125 -10.984375 Z M 2.078125 -10.984375 "/></g></g><g style="fill:#ffffff;fill-opacity:1;"><g transform="translate(212.689978, 16.911584)"><path style="stroke:none" d="M 6.25 -9.90625 C 8.457031 -9.90625 9.5625 -8.570312 9.5625 -5.90625 L 9.5625 -0.890625 C 9.5625 -0.640625 9.476562 -0.425781 9.3125 -0.25 C 9.144531 -0.0820312 8.9375 0 8.6875 0 C 8.4375 0 8.226562 -0.0820312 8.0625 -0.25 C 7.894531 -0.425781 7.8125 -0.640625 7.8125 -0.890625 L 7.8125 -5.890625 C 7.8125 -6.617188 7.644531 -7.195312 7.3125 -7.625 C 6.976562 -8.0625 6.4375 -8.28125 5.6875 -8.28125 C 5.195312 -8.28125 4.75 -8.171875 4.34375 -7.953125 C 3.945312 -7.734375 3.632812 -7.441406 3.40625 -7.078125 C 3.175781 -6.710938 3.0625 -6.316406 3.0625 -5.890625 L 3.0625 -0.890625 C 3.0625 -0.640625 2.976562 -0.425781 2.8125 -0.25 C 2.644531 -0.0820312 2.429688 0 2.171875 0 C 1.921875 0 1.710938 -0.0820312 1.546875 -0.25 C 1.390625 -0.414062 1.3125 -0.628906 1.3125 -0.890625 L 1.3125 -8.796875 C 1.3125 -9.035156 1.394531 -9.238281 1.5625 -9.40625 C 1.726562 -9.582031 1.929688 -9.671875 2.171875 -9.671875 C 2.429688 -9.671875 2.644531 -9.582031 2.8125 -9.40625 C 2.976562 -9.238281 3.0625 -9.035156 3.0625 -8.796875 L 3.0625 -8.140625 C 3.382812 -8.640625 3.832031 -9.054688 4.40625 -9.390625 C 4.976562 -9.734375 5.59375 -9.90625 6.25 -9.90625 Z M 6.25 -9.90625 "/></g></g><g style="fill:#ffffff;fill-opacity:1;"><g transform="translate(224.672976, 16.911584)"><path style="stroke:none" d="M 5.515625 -9.90625 C 6.492188 -9.90625 7.304688 -9.75 7.953125 -9.4375 C 8.597656 -9.125 8.921875 -8.726562 8.921875 -8.25 C 8.921875 -8.039062 8.851562 -7.851562 8.71875 -7.6875 C 8.582031 -7.519531 8.410156 -7.4375 8.203125 -7.4375 C 8.035156 -7.4375 7.90625 -7.460938 7.8125 -7.515625 C 7.726562 -7.566406 7.601562 -7.644531 7.4375 -7.75 C 7.363281 -7.832031 7.25 -7.921875 7.09375 -8.015625 C 6.945312 -8.085938 6.738281 -8.148438 6.46875 -8.203125 C 6.195312 -8.253906 5.945312 -8.28125 5.71875 -8.28125 C 5.082031 -8.28125 4.515625 -8.128906 4.015625 -7.828125 C 3.523438 -7.535156 3.144531 -7.125 2.875 -6.59375 C 2.601562 -6.070312 2.46875 -5.492188 2.46875 -4.859375 C 2.46875 -4.203125 2.597656 -3.613281 2.859375 -3.09375 C 3.128906 -2.582031 3.503906 -2.175781 3.984375 -1.875 C 4.460938 -1.582031 5.015625 -1.4375 5.640625 -1.4375 C 6.273438 -1.4375 6.789062 -1.535156 7.1875 -1.734375 C 7.269531 -1.785156 7.382812 -1.863281 7.53125 -1.96875 C 7.65625 -2.070312 7.765625 -2.144531 7.859375 -2.1875 C 7.953125 -2.238281 8.066406 -2.265625 8.203125 -2.265625 C 8.441406 -2.265625 8.632812 -2.1875 8.78125 -2.03125 C 8.925781 -1.882812 9 -1.6875 9 -1.4375 C 9 -1.175781 8.832031 -0.921875 8.5 -0.671875 C 8.175781 -0.421875 7.738281 -0.210938 7.1875 -0.046875 C 6.644531 0.109375 6.0625 0.1875 5.4375 0.1875 C 4.5 0.1875 3.671875 -0.03125 2.953125 -0.46875 C 2.242188 -0.90625 1.691406 -1.507812 1.296875 -2.28125 C 0.910156 -3.050781 0.71875 -3.910156 0.71875 -4.859375 C 0.71875 -5.804688 0.921875 -6.664062 1.328125 -7.4375 C 1.734375 -8.207031 2.300781 -8.8125 3.03125 -9.25 C 3.757812 -9.6875 4.585938 -9.90625 5.515625 -9.90625 Z M 5.515625 -9.90625 "/></g></g><g style="fill:#ffffff;fill-opacity:1;"><g transform="translate(235.271268, 16.911584)"><path style="stroke:none" d="M 9.8125 -5.203125 C 9.789062 -4.984375 9.691406 -4.796875 9.515625 -4.640625 C 9.347656 -4.484375 9.148438 -4.40625 8.921875 -4.40625 L 2.421875 -4.40625 C 2.503906 -3.507812 2.84375 -2.789062 3.4375 -2.25 C 4.039062 -1.707031 4.773438 -1.4375 5.640625 -1.4375 C 6.222656 -1.4375 6.695312 -1.519531 7.0625 -1.6875 C 7.4375 -1.863281 7.765625 -2.085938 8.046875 -2.359375 C 8.234375 -2.472656 8.414062 -2.53125 8.59375 -2.53125 C 8.800781 -2.53125 8.972656 -2.457031 9.109375 -2.3125 C 9.253906 -2.164062 9.328125 -1.992188 9.328125 -1.796875 C 9.328125 -1.535156 9.203125 -1.300781 8.953125 -1.09375 C 8.597656 -0.726562 8.125 -0.421875 7.53125 -0.171875 C 6.945312 0.0664062 6.34375 0.1875 5.71875 0.1875 C 4.726562 0.1875 3.851562 -0.0195312 3.09375 -0.4375 C 2.332031 -0.863281 1.742188 -1.453125 1.328125 -2.203125 C 0.921875 -2.953125 0.71875 -3.800781 0.71875 -4.75 C 0.71875 -5.78125 0.929688 -6.6875 1.359375 -7.46875 C 1.785156 -8.25 2.34375 -8.847656 3.03125 -9.265625 C 3.726562 -9.691406 4.476562 -9.90625 5.28125 -9.90625 C 6.070312 -9.90625 6.8125 -9.703125 7.5 -9.296875 C 8.1875 -8.890625 8.738281 -8.328125 9.15625 -7.609375 C 9.570312 -6.890625 9.789062 -6.085938 9.8125 -5.203125 Z M 5.28125 -8.28125 C 4.59375 -8.28125 3.992188 -8.082031 3.484375 -7.6875 C 2.984375 -7.300781 2.65625 -6.703125 2.5 -5.890625 L 7.9375 -5.890625 L 7.9375 -6.046875 C 7.875 -6.691406 7.582031 -7.222656 7.0625 -7.640625 C 6.539062 -8.066406 5.945312 -8.28125 5.28125 -8.28125 Z M 5.28125 -8.28125 "/></g></g><g style="fill:#ffffff;fill-opacity:1;"><g transform="translate(198.294495, 34.387198)"><path style="stroke:none" d="M 8.640625 -1.625 C 8.878906 -1.625 9.078125 -1.539062 9.234375 -1.375 C 9.390625 -1.21875 9.46875 -1.023438 9.46875 -0.796875 C 9.46875 -0.554688 9.390625 -0.363281 9.234375 -0.21875 C 9.078125 -0.0703125 8.878906 0 8.640625 0 L 2.09375 0 C 1.84375 0 1.632812 -0.078125 1.46875 -0.234375 C 1.3125 -0.390625 1.234375 -0.59375 1.234375 -0.84375 C 1.234375 -1.070312 1.320312 -1.285156 1.5 -1.484375 L 5.609375 -5.953125 C 6.753906 -7.171875 7.328125 -8.242188 7.328125 -9.171875 C 7.328125 -9.835938 7.109375 -10.390625 6.671875 -10.828125 C 6.234375 -11.265625 5.675781 -11.484375 5 -11.484375 C 4.550781 -11.484375 4.113281 -11.351562 3.6875 -11.09375 C 3.269531 -10.84375 2.929688 -10.472656 2.671875 -9.984375 C 2.472656 -9.734375 2.238281 -9.609375 1.96875 -9.609375 C 1.757812 -9.609375 1.5625 -9.6875 1.375 -9.84375 C 1.195312 -10 1.109375 -10.179688 1.109375 -10.390625 C 1.109375 -10.523438 1.15625 -10.664062 1.25 -10.8125 C 1.34375 -10.96875 1.472656 -11.144531 1.640625 -11.34375 C 2.046875 -11.882812 2.5625 -12.3125 3.1875 -12.625 C 3.820312 -12.945312 4.457031 -13.109375 5.09375 -13.109375 C 5.914062 -13.109375 6.628906 -12.941406 7.234375 -12.609375 C 7.835938 -12.273438 8.300781 -11.816406 8.625 -11.234375 C 8.957031 -10.660156 9.125 -10 9.125 -9.25 C 9.125 -7.832031 8.359375 -6.304688 6.828125 -4.671875 L 4.046875 -1.625 Z M 8.640625 -1.625 "/></g></g><g style="fill:#ffffff;fill-opacity:1;"><g transform="translate(209.538977, 34.387198)"><path style="stroke:none" d="M 5.59375 0.1875 C 4.582031 0.1875 3.71875 -0.09375 3 -0.65625 C 2.289062 -1.226562 1.753906 -2.007812 1.390625 -3 C 1.023438 -4 0.84375 -5.15625 0.84375 -6.46875 C 0.84375 -7.769531 1.023438 -8.914062 1.390625 -9.90625 C 1.753906 -10.90625 2.289062 -11.6875 3 -12.25 C 3.71875 -12.820312 4.582031 -13.109375 5.59375 -13.109375 C 6.601562 -13.109375 7.460938 -12.820312 8.171875 -12.25 C 8.890625 -11.6875 9.429688 -10.90625 9.796875 -9.90625 C 10.160156 -8.914062 10.34375 -7.769531 10.34375 -6.46875 C 10.34375 -5.15625 10.160156 -4 9.796875 -3 C 9.429688 -2.007812 8.890625 -1.226562 8.171875 -0.65625 C 7.460938 -0.09375 6.601562 0.1875 5.59375 0.1875 Z M 5.59375 -1.59375 C 6.488281 -1.59375 7.1875 -2.015625 7.6875 -2.859375 C 8.1875 -3.710938 8.4375 -4.914062 8.4375 -6.46875 C 8.4375 -8.019531 8.1875 -9.21875 7.6875 -10.0625 C 7.1875 -10.914062 6.488281 -11.34375 5.59375 -11.34375 C 4.695312 -11.34375 4 -10.914062 3.5 -10.0625 C 3 -9.21875 2.75 -8.019531 2.75 -6.46875 C 2.75 -4.914062 3 -3.710938 3.5 -2.859375 C 4 -2.015625 4.695312 -1.59375 5.59375 -1.59375 Z M 5.59375 -1.59375 "/></g></g><g style="fill:#ffffff;fill-opacity:1;"><g transform="translate(221.835851, 34.387198)"><path style="stroke:none" d="M 8.640625 -1.625 C 8.878906 -1.625 9.078125 -1.539062 9.234375 -1.375 C 9.390625 -1.21875 9.46875 -1.023438 9.46875 -0.796875 C 9.46875 -0.554688 9.390625 -0.363281 9.234375 -0.21875 C 9.078125 -0.0703125 8.878906 0 8.640625 0 L 2.09375 0 C 1.84375 0 1.632812 -0.078125 1.46875 -0.234375 C 1.3125 -0.390625 1.234375 -0.59375 1.234375 -0.84375 C 1.234375 -1.070312 1.320312 -1.285156 1.5 -1.484375 L 5.609375 -5.953125 C 6.753906 -7.171875 7.328125 -8.242188 7.328125 -9.171875 C 7.328125 -9.835938 7.109375 -10.390625 6.671875 -10.828125 C 6.234375 -11.265625 5.675781 -11.484375 5 -11.484375 C 4.550781 -11.484375 4.113281 -11.351562 3.6875 -11.09375 C 3.269531 -10.84375 2.929688 -10.472656 2.671875 -9.984375 C 2.472656 -9.734375 2.238281 -9.609375 1.96875 -9.609375 C 1.757812 -9.609375 1.5625 -9.6875 1.375 -9.84375 C 1.195312 -10 1.109375 -10.179688 1.109375 -10.390625 C 1.109375 -10.523438 1.15625 -10.664062 1.25 -10.8125 C 1.34375 -10.96875 1.472656 -11.144531 1.640625 -11.34375 C 2.046875 -11.882812 2.5625 -12.3125 3.1875 -12.625 C 3.820312 -12.945312 4.457031 -13.109375 5.09375 -13.109375 C 5.914062 -13.109375 6.628906 -12.941406 7.234375 -12.609375 C 7.835938 -12.273438 8.300781 -11.816406 8.625 -11.234375 C 8.957031 -10.660156 9.125 -10 9.125 -9.25 C 9.125 -7.832031 8.359375 -6.304688 6.828125 -4.671875 L 4.046875 -1.625 Z M 8.640625 -1.625 "/></g></g><g style="fill:#ffffff;fill-opacity:1;"><g transform="translate(233.080334, 34.387198)"><path style="stroke:none" d="M 9.90625 -5.3125 C 10.132812 -5.3125 10.328125 -5.234375 10.484375 -5.078125 C 10.648438 -4.929688 10.734375 -4.738281 10.734375 -4.5 C 10.734375 -4.269531 10.648438 -4.082031 10.484375 -3.9375 C 10.328125 -3.789062 10.132812 -3.71875 9.90625 -3.71875 L 8.921875 -3.71875 L 8.921875 -0.890625 C 8.921875 -0.640625 8.832031 -0.425781 8.65625 -0.25 C 8.488281 -0.0820312 8.28125 0 8.03125 0 C 7.789062 0 7.585938 -0.0820312 7.421875 -0.25 C 7.253906 -0.425781 7.171875 -0.640625 7.171875 -0.890625 L 7.171875 -3.71875 L 2.109375 -3.71875 C 1.878906 -3.71875 1.675781 -3.800781 1.5 -3.96875 C 1.320312 -4.144531 1.234375 -4.347656 1.234375 -4.578125 C 1.234375 -4.796875 1.300781 -4.992188 1.4375 -5.171875 L 7.328125 -12.578125 C 7.421875 -12.691406 7.53125 -12.773438 7.65625 -12.828125 C 7.78125 -12.890625 7.910156 -12.921875 8.046875 -12.921875 C 8.296875 -12.921875 8.503906 -12.832031 8.671875 -12.65625 C 8.835938 -12.488281 8.921875 -12.285156 8.921875 -12.046875 L 8.921875 -5.3125 Z M 3.5625 -5.3125 L 7.171875 -5.3125 L 7.171875 -9.9375 Z M 3.5625 -5.3125 "/></g></g></g></svg>