<svg xmlns="http://www.w3.org/2000/svg" xmlns:xlink="http://www.w3.org/1999/xlink" width="412" zoomAndPan="magnify" viewBox="0 0 309 124.499996" height="166" preserveAspectRatio="xMidYMid meet" version="1.0"><defs><g/><clipPath id="3ea784f859"><path d="M 0.617188 0 L 308.382812 0 L 308.382812 124.003906 L 0.617188 124.003906 Z M 0.617188 0 " clip-rule="nonzero"/></clipPath><clipPath id="2bdf5ba694"><path d="M 24.277344 84.816406 L 39.082031 84.816406 L 39.082031 99.621094 L 24.277344 99.621094 Z M 24.277344 84.816406 " clip-rule="nonzero"/></clipPath><clipPath id="16ec681428"><path d="M 39.085938 92.214844 C 39.085938 93.542969 38.753906 94.777344 38.09375 95.921875 C 37.429688 97.0625 36.527344 97.964844 35.382812 98.628906 C 34.238281 99.285156 33.003906 99.617188 31.675781 99.617188 C 30.351562 99.617188 29.125 99.289062 27.984375 98.628906 C 26.839844 97.96875 25.933594 97.066406 25.273438 95.921875 C 24.609375 94.777344 24.277344 93.542969 24.277344 92.214844 C 24.277344 90.890625 24.609375 89.664062 25.269531 88.515625 C 25.933594 87.367188 26.835938 86.464844 27.980469 85.804688 C 29.125 85.144531 30.359375 84.816406 31.675781 84.816406 C 32.996094 84.816406 34.238281 85.144531 35.382812 85.804688 C 36.527344 86.464844 37.429688 87.367188 38.09375 88.515625 C 38.753906 89.664062 39.085938 90.894531 39.085938 92.214844 Z M 37.652344 92.214844 C 37.652344 90.566406 37.066406 89.160156 35.902344 87.992188 C 34.734375 86.824219 33.324219 86.242188 31.675781 86.242188 C 30.027344 86.242188 28.621094 86.824219 27.449219 87.992188 C 26.28125 89.15625 25.699219 90.566406 25.699219 92.214844 C 25.699219 93.863281 26.285156 95.273438 27.449219 96.441406 C 28.617188 97.609375 30.027344 98.191406 31.675781 98.191406 C 33.324219 98.191406 34.734375 97.605469 35.902344 96.441406 C 37.070312 95.273438 37.652344 93.863281 37.652344 92.214844 Z M 33.402344 93.128906 L 35.398438 93.601562 C 35.152344 94.386719 34.8125 94.984375 34.378906 95.40625 C 33.699219 96.0625 32.816406 96.386719 31.722656 96.386719 C 30.53125 96.386719 29.5625 96.003906 28.8125 95.238281 C 28.0625 94.472656 27.6875 93.457031 27.6875 92.199219 C 27.6875 91 28.070312 90.011719 28.84375 89.234375 C 29.609375 88.457031 30.574219 88.066406 31.730469 88.066406 C 32.667969 88.066406 33.457031 88.316406 34.097656 88.8125 C 34.738281 89.3125 35.140625 89.953125 35.3125 90.742188 L 33.398438 91.03125 C 33.285156 90.507812 33.070312 90.121094 32.765625 89.863281 C 32.457031 89.609375 32.082031 89.480469 31.644531 89.480469 C 31.140625 89.480469 30.71875 89.695312 30.375 90.128906 C 30.03125 90.558594 29.859375 91.230469 29.859375 92.148438 C 29.859375 93.066406 29.976562 93.730469 30.210938 94.128906 C 30.554688 94.695312 31.039062 94.980469 31.664062 94.980469 C 32.058594 94.980469 32.414062 94.835938 32.726562 94.542969 C 33.039062 94.253906 33.265625 93.78125 33.398438 93.128906 Z M 33.402344 93.128906 " clip-rule="nonzero"/></clipPath><linearGradient x1="39.560001" gradientTransform="matrix(0.18718, 0, 0, 0.18718, 24.276595, 84.814969)" y1="79.079973" x2="39.560001" gradientUnits="userSpaceOnUse" y2="-0.0000252653" id="0f27b27774"><stop stop-opacity="1" stop-color="rgb(0%, 36.898804%, 100%)" offset="0"/><stop stop-opacity="1" stop-color="rgb(0%, 37.113953%, 100%)" offset="0.00390625"/><stop stop-opacity="1" stop-color="rgb(0%, 37.329102%, 100%)" offset="0.0078125"/><stop stop-opacity="1" stop-color="rgb(0%, 37.547302%, 100%)" offset="0.0117188"/><stop stop-opacity="1" stop-color="rgb(0%, 37.767029%, 100%)" offset="0.015625"/><stop stop-opacity="1" stop-color="rgb(0%, 37.985229%, 100%)" offset="0.0195313"/><stop stop-opacity="1" stop-color="rgb(0%, 38.204956%, 100%)" offset="0.0234375"/><stop stop-opacity="1" stop-color="rgb(0%, 38.423157%, 100%)" offset="0.0273438"/><stop stop-opacity="1" stop-color="rgb(0%, 38.642883%, 100%)" offset="0.03125"/><stop stop-opacity="1" stop-color="rgb(0%, 38.861084%, 100%)" offset="0.0351562"/><stop stop-opacity="1" stop-color="rgb(0%, 39.079285%, 100%)" offset="0.0390625"/><stop stop-opacity="1" stop-color="rgb(0%, 39.297485%, 100%)" offset="0.0429688"/><stop stop-opacity="1" stop-color="rgb(0%, 39.517212%, 100%)" offset="0.046875"/><stop stop-opacity="1" stop-color="rgb(0%, 39.735413%, 100%)" offset="0.0507813"/><stop stop-opacity="1" stop-color="rgb(0%, 39.955139%, 100%)" offset="0.0546875"/><stop stop-opacity="1" stop-color="rgb(0%, 40.17334%, 100%)" offset="0.0585938"/><stop stop-opacity="1" stop-color="rgb(0%, 40.393066%, 100%)" offset="0.0625"/><stop stop-opacity="1" stop-color="rgb(0%, 40.611267%, 100%)" offset="0.0664063"/><stop stop-opacity="1" stop-color="rgb(0%, 40.829468%, 100%)" offset="0.0703125"/><stop stop-opacity="1" stop-color="rgb(0%, 41.047668%, 100%)" offset="0.0742188"/><stop stop-opacity="1" stop-color="rgb(0%, 41.267395%, 100%)" offset="0.078125"/><stop stop-opacity="1" stop-color="rgb(0%, 41.485596%, 100%)" offset="0.0820313"/><stop stop-opacity="1" stop-color="rgb(0%, 41.705322%, 100%)" offset="0.0859375"/><stop stop-opacity="1" stop-color="rgb(0%, 41.923523%, 100%)" offset="0.0898438"/><stop stop-opacity="1" stop-color="rgb(0%, 42.14325%, 100%)" offset="0.09375"/><stop stop-opacity="1" stop-color="rgb(0%, 42.36145%, 100%)" offset="0.0976563"/><stop stop-opacity="1" stop-color="rgb(0%, 42.579651%, 100%)" offset="0.101562"/><stop stop-opacity="1" stop-color="rgb(0%, 42.797852%, 100%)" offset="0.105469"/><stop stop-opacity="1" stop-color="rgb(0%, 43.017578%, 100%)" offset="0.109375"/><stop stop-opacity="1" stop-color="rgb(0%, 43.235779%, 100%)" offset="0.113281"/><stop stop-opacity="1" stop-color="rgb(0%, 43.455505%, 100%)" offset="0.117188"/><stop stop-opacity="1" stop-color="rgb(0%, 43.673706%, 100%)" offset="0.121094"/><stop stop-opacity="1" stop-color="rgb(0%, 43.893433%, 100%)" offset="0.125"/><stop stop-opacity="1" stop-color="rgb(0%, 44.111633%, 100%)" offset="0.128906"/><stop stop-opacity="1" stop-color="rgb(0%, 44.33136%, 100%)" offset="0.132812"/><stop stop-opacity="1" stop-color="rgb(0%, 44.549561%, 100%)" offset="0.136719"/><stop stop-opacity="1" stop-color="rgb(0%, 44.767761%, 100%)" offset="0.140625"/><stop stop-opacity="1" stop-color="rgb(0%, 44.985962%, 100%)" offset="0.144531"/><stop stop-opacity="1" stop-color="rgb(0%, 45.205688%, 100%)" offset="0.148438"/><stop stop-opacity="1" stop-color="rgb(0%, 45.423889%, 100%)" offset="0.152344"/><stop stop-opacity="1" stop-color="rgb(0%, 45.643616%, 100%)" offset="0.15625"/><stop stop-opacity="1" stop-color="rgb(0%, 45.861816%, 100%)" offset="0.160156"/><stop stop-opacity="1" stop-color="rgb(0%, 46.081543%, 100%)" offset="0.164062"/><stop stop-opacity="1" stop-color="rgb(0%, 46.299744%, 100%)" offset="0.167969"/><stop stop-opacity="1" stop-color="rgb(0%, 46.517944%, 100%)" offset="0.171875"/><stop stop-opacity="1" stop-color="rgb(0%, 46.736145%, 100%)" offset="0.175781"/><stop stop-opacity="1" stop-color="rgb(0%, 46.955872%, 100%)" offset="0.179688"/><stop stop-opacity="1" stop-color="rgb(0%, 47.174072%, 100%)" offset="0.183594"/><stop stop-opacity="1" stop-color="rgb(0%, 47.393799%, 100%)" offset="0.1875"/><stop stop-opacity="1" stop-color="rgb(0%, 47.612%, 100%)" offset="0.191406"/><stop stop-opacity="1" stop-color="rgb(0%, 47.831726%, 100%)" offset="0.195312"/><stop stop-opacity="1" stop-color="rgb(0%, 48.049927%, 100%)" offset="0.199219"/><stop stop-opacity="1" stop-color="rgb(0%, 48.268127%, 100%)" offset="0.203125"/><stop stop-opacity="1" stop-color="rgb(0%, 48.486328%, 100%)" offset="0.207031"/><stop stop-opacity="1" stop-color="rgb(0%, 48.706055%, 100%)" offset="0.210938"/><stop stop-opacity="1" stop-color="rgb(0%, 48.924255%, 100%)" offset="0.214844"/><stop stop-opacity="1" stop-color="rgb(0%, 49.143982%, 100%)" offset="0.21875"/><stop stop-opacity="1" stop-color="rgb(0%, 49.362183%, 100%)" offset="0.222656"/><stop stop-opacity="1" stop-color="rgb(0%, 49.581909%, 100%)" offset="0.226562"/><stop stop-opacity="1" stop-color="rgb(0%, 49.80011%, 100%)" offset="0.230469"/><stop stop-opacity="1" stop-color="rgb(0%, 50.018311%, 100%)" offset="0.234375"/><stop stop-opacity="1" stop-color="rgb(0%, 50.236511%, 100%)" offset="0.238281"/><stop stop-opacity="1" stop-color="rgb(0%, 50.456238%, 100%)" offset="0.242188"/><stop stop-opacity="1" stop-color="rgb(0%, 50.674438%, 100%)" offset="0.246094"/><stop stop-opacity="1" stop-color="rgb(0%, 50.894165%, 100%)" offset="0.25"/><stop stop-opacity="1" stop-color="rgb(0%, 51.112366%, 100%)" offset="0.253906"/><stop stop-opacity="1" stop-color="rgb(0%, 51.332092%, 100%)" offset="0.257812"/><stop stop-opacity="1" stop-color="rgb(0%, 51.550293%, 100%)" offset="0.261719"/><stop stop-opacity="1" stop-color="rgb(0%, 51.768494%, 100%)" offset="0.265625"/><stop stop-opacity="1" stop-color="rgb(0%, 51.986694%, 100%)" offset="0.269531"/><stop stop-opacity="1" stop-color="rgb(0%, 52.206421%, 100%)" offset="0.273438"/><stop stop-opacity="1" stop-color="rgb(0%, 52.424622%, 100%)" offset="0.277344"/><stop stop-opacity="1" stop-color="rgb(0%, 52.644348%, 100%)" offset="0.28125"/><stop stop-opacity="1" stop-color="rgb(0%, 52.862549%, 100%)" offset="0.285156"/><stop stop-opacity="1" stop-color="rgb(0%, 53.082275%, 100%)" offset="0.289063"/><stop stop-opacity="1" stop-color="rgb(0%, 53.300476%, 100%)" offset="0.292969"/><stop stop-opacity="1" stop-color="rgb(0%, 53.518677%, 100%)" offset="0.296875"/><stop stop-opacity="1" stop-color="rgb(0%, 53.736877%, 100%)" offset="0.300781"/><stop stop-opacity="1" stop-color="rgb(0%, 53.956604%, 100%)" offset="0.304688"/><stop stop-opacity="1" stop-color="rgb(0%, 54.174805%, 100%)" offset="0.308594"/><stop stop-opacity="1" stop-color="rgb(0%, 54.394531%, 100%)" offset="0.3125"/><stop stop-opacity="1" stop-color="rgb(0%, 54.612732%, 100%)" offset="0.316406"/><stop stop-opacity="1" stop-color="rgb(0%, 54.832458%, 100%)" offset="0.320312"/><stop stop-opacity="1" stop-color="rgb(0%, 55.050659%, 100%)" offset="0.324219"/><stop stop-opacity="1" stop-color="rgb(0%, 55.26886%, 100%)" offset="0.328125"/><stop stop-opacity="1" stop-color="rgb(0%, 55.487061%, 100%)" offset="0.332031"/><stop stop-opacity="1" stop-color="rgb(0%, 55.706787%, 100%)" offset="0.335938"/><stop stop-opacity="1" stop-color="rgb(0%, 55.924988%, 100%)" offset="0.339844"/><stop stop-opacity="1" stop-color="rgb(0%, 56.144714%, 100%)" offset="0.34375"/><stop stop-opacity="1" stop-color="rgb(0%, 56.362915%, 100%)" offset="0.347656"/><stop stop-opacity="1" stop-color="rgb(0%, 56.582642%, 100%)" offset="0.351563"/><stop stop-opacity="1" stop-color="rgb(0%, 56.800842%, 100%)" offset="0.355469"/><stop stop-opacity="1" stop-color="rgb(0%, 57.019043%, 100%)" offset="0.359375"/><stop stop-opacity="1" stop-color="rgb(0%, 57.237244%, 100%)" offset="0.363281"/><stop stop-opacity="1" stop-color="rgb(0%, 57.45697%, 100%)" offset="0.367188"/><stop stop-opacity="1" stop-color="rgb(0%, 57.675171%, 100%)" offset="0.371094"/><stop stop-opacity="1" stop-color="rgb(0%, 57.894897%, 100%)" offset="0.375"/><stop stop-opacity="1" stop-color="rgb(0%, 58.113098%, 100%)" offset="0.378906"/><stop stop-opacity="1" stop-color="rgb(0%, 58.332825%, 100%)" offset="0.382813"/><stop stop-opacity="1" stop-color="rgb(0%, 58.551025%, 100%)" offset="0.386719"/><stop stop-opacity="1" stop-color="rgb(0%, 58.769226%, 100%)" offset="0.390625"/><stop stop-opacity="1" stop-color="rgb(0%, 58.987427%, 100%)" offset="0.394531"/><stop stop-opacity="1" stop-color="rgb(0%, 59.207153%, 100%)" offset="0.398438"/><stop stop-opacity="1" stop-color="rgb(0%, 59.425354%, 100%)" offset="0.402344"/><stop stop-opacity="1" stop-color="rgb(0%, 59.645081%, 100%)" offset="0.40625"/><stop stop-opacity="1" stop-color="rgb(0%, 59.863281%, 100%)" offset="0.410156"/><stop stop-opacity="1" stop-color="rgb(0%, 60.083008%, 100%)" offset="0.414063"/><stop stop-opacity="1" stop-color="rgb(0%, 60.301208%, 100%)" offset="0.417969"/><stop stop-opacity="1" stop-color="rgb(0%, 60.519409%, 100%)" offset="0.421875"/><stop stop-opacity="1" stop-color="rgb(0%, 60.73761%, 100%)" offset="0.425781"/><stop stop-opacity="1" stop-color="rgb(0%, 60.957336%, 100%)" offset="0.429688"/><stop stop-opacity="1" stop-color="rgb(0%, 61.175537%, 100%)" offset="0.433594"/><stop stop-opacity="1" stop-color="rgb(0%, 61.395264%, 100%)" offset="0.4375"/><stop stop-opacity="1" stop-color="rgb(0%, 61.613464%, 100%)" offset="0.441406"/><stop stop-opacity="1" stop-color="rgb(0%, 61.833191%, 100%)" offset="0.445312"/><stop stop-opacity="1" stop-color="rgb(0%, 62.051392%, 100%)" offset="0.449219"/><stop stop-opacity="1" stop-color="rgb(0%, 62.271118%, 100%)" offset="0.453125"/><stop stop-opacity="1" stop-color="rgb(0%, 62.489319%, 100%)" offset="0.457031"/><stop stop-opacity="1" stop-color="rgb(0%, 62.70752%, 100%)" offset="0.460938"/><stop stop-opacity="1" stop-color="rgb(0%, 62.92572%, 100%)" offset="0.464844"/><stop stop-opacity="1" stop-color="rgb(0%, 63.145447%, 100%)" offset="0.46875"/><stop stop-opacity="1" stop-color="rgb(0%, 63.363647%, 100%)" offset="0.472656"/><stop stop-opacity="1" stop-color="rgb(0%, 63.583374%, 100%)" offset="0.476563"/><stop stop-opacity="1" stop-color="rgb(0%, 63.801575%, 100%)" offset="0.480469"/><stop stop-opacity="1" stop-color="rgb(0%, 64.021301%, 100%)" offset="0.484375"/><stop stop-opacity="1" stop-color="rgb(0%, 64.239502%, 100%)" offset="0.488281"/><stop stop-opacity="1" stop-color="rgb(0%, 64.457703%, 100%)" offset="0.492188"/><stop stop-opacity="1" stop-color="rgb(0%, 64.675903%, 100%)" offset="0.496094"/><stop stop-opacity="1" stop-color="rgb(0%, 64.89563%, 100%)" offset="0.5"/><stop stop-opacity="1" stop-color="rgb(0%, 65.113831%, 100%)" offset="0.503906"/><stop stop-opacity="1" stop-color="rgb(0%, 65.333557%, 100%)" offset="0.507812"/><stop stop-opacity="1" stop-color="rgb(0%, 65.551758%, 100%)" offset="0.511719"/><stop stop-opacity="1" stop-color="rgb(0%, 65.771484%, 100%)" offset="0.515625"/><stop stop-opacity="1" stop-color="rgb(0%, 65.989685%, 100%)" offset="0.519531"/><stop stop-opacity="1" stop-color="rgb(0%, 66.207886%, 100%)" offset="0.523438"/><stop stop-opacity="1" stop-color="rgb(0%, 66.426086%, 100%)" offset="0.527344"/><stop stop-opacity="1" stop-color="rgb(0%, 66.645813%, 100%)" offset="0.53125"/><stop stop-opacity="1" stop-color="rgb(0%, 66.864014%, 100%)" offset="0.535156"/><stop stop-opacity="1" stop-color="rgb(0%, 67.08374%, 100%)" offset="0.539062"/><stop stop-opacity="1" stop-color="rgb(0%, 67.301941%, 100%)" offset="0.542969"/><stop stop-opacity="1" stop-color="rgb(0%, 67.521667%, 100%)" offset="0.546875"/><stop stop-opacity="1" stop-color="rgb(0%, 67.739868%, 100%)" offset="0.550781"/><stop stop-opacity="1" stop-color="rgb(0%, 67.958069%, 100%)" offset="0.554687"/><stop stop-opacity="1" stop-color="rgb(0%, 68.17627%, 100%)" offset="0.558594"/><stop stop-opacity="1" stop-color="rgb(0%, 68.395996%, 100%)" offset="0.5625"/><stop stop-opacity="1" stop-color="rgb(0%, 68.614197%, 100%)" offset="0.566406"/><stop stop-opacity="1" stop-color="rgb(0%, 68.833923%, 100%)" offset="0.570312"/><stop stop-opacity="1" stop-color="rgb(0%, 69.052124%, 100%)" offset="0.574219"/><stop stop-opacity="1" stop-color="rgb(0%, 69.271851%, 100%)" offset="0.578125"/><stop stop-opacity="1" stop-color="rgb(0%, 69.490051%, 100%)" offset="0.582031"/><stop stop-opacity="1" stop-color="rgb(0%, 69.708252%, 100%)" offset="0.585938"/><stop stop-opacity="1" stop-color="rgb(0%, 69.926453%, 100%)" offset="0.589844"/><stop stop-opacity="1" stop-color="rgb(0%, 70.146179%, 100%)" offset="0.59375"/><stop stop-opacity="1" stop-color="rgb(0%, 70.36438%, 100%)" offset="0.597656"/><stop stop-opacity="1" stop-color="rgb(0%, 70.584106%, 100%)" offset="0.601562"/><stop stop-opacity="1" stop-color="rgb(0%, 70.802307%, 100%)" offset="0.605469"/><stop stop-opacity="1" stop-color="rgb(0%, 71.022034%, 100%)" offset="0.609375"/><stop stop-opacity="1" stop-color="rgb(0%, 71.240234%, 100%)" offset="0.613281"/><stop stop-opacity="1" stop-color="rgb(0%, 71.458435%, 100%)" offset="0.617188"/><stop stop-opacity="1" stop-color="rgb(0%, 71.676636%, 100%)" offset="0.621094"/><stop stop-opacity="1" stop-color="rgb(0%, 71.896362%, 100%)" offset="0.625"/><stop stop-opacity="1" stop-color="rgb(0%, 72.114563%, 100%)" offset="0.628906"/><stop stop-opacity="1" stop-color="rgb(0%, 72.33429%, 100%)" offset="0.632812"/><stop stop-opacity="1" stop-color="rgb(0%, 72.55249%, 100%)" offset="0.636719"/><stop stop-opacity="1" stop-color="rgb(0%, 72.772217%, 100%)" offset="0.640625"/><stop stop-opacity="1" stop-color="rgb(0%, 72.990417%, 100%)" offset="0.644531"/><stop stop-opacity="1" stop-color="rgb(0%, 73.208618%, 100%)" offset="0.648438"/><stop stop-opacity="1" stop-color="rgb(0%, 73.426819%, 100%)" offset="0.652344"/><stop stop-opacity="1" stop-color="rgb(0%, 73.646545%, 100%)" offset="0.65625"/><stop stop-opacity="1" stop-color="rgb(0%, 73.864746%, 100%)" offset="0.660156"/><stop stop-opacity="1" stop-color="rgb(0%, 74.084473%, 100%)" offset="0.664062"/><stop stop-opacity="1" stop-color="rgb(0%, 74.302673%, 100%)" offset="0.667969"/><stop stop-opacity="1" stop-color="rgb(0%, 74.5224%, 100%)" offset="0.671875"/><stop stop-opacity="1" stop-color="rgb(0%, 74.740601%, 100%)" offset="0.675781"/><stop stop-opacity="1" stop-color="rgb(0%, 74.958801%, 100%)" offset="0.679688"/><stop stop-opacity="1" stop-color="rgb(0%, 75.177002%, 100%)" offset="0.683594"/><stop stop-opacity="1" stop-color="rgb(0%, 75.396729%, 100%)" offset="0.6875"/><stop stop-opacity="1" stop-color="rgb(0%, 75.614929%, 100%)" offset="0.691406"/><stop stop-opacity="1" stop-color="rgb(0%, 75.834656%, 100%)" offset="0.695313"/><stop stop-opacity="1" stop-color="rgb(0%, 76.052856%, 100%)" offset="0.699219"/><stop stop-opacity="1" stop-color="rgb(0%, 76.272583%, 100%)" offset="0.703125"/><stop stop-opacity="1" stop-color="rgb(0%, 76.490784%, 100%)" offset="0.707031"/><stop stop-opacity="1" stop-color="rgb(0%, 76.708984%, 100%)" offset="0.710938"/><stop stop-opacity="1" stop-color="rgb(0%, 76.927185%, 100%)" offset="0.714844"/><stop stop-opacity="1" stop-color="rgb(0%, 77.146912%, 100%)" offset="0.71875"/><stop stop-opacity="1" stop-color="rgb(0%, 77.365112%, 100%)" offset="0.722656"/><stop stop-opacity="1" stop-color="rgb(0%, 77.584839%, 100%)" offset="0.726562"/><stop stop-opacity="1" stop-color="rgb(0%, 77.80304%, 100%)" offset="0.730469"/><stop stop-opacity="1" stop-color="rgb(0%, 78.022766%, 100%)" offset="0.734375"/><stop stop-opacity="1" stop-color="rgb(0%, 78.240967%, 100%)" offset="0.738281"/><stop stop-opacity="1" stop-color="rgb(0%, 78.459167%, 100%)" offset="0.742188"/><stop stop-opacity="1" stop-color="rgb(0%, 78.677368%, 100%)" offset="0.746094"/><stop stop-opacity="1" stop-color="rgb(0%, 78.897095%, 100%)" offset="0.75"/><stop stop-opacity="1" stop-color="rgb(0%, 79.115295%, 100%)" offset="0.753906"/><stop stop-opacity="1" stop-color="rgb(0%, 79.335022%, 100%)" offset="0.757812"/><stop stop-opacity="1" stop-color="rgb(0%, 79.553223%, 100%)" offset="0.761719"/><stop stop-opacity="1" stop-color="rgb(0%, 79.772949%, 100%)" offset="0.765625"/><stop stop-opacity="1" stop-color="rgb(0%, 79.99115%, 100%)" offset="0.769531"/><stop stop-opacity="1" stop-color="rgb(0%, 80.210876%, 100%)" offset="0.773438"/><stop stop-opacity="1" stop-color="rgb(0%, 80.429077%, 100%)" offset="0.777344"/><stop stop-opacity="1" stop-color="rgb(0%, 80.647278%, 100%)" offset="0.78125"/><stop stop-opacity="1" stop-color="rgb(0%, 80.865479%, 100%)" offset="0.785156"/><stop stop-opacity="1" stop-color="rgb(0%, 81.085205%, 100%)" offset="0.789062"/><stop stop-opacity="1" stop-color="rgb(0%, 81.303406%, 100%)" offset="0.792969"/><stop stop-opacity="1" stop-color="rgb(0%, 81.523132%, 100%)" offset="0.796875"/><stop stop-opacity="1" stop-color="rgb(0%, 81.741333%, 100%)" offset="0.800781"/><stop stop-opacity="1" stop-color="rgb(0%, 81.96106%, 100%)" offset="0.804687"/><stop stop-opacity="1" stop-color="rgb(0%, 82.17926%, 100%)" offset="0.808594"/><stop stop-opacity="1" stop-color="rgb(0%, 82.397461%, 100%)" offset="0.8125"/><stop stop-opacity="1" stop-color="rgb(0%, 82.615662%, 100%)" offset="0.816406"/><stop stop-opacity="1" stop-color="rgb(0%, 82.835388%, 100%)" offset="0.820312"/><stop stop-opacity="1" stop-color="rgb(0%, 83.053589%, 100%)" offset="0.824219"/><stop stop-opacity="1" stop-color="rgb(0%, 83.273315%, 100%)" offset="0.828125"/><stop stop-opacity="1" stop-color="rgb(0%, 83.491516%, 100%)" offset="0.832031"/><stop stop-opacity="1" stop-color="rgb(0%, 83.711243%, 100%)" offset="0.835938"/><stop stop-opacity="1" stop-color="rgb(0%, 83.929443%, 100%)" offset="0.839844"/><stop stop-opacity="1" stop-color="rgb(0%, 84.147644%, 100%)" offset="0.84375"/><stop stop-opacity="1" stop-color="rgb(0%, 84.365845%, 100%)" offset="0.847656"/><stop stop-opacity="1" stop-color="rgb(0%, 84.585571%, 100%)" offset="0.851562"/><stop stop-opacity="1" stop-color="rgb(0%, 84.803772%, 100%)" offset="0.855469"/><stop stop-opacity="1" stop-color="rgb(0%, 85.023499%, 100%)" offset="0.859375"/><stop stop-opacity="1" stop-color="rgb(0%, 85.241699%, 100%)" offset="0.863281"/><stop stop-opacity="1" stop-color="rgb(0%, 85.461426%, 100%)" offset="0.867188"/><stop stop-opacity="1" stop-color="rgb(0%, 85.679626%, 100%)" offset="0.871094"/><stop stop-opacity="1" stop-color="rgb(0%, 85.897827%, 100%)" offset="0.875"/><stop stop-opacity="1" stop-color="rgb(0%, 86.116028%, 100%)" offset="0.878906"/><stop stop-opacity="1" stop-color="rgb(0%, 86.335754%, 100%)" offset="0.882812"/><stop stop-opacity="1" stop-color="rgb(0%, 86.553955%, 100%)" offset="0.886719"/><stop stop-opacity="1" stop-color="rgb(0%, 86.773682%, 100%)" offset="0.890625"/><stop stop-opacity="1" stop-color="rgb(0%, 86.991882%, 100%)" offset="0.894531"/><stop stop-opacity="1" stop-color="rgb(0%, 87.211609%, 100%)" offset="0.898438"/><stop stop-opacity="1" stop-color="rgb(0%, 87.42981%, 100%)" offset="0.902344"/><stop stop-opacity="1" stop-color="rgb(0%, 87.64801%, 100%)" offset="0.90625"/><stop stop-opacity="1" stop-color="rgb(0%, 87.866211%, 100%)" offset="0.910156"/><stop stop-opacity="1" stop-color="rgb(0%, 88.085938%, 100%)" offset="0.914062"/><stop stop-opacity="1" stop-color="rgb(0%, 88.304138%, 100%)" offset="0.917969"/><stop stop-opacity="1" stop-color="rgb(0%, 88.523865%, 100%)" offset="0.921875"/><stop stop-opacity="1" stop-color="rgb(0%, 88.742065%, 100%)" offset="0.925781"/><stop stop-opacity="1" stop-color="rgb(0%, 88.961792%, 100%)" offset="0.929688"/><stop stop-opacity="1" stop-color="rgb(0%, 89.179993%, 100%)" offset="0.933594"/><stop stop-opacity="1" stop-color="rgb(0%, 89.398193%, 100%)" offset="0.9375"/><stop stop-opacity="1" stop-color="rgb(0%, 89.616394%, 100%)" offset="0.941406"/><stop stop-opacity="1" stop-color="rgb(0%, 89.836121%, 100%)" offset="0.945313"/><stop stop-opacity="1" stop-color="rgb(0%, 90.054321%, 100%)" offset="0.949219"/><stop stop-opacity="1" stop-color="rgb(0%, 90.274048%, 100%)" offset="0.953125"/><stop stop-opacity="1" stop-color="rgb(0%, 90.492249%, 100%)" offset="0.957031"/><stop stop-opacity="1" stop-color="rgb(0%, 90.711975%, 100%)" offset="0.960938"/><stop stop-opacity="1" stop-color="rgb(0%, 90.930176%, 100%)" offset="0.964844"/><stop stop-opacity="1" stop-color="rgb(0%, 91.148376%, 100%)" offset="0.96875"/><stop stop-opacity="1" stop-color="rgb(0%, 91.366577%, 100%)" offset="0.972656"/><stop stop-opacity="1" stop-color="rgb(0%, 91.586304%, 100%)" offset="0.976562"/><stop stop-opacity="1" stop-color="rgb(0%, 91.804504%, 100%)" offset="0.980469"/><stop stop-opacity="1" stop-color="rgb(0%, 92.024231%, 100%)" offset="0.984375"/><stop stop-opacity="1" stop-color="rgb(0%, 92.242432%, 100%)" offset="0.988281"/><stop stop-opacity="1" stop-color="rgb(0%, 92.462158%, 100%)" offset="0.992188"/><stop stop-opacity="1" stop-color="rgb(0%, 92.680359%, 100%)" offset="0.996094"/><stop stop-opacity="1" stop-color="rgb(0%, 92.89856%, 100%)" offset="1"/></linearGradient></defs><g clip-path="url(#3ea784f859)"><path fill="#ffffff" d="M 0.617188 0 L 308.382812 0 L 308.382812 124.003906 L 0.617188 124.003906 Z M 0.617188 0 " fill-opacity="1" fill-rule="nonzero"/></g><g fill="#cb697f" fill-opacity="1"><g transform="translate(26.221896, 79.216446)"><g><path d="M 30.703125 -52.890625 L 52.0625 0 L 39.109375 0 L 35.203125 -10.578125 L 15.0625 -10.578125 L 11.15625 0 L -1.796875 0 L 19.546875 -52.890625 Z M 31.09375 -21.15625 L 25.1875 -36.546875 L 25.0625 -36.546875 L 19.171875 -21.15625 Z M 31.09375 -21.15625 "/></g></g></g><g fill="#cb697f" fill-opacity="1"><g transform="translate(70.446872, 79.216446)"><g><path d="M 18.140625 -33.84375 C 20.023438 -33.84375 21.882812 -33.628906 23.71875 -33.203125 C 25.5625 -32.773438 26.929688 -32.347656 27.828125 -31.921875 L 29.171875 -31.28125 L 25.453125 -23.84375 C 22.890625 -25.21875 20.453125 -25.90625 18.140625 -25.90625 C 16.859375 -25.90625 15.945312 -25.765625 15.40625 -25.484375 C 14.875 -25.203125 14.609375 -24.675781 14.609375 -23.90625 C 14.609375 -23.738281 14.628906 -23.566406 14.671875 -23.390625 C 14.722656 -23.222656 14.8125 -23.0625 14.9375 -22.90625 C 15.0625 -22.757812 15.175781 -22.632812 15.28125 -22.53125 C 15.394531 -22.425781 15.578125 -22.304688 15.828125 -22.171875 C 16.085938 -22.046875 16.289062 -21.953125 16.4375 -21.890625 C 16.59375 -21.828125 16.835938 -21.726562 17.171875 -21.59375 C 17.515625 -21.46875 17.769531 -21.375 17.9375 -21.3125 C 18.113281 -21.25 18.40625 -21.148438 18.8125 -21.015625 C 19.21875 -20.890625 19.53125 -20.804688 19.75 -20.765625 C 21.070312 -20.378906 22.222656 -19.953125 23.203125 -19.484375 C 24.191406 -19.015625 25.226562 -18.375 26.3125 -17.5625 C 27.40625 -16.75 28.25 -15.722656 28.84375 -14.484375 C 29.445312 -13.242188 29.75 -11.832031 29.75 -10.25 C 29.75 -2.769531 24.554688 0.96875 14.171875 0.96875 C 11.816406 0.96875 9.582031 0.601562 7.46875 -0.125 C 5.351562 -0.851562 3.828125 -1.582031 2.890625 -2.3125 L 1.46875 -3.46875 L 6.09375 -11.21875 C 6.4375 -10.914062 6.882812 -10.5625 7.4375 -10.15625 C 7.988281 -9.75 8.988281 -9.191406 10.4375 -8.484375 C 11.894531 -7.785156 13.160156 -7.4375 14.234375 -7.4375 C 16.585938 -7.4375 17.765625 -8.226562 17.765625 -9.8125 C 17.765625 -10.539062 17.460938 -11.101562 16.859375 -11.5 C 16.265625 -11.90625 15.25 -12.363281 13.8125 -12.875 C 12.382812 -13.394531 11.265625 -13.867188 10.453125 -14.296875 C 8.398438 -15.367188 6.773438 -16.578125 5.578125 -17.921875 C 4.378906 -19.265625 3.78125 -21.046875 3.78125 -23.265625 C 3.78125 -26.597656 5.070312 -29.191406 7.65625 -31.046875 C 10.25 -32.910156 13.742188 -33.84375 18.140625 -33.84375 Z M 18.140625 -33.84375 "/></g></g></g><g fill="#cb697f" fill-opacity="1"><g transform="translate(95.955608, 79.216446)"><g><path d="M 6.078125 -4.0625 C 3.003906 -7.425781 1.46875 -11.539062 1.46875 -16.40625 C 1.46875 -21.28125 3.003906 -25.40625 6.078125 -28.78125 C 9.160156 -32.15625 13.078125 -33.84375 17.828125 -33.84375 C 22.179688 -33.84375 25.769531 -32.476562 28.59375 -29.75 L 28.59375 -32.890625 L 39.9375 -32.890625 L 39.9375 0 L 28.71875 0 L 28.71875 -3.71875 L 28.59375 -3.71875 C 25.769531 -0.59375 22.179688 0.96875 17.828125 0.96875 C 13.078125 0.96875 9.160156 -0.707031 6.078125 -4.0625 Z M 15.734375 -21.984375 C 14.265625 -20.535156 13.53125 -18.675781 13.53125 -16.40625 C 13.53125 -14.144531 14.234375 -12.296875 15.640625 -10.859375 C 17.054688 -9.429688 18.914062 -8.71875 21.21875 -8.71875 C 23.4375 -8.71875 25.257812 -9.441406 26.6875 -10.890625 C 28.125 -12.347656 28.84375 -14.1875 28.84375 -16.40625 C 28.84375 -18.675781 28.101562 -20.535156 26.625 -21.984375 C 25.15625 -23.441406 23.351562 -24.171875 21.21875 -24.171875 C 19.039062 -24.171875 17.210938 -23.441406 15.734375 -21.984375 Z M 15.734375 -21.984375 "/></g></g></g><g fill="#cb697f" fill-opacity="1"><g transform="translate(133.706814, 79.216446)"><g><path d="M 37.6875 -28.78125 C 40.769531 -25.40625 42.3125 -21.28125 42.3125 -16.40625 C 42.3125 -11.539062 40.769531 -7.425781 37.6875 -4.0625 C 34.613281 -0.707031 30.707031 0.96875 25.96875 0.96875 C 21.601562 0.96875 18.007812 -0.59375 15.1875 -3.71875 L 15.0625 -3.71875 L 15.0625 0 L 3.84375 0 L 3.84375 -55.140625 L 15.1875 -55.140625 L 15.1875 -29.75 C 18.007812 -32.476562 21.601562 -33.84375 25.96875 -33.84375 C 30.707031 -33.84375 34.613281 -32.15625 37.6875 -28.78125 Z M 28.140625 -10.859375 C 29.554688 -12.296875 30.265625 -14.144531 30.265625 -16.40625 C 30.265625 -18.675781 29.523438 -20.535156 28.046875 -21.984375 C 26.578125 -23.441406 24.75 -24.171875 22.5625 -24.171875 C 20.425781 -24.171875 18.617188 -23.441406 17.140625 -21.984375 C 15.671875 -20.535156 14.9375 -18.675781 14.9375 -16.40625 C 14.9375 -14.1875 15.648438 -12.347656 17.078125 -10.890625 C 18.515625 -9.441406 20.34375 -8.71875 22.5625 -8.71875 C 24.875 -8.71875 26.734375 -9.429688 28.140625 -10.859375 Z M 28.140625 -10.859375 "/></g></g></g><g fill="#cb697f" fill-opacity="1"><g transform="translate(171.458019, 79.216446)"><g><path d="M 6.078125 -4.0625 C 3.003906 -7.425781 1.46875 -11.539062 1.46875 -16.40625 C 1.46875 -21.28125 3.003906 -25.40625 6.078125 -28.78125 C 9.160156 -32.15625 13.078125 -33.84375 17.828125 -33.84375 C 22.179688 -33.84375 25.769531 -32.476562 28.59375 -29.75 L 28.59375 -32.890625 L 39.9375 -32.890625 L 39.9375 0 L 28.71875 0 L 28.71875 -3.71875 L 28.59375 -3.71875 C 25.769531 -0.59375 22.179688 0.96875 17.828125 0.96875 C 13.078125 0.96875 9.160156 -0.707031 6.078125 -4.0625 Z M 15.734375 -21.984375 C 14.265625 -20.535156 13.53125 -18.675781 13.53125 -16.40625 C 13.53125 -14.144531 14.234375 -12.296875 15.640625 -10.859375 C 17.054688 -9.429688 18.914062 -8.71875 21.21875 -8.71875 C 23.4375 -8.71875 25.257812 -9.441406 26.6875 -10.890625 C 28.125 -12.347656 28.84375 -14.1875 28.84375 -16.40625 C 28.84375 -18.675781 28.101562 -20.535156 26.625 -21.984375 C 25.15625 -23.441406 23.351562 -24.171875 21.21875 -24.171875 C 19.039062 -24.171875 17.210938 -23.441406 15.734375 -21.984375 Z M 15.734375 -21.984375 "/></g></g></g><g fill="#cb697f" fill-opacity="1"><g transform="translate(209.209232, 79.216446)"><g><path d="M 6.078125 -4.0625 C 3.003906 -7.425781 1.46875 -11.539062 1.46875 -16.40625 C 1.46875 -21.28125 3.003906 -25.40625 6.078125 -28.78125 C 9.160156 -32.15625 13.078125 -33.84375 17.828125 -33.84375 C 22.179688 -33.84375 25.769531 -32.476562 28.59375 -29.75 L 28.59375 -32.890625 L 39.9375 -32.890625 L 39.9375 0 L 28.71875 0 L 28.71875 -3.71875 L 28.59375 -3.71875 C 25.769531 -0.59375 22.179688 0.96875 17.828125 0.96875 C 13.078125 0.96875 9.160156 -0.707031 6.078125 -4.0625 Z M 15.734375 -21.984375 C 14.265625 -20.535156 13.53125 -18.675781 13.53125 -16.40625 C 13.53125 -14.144531 14.234375 -12.296875 15.640625 -10.859375 C 17.054688 -9.429688 18.914062 -8.71875 21.21875 -8.71875 C 23.4375 -8.71875 25.257812 -9.441406 26.6875 -10.890625 C 28.125 -12.347656 28.84375 -14.1875 28.84375 -16.40625 C 28.84375 -18.675781 28.101562 -20.535156 26.625 -21.984375 C 25.15625 -23.441406 23.351562 -24.171875 21.21875 -24.171875 C 19.039062 -24.171875 17.210938 -23.441406 15.734375 -21.984375 Z M 15.734375 -21.984375 "/></g></g></g><g fill="#cb697f" fill-opacity="1"><g transform="translate(246.96043, 79.216446)"><g><path d="M 3.84375 0 L 3.84375 -55.140625 L 15.1875 -55.140625 L 15.1875 0 Z M 3.84375 0 "/></g></g></g><g fill="#cb697f" fill-opacity="1"><g transform="translate(259.970294, 79.216446)"><g><path d="M 11.15625 -13.71875 C 13.207031 -13.71875 14.945312 -13 16.375 -11.5625 C 17.8125 -10.132812 18.53125 -8.394531 18.53125 -6.34375 C 18.53125 -4.332031 17.8125 -2.609375 16.375 -1.171875 C 14.945312 0.253906 13.207031 0.96875 11.15625 0.96875 C 9.144531 0.96875 7.421875 0.253906 5.984375 -1.171875 C 4.554688 -2.609375 3.84375 -4.332031 3.84375 -6.34375 C 3.84375 -8.394531 4.554688 -10.132812 5.984375 -11.5625 C 7.421875 -13 9.144531 -13.71875 11.15625 -13.71875 Z M 11.15625 -13.71875 "/></g></g></g><g clip-path="url(#2bdf5ba694)"><g clip-path="url(#16ec681428)"><path fill="url(#0f27b27774)" d="M 24.277344 84.816406 L 24.277344 99.617188 L 39.082031 99.617188 L 39.082031 84.816406 Z M 24.277344 84.816406 " fill-rule="nonzero"/></g></g><g fill="#ffffff" fill-opacity="1"><g transform="translate(98.226516, 96.587734)"><g><path d="M 6.078125 -6.828125 C 6.242188 -6.828125 6.378906 -6.769531 6.484375 -6.65625 C 6.597656 -6.550781 6.65625 -6.425781 6.65625 -6.28125 C 6.65625 -6.207031 6.625 -6.101562 6.5625 -5.96875 L 4.109375 -0.390625 C 4.066406 -0.273438 3.992188 -0.179688 3.890625 -0.109375 C 3.796875 -0.046875 3.695312 -0.0078125 3.59375 0 C 3.445312 0.0195312 3.316406 -0.00390625 3.203125 -0.078125 C 3.085938 -0.148438 3 -0.253906 2.9375 -0.390625 L 0.484375 -5.96875 C 0.441406 -6.09375 0.421875 -6.195312 0.421875 -6.28125 C 0.421875 -6.414062 0.476562 -6.539062 0.59375 -6.65625 C 0.707031 -6.769531 0.851562 -6.828125 1.03125 -6.828125 C 1.15625 -6.828125 1.269531 -6.796875 1.375 -6.734375 C 1.476562 -6.671875 1.5625 -6.570312 1.625 -6.4375 L 3.578125 -1.90625 L 5.53125 -6.4375 C 5.644531 -6.695312 5.828125 -6.828125 6.078125 -6.828125 Z M 6.078125 -6.828125 "/></g></g></g><g fill="#ffffff" fill-opacity="1"><g transform="translate(113.706394, 96.587734)"><g><path d="M 6.859375 -3.640625 C 6.847656 -3.484375 6.78125 -3.347656 6.65625 -3.234375 C 6.539062 -3.128906 6.398438 -3.078125 6.234375 -3.078125 L 1.6875 -3.078125 C 1.75 -2.453125 1.988281 -1.945312 2.40625 -1.5625 C 2.820312 -1.1875 3.332031 -1 3.9375 -1 C 4.351562 -1 4.6875 -1.0625 4.9375 -1.1875 C 5.195312 -1.3125 5.425781 -1.46875 5.625 -1.65625 C 5.757812 -1.726562 5.882812 -1.765625 6 -1.765625 C 6.144531 -1.765625 6.265625 -1.710938 6.359375 -1.609375 C 6.460938 -1.503906 6.515625 -1.382812 6.515625 -1.25 C 6.515625 -1.070312 6.429688 -0.910156 6.265625 -0.765625 C 6.015625 -0.515625 5.679688 -0.300781 5.265625 -0.125 C 4.847656 0.0390625 4.425781 0.125 4 0.125 C 3.300781 0.125 2.6875 -0.0195312 2.15625 -0.3125 C 1.632812 -0.601562 1.226562 -1.007812 0.9375 -1.53125 C 0.644531 -2.0625 0.5 -2.65625 0.5 -3.3125 C 0.5 -4.039062 0.644531 -4.675781 0.9375 -5.21875 C 1.238281 -5.769531 1.632812 -6.191406 2.125 -6.484375 C 2.613281 -6.773438 3.132812 -6.921875 3.6875 -6.921875 C 4.238281 -6.921875 4.753906 -6.773438 5.234375 -6.484375 C 5.722656 -6.203125 6.113281 -5.8125 6.40625 -5.3125 C 6.695312 -4.8125 6.847656 -4.253906 6.859375 -3.640625 Z M 3.6875 -5.78125 C 3.207031 -5.78125 2.789062 -5.644531 2.4375 -5.375 C 2.082031 -5.101562 1.851562 -4.679688 1.75 -4.109375 L 5.546875 -4.109375 L 5.546875 -4.21875 C 5.503906 -4.675781 5.300781 -5.050781 4.9375 -5.34375 C 4.570312 -5.632812 4.15625 -5.78125 3.6875 -5.78125 Z M 3.6875 -5.78125 "/></g></g></g><g fill="#ffffff" fill-opacity="1"><g transform="translate(129.469974, 96.587734)"><g><path d="M 4.359375 -6.921875 C 5.910156 -6.921875 6.6875 -5.988281 6.6875 -4.125 L 6.6875 -0.625 C 6.6875 -0.445312 6.628906 -0.296875 6.515625 -0.171875 C 6.398438 -0.0546875 6.25 0 6.0625 0 C 5.894531 0 5.75 -0.0546875 5.625 -0.171875 C 5.507812 -0.296875 5.453125 -0.445312 5.453125 -0.625 L 5.453125 -4.109375 C 5.453125 -4.617188 5.335938 -5.023438 5.109375 -5.328125 C 4.878906 -5.628906 4.5 -5.78125 3.96875 -5.78125 C 3.625 -5.78125 3.3125 -5.703125 3.03125 -5.546875 C 2.757812 -5.398438 2.539062 -5.195312 2.375 -4.9375 C 2.21875 -4.6875 2.140625 -4.410156 2.140625 -4.109375 L 2.140625 -0.625 C 2.140625 -0.445312 2.082031 -0.296875 1.96875 -0.171875 C 1.851562 -0.0546875 1.703125 0 1.515625 0 C 1.335938 0 1.191406 -0.0546875 1.078125 -0.171875 C 0.972656 -0.285156 0.921875 -0.4375 0.921875 -0.625 L 0.921875 -6.140625 C 0.921875 -6.316406 0.976562 -6.460938 1.09375 -6.578125 C 1.207031 -6.703125 1.347656 -6.765625 1.515625 -6.765625 C 1.703125 -6.765625 1.851562 -6.703125 1.96875 -6.578125 C 2.082031 -6.460938 2.140625 -6.316406 2.140625 -6.140625 L 2.140625 -5.6875 C 2.367188 -6.03125 2.679688 -6.320312 3.078125 -6.5625 C 3.472656 -6.800781 3.898438 -6.921875 4.359375 -6.921875 Z M 4.359375 -6.921875 "/></g></g></g><g fill="#ffffff" fill-opacity="1"><g transform="translate(145.478574, 96.587734)"><g><path d="M 2.75 -5.5625 L 2.75 -1.71875 C 2.75 -1.289062 2.941406 -1.078125 3.328125 -1.078125 C 3.390625 -1.078125 3.472656 -1.085938 3.578125 -1.109375 C 3.679688 -1.140625 3.757812 -1.15625 3.8125 -1.15625 C 3.925781 -1.15625 4.019531 -1.109375 4.09375 -1.015625 C 4.175781 -0.921875 4.21875 -0.800781 4.21875 -0.65625 C 4.21875 -0.476562 4.113281 -0.320312 3.90625 -0.1875 C 3.695312 -0.0625 3.46875 0 3.21875 0 C 2.925781 0 2.660156 -0.03125 2.421875 -0.09375 C 2.191406 -0.15625 1.984375 -0.304688 1.796875 -0.546875 C 1.609375 -0.796875 1.515625 -1.171875 1.515625 -1.671875 L 1.515625 -5.5625 L 0.78125 -5.5625 C 0.613281 -5.5625 0.472656 -5.613281 0.359375 -5.71875 C 0.253906 -5.832031 0.203125 -5.96875 0.203125 -6.125 C 0.203125 -6.289062 0.253906 -6.425781 0.359375 -6.53125 C 0.472656 -6.632812 0.613281 -6.6875 0.78125 -6.6875 L 1.515625 -6.6875 L 1.515625 -7.765625 C 1.515625 -7.941406 1.570312 -8.085938 1.6875 -8.203125 C 1.8125 -8.328125 1.960938 -8.390625 2.140625 -8.390625 C 2.316406 -8.390625 2.460938 -8.328125 2.578125 -8.203125 C 2.691406 -8.085938 2.75 -7.941406 2.75 -7.765625 L 2.75 -6.6875 L 3.8125 -6.6875 C 3.976562 -6.6875 4.113281 -6.628906 4.21875 -6.515625 C 4.332031 -6.410156 4.390625 -6.28125 4.390625 -6.125 C 4.390625 -5.957031 4.332031 -5.820312 4.21875 -5.71875 C 4.113281 -5.613281 3.976562 -5.5625 3.8125 -5.5625 Z M 2.75 -5.5625 "/></g></g></g><g fill="#ffffff" fill-opacity="1"><g transform="translate(158.792004, 96.587734)"><g><path d="M 5.953125 -6.765625 C 6.128906 -6.765625 6.273438 -6.703125 6.390625 -6.578125 C 6.503906 -6.460938 6.5625 -6.316406 6.5625 -6.140625 L 6.5625 -2.703125 C 6.5625 -1.816406 6.3125 -1.125 5.8125 -0.625 C 5.320312 -0.132812 4.628906 0.109375 3.734375 0.109375 C 2.835938 0.109375 2.144531 -0.132812 1.65625 -0.625 C 1.164062 -1.125 0.921875 -1.816406 0.921875 -2.703125 L 0.921875 -6.140625 C 0.921875 -6.316406 0.976562 -6.460938 1.09375 -6.578125 C 1.207031 -6.703125 1.347656 -6.765625 1.515625 -6.765625 C 1.703125 -6.765625 1.851562 -6.703125 1.96875 -6.578125 C 2.082031 -6.460938 2.140625 -6.316406 2.140625 -6.140625 L 2.140625 -2.703125 C 2.140625 -1.578125 2.671875 -1.015625 3.734375 -1.015625 C 4.253906 -1.015625 4.648438 -1.15625 4.921875 -1.4375 C 5.203125 -1.726562 5.34375 -2.148438 5.34375 -2.703125 L 5.34375 -6.140625 C 5.34375 -6.316406 5.398438 -6.460938 5.515625 -6.578125 C 5.628906 -6.703125 5.773438 -6.765625 5.953125 -6.765625 Z M 5.953125 -6.765625 "/></g></g></g><g fill="#ffffff" fill-opacity="1"><g transform="translate(174.684541, 96.587734)"><g><path d="M 4.28125 -6.921875 C 4.507812 -6.921875 4.703125 -6.859375 4.859375 -6.734375 C 5.023438 -6.617188 5.109375 -6.476562 5.109375 -6.3125 C 5.109375 -6.101562 5.050781 -5.941406 4.9375 -5.828125 C 4.832031 -5.722656 4.707031 -5.671875 4.5625 -5.671875 C 4.476562 -5.671875 4.359375 -5.695312 4.203125 -5.75 C 4.023438 -5.8125 3.882812 -5.84375 3.78125 -5.84375 C 3.507812 -5.84375 3.25 -5.75 3 -5.5625 C 2.75 -5.382812 2.539062 -5.132812 2.375 -4.8125 C 2.21875 -4.488281 2.140625 -4.128906 2.140625 -3.734375 L 2.140625 -0.625 C 2.140625 -0.445312 2.082031 -0.296875 1.96875 -0.171875 C 1.851562 -0.0546875 1.703125 0 1.515625 0 C 1.335938 0 1.191406 -0.0546875 1.078125 -0.171875 C 0.972656 -0.285156 0.921875 -0.4375 0.921875 -0.625 L 0.921875 -6.140625 C 0.921875 -6.316406 0.976562 -6.460938 1.09375 -6.578125 C 1.207031 -6.703125 1.347656 -6.765625 1.515625 -6.765625 C 1.703125 -6.765625 1.851562 -6.703125 1.96875 -6.578125 C 2.082031 -6.460938 2.140625 -6.316406 2.140625 -6.140625 L 2.140625 -5.484375 C 2.328125 -5.910156 2.609375 -6.253906 2.984375 -6.515625 C 3.367188 -6.773438 3.800781 -6.910156 4.28125 -6.921875 Z M 4.28125 -6.921875 "/></g></g></g><g fill="#ffffff" fill-opacity="1"><g transform="translate(188.423524, 96.587734)"><g><path d="M 6.859375 -3.640625 C 6.847656 -3.484375 6.78125 -3.347656 6.65625 -3.234375 C 6.539062 -3.128906 6.398438 -3.078125 6.234375 -3.078125 L 1.6875 -3.078125 C 1.75 -2.453125 1.988281 -1.945312 2.40625 -1.5625 C 2.820312 -1.1875 3.332031 -1 3.9375 -1 C 4.351562 -1 4.6875 -1.0625 4.9375 -1.1875 C 5.195312 -1.3125 5.425781 -1.46875 5.625 -1.65625 C 5.757812 -1.726562 5.882812 -1.765625 6 -1.765625 C 6.144531 -1.765625 6.265625 -1.710938 6.359375 -1.609375 C 6.460938 -1.503906 6.515625 -1.382812 6.515625 -1.25 C 6.515625 -1.070312 6.429688 -0.910156 6.265625 -0.765625 C 6.015625 -0.515625 5.679688 -0.300781 5.265625 -0.125 C 4.847656 0.0390625 4.425781 0.125 4 0.125 C 3.300781 0.125 2.6875 -0.0195312 2.15625 -0.3125 C 1.632812 -0.601562 1.226562 -1.007812 0.9375 -1.53125 C 0.644531 -2.0625 0.5 -2.65625 0.5 -3.3125 C 0.5 -4.039062 0.644531 -4.675781 0.9375 -5.21875 C 1.238281 -5.769531 1.632812 -6.191406 2.125 -6.484375 C 2.613281 -6.773438 3.132812 -6.921875 3.6875 -6.921875 C 4.238281 -6.921875 4.753906 -6.773438 5.234375 -6.484375 C 5.722656 -6.203125 6.113281 -5.8125 6.40625 -5.3125 C 6.695312 -4.8125 6.847656 -4.253906 6.859375 -3.640625 Z M 3.6875 -5.78125 C 3.207031 -5.78125 2.789062 -5.644531 2.4375 -5.375 C 2.082031 -5.101562 1.851562 -4.679688 1.75 -4.109375 L 5.546875 -4.109375 L 5.546875 -4.21875 C 5.503906 -4.675781 5.300781 -5.050781 4.9375 -5.34375 C 4.570312 -5.632812 4.15625 -5.78125 3.6875 -5.78125 Z M 3.6875 -5.78125 "/></g></g></g><g fill="#ffffff" fill-opacity="1"><g transform="translate(204.187104, 96.587734)"><g><path d="M 0.53125 -1.0625 C 0.445312 -1.175781 0.40625 -1.289062 0.40625 -1.40625 C 0.40625 -1.582031 0.5 -1.726562 0.6875 -1.84375 C 0.769531 -1.90625 0.867188 -1.9375 0.984375 -1.9375 C 1.140625 -1.9375 1.28125 -1.875 1.40625 -1.75 C 1.664062 -1.445312 1.941406 -1.222656 2.234375 -1.078125 C 2.535156 -0.929688 2.890625 -0.859375 3.296875 -0.859375 C 3.628906 -0.867188 3.921875 -0.941406 4.171875 -1.078125 C 4.421875 -1.222656 4.546875 -1.457031 4.546875 -1.78125 C 4.546875 -2.070312 4.414062 -2.296875 4.15625 -2.453125 C 3.90625 -2.609375 3.535156 -2.75 3.046875 -2.875 C 2.566406 -3.007812 2.164062 -3.144531 1.84375 -3.28125 C 1.53125 -3.425781 1.257812 -3.632812 1.03125 -3.90625 C 0.8125 -4.175781 0.703125 -4.53125 0.703125 -4.96875 C 0.703125 -5.351562 0.8125 -5.691406 1.03125 -5.984375 C 1.257812 -6.273438 1.554688 -6.503906 1.921875 -6.671875 C 2.285156 -6.835938 2.679688 -6.921875 3.109375 -6.921875 C 3.523438 -6.921875 3.9375 -6.84375 4.34375 -6.6875 C 4.75 -6.53125 5.082031 -6.289062 5.34375 -5.96875 C 5.445312 -5.851562 5.5 -5.726562 5.5 -5.59375 C 5.5 -5.457031 5.429688 -5.328125 5.296875 -5.203125 C 5.203125 -5.117188 5.09375 -5.078125 4.96875 -5.078125 C 4.8125 -5.078125 4.6875 -5.128906 4.59375 -5.234375 C 4.414062 -5.441406 4.191406 -5.601562 3.921875 -5.71875 C 3.660156 -5.832031 3.375 -5.890625 3.0625 -5.890625 C 2.726562 -5.890625 2.445312 -5.820312 2.21875 -5.6875 C 2 -5.550781 1.890625 -5.320312 1.890625 -5 C 1.890625 -4.707031 2.015625 -4.484375 2.265625 -4.328125 C 2.523438 -4.179688 2.921875 -4.039062 3.453125 -3.90625 C 3.898438 -3.789062 4.273438 -3.660156 4.578125 -3.515625 C 4.878906 -3.378906 5.132812 -3.175781 5.34375 -2.90625 C 5.550781 -2.632812 5.65625 -2.28125 5.65625 -1.84375 C 5.65625 -1.4375 5.535156 -1.082031 5.296875 -0.78125 C 5.066406 -0.488281 4.765625 -0.265625 4.390625 -0.109375 C 4.015625 0.046875 3.617188 0.125 3.203125 0.125 C 2.660156 0.125 2.15625 0.03125 1.6875 -0.15625 C 1.226562 -0.34375 0.84375 -0.644531 0.53125 -1.0625 Z M 0.53125 -1.0625 "/></g></g></g><g fill="#ffffff" fill-opacity="1"><g transform="translate(159.178189, 31.170033)"><g><path d="M 0.53125 -1.0625 C 0.445312 -1.175781 0.40625 -1.289062 0.40625 -1.40625 C 0.40625 -1.582031 0.5 -1.726562 0.6875 -1.84375 C 0.769531 -1.90625 0.867188 -1.9375 0.984375 -1.9375 C 1.140625 -1.9375 1.28125 -1.875 1.40625 -1.75 C 1.664062 -1.445312 1.941406 -1.222656 2.234375 -1.078125 C 2.535156 -0.929688 2.890625 -0.859375 3.296875 -0.859375 C 3.628906 -0.867188 3.921875 -0.941406 4.171875 -1.078125 C 4.421875 -1.222656 4.546875 -1.457031 4.546875 -1.78125 C 4.546875 -2.070312 4.414062 -2.296875 4.15625 -2.453125 C 3.90625 -2.609375 3.535156 -2.75 3.046875 -2.875 C 2.566406 -3.007812 2.164062 -3.144531 1.84375 -3.28125 C 1.53125 -3.425781 1.257812 -3.632812 1.03125 -3.90625 C 0.8125 -4.175781 0.703125 -4.53125 0.703125 -4.96875 C 0.703125 -5.351562 0.8125 -5.691406 1.03125 -5.984375 C 1.257812 -6.273438 1.554688 -6.503906 1.921875 -6.671875 C 2.285156 -6.835938 2.679688 -6.921875 3.109375 -6.921875 C 3.523438 -6.921875 3.9375 -6.84375 4.34375 -6.6875 C 4.75 -6.53125 5.082031 -6.289062 5.34375 -5.96875 C 5.445312 -5.851562 5.5 -5.726562 5.5 -5.59375 C 5.5 -5.457031 5.429688 -5.328125 5.296875 -5.203125 C 5.203125 -5.117188 5.09375 -5.078125 4.96875 -5.078125 C 4.8125 -5.078125 4.6875 -5.128906 4.59375 -5.234375 C 4.414062 -5.441406 4.191406 -5.601562 3.921875 -5.71875 C 3.660156 -5.832031 3.375 -5.890625 3.0625 -5.890625 C 2.726562 -5.890625 2.445312 -5.820312 2.21875 -5.6875 C 2 -5.550781 1.890625 -5.320312 1.890625 -5 C 1.890625 -4.707031 2.015625 -4.484375 2.265625 -4.328125 C 2.523438 -4.179688 2.921875 -4.039062 3.453125 -3.90625 C 3.898438 -3.789062 4.273438 -3.660156 4.578125 -3.515625 C 4.878906 -3.378906 5.132812 -3.175781 5.34375 -2.90625 C 5.550781 -2.632812 5.65625 -2.28125 5.65625 -1.84375 C 5.65625 -1.4375 5.535156 -1.082031 5.296875 -0.78125 C 5.066406 -0.488281 4.765625 -0.265625 4.390625 -0.109375 C 4.015625 0.046875 3.617188 0.125 3.203125 0.125 C 2.660156 0.125 2.15625 0.03125 1.6875 -0.15625 C 1.226562 -0.34375 0.84375 -0.644531 0.53125 -1.0625 Z M 0.53125 -1.0625 "/></g></g></g><g fill="#ffffff" fill-opacity="1"><g transform="translate(166.1036, 31.170033)"><g><path d="M 2.078125 -0.625 C 2.078125 -0.445312 2.019531 -0.296875 1.90625 -0.171875 C 1.789062 -0.0546875 1.640625 0 1.453125 0 C 1.285156 0 1.144531 -0.0546875 1.03125 -0.171875 C 0.914062 -0.296875 0.859375 -0.445312 0.859375 -0.625 L 0.859375 -6.203125 C 0.859375 -6.378906 0.914062 -6.523438 1.03125 -6.640625 C 1.144531 -6.765625 1.285156 -6.828125 1.453125 -6.828125 C 1.640625 -6.828125 1.789062 -6.765625 1.90625 -6.640625 C 2.019531 -6.523438 2.078125 -6.378906 2.078125 -6.203125 Z M 1.453125 -7.671875 C 1.203125 -7.671875 1.019531 -7.71875 0.90625 -7.8125 C 0.800781 -7.90625 0.75 -8.050781 0.75 -8.25 L 0.75 -8.453125 C 0.75 -8.660156 0.804688 -8.804688 0.921875 -8.890625 C 1.046875 -8.972656 1.226562 -9.015625 1.46875 -9.015625 C 1.707031 -9.015625 1.878906 -8.96875 1.984375 -8.875 C 2.097656 -8.789062 2.15625 -8.648438 2.15625 -8.453125 L 2.15625 -8.25 C 2.15625 -8.039062 2.097656 -7.890625 1.984375 -7.796875 C 1.867188 -7.710938 1.691406 -7.671875 1.453125 -7.671875 Z M 1.453125 -7.671875 "/></g></g></g><g fill="#ffffff" fill-opacity="1"><g transform="translate(169.805106, 31.170033)"><g><path d="M 4.359375 -6.921875 C 5.910156 -6.921875 6.6875 -5.988281 6.6875 -4.125 L 6.6875 -0.625 C 6.6875 -0.445312 6.628906 -0.296875 6.515625 -0.171875 C 6.398438 -0.0546875 6.25 0 6.0625 0 C 5.894531 0 5.75 -0.0546875 5.625 -0.171875 C 5.507812 -0.296875 5.453125 -0.445312 5.453125 -0.625 L 5.453125 -4.109375 C 5.453125 -4.617188 5.335938 -5.023438 5.109375 -5.328125 C 4.878906 -5.628906 4.5 -5.78125 3.96875 -5.78125 C 3.625 -5.78125 3.3125 -5.703125 3.03125 -5.546875 C 2.757812 -5.398438 2.539062 -5.195312 2.375 -4.9375 C 2.21875 -4.6875 2.140625 -4.410156 2.140625 -4.109375 L 2.140625 -0.625 C 2.140625 -0.445312 2.082031 -0.296875 1.96875 -0.171875 C 1.851562 -0.0546875 1.703125 0 1.515625 0 C 1.335938 0 1.191406 -0.0546875 1.078125 -0.171875 C 0.972656 -0.285156 0.921875 -0.4375 0.921875 -0.625 L 0.921875 -6.140625 C 0.921875 -6.316406 0.976562 -6.460938 1.09375 -6.578125 C 1.207031 -6.703125 1.347656 -6.765625 1.515625 -6.765625 C 1.703125 -6.765625 1.851562 -6.703125 1.96875 -6.578125 C 2.082031 -6.460938 2.140625 -6.316406 2.140625 -6.140625 L 2.140625 -5.6875 C 2.367188 -6.03125 2.679688 -6.320312 3.078125 -6.5625 C 3.472656 -6.800781 3.898438 -6.921875 4.359375 -6.921875 Z M 4.359375 -6.921875 "/></g></g></g><g fill="#ffffff" fill-opacity="1"><g transform="translate(178.174816, 31.170033)"><g><path d="M 3.859375 -6.921875 C 4.535156 -6.921875 5.097656 -6.8125 5.546875 -6.59375 C 6.003906 -6.375 6.234375 -6.097656 6.234375 -5.765625 C 6.234375 -5.617188 6.1875 -5.488281 6.09375 -5.375 C 6 -5.257812 5.878906 -5.203125 5.734375 -5.203125 C 5.617188 -5.203125 5.53125 -5.21875 5.46875 -5.25 C 5.40625 -5.28125 5.316406 -5.335938 5.203125 -5.421875 C 5.148438 -5.472656 5.066406 -5.53125 4.953125 -5.59375 C 4.847656 -5.644531 4.703125 -5.6875 4.515625 -5.71875 C 4.328125 -5.757812 4.15625 -5.78125 4 -5.78125 C 3.550781 -5.78125 3.15625 -5.675781 2.8125 -5.46875 C 2.46875 -5.257812 2.203125 -4.972656 2.015625 -4.609375 C 1.828125 -4.242188 1.734375 -3.835938 1.734375 -3.390625 C 1.734375 -2.929688 1.820312 -2.519531 2 -2.15625 C 2.1875 -1.800781 2.445312 -1.519531 2.78125 -1.3125 C 3.125 -1.101562 3.507812 -1 3.9375 -1 C 4.382812 -1 4.742188 -1.070312 5.015625 -1.21875 C 5.078125 -1.25 5.160156 -1.300781 5.265625 -1.375 C 5.347656 -1.445312 5.421875 -1.5 5.484375 -1.53125 C 5.554688 -1.570312 5.640625 -1.59375 5.734375 -1.59375 C 5.898438 -1.59375 6.03125 -1.535156 6.125 -1.421875 C 6.226562 -1.316406 6.28125 -1.175781 6.28125 -1 C 6.28125 -0.820312 6.164062 -0.644531 5.9375 -0.46875 C 5.707031 -0.289062 5.398438 -0.144531 5.015625 -0.03125 C 4.640625 0.0703125 4.234375 0.125 3.796875 0.125 C 3.140625 0.125 2.5625 -0.0234375 2.0625 -0.328125 C 1.5625 -0.628906 1.175781 -1.050781 0.90625 -1.59375 C 0.632812 -2.132812 0.5 -2.734375 0.5 -3.390625 C 0.5 -4.054688 0.640625 -4.65625 0.921875 -5.1875 C 1.210938 -5.726562 1.609375 -6.148438 2.109375 -6.453125 C 2.617188 -6.765625 3.203125 -6.921875 3.859375 -6.921875 Z M 3.859375 -6.921875 "/></g></g></g><g fill="#ffffff" fill-opacity="1"><g transform="translate(185.577358, 31.170033)"><g><path d="M 6.859375 -3.640625 C 6.847656 -3.484375 6.78125 -3.347656 6.65625 -3.234375 C 6.539062 -3.128906 6.398438 -3.078125 6.234375 -3.078125 L 1.6875 -3.078125 C 1.75 -2.453125 1.988281 -1.945312 2.40625 -1.5625 C 2.820312 -1.1875 3.332031 -1 3.9375 -1 C 4.351562 -1 4.6875 -1.0625 4.9375 -1.1875 C 5.195312 -1.3125 5.425781 -1.46875 5.625 -1.65625 C 5.757812 -1.726562 5.882812 -1.765625 6 -1.765625 C 6.144531 -1.765625 6.265625 -1.710938 6.359375 -1.609375 C 6.460938 -1.503906 6.515625 -1.382812 6.515625 -1.25 C 6.515625 -1.070312 6.429688 -0.910156 6.265625 -0.765625 C 6.015625 -0.515625 5.679688 -0.300781 5.265625 -0.125 C 4.847656 0.0390625 4.425781 0.125 4 0.125 C 3.300781 0.125 2.6875 -0.0195312 2.15625 -0.3125 C 1.632812 -0.601562 1.226562 -1.007812 0.9375 -1.53125 C 0.644531 -2.0625 0.5 -2.65625 0.5 -3.3125 C 0.5 -4.039062 0.644531 -4.675781 0.9375 -5.21875 C 1.238281 -5.769531 1.632812 -6.191406 2.125 -6.484375 C 2.613281 -6.773438 3.132812 -6.921875 3.6875 -6.921875 C 4.238281 -6.921875 4.753906 -6.773438 5.234375 -6.484375 C 5.722656 -6.203125 6.113281 -5.8125 6.40625 -5.3125 C 6.695312 -4.8125 6.847656 -4.253906 6.859375 -3.640625 Z M 3.6875 -5.78125 C 3.207031 -5.78125 2.789062 -5.644531 2.4375 -5.375 C 2.082031 -5.101562 1.851562 -4.679688 1.75 -4.109375 L 5.546875 -4.109375 L 5.546875 -4.21875 C 5.503906 -4.675781 5.300781 -5.050781 4.9375 -5.34375 C 4.570312 -5.632812 4.15625 -5.78125 3.6875 -5.78125 Z M 3.6875 -5.78125 "/></g></g></g><g fill="#ffffff" fill-opacity="1"><g transform="translate(159.750349, 43.376127)"><g><path d="M 6.046875 -1.140625 C 6.203125 -1.140625 6.335938 -1.082031 6.453125 -0.96875 C 6.566406 -0.851562 6.625 -0.71875 6.625 -0.5625 C 6.625 -0.394531 6.566406 -0.257812 6.453125 -0.15625 C 6.335938 -0.0507812 6.203125 0 6.046875 0 L 1.453125 0 C 1.285156 0 1.144531 -0.0507812 1.03125 -0.15625 C 0.914062 -0.269531 0.859375 -0.414062 0.859375 -0.59375 C 0.859375 -0.75 0.921875 -0.894531 1.046875 -1.03125 L 3.921875 -4.15625 C 4.722656 -5.007812 5.125 -5.765625 5.125 -6.421875 C 5.125 -6.878906 4.96875 -7.257812 4.65625 -7.5625 C 4.351562 -7.875 3.96875 -8.03125 3.5 -8.03125 C 3.175781 -8.03125 2.867188 -7.9375 2.578125 -7.75 C 2.285156 -7.570312 2.050781 -7.316406 1.875 -6.984375 C 1.738281 -6.804688 1.570312 -6.71875 1.375 -6.71875 C 1.226562 -6.71875 1.09375 -6.769531 0.96875 -6.875 C 0.84375 -6.988281 0.78125 -7.117188 0.78125 -7.265625 C 0.78125 -7.359375 0.8125 -7.457031 0.875 -7.5625 C 0.9375 -7.664062 1.03125 -7.785156 1.15625 -7.921875 C 1.4375 -8.304688 1.796875 -8.609375 2.234375 -8.828125 C 2.671875 -9.046875 3.113281 -9.15625 3.5625 -9.15625 C 4.132812 -9.15625 4.628906 -9.039062 5.046875 -8.8125 C 5.472656 -8.582031 5.800781 -8.265625 6.03125 -7.859375 C 6.257812 -7.453125 6.375 -6.988281 6.375 -6.46875 C 6.375 -5.476562 5.84375 -4.410156 4.78125 -3.265625 L 2.828125 -1.140625 Z M 6.046875 -1.140625 "/></g></g></g><g fill="#ffffff" fill-opacity="1"><g transform="translate(167.604232, 43.376127)"><g><path d="M 3.90625 0.125 C 3.207031 0.125 2.609375 -0.0703125 2.109375 -0.46875 C 1.609375 -0.863281 1.226562 -1.410156 0.96875 -2.109375 C 0.71875 -2.804688 0.59375 -3.609375 0.59375 -4.515625 C 0.59375 -5.429688 0.71875 -6.234375 0.96875 -6.921875 C 1.226562 -7.617188 1.609375 -8.164062 2.109375 -8.5625 C 2.609375 -8.957031 3.207031 -9.15625 3.90625 -9.15625 C 4.613281 -9.15625 5.21875 -8.957031 5.71875 -8.5625 C 6.21875 -8.164062 6.59375 -7.617188 6.84375 -6.921875 C 7.101562 -6.234375 7.234375 -5.429688 7.234375 -4.515625 C 7.234375 -3.609375 7.101562 -2.804688 6.84375 -2.109375 C 6.59375 -1.410156 6.21875 -0.863281 5.71875 -0.46875 C 5.21875 -0.0703125 4.613281 0.125 3.90625 0.125 Z M 3.90625 -1.109375 C 4.539062 -1.109375 5.03125 -1.40625 5.375 -2 C 5.71875 -2.59375 5.890625 -3.429688 5.890625 -4.515625 C 5.890625 -5.597656 5.71875 -6.4375 5.375 -7.03125 C 5.03125 -7.625 4.539062 -7.921875 3.90625 -7.921875 C 3.28125 -7.921875 2.789062 -7.625 2.4375 -7.03125 C 2.09375 -6.4375 1.921875 -5.597656 1.921875 -4.515625 C 1.921875 -3.429688 2.09375 -2.59375 2.4375 -2 C 2.789062 -1.40625 3.28125 -1.109375 3.90625 -1.109375 Z M 3.90625 -1.109375 "/></g></g></g><g fill="#ffffff" fill-opacity="1"><g transform="translate(176.193173, 43.376127)"><g><path d="M 6.046875 -1.140625 C 6.203125 -1.140625 6.335938 -1.082031 6.453125 -0.96875 C 6.566406 -0.851562 6.625 -0.71875 6.625 -0.5625 C 6.625 -0.394531 6.566406 -0.257812 6.453125 -0.15625 C 6.335938 -0.0507812 6.203125 0 6.046875 0 L 1.453125 0 C 1.285156 0 1.144531 -0.0507812 1.03125 -0.15625 C 0.914062 -0.269531 0.859375 -0.414062 0.859375 -0.59375 C 0.859375 -0.75 0.921875 -0.894531 1.046875 -1.03125 L 3.921875 -4.15625 C 4.722656 -5.007812 5.125 -5.765625 5.125 -6.421875 C 5.125 -6.878906 4.96875 -7.257812 4.65625 -7.5625 C 4.351562 -7.875 3.96875 -8.03125 3.5 -8.03125 C 3.175781 -8.03125 2.867188 -7.9375 2.578125 -7.75 C 2.285156 -7.570312 2.050781 -7.316406 1.875 -6.984375 C 1.738281 -6.804688 1.570312 -6.71875 1.375 -6.71875 C 1.226562 -6.71875 1.09375 -6.769531 0.96875 -6.875 C 0.84375 -6.988281 0.78125 -7.117188 0.78125 -7.265625 C 0.78125 -7.359375 0.8125 -7.457031 0.875 -7.5625 C 0.9375 -7.664062 1.03125 -7.785156 1.15625 -7.921875 C 1.4375 -8.304688 1.796875 -8.609375 2.234375 -8.828125 C 2.671875 -9.046875 3.113281 -9.15625 3.5625 -9.15625 C 4.132812 -9.15625 4.628906 -9.039062 5.046875 -8.8125 C 5.472656 -8.582031 5.800781 -8.265625 6.03125 -7.859375 C 6.257812 -7.453125 6.375 -6.988281 6.375 -6.46875 C 6.375 -5.476562 5.84375 -4.410156 4.78125 -3.265625 L 2.828125 -1.140625 Z M 6.046875 -1.140625 "/></g></g></g><g fill="#ffffff" fill-opacity="1"><g transform="translate(184.047056, 43.376127)"><g><path d="M 6.921875 -3.71875 C 7.078125 -3.71875 7.210938 -3.660156 7.328125 -3.546875 C 7.441406 -3.441406 7.5 -3.3125 7.5 -3.15625 C 7.5 -2.988281 7.441406 -2.851562 7.328125 -2.75 C 7.210938 -2.644531 7.078125 -2.59375 6.921875 -2.59375 L 6.234375 -2.59375 L 6.234375 -0.625 C 6.234375 -0.445312 6.171875 -0.296875 6.046875 -0.171875 C 5.929688 -0.0546875 5.785156 0 5.609375 0 C 5.441406 0 5.296875 -0.0546875 5.171875 -0.171875 C 5.054688 -0.296875 5 -0.445312 5 -0.625 L 5 -2.59375 L 1.46875 -2.59375 C 1.3125 -2.59375 1.171875 -2.648438 1.046875 -2.765625 C 0.921875 -2.890625 0.859375 -3.035156 0.859375 -3.203125 C 0.859375 -3.359375 0.90625 -3.492188 1 -3.609375 L 5.125 -8.796875 C 5.1875 -8.867188 5.257812 -8.925781 5.34375 -8.96875 C 5.4375 -9.007812 5.53125 -9.03125 5.625 -9.03125 C 5.800781 -9.03125 5.945312 -8.96875 6.0625 -8.84375 C 6.175781 -8.726562 6.234375 -8.585938 6.234375 -8.421875 L 6.234375 -3.71875 Z M 2.484375 -3.71875 L 5 -3.71875 L 5 -6.9375 Z M 2.484375 -3.71875 "/></g></g></g></svg>