<?xml version="1.0" encoding="UTF-8" standalone="no"?>
<!DOCTYPE svg PUBLIC "-//W3C//DTD SVG 1.1//EN"
 "http://www.w3.org/Graphics/SVG/1.1/DTD/svg11.dtd">
<!-- Generated by graphviz version 2.43.0 (0)
 -->
<!-- Title: WebsiteNavigationSimple Pages: 1 -->
<svg width="2144pt" height="2390pt"
 viewBox="0.00 0.00 1029.00 1147.00" xmlns="http://www.w3.org/2000/svg" xmlns:xlink="http://www.w3.org/1999/xlink">
<g id="graph0" class="graph" transform="scale(2.08 2.08) rotate(0) translate(4 1143)">
<title>WebsiteNavigationSimple</title>
<polygon fill="#1a1a2e" stroke="transparent" points="-4,4 -4,-1143 1025,-1143 1025,4 -4,4"/>
<g id="clust1" class="cluster">
<title>cluster_legend</title>
<polygon fill="#2d3748" stroke="#e5e7eb" points="8,-842 8,-1131 154,-1131 154,-842 8,-842"/>
<text text-anchor="middle" x="81" y="-1119" font-family="Arial" font-size="10.00" fill="white">Navigation Types</text>
</g>
<!-- index -->
<g id="node1" class="node">
<title>index</title>
<path fill="#ffd700" stroke="black" stroke-width="2" d="M134,-628C134,-628 28,-628 28,-628 22,-628 16,-622 16,-616 16,-616 16,-590 16,-590 16,-584 22,-578 28,-578 28,-578 134,-578 134,-578 140,-578 146,-584 146,-590 146,-590 146,-616 146,-616 146,-622 140,-628 134,-628"/>
<text text-anchor="middle" x="81" y="-599.9" font-family="Arial" font-size="12.00">index.html</text>
</g>
<!-- brands -->
<g id="node2" class="node">
<title>brands</title>
<path fill="#e5e7eb" stroke="black" d="M134,-696C134,-696 28,-696 28,-696 22,-696 16,-690 16,-684 16,-684 16,-658 16,-658 16,-652 22,-646 28,-646 28,-646 134,-646 134,-646 140,-646 146,-652 146,-658 146,-658 146,-684 146,-684 146,-690 140,-696 134,-696"/>
<text text-anchor="middle" x="81" y="-668.2" font-family="Arial" font-size="11.00">brands.html</text>
</g>
<!-- consume -->
<g id="node3" class="node">
<title>consume</title>
<path fill="#8b5cf6" stroke="black" stroke-width="2" d="M300,-955C300,-955 194,-955 194,-955 188,-955 182,-949 182,-943 182,-943 182,-917 182,-917 182,-911 188,-905 194,-905 194,-905 300,-905 300,-905 306,-905 312,-911 312,-917 312,-917 312,-943 312,-943 312,-949 306,-955 300,-955"/>
<text text-anchor="middle" x="247" y="-927.2" font-family="Arial" font-size="11.00" fill="white">consume.html</text>
</g>
<!-- brands&#45;&gt;consume -->
<g id="edge1" class="edge">
<title>brands&#45;&gt;consume</title>
<path fill="none" stroke="#8b5cf6" d="M146.15,-684C159.72,-684 170,-684 170,-684 170,-684 170,-911.5 170,-911.5 170,-911.5 171.69,-911.5 171.69,-911.5"/>
<polygon fill="#8b5cf6" stroke="#8b5cf6" points="171.69,-915 181.69,-911.5 171.69,-908 171.69,-915"/>
</g>
<!-- interact -->
<g id="node4" class="node">
<title>interact</title>
<path fill="#06b6d4" stroke="black" stroke-width="2" d="M300,-764C300,-764 194,-764 194,-764 188,-764 182,-758 182,-752 182,-752 182,-726 182,-726 182,-720 188,-714 194,-714 194,-714 300,-714 300,-714 306,-714 312,-720 312,-726 312,-726 312,-752 312,-752 312,-758 306,-764 300,-764"/>
<text text-anchor="middle" x="247" y="-736.2" font-family="Arial" font-size="11.00" fill="white">interact.html</text>
</g>
<!-- brands&#45;&gt;interact -->
<g id="edge2" class="edge">
<title>brands&#45;&gt;interact</title>
<path fill="none" stroke="#06b6d4" d="M146.13,-692C192.64,-692 247,-692 247,-692 247,-692 247,-703.85 247,-703.85"/>
<polygon fill="#06b6d4" stroke="#06b6d4" points="243.5,-703.85 247,-713.85 250.5,-703.85 243.5,-703.85"/>
</g>
<!-- learn -->
<g id="node5" class="node">
<title>learn</title>
<path fill="#10b981" stroke="black" stroke-width="2" d="M300,-662C300,-662 194,-662 194,-662 188,-662 182,-656 182,-650 182,-650 182,-624 182,-624 182,-618 188,-612 194,-612 194,-612 300,-612 300,-612 306,-612 312,-618 312,-624 312,-624 312,-650 312,-650 312,-656 306,-662 300,-662"/>
<text text-anchor="middle" x="247" y="-634.2" font-family="Arial" font-size="11.00" fill="white">learn.html</text>
</g>
<!-- brands&#45;&gt;learn -->
<g id="edge3" class="edge">
<title>brands&#45;&gt;learn</title>
<path fill="none" stroke="#10b981" d="M146.13,-658.8C146.13,-658.8 171.78,-658.8 171.78,-658.8"/>
<polygon fill="#10b981" stroke="#10b981" points="171.78,-662.3 181.78,-658.8 171.78,-655.3 171.78,-662.3"/>
</g>
<!-- dobusiness -->
<g id="node6" class="node">
<title>dobusiness</title>
<path fill="#f59e0b" stroke="black" stroke-width="2" d="M300,-492C300,-492 194,-492 194,-492 188,-492 182,-486 182,-480 182,-480 182,-454 182,-454 182,-448 188,-442 194,-442 194,-442 300,-442 300,-442 306,-442 312,-448 312,-454 312,-454 312,-480 312,-480 312,-486 306,-492 300,-492"/>
<text text-anchor="middle" x="247" y="-464.2" font-family="Arial" font-size="11.00" fill="white">do&#45;business.html</text>
</g>
<!-- brands&#45;&gt;dobusiness -->
<g id="edge4" class="edge">
<title>brands&#45;&gt;dobusiness</title>
<path fill="none" stroke="#f59e0b" d="M146.2,-655.6C162.78,-655.6 176,-655.6 176,-655.6 176,-655.6 176,-467 176,-467 176,-467 176.56,-467 176.56,-467"/>
<polygon fill="#f59e0b" stroke="#f59e0b" points="171.57,-470.5 181.57,-467 171.57,-463.5 171.57,-470.5"/>
</g>
<!-- connect -->
<g id="node7" class="node">
<title>connect</title>
<path fill="#6b7280" stroke="black" d="M300,-390C300,-390 194,-390 194,-390 188,-390 182,-384 182,-378 182,-378 182,-352 182,-352 182,-346 188,-340 194,-340 194,-340 300,-340 300,-340 306,-340 312,-346 312,-352 312,-352 312,-378 312,-378 312,-384 306,-390 300,-390"/>
<text text-anchor="middle" x="247" y="-362.5" font-family="Arial" font-size="10.00" fill="white">connect.html</text>
</g>
<!-- brands&#45;&gt;connect -->
<g id="edge5" class="edge">
<title>brands&#45;&gt;connect</title>
<path fill="none" stroke="#6b7280" d="M146.4,-652.4C156.68,-652.4 164,-652.4 164,-652.4 164,-652.4 164,-365 164,-365 164,-365 171.6,-365 171.6,-365"/>
<polygon fill="#6b7280" stroke="#6b7280" points="171.6,-368.5 181.6,-365 171.6,-361.5 171.6,-368.5"/>
</g>
<!-- amusements -->
<g id="node11" class="node">
<title>amusements</title>
<path fill="#a78bfa" stroke="black" d="M477.5,-1070C477.5,-1070 371.5,-1070 371.5,-1070 365.5,-1070 359.5,-1064 359.5,-1058 359.5,-1058 359.5,-1032 359.5,-1032 359.5,-1026 365.5,-1020 371.5,-1020 371.5,-1020 477.5,-1020 477.5,-1020 483.5,-1020 489.5,-1026 489.5,-1032 489.5,-1032 489.5,-1058 489.5,-1058 489.5,-1064 483.5,-1070 477.5,-1070"/>
<text text-anchor="middle" x="424.5" y="-1042.5" font-family="Arial" font-size="10.00" fill="white">amusements.html</text>
</g>
<!-- brands&#45;&gt;amusements -->
<g id="edge8" class="edge">
<title>brands&#45;&gt;amusements</title>
<path fill="none" stroke="#a78bfa" d="M146.43,-688C149.9,-688 152,-688 152,-688 152,-688 152,-1030.67 152,-1030.67 152,-1030.67 349.23,-1030.67 349.23,-1030.67"/>
<polygon fill="#a78bfa" stroke="#a78bfa" points="349.23,-1034.17 359.23,-1030.67 349.23,-1027.17 349.23,-1034.17"/>
</g>
<!-- asabaal -->
<g id="node24" class="node">
<title>asabaal</title>
<path fill="#f472b6" stroke="black" d="M300,-220C300,-220 194,-220 194,-220 188,-220 182,-214 182,-208 182,-208 182,-182 182,-182 182,-176 188,-170 194,-170 194,-170 300,-170 300,-170 306,-170 312,-176 312,-182 312,-182 312,-208 312,-208 312,-214 306,-220 300,-220"/>
<text text-anchor="middle" x="247" y="-192.5" font-family="Arial" font-size="10.00" fill="white">asabaal.html</text>
</g>
<!-- brands&#45;&gt;asabaal -->
<g id="edge6" class="edge">
<title>brands&#45;&gt;asabaal</title>
<path fill="none" stroke="#f472b6" d="M146.31,-649.2C153.34,-649.2 158,-649.2 158,-649.2 158,-649.2 158,-195 158,-195 158,-195 171.85,-195 171.85,-195"/>
<polygon fill="#f472b6" stroke="#f472b6" points="171.85,-198.5 181.85,-195 171.85,-191.5 171.85,-198.5"/>
</g>
<!-- advancements -->
<g id="node25" class="node">
<title>advancements</title>
<path fill="#f472b6" stroke="black" d="M677,-1134C677,-1134 549,-1134 549,-1134 543,-1134 537,-1128 537,-1122 537,-1122 537,-1096 537,-1096 537,-1090 543,-1084 549,-1084 549,-1084 677,-1084 677,-1084 683,-1084 689,-1090 689,-1096 689,-1096 689,-1122 689,-1122 689,-1128 683,-1134 677,-1134"/>
<text text-anchor="middle" x="613" y="-1106.5" font-family="Arial" font-size="10.00" fill="white">advancements&#45;by&#45;asabaal.html</text>
</g>
<!-- brands&#45;&gt;advancements -->
<g id="edge7" class="edge">
<title>brands&#45;&gt;advancements</title>
<path fill="none" stroke="#f472b6" d="M146.21,-671C273.56,-671 543,-671 543,-671 543,-671 543,-1073.88 543,-1073.88"/>
<polygon fill="#f472b6" stroke="#f472b6" points="539.5,-1073.88 543,-1083.88 546.5,-1073.88 539.5,-1073.88"/>
</g>
<!-- consume&#45;&gt;amusements -->
<g id="edge9" class="edge">
<title>consume&#45;&gt;amusements</title>
<path fill="none" stroke="#a78bfa" stroke-width="2" d="M226,-955.05C226,-983.29 226,-1025.33 226,-1025.33 226,-1025.33 349.23,-1025.33 349.23,-1025.33"/>
<polygon fill="#a78bfa" stroke="#a78bfa" stroke-width="2" points="349.23,-1028.83 359.23,-1025.33 349.23,-1021.83 349.23,-1028.83"/>
</g>
<!-- bloglisting -->
<g id="node12" class="node">
<title>bloglisting</title>
<path fill="#a78bfa" stroke="black" d="M477.5,-1002C477.5,-1002 371.5,-1002 371.5,-1002 365.5,-1002 359.5,-996 359.5,-990 359.5,-990 359.5,-964 359.5,-964 359.5,-958 365.5,-952 371.5,-952 371.5,-952 477.5,-952 477.5,-952 483.5,-952 489.5,-958 489.5,-964 489.5,-964 489.5,-990 489.5,-990 489.5,-996 483.5,-1002 477.5,-1002"/>
<text text-anchor="middle" x="424.5" y="-974.5" font-family="Arial" font-size="10.00" fill="white">blog&#45;listing.html</text>
</g>
<!-- consume&#45;&gt;bloglisting -->
<g id="edge10" class="edge">
<title>consume&#45;&gt;bloglisting</title>
<path fill="none" stroke="#a78bfa" d="M269,-955.13C269,-958.87 269,-961.5 269,-961.5 269,-961.5 349.45,-961.5 349.45,-961.5"/>
<polygon fill="#a78bfa" stroke="#a78bfa" points="349.46,-965 359.45,-961.5 349.45,-958 349.46,-965"/>
</g>
<!-- blogsselection -->
<g id="node13" class="node">
<title>blogsselection</title>
<path fill="#a78bfa" stroke="black" d="M477.5,-934C477.5,-934 371.5,-934 371.5,-934 365.5,-934 359.5,-928 359.5,-922 359.5,-922 359.5,-896 359.5,-896 359.5,-890 365.5,-884 371.5,-884 371.5,-884 477.5,-884 477.5,-884 483.5,-884 489.5,-890 489.5,-896 489.5,-896 489.5,-922 489.5,-922 489.5,-928 483.5,-934 477.5,-934"/>
<text text-anchor="middle" x="424.5" y="-906.5" font-family="Arial" font-size="10.00" fill="white">blogs&#45;selection.html</text>
</g>
<!-- consume&#45;&gt;blogsselection -->
<g id="edge11" class="edge">
<title>consume&#45;&gt;blogsselection</title>
<path fill="none" stroke="#a78bfa" d="M312.09,-919.5C312.09,-919.5 349.42,-919.5 349.42,-919.5"/>
<polygon fill="#a78bfa" stroke="#a78bfa" points="349.42,-923 359.42,-919.5 349.42,-916 349.42,-923"/>
</g>
<!-- dispatch -->
<g id="node16" class="node">
<title>dispatch</title>
<path fill="#67e8f9" stroke="black" d="M489,-798C489,-798 360,-798 360,-798 354,-798 348,-792 348,-786 348,-786 348,-760 348,-760 348,-754 354,-748 360,-748 360,-748 489,-748 489,-748 495,-748 501,-754 501,-760 501,-760 501,-786 501,-786 501,-792 495,-798 489,-798"/>
<text text-anchor="middle" x="424.5" y="-770.5" font-family="Arial" font-size="10.00" fill="white">dispatch&#45;revenue&#45;reporting.html</text>
</g>
<!-- interact&#45;&gt;dispatch -->
<g id="edge15" class="edge">
<title>interact&#45;&gt;dispatch</title>
<path fill="none" stroke="#67e8f9" d="M312.09,-756C312.09,-756 337.99,-756 337.99,-756"/>
<polygon fill="#67e8f9" stroke="#67e8f9" points="337.99,-759.5 347.99,-756 337.99,-752.5 337.99,-759.5"/>
</g>
<!-- tictactoe -->
<g id="node17" class="node">
<title>tictactoe</title>
<path fill="#67e8f9" stroke="black" d="M477.5,-730C477.5,-730 371.5,-730 371.5,-730 365.5,-730 359.5,-724 359.5,-718 359.5,-718 359.5,-692 359.5,-692 359.5,-686 365.5,-680 371.5,-680 371.5,-680 477.5,-680 477.5,-680 483.5,-680 489.5,-686 489.5,-692 489.5,-692 489.5,-718 489.5,-718 489.5,-724 483.5,-730 477.5,-730"/>
<text text-anchor="middle" x="424.5" y="-702.5" font-family="Arial" font-size="10.00" fill="white">tic&#45;tac&#45;toe.html</text>
</g>
<!-- interact&#45;&gt;tictactoe -->
<g id="edge16" class="edge">
<title>interact&#45;&gt;tictactoe</title>
<path fill="none" stroke="#67e8f9" d="M312.09,-722C312.09,-722 349.42,-722 349.42,-722"/>
<polygon fill="#67e8f9" stroke="#67e8f9" points="349.42,-725.5 359.42,-722 349.42,-718.5 349.42,-725.5"/>
</g>
<!-- unityremix -->
<g id="node18" class="node">
<title>unityremix</title>
<path fill="#67e8f9" stroke="black" d="M477.5,-866C477.5,-866 371.5,-866 371.5,-866 365.5,-866 359.5,-860 359.5,-854 359.5,-854 359.5,-828 359.5,-828 359.5,-822 365.5,-816 371.5,-816 371.5,-816 477.5,-816 477.5,-816 483.5,-816 489.5,-822 489.5,-828 489.5,-828 489.5,-854 489.5,-854 489.5,-860 483.5,-866 477.5,-866"/>
<text text-anchor="middle" x="424.5" y="-838.5" font-family="Arial" font-size="10.00" fill="white">unity&#45;remix&#45;contest.html</text>
</g>
<!-- interact&#45;&gt;unityremix -->
<g id="edge17" class="edge">
<title>interact&#45;&gt;unityremix</title>
<path fill="none" stroke="#67e8f9" stroke-width="2" d="M247,-764.04C247,-789.12 247,-824 247,-824 247,-824 349.41,-824 349.41,-824"/>
<polygon fill="#67e8f9" stroke="#67e8f9" stroke-width="2" points="349.41,-827.5 359.41,-824 349.41,-820.5 349.41,-827.5"/>
</g>
<!-- aboutfounder -->
<g id="node19" class="node">
<title>aboutfounder</title>
<path fill="#34d399" stroke="black" d="M477.5,-662C477.5,-662 371.5,-662 371.5,-662 365.5,-662 359.5,-656 359.5,-650 359.5,-650 359.5,-624 359.5,-624 359.5,-618 365.5,-612 371.5,-612 371.5,-612 477.5,-612 477.5,-612 483.5,-612 489.5,-618 489.5,-624 489.5,-624 489.5,-650 489.5,-650 489.5,-656 483.5,-662 477.5,-662"/>
<text text-anchor="middle" x="424.5" y="-634.5" font-family="Arial" font-size="10.00" fill="white">about&#45;founder.html</text>
</g>
<!-- learn&#45;&gt;aboutfounder -->
<g id="edge18" class="edge">
<title>learn&#45;&gt;aboutfounder</title>
<path fill="none" stroke="#34d399" d="M312.09,-637C312.09,-637 349.42,-637 349.42,-637"/>
<polygon fill="#34d399" stroke="#34d399" points="349.42,-640.5 359.42,-637 349.42,-633.5 349.42,-640.5"/>
</g>
<!-- whatwedo -->
<g id="node20" class="node">
<title>whatwedo</title>
<path fill="#34d399" stroke="black" d="M477.5,-594C477.5,-594 371.5,-594 371.5,-594 365.5,-594 359.5,-588 359.5,-582 359.5,-582 359.5,-556 359.5,-556 359.5,-550 365.5,-544 371.5,-544 371.5,-544 477.5,-544 477.5,-544 483.5,-544 489.5,-550 489.5,-556 489.5,-556 489.5,-582 489.5,-582 489.5,-588 483.5,-594 477.5,-594"/>
<text text-anchor="middle" x="424.5" y="-566.5" font-family="Arial" font-size="10.00" fill="white">what&#45;we&#45;do.html</text>
</g>
<!-- learn&#45;&gt;whatwedo -->
<g id="edge19" class="edge">
<title>learn&#45;&gt;whatwedo</title>
<path fill="none" stroke="#34d399" d="M247,-611.8C247,-598.95 247,-586 247,-586 247,-586 349.41,-586 349.41,-586"/>
<polygon fill="#34d399" stroke="#34d399" points="349.41,-589.5 359.41,-586 349.41,-582.5 349.41,-589.5"/>
</g>
<!-- products -->
<g id="node21" class="node">
<title>products</title>
<path fill="#fbbf24" stroke="black" d="M477.5,-458C477.5,-458 371.5,-458 371.5,-458 365.5,-458 359.5,-452 359.5,-446 359.5,-446 359.5,-420 359.5,-420 359.5,-414 365.5,-408 371.5,-408 371.5,-408 477.5,-408 477.5,-408 483.5,-408 489.5,-414 489.5,-420 489.5,-420 489.5,-446 489.5,-446 489.5,-452 483.5,-458 477.5,-458"/>
<text text-anchor="middle" x="424.5" y="-430.5" font-family="Arial" font-size="10.00">products.html</text>
</g>
<!-- dobusiness&#45;&gt;products -->
<g id="edge20" class="edge">
<title>dobusiness&#45;&gt;products</title>
<path fill="none" stroke="#fbbf24" d="M312.09,-452.67C312.09,-452.67 349.42,-452.67 349.42,-452.67"/>
<polygon fill="#fbbf24" stroke="#fbbf24" points="349.42,-456.17 359.42,-452.67 349.42,-449.17 349.42,-456.17"/>
</g>
<!-- services -->
<g id="node22" class="node">
<title>services</title>
<path fill="#fbbf24" stroke="black" d="M477.5,-390C477.5,-390 371.5,-390 371.5,-390 365.5,-390 359.5,-384 359.5,-378 359.5,-378 359.5,-352 359.5,-352 359.5,-346 365.5,-340 371.5,-340 371.5,-340 477.5,-340 477.5,-340 483.5,-340 489.5,-346 489.5,-352 489.5,-352 489.5,-378 489.5,-378 489.5,-384 483.5,-390 477.5,-390"/>
<text text-anchor="middle" x="424.5" y="-362.5" font-family="Arial" font-size="10.00">services.html</text>
</g>
<!-- dobusiness&#45;&gt;services -->
<g id="edge21" class="edge">
<title>dobusiness&#45;&gt;services</title>
<path fill="none" stroke="#fbbf24" d="M312.02,-447.33C334.42,-447.33 354,-447.33 354,-447.33 354,-447.33 354,-365 354,-365 354,-365 354.51,-365 354.51,-365"/>
<polygon fill="#fbbf24" stroke="#fbbf24" points="349.07,-368.5 359.07,-365 349.07,-361.5 349.07,-368.5"/>
</g>
<!-- partner -->
<g id="node23" class="node">
<title>partner</title>
<path fill="#fbbf24" stroke="black" d="M477.5,-526C477.5,-526 371.5,-526 371.5,-526 365.5,-526 359.5,-520 359.5,-514 359.5,-514 359.5,-488 359.5,-488 359.5,-482 365.5,-476 371.5,-476 371.5,-476 477.5,-476 477.5,-476 483.5,-476 489.5,-482 489.5,-488 489.5,-488 489.5,-514 489.5,-514 489.5,-520 483.5,-526 477.5,-526"/>
<text text-anchor="middle" x="424.5" y="-498.5" font-family="Arial" font-size="10.00">partner.html</text>
</g>
<!-- dobusiness&#45;&gt;partner -->
<g id="edge22" class="edge">
<title>dobusiness&#45;&gt;partner</title>
<path fill="none" stroke="#fbbf24" d="M312.09,-484C312.09,-484 349.42,-484 349.42,-484"/>
<polygon fill="#fbbf24" stroke="#fbbf24" points="349.42,-487.5 359.42,-484 349.42,-480.5 349.42,-487.5"/>
</g>
<!-- extern_email -->
<g id="node33" class="node">
<title>extern_email</title>
<ellipse fill="#d1d5db" stroke="black" cx="424.5" cy="-297" rx="65" ry="25"/>
<text text-anchor="middle" x="424.5" y="-294.5" font-family="Arial" font-size="10.00">Email Contact</text>
</g>
<!-- connect&#45;&gt;extern_email -->
<g id="edge31" class="edge">
<title>connect&#45;&gt;extern_email</title>
<path fill="none" stroke="#9ca3af" stroke-dasharray="5,2" d="M247,-339.68C247,-320.35 247,-297 247,-297 247,-297 349.41,-297 349.41,-297"/>
<polygon fill="#9ca3af" stroke="#9ca3af" points="349.41,-300.5 359.41,-297 349.41,-293.5 349.41,-300.5"/>
</g>
<!-- links -->
<g id="node8" class="node">
<title>links</title>
<path fill="#6b7280" stroke="black" d="M300,-84C300,-84 194,-84 194,-84 188,-84 182,-78 182,-72 182,-72 182,-46 182,-46 182,-40 188,-34 194,-34 194,-34 300,-34 300,-34 306,-34 312,-40 312,-46 312,-46 312,-72 312,-72 312,-78 306,-84 300,-84"/>
<text text-anchor="middle" x="247" y="-56.5" font-family="Arial" font-size="10.00" fill="white">links.html</text>
</g>
<!-- extern_social -->
<g id="node31" class="node">
<title>extern_social</title>
<ellipse fill="#d1d5db" stroke="black" cx="424.5" cy="-25" rx="65" ry="25"/>
<text text-anchor="middle" x="424.5" y="-22.5" font-family="Arial" font-size="10.00">Social Platforms</text>
</g>
<!-- links&#45;&gt;extern_social -->
<g id="edge29" class="edge">
<title>links&#45;&gt;extern_social</title>
<path fill="none" stroke="#9ca3af" stroke-width="2" stroke-dasharray="5,2" d="M312.09,-42C312.09,-42 366.66,-42 366.66,-42"/>
<polygon fill="#9ca3af" stroke="#9ca3af" stroke-width="2" points="366.66,-45.5 376.66,-42 366.66,-38.5 366.66,-45.5"/>
</g>
<!-- extern_music -->
<g id="node32" class="node">
<title>extern_music</title>
<ellipse fill="#d1d5db" stroke="black" cx="424.5" cy="-93" rx="65" ry="25"/>
<text text-anchor="middle" x="424.5" y="-90.5" font-family="Arial" font-size="10.00">Music Platforms</text>
</g>
<!-- links&#45;&gt;extern_music -->
<g id="edge30" class="edge">
<title>links&#45;&gt;extern_music</title>
<path fill="none" stroke="#9ca3af" stroke-width="2" stroke-dasharray="5,2" d="M312.09,-76C312.09,-76 366.66,-76 366.66,-76"/>
<polygon fill="#9ca3af" stroke="#9ca3af" stroke-width="2" points="366.66,-79.5 376.66,-76 366.66,-72.5 366.66,-79.5"/>
</g>
<!-- privacy -->
<g id="node9" class="node">
<title>privacy</title>
<path fill="#6b7280" stroke="black" d="M134,-764C134,-764 28,-764 28,-764 22,-764 16,-758 16,-752 16,-752 16,-726 16,-726 16,-720 22,-714 28,-714 28,-714 134,-714 134,-714 140,-714 146,-720 146,-726 146,-726 146,-752 146,-752 146,-758 140,-764 134,-764"/>
<text text-anchor="middle" x="81" y="-736.5" font-family="Arial" font-size="10.00" fill="white">privacy.html</text>
</g>
<!-- terms -->
<g id="node10" class="node">
<title>terms</title>
<path fill="#6b7280" stroke="black" d="M134,-832C134,-832 28,-832 28,-832 22,-832 16,-826 16,-820 16,-820 16,-794 16,-794 16,-788 22,-782 28,-782 28,-782 134,-782 134,-782 140,-782 146,-788 146,-794 146,-794 146,-820 146,-820 146,-826 140,-832 134,-832"/>
<text text-anchor="middle" x="81" y="-804.5" font-family="Arial" font-size="10.00" fill="white">terms.html</text>
</g>
<!-- shows -->
<g id="node14" class="node">
<title>shows</title>
<path fill="#c4b5fd" stroke="black" d="M666,-998C666,-998 560,-998 560,-998 554,-998 548,-992 548,-986 548,-986 548,-960 548,-960 548,-954 554,-948 560,-948 560,-948 666,-948 666,-948 672,-948 678,-954 678,-960 678,-960 678,-986 678,-986 678,-992 672,-998 666,-998"/>
<text text-anchor="middle" x="613" y="-970.5" font-family="Arial" font-size="10.00" fill="white">shows.html</text>
</g>
<!-- amusements&#45;&gt;shows -->
<g id="edge12" class="edge">
<title>amusements&#45;&gt;shows</title>
<path fill="none" stroke="#c4b5fd" d="M489.9,-1035.33C493.69,-1035.33 496,-1035.33 496,-1035.33 496,-1035.33 496,-975 496,-975 496,-975 538,-975 538,-975"/>
<polygon fill="#c4b5fd" stroke="#c4b5fd" points="538,-978.5 548,-975 538,-971.5 538,-978.5"/>
</g>
<!-- games -->
<g id="node15" class="node">
<title>games</title>
<path fill="#c4b5fd" stroke="black" d="M666,-1066C666,-1066 560,-1066 560,-1066 554,-1066 548,-1060 548,-1054 548,-1054 548,-1028 548,-1028 548,-1022 554,-1016 560,-1016 560,-1016 666,-1016 666,-1016 672,-1016 678,-1022 678,-1028 678,-1028 678,-1054 678,-1054 678,-1060 672,-1066 666,-1066"/>
<text text-anchor="middle" x="613" y="-1038.5" font-family="Arial" font-size="10.00" fill="white">games.html</text>
</g>
<!-- amusements&#45;&gt;games -->
<g id="edge13" class="edge">
<title>amusements&#45;&gt;games</title>
<path fill="none" stroke="#c4b5fd" d="M489.63,-1050.67C489.63,-1050.67 537.86,-1050.67 537.86,-1050.67"/>
<polygon fill="#c4b5fd" stroke="#c4b5fd" points="537.86,-1054.17 547.86,-1050.67 537.86,-1047.17 537.86,-1054.17"/>
</g>
<!-- vision2054 -->
<g id="node28" class="node">
<title>vision2054</title>
<path fill="#c084fc" stroke="black" d="M843,-1006C843,-1006 737,-1006 737,-1006 731,-1006 725,-1000 725,-994 725,-994 725,-968 725,-968 725,-962 731,-956 737,-956 737,-956 843,-956 843,-956 849,-956 855,-962 855,-968 855,-968 855,-994 855,-994 855,-1000 849,-1006 843,-1006"/>
<text text-anchor="middle" x="790" y="-978.5" font-family="Arial" font-size="10.00" fill="white">vision_2054_page.html</text>
</g>
<!-- shows&#45;&gt;vision2054 -->
<g id="edge14" class="edge">
<title>shows&#45;&gt;vision2054</title>
<path fill="none" stroke="#c084fc" d="M678.15,-970C678.15,-970 714.98,-970 714.98,-970"/>
<polygon fill="#c084fc" stroke="#c084fc" points="714.98,-973.5 724.98,-970 714.98,-966.5 714.98,-973.5"/>
</g>
<!-- blog -->
<g id="node30" class="node">
<title>blog</title>
<path fill="#e879f9" stroke="black" d="M1009,-1006C1009,-1006 903,-1006 903,-1006 897,-1006 891,-1000 891,-994 891,-994 891,-968 891,-968 891,-962 897,-956 903,-956 903,-956 1009,-956 1009,-956 1015,-956 1021,-962 1021,-968 1021,-968 1021,-994 1021,-994 1021,-1000 1015,-1006 1009,-1006"/>
<text text-anchor="middle" x="956" y="-978.5" font-family="Arial" font-size="10.00" fill="white">blog.html</text>
</g>
<!-- unityremix&#45;&gt;blog -->
<g id="edge33" class="edge">
<title>unityremix&#45;&gt;blog</title>
<path fill="none" stroke="#e879f9" d="M489.67,-841C631.6,-841 956,-841 956,-841 956,-841 956,-945.97 956,-945.97"/>
<polygon fill="#e879f9" stroke="#e879f9" points="952.5,-945.97 956,-955.97 959.5,-945.97 952.5,-945.97"/>
</g>
<!-- asabaalprojects -->
<g id="node26" class="node">
<title>asabaalprojects</title>
<path fill="#fbcfe8" stroke="black" d="M477.5,-254C477.5,-254 371.5,-254 371.5,-254 365.5,-254 359.5,-248 359.5,-242 359.5,-242 359.5,-216 359.5,-216 359.5,-210 365.5,-204 371.5,-204 371.5,-204 477.5,-204 477.5,-204 483.5,-204 489.5,-210 489.5,-216 489.5,-216 489.5,-242 489.5,-242 489.5,-248 483.5,-254 477.5,-254"/>
<text text-anchor="middle" x="424.5" y="-226.5" font-family="Arial" font-size="10.00">asabaal&#45;projects.html</text>
</g>
<!-- asabaal&#45;&gt;asabaalprojects -->
<g id="edge23" class="edge">
<title>asabaal&#45;&gt;asabaalprojects</title>
<path fill="none" stroke="#fbcfe8" d="M312.09,-212C312.09,-212 349.42,-212 349.42,-212"/>
<polygon fill="#fbcfe8" stroke="#fbcfe8" points="349.42,-215.5 359.42,-212 349.42,-208.5 349.42,-215.5"/>
</g>
<!-- playlists -->
<g id="node27" class="node">
<title>playlists</title>
<path fill="#fbcfe8" stroke="black" d="M477.5,-186C477.5,-186 371.5,-186 371.5,-186 365.5,-186 359.5,-180 359.5,-174 359.5,-174 359.5,-148 359.5,-148 359.5,-142 365.5,-136 371.5,-136 371.5,-136 477.5,-136 477.5,-136 483.5,-136 489.5,-142 489.5,-148 489.5,-148 489.5,-174 489.5,-174 489.5,-180 483.5,-186 477.5,-186"/>
<text text-anchor="middle" x="424.5" y="-158.5" font-family="Arial" font-size="10.00">playlists.html</text>
</g>
<!-- asabaal&#45;&gt;playlists -->
<g id="edge24" class="edge">
<title>asabaal&#45;&gt;playlists</title>
<path fill="none" stroke="#fbcfe8" d="M312.09,-178C312.09,-178 349.42,-178 349.42,-178"/>
<polygon fill="#fbcfe8" stroke="#fbcfe8" points="349.42,-181.5 359.42,-178 349.42,-174.5 349.42,-181.5"/>
</g>
<!-- asabaal&#45;&gt;extern_music -->
<g id="edge25" class="edge">
<title>asabaal&#45;&gt;extern_music</title>
<path fill="none" stroke="#9ca3af" stroke-dasharray="5,2" d="M247,-169.81C247,-141.97 247,-101 247,-101 247,-101 352.92,-101 352.92,-101"/>
<polygon fill="#9ca3af" stroke="#9ca3af" points="352.92,-104.5 362.92,-101 352.92,-97.5 352.92,-104.5"/>
</g>
<!-- advancements&#45;&gt;vision2054 -->
<g id="edge26" class="edge">
<title>advancements&#45;&gt;vision2054</title>
<path fill="none" stroke="#c084fc" d="M686,-1083.7C686,-1047.18 686,-984 686,-984 686,-984 714.73,-984 714.73,-984"/>
<polygon fill="#c084fc" stroke="#c084fc" points="714.73,-987.5 724.73,-984 714.73,-980.5 714.73,-987.5"/>
</g>
<!-- opensource -->
<g id="node29" class="node">
<title>opensource</title>
<path fill="#c084fc" stroke="black" d="M843,-1134C843,-1134 737,-1134 737,-1134 731,-1134 725,-1128 725,-1122 725,-1122 725,-1096 725,-1096 725,-1090 731,-1084 737,-1084 737,-1084 843,-1084 843,-1084 849,-1084 855,-1090 855,-1096 855,-1096 855,-1122 855,-1122 855,-1128 849,-1134 843,-1134"/>
<text text-anchor="middle" x="790" y="-1106.5" font-family="Arial" font-size="10.00" fill="white">open&#45;source&#45;model.html</text>
</g>
<!-- advancements&#45;&gt;opensource -->
<g id="edge28" class="edge">
<title>advancements&#45;&gt;opensource</title>
<path fill="none" stroke="#c084fc" d="M689.09,-1109C689.09,-1109 714.82,-1109 714.82,-1109"/>
<polygon fill="#c084fc" stroke="#c084fc" points="714.82,-1112.5 724.82,-1109 714.82,-1105.5 714.82,-1112.5"/>
</g>
<!-- advancements&#45;&gt;blog -->
<g id="edge27" class="edge">
<title>advancements&#45;&gt;blog</title>
<path fill="none" stroke="#e879f9" d="M682,-1083.79C682,-1079.82 682,-1077 682,-1077 682,-1077 956,-1077 956,-1077 956,-1077 956,-1016.22 956,-1016.22"/>
<polygon fill="#e879f9" stroke="#e879f9" points="959.5,-1016.22 956,-1006.22 952.5,-1016.22 959.5,-1016.22"/>
</g>
<!-- vision2054&#45;&gt;blog -->
<g id="edge32" class="edge">
<title>vision2054&#45;&gt;blog</title>
<path fill="none" stroke="#e879f9" d="M855.13,-981C855.13,-981 880.78,-981 880.78,-981"/>
<polygon fill="#e879f9" stroke="#e879f9" points="880.78,-984.5 890.78,-981 880.78,-977.5 880.78,-984.5"/>
</g>
<!-- legend_title -->
<g id="node34" class="node">
<title>legend_title</title>
<path fill="transparent" stroke="transparent" d="M134,-1104C134,-1104 28,-1104 28,-1104 22,-1104 16,-1098 16,-1092 16,-1092 16,-1066 16,-1066 16,-1060 22,-1054 28,-1054 28,-1054 134,-1054 134,-1054 140,-1054 146,-1060 146,-1066 146,-1066 146,-1092 146,-1092 146,-1098 140,-1104 134,-1104"/>
<text text-anchor="middle" x="81" y="-1076.5" font-family="Arial" font-size="10.00" fill="white">Key:</text>
</g>
<!-- legend_primary -->
<g id="node35" class="node">
<title>legend_primary</title>
<path fill="transparent" stroke="transparent" d="M134,-1036C134,-1036 28,-1036 28,-1036 22,-1036 16,-1030 16,-1024 16,-1024 16,-998 16,-998 16,-992 22,-986 28,-986 28,-986 134,-986 134,-986 140,-986 146,-992 146,-998 146,-998 146,-1024 146,-1024 146,-1030 140,-1036 134,-1036"/>
<text text-anchor="middle" x="81" y="-1008.5" font-family="Arial" font-size="10.00" fill="white">Primary Nav (thick)</text>
</g>
<!-- legend_secondary -->
<g id="node36" class="node">
<title>legend_secondary</title>
<path fill="transparent" stroke="transparent" d="M134,-968C134,-968 28,-968 28,-968 22,-968 16,-962 16,-956 16,-956 16,-930 16,-930 16,-924 22,-918 28,-918 28,-918 134,-918 134,-918 140,-918 146,-924 146,-930 146,-930 146,-956 146,-956 146,-962 140,-968 134,-968"/>
<text text-anchor="middle" x="81" y="-940.5" font-family="Arial" font-size="10.00" fill="white">Content Links</text>
</g>
<!-- legend_external -->
<g id="node37" class="node">
<title>legend_external</title>
<path fill="transparent" stroke="transparent" d="M134,-900C134,-900 28,-900 28,-900 22,-900 16,-894 16,-888 16,-888 16,-862 16,-862 16,-856 22,-850 28,-850 28,-850 134,-850 134,-850 140,-850 146,-856 146,-862 146,-862 146,-888 146,-888 146,-894 140,-900 134,-900"/>
<text text-anchor="middle" x="81" y="-872.5" font-family="Arial" font-size="10.00" fill="white">External Links (dashed)</text>
</g>
</g>
</svg>
