<?xml version="1.0" encoding="UTF-8" standalone="no"?>
<!DOCTYPE svg PUBLIC "-//W3C//DTD SVG 1.1//EN"
 "http://www.w3.org/Graphics/SVG/1.1/DTD/svg11.dtd">
<!-- Generated by graphviz version 2.43.0 (0)
 -->
<!-- Title: NavigationByMode Pages: 1 -->
<svg width="3015pt" height="3000pt"
 viewBox="0.00 0.00 1447.00 1440.00" xmlns="http://www.w3.org/2000/svg" xmlns:xlink="http://www.w3.org/1999/xlink">
<g id="graph0" class="graph" transform="scale(2.08 2.08) rotate(0) translate(4 1436)">
<title>NavigationByMode</title>
<polygon fill="#1a1a2e" stroke="transparent" points="-4,4 -4,-1436 1443,-1436 1443,4 -4,4"/>
<g id="clust1" class="cluster">
<title>cluster_entry</title>
<polygon fill="#ffd700" fill-opacity="0.133333" stroke="#ffd700" points="8,-725 8,-810 132,-810 132,-725 8,-725"/>
<text text-anchor="middle" x="70" y="-798" font-family="Arial" font-size="10.00">Entry Points</text>
</g>
<g id="clust2" class="cluster">
<title>cluster_consume</title>
<polygon fill="#8b5cf6" fill-opacity="0.133333" stroke="#8b5cf6" points="174,-1183 174,-1424 1083,-1424 1083,-1183 174,-1183"/>
<text text-anchor="middle" x="628.5" y="-1412" font-family="Arial" font-size="10.00">Consume Mode</text>
</g>
<g id="clust3" class="cluster">
<title>cluster_interact</title>
<polygon fill="#06b6d4" fill-opacity="0.133333" stroke="#06b6d4" points="571,-657 571,-810 911,-810 911,-657 571,-657"/>
<text text-anchor="middle" x="741" y="-798" font-family="Arial" font-size="10.00">Interact Mode</text>
</g>
<g id="clust4" class="cluster">
<title>cluster_learn</title>
<polygon fill="#10b981" fill-opacity="0.133333" stroke="#10b981" points="319,-466 319,-619 937,-619 937,-466 319,-466"/>
<text text-anchor="middle" x="628" y="-607" font-family="Arial" font-size="10.00">Learn Mode</text>
</g>
<g id="clust5" class="cluster">
<title>cluster_business</title>
<polygon fill="#f59e0b" fill-opacity="0.133333" stroke="#f59e0b" points="757.5,-818 757.5,-1175 1431,-1175 1431,-818 757.5,-818"/>
<text text-anchor="middle" x="1094.25" y="-1163" font-family="Arial" font-size="10.00">Business Mode</text>
</g>
<g id="clust6" class="cluster">
<title>cluster_utility</title>
<polygon fill="#6b7280" fill-opacity="0.133333" stroke="#6b7280" points="764.5,-305 764.5,-458 1251,-458 1251,-305 764.5,-305"/>
<text text-anchor="middle" x="1007.75" y="-446" font-family="Arial" font-size="10.00">Utility Pages</text>
</g>
<g id="clust7" class="cluster">
<title>cluster_external</title>
<polygon fill="#9ca3af" fill-opacity="0.133333" stroke="#9ca3af" points="959,-8 959,-297 1083,-297 1083,-8 959,-8"/>
<text text-anchor="middle" x="1021" y="-285" font-family="Arial" font-size="10.00">External Platforms</text>
</g>
<!-- index -->
<g id="node1" class="node">
<title>index</title>
<path fill="#ffd700" stroke="black" stroke-width="2" d="M112,-783C112,-783 28,-783 28,-783 22,-783 16,-777 16,-771 16,-771 16,-745 16,-745 16,-739 22,-733 28,-733 28,-733 112,-733 112,-733 118,-733 124,-739 124,-745 124,-745 124,-771 124,-771 124,-777 118,-783 112,-783"/>
<text text-anchor="middle" x="70" y="-754.9" font-family="Arial" font-size="12.00">index.html</text>
</g>
<!-- consume -->
<g id="node2" class="node">
<title>consume</title>
<path fill="#8b5cf6" stroke="black" stroke-width="2" d="M278,-1241C278,-1241 194,-1241 194,-1241 188,-1241 182,-1235 182,-1229 182,-1229 182,-1203 182,-1203 182,-1197 188,-1191 194,-1191 194,-1191 278,-1191 278,-1191 284,-1191 290,-1197 290,-1203 290,-1203 290,-1229 290,-1229 290,-1235 284,-1241 278,-1241"/>
<text text-anchor="middle" x="236" y="-1213.2" font-family="Arial" font-size="11.00" fill="white">consume.html</text>
</g>
<!-- index&#45;&gt;consume -->
<g id="edge2" class="edge">
<title>index&#45;&gt;consume</title>
<path fill="none" stroke="#8b5cf6" stroke-width="3" d="M52,-783.28C52,-879.29 52,-1216 52,-1216 52,-1216 171.79,-1216 171.79,-1216"/>
<polygon fill="#8b5cf6" stroke="#8b5cf6" stroke-width="3" points="171.79,-1219.5 181.79,-1216 171.79,-1212.5 171.79,-1219.5"/>
</g>
<!-- interact -->
<g id="node12" class="node">
<title>interact</title>
<path fill="#06b6d4" stroke="black" stroke-width="2" d="M675,-783C675,-783 591,-783 591,-783 585,-783 579,-777 579,-771 579,-771 579,-745 579,-745 579,-739 585,-733 591,-733 591,-733 675,-733 675,-733 681,-733 687,-739 687,-745 687,-745 687,-771 687,-771 687,-777 681,-783 675,-783"/>
<text text-anchor="middle" x="633" y="-755.2" font-family="Arial" font-size="11.00" fill="white">interact.html</text>
</g>
<!-- index&#45;&gt;interact -->
<g id="edge3" class="edge">
<title>index&#45;&gt;interact</title>
<path fill="none" stroke="#06b6d4" stroke-width="3" d="M81,-732.93C81,-727.84 81,-724 81,-724 81,-724 633,-724 633,-724 633,-724 633,-724.89 633,-724.89"/>
<polygon fill="#06b6d4" stroke="#06b6d4" stroke-width="3" points="629.5,-722.93 633,-732.93 636.5,-722.93 629.5,-722.93"/>
</g>
<!-- learn -->
<g id="node15" class="node">
<title>learn</title>
<path fill="#10b981" stroke="black" stroke-width="2" d="M423,-592C423,-592 339,-592 339,-592 333,-592 327,-586 327,-580 327,-580 327,-554 327,-554 327,-548 333,-542 339,-542 339,-542 423,-542 423,-542 429,-542 435,-548 435,-554 435,-554 435,-580 435,-580 435,-586 429,-592 423,-592"/>
<text text-anchor="middle" x="381" y="-564.2" font-family="Arial" font-size="11.00" fill="white">learn.html</text>
</g>
<!-- index&#45;&gt;learn -->
<g id="edge4" class="edge">
<title>index&#45;&gt;learn</title>
<path fill="none" stroke="#10b981" stroke-width="3" d="M103,-732.64C103,-680.68 103,-567 103,-567 103,-567 316.74,-567 316.74,-567"/>
<polygon fill="#10b981" stroke="#10b981" stroke-width="3" points="316.74,-570.5 326.74,-567 316.74,-563.5 316.74,-570.5"/>
</g>
<!-- dobusiness -->
<g id="node19" class="node">
<title>dobusiness</title>
<path fill="#f59e0b" stroke="black" stroke-width="2" d="M868.5,-1012C868.5,-1012 784.5,-1012 784.5,-1012 778.5,-1012 772.5,-1006 772.5,-1000 772.5,-1000 772.5,-974 772.5,-974 772.5,-968 778.5,-962 784.5,-962 784.5,-962 868.5,-962 868.5,-962 874.5,-962 880.5,-968 880.5,-974 880.5,-974 880.5,-1000 880.5,-1000 880.5,-1006 874.5,-1012 868.5,-1012"/>
<text text-anchor="middle" x="826.5" y="-984.2" font-family="Arial" font-size="11.00" fill="white">do&#45;business.html</text>
</g>
<!-- index&#45;&gt;dobusiness -->
<g id="edge5" class="edge">
<title>index&#45;&gt;dobusiness</title>
<path fill="none" stroke="#f59e0b" stroke-width="3" d="M88,-783.4C88,-844.62 88,-995.33 88,-995.33 88,-995.33 762.5,-995.33 762.5,-995.33"/>
<polygon fill="#f59e0b" stroke="#f59e0b" stroke-width="3" points="762.5,-998.83 772.5,-995.33 762.5,-991.83 762.5,-998.83"/>
</g>
<!-- connect -->
<g id="node32" class="node">
<title>connect</title>
<path fill="#6b7280" stroke="black" d="M868.5,-431C868.5,-431 784.5,-431 784.5,-431 778.5,-431 772.5,-425 772.5,-419 772.5,-419 772.5,-393 772.5,-393 772.5,-387 778.5,-381 784.5,-381 784.5,-381 868.5,-381 868.5,-381 874.5,-381 880.5,-387 880.5,-393 880.5,-393 880.5,-419 880.5,-419 880.5,-425 874.5,-431 868.5,-431"/>
<text text-anchor="middle" x="826.5" y="-403.5" font-family="Arial" font-size="10.00" fill="white">connect.html</text>
</g>
<!-- index&#45;&gt;connect -->
<g id="edge6" class="edge">
<title>index&#45;&gt;connect</title>
<path fill="none" stroke="#6b7280" stroke-width="2" d="M60,-732.95C60,-651.23 60,-397.67 60,-397.67 60,-397.67 762.3,-397.67 762.3,-397.67"/>
<polygon fill="#6b7280" stroke="#6b7280" stroke-width="2" points="762.3,-401.17 772.3,-397.67 762.3,-394.17 762.3,-401.17"/>
</g>
<!-- links -->
<g id="node33" class="node">
<title>links</title>
<path fill="#6b7280" stroke="black" d="M868.5,-363C868.5,-363 784.5,-363 784.5,-363 778.5,-363 772.5,-357 772.5,-351 772.5,-351 772.5,-325 772.5,-325 772.5,-319 778.5,-313 784.5,-313 784.5,-313 868.5,-313 868.5,-313 874.5,-313 880.5,-319 880.5,-325 880.5,-325 880.5,-351 880.5,-351 880.5,-357 874.5,-363 868.5,-363"/>
<text text-anchor="middle" x="826.5" y="-335.5" font-family="Arial" font-size="10.00" fill="white">links.html</text>
</g>
<!-- index&#45;&gt;links -->
<g id="edge7" class="edge">
<title>index&#45;&gt;links</title>
<path fill="none" stroke="#6b7280" d="M38,-732.98C38,-642.57 38,-338 38,-338 38,-338 762.3,-338 762.3,-338"/>
<polygon fill="#6b7280" stroke="#6b7280" points="762.3,-341.5 772.3,-338 762.3,-334.5 762.3,-341.5"/>
</g>
<!-- brands -->
<g id="node40" class="node">
<title>brands</title>
<path fill="lightgrey" stroke="black" d="M278,-783C278,-783 194,-783 194,-783 188,-783 182,-777 182,-771 182,-771 182,-745 182,-745 182,-739 188,-733 194,-733 194,-733 278,-733 278,-733 284,-733 290,-739 290,-745 290,-745 290,-771 290,-771 290,-777 284,-783 278,-783"/>
<text text-anchor="middle" x="236" y="-755.5" font-family="Arial" font-size="10.00">brands</text>
</g>
<!-- index&#45;&gt;brands -->
<g id="edge1" class="edge">
<title>index&#45;&gt;brands</title>
<path fill="none" stroke="#ffd700" stroke-width="3" d="M124.35,-758C124.35,-758 171.81,-758 171.81,-758"/>
<polygon fill="#ffd700" stroke="#ffd700" stroke-width="3" points="171.81,-761.5 181.81,-758 171.81,-754.5 171.81,-761.5"/>
<text text-anchor="middle" x="153" y="-760.6" font-family="Arial" font-size="8.00">Home</text>
</g>
<!-- amusements -->
<g id="node3" class="node">
<title>amusements</title>
<path fill="#a78bfa" stroke="black" d="M423,-1241C423,-1241 339,-1241 339,-1241 333,-1241 327,-1235 327,-1229 327,-1229 327,-1203 327,-1203 327,-1197 333,-1191 339,-1191 339,-1191 423,-1191 423,-1191 429,-1191 435,-1197 435,-1203 435,-1203 435,-1229 435,-1229 435,-1235 429,-1241 423,-1241"/>
<text text-anchor="middle" x="381" y="-1213.5" font-family="Arial" font-size="10.00" fill="white">amusements.html</text>
</g>
<!-- consume&#45;&gt;amusements -->
<g id="edge16" class="edge">
<title>consume&#45;&gt;amusements</title>
<path fill="none" stroke="#a78bfa" stroke-width="2" d="M290.41,-1216C290.41,-1216 316.77,-1216 316.77,-1216"/>
<polygon fill="#a78bfa" stroke="#a78bfa" stroke-width="2" points="316.77,-1219.5 326.77,-1216 316.77,-1212.5 316.77,-1219.5"/>
</g>
<!-- bloglisting -->
<g id="node4" class="node">
<title>bloglisting</title>
<path fill="#a78bfa" stroke="black" d="M549,-1332C549,-1332 465,-1332 465,-1332 459,-1332 453,-1326 453,-1320 453,-1320 453,-1294 453,-1294 453,-1288 459,-1282 465,-1282 465,-1282 549,-1282 549,-1282 555,-1282 561,-1288 561,-1294 561,-1294 561,-1320 561,-1320 561,-1326 555,-1332 549,-1332"/>
<text text-anchor="middle" x="507" y="-1304.5" font-family="Arial" font-size="10.00" fill="white">blog&#45;listing.html</text>
</g>
<!-- consume&#45;&gt;bloglisting -->
<g id="edge17" class="edge">
<title>consume&#45;&gt;bloglisting</title>
<path fill="none" stroke="#a78bfa" d="M254,-1241.45C254,-1267.44 254,-1304 254,-1304 254,-1304 442.73,-1304 442.73,-1304"/>
<polygon fill="#a78bfa" stroke="#a78bfa" points="442.73,-1307.5 452.73,-1304 442.73,-1300.5 442.73,-1307.5"/>
</g>
<!-- blogsselection -->
<g id="node5" class="node">
<title>blogsselection</title>
<path fill="#a78bfa" stroke="black" d="M423,-1376C423,-1376 339,-1376 339,-1376 333,-1376 327,-1370 327,-1364 327,-1364 327,-1338 327,-1338 327,-1332 333,-1326 339,-1326 339,-1326 423,-1326 423,-1326 429,-1326 435,-1332 435,-1338 435,-1338 435,-1364 435,-1364 435,-1370 429,-1376 423,-1376"/>
<text text-anchor="middle" x="381" y="-1348.5" font-family="Arial" font-size="10.00" fill="white">blogs&#45;selection.html</text>
</g>
<!-- consume&#45;&gt;blogsselection -->
<g id="edge18" class="edge">
<title>consume&#45;&gt;blogsselection</title>
<path fill="none" stroke="#a78bfa" d="M218,-1241.08C218,-1280.12 218,-1351 218,-1351 218,-1351 316.72,-1351 316.72,-1351"/>
<polygon fill="#a78bfa" stroke="#a78bfa" points="316.72,-1354.5 326.72,-1351 316.72,-1347.5 316.72,-1354.5"/>
</g>
<!-- shows -->
<g id="node6" class="node">
<title>shows</title>
<path fill="#c4b5fd" stroke="black" d="M675,-1309C675,-1309 591,-1309 591,-1309 585,-1309 579,-1303 579,-1297 579,-1297 579,-1271 579,-1271 579,-1265 585,-1259 591,-1259 591,-1259 675,-1259 675,-1259 681,-1259 687,-1265 687,-1271 687,-1271 687,-1297 687,-1297 687,-1303 681,-1309 675,-1309"/>
<text text-anchor="middle" x="633" y="-1281.5" font-family="Arial" font-size="10.00" fill="white">shows.html</text>
</g>
<!-- amusements&#45;&gt;shows -->
<g id="edge19" class="edge">
<title>amusements&#45;&gt;shows</title>
<path fill="none" stroke="#c4b5fd" d="M381,-1241.02C381,-1255.34 381,-1270.5 381,-1270.5 381,-1270.5 568.94,-1270.5 568.94,-1270.5"/>
<polygon fill="#c4b5fd" stroke="#c4b5fd" points="568.94,-1274 578.94,-1270.5 568.94,-1267 568.94,-1274"/>
</g>
<!-- games -->
<g id="node7" class="node">
<title>games</title>
<path fill="#c4b5fd" stroke="black" d="M675,-1241C675,-1241 591,-1241 591,-1241 585,-1241 579,-1235 579,-1229 579,-1229 579,-1203 579,-1203 579,-1197 585,-1191 591,-1191 591,-1191 675,-1191 675,-1191 681,-1191 687,-1197 687,-1203 687,-1203 687,-1229 687,-1229 687,-1235 681,-1241 675,-1241"/>
<text text-anchor="middle" x="633" y="-1213.5" font-family="Arial" font-size="10.00" fill="white">games.html</text>
</g>
<!-- amusements&#45;&gt;games -->
<g id="edge20" class="edge">
<title>amusements&#45;&gt;games</title>
<path fill="none" stroke="#c4b5fd" d="M435.06,-1216C435.06,-1216 568.59,-1216 568.59,-1216"/>
<polygon fill="#c4b5fd" stroke="#c4b5fd" points="568.59,-1219.5 578.59,-1216 568.59,-1212.5 568.59,-1219.5"/>
</g>
<!-- blog -->
<g id="node11" class="node">
<title>blog</title>
<path fill="#e879f9" stroke="black" d="M1063,-1241C1063,-1241 979,-1241 979,-1241 973,-1241 967,-1235 967,-1229 967,-1229 967,-1203 967,-1203 967,-1197 973,-1191 979,-1191 979,-1191 1063,-1191 1063,-1191 1069,-1191 1075,-1197 1075,-1203 1075,-1203 1075,-1229 1075,-1229 1075,-1235 1069,-1241 1063,-1241"/>
<text text-anchor="middle" x="1021" y="-1213.5" font-family="Arial" font-size="10.00" fill="white">blog.html</text>
</g>
<!-- bloglisting&#45;&gt;blog -->
<g id="edge25" class="edge">
<title>bloglisting&#45;&gt;blog</title>
<path fill="none" stroke="#e879f9" d="M561.04,-1320.5C693,-1320.5 1021,-1320.5 1021,-1320.5 1021,-1320.5 1021,-1251.03 1021,-1251.03"/>
<polygon fill="#e879f9" stroke="#e879f9" points="1024.5,-1251.03 1021,-1241.03 1017.5,-1251.03 1024.5,-1251.03"/>
</g>
<!-- musicalpoetry -->
<g id="node10" class="node">
<title>musicalpoetry</title>
<path fill="#fb923c" stroke="black" d="M675,-1397C675,-1397 591,-1397 591,-1397 585,-1397 579,-1391 579,-1385 579,-1385 579,-1359 579,-1359 579,-1353 585,-1347 591,-1347 591,-1347 675,-1347 675,-1347 681,-1347 687,-1353 687,-1359 687,-1359 687,-1385 687,-1385 687,-1391 681,-1397 675,-1397"/>
<text text-anchor="middle" x="633" y="-1369.5" font-family="Arial" font-size="10.00" fill="white">musical&#45;poetry.html</text>
</g>
<!-- blogsselection&#45;&gt;musicalpoetry -->
<g id="edge23" class="edge">
<title>blogsselection&#45;&gt;musicalpoetry</title>
<path fill="none" stroke="#fb923c" d="M435.06,-1361.5C435.06,-1361.5 568.59,-1361.5 568.59,-1361.5"/>
<polygon fill="#fb923c" stroke="#fb923c" points="568.59,-1365 578.59,-1361.5 568.59,-1358 568.59,-1365"/>
</g>
<!-- vision2054 -->
<g id="node8" class="node">
<title>vision2054</title>
<path fill="#c084fc" stroke="black" d="M872.5,-1241C872.5,-1241 780.5,-1241 780.5,-1241 774.5,-1241 768.5,-1235 768.5,-1229 768.5,-1229 768.5,-1203 768.5,-1203 768.5,-1197 774.5,-1191 780.5,-1191 780.5,-1191 872.5,-1191 872.5,-1191 878.5,-1191 884.5,-1197 884.5,-1203 884.5,-1203 884.5,-1229 884.5,-1229 884.5,-1235 878.5,-1241 872.5,-1241"/>
<text text-anchor="middle" x="826.5" y="-1213.5" font-family="Arial" font-size="10.00" fill="white">vision_2054_page.html</text>
</g>
<!-- shows&#45;&gt;vision2054 -->
<g id="edge21" class="edge">
<title>shows&#45;&gt;vision2054</title>
<path fill="none" stroke="#c084fc" d="M687.2,-1275.67C697.95,-1275.67 706,-1275.67 706,-1275.67 706,-1275.67 706,-1216 706,-1216 706,-1216 758.37,-1216 758.37,-1216"/>
<polygon fill="#c084fc" stroke="#c084fc" points="758.37,-1219.5 768.37,-1216 758.37,-1212.5 758.37,-1219.5"/>
</g>
<!-- lifeisyourword -->
<g id="node9" class="node">
<title>lifeisyourword</title>
<path fill="#fb923c" stroke="black" d="M868.5,-1309C868.5,-1309 784.5,-1309 784.5,-1309 778.5,-1309 772.5,-1303 772.5,-1297 772.5,-1297 772.5,-1271 772.5,-1271 772.5,-1265 778.5,-1259 784.5,-1259 784.5,-1259 868.5,-1259 868.5,-1259 874.5,-1259 880.5,-1265 880.5,-1271 880.5,-1271 880.5,-1297 880.5,-1297 880.5,-1303 874.5,-1309 868.5,-1309"/>
<text text-anchor="middle" x="826.5" y="-1281.5" font-family="Arial" font-size="10.00" fill="white">life&#45;is&#45;your&#45;word.html</text>
</g>
<!-- shows&#45;&gt;lifeisyourword -->
<g id="edge22" class="edge">
<title>shows&#45;&gt;lifeisyourword</title>
<path fill="none" stroke="#fb923c" d="M687.16,-1292.33C687.16,-1292.33 762.36,-1292.33 762.36,-1292.33"/>
<polygon fill="#fb923c" stroke="#fb923c" points="762.36,-1295.83 772.36,-1292.33 762.36,-1288.83 762.36,-1295.83"/>
</g>
<!-- unityremix -->
<g id="node31" class="node">
<title>unityremix</title>
<path fill="#67e8f9" stroke="black" d="M875.5,-1148C875.5,-1148 777.5,-1148 777.5,-1148 771.5,-1148 765.5,-1142 765.5,-1136 765.5,-1136 765.5,-1110 765.5,-1110 765.5,-1104 771.5,-1098 777.5,-1098 777.5,-1098 875.5,-1098 875.5,-1098 881.5,-1098 887.5,-1104 887.5,-1110 887.5,-1110 887.5,-1136 887.5,-1136 887.5,-1142 881.5,-1148 875.5,-1148"/>
<text text-anchor="middle" x="826.5" y="-1120.5" font-family="Arial" font-size="10.00" fill="white">unity&#45;remix&#45;contest.html</text>
</g>
<!-- games&#45;&gt;unityremix -->
<g id="edge24" class="edge">
<title>games&#45;&gt;unityremix</title>
<path fill="none" stroke="#67e8f9" d="M633,-1190.59C633,-1163.05 633,-1123 633,-1123 633,-1123 755.28,-1123 755.28,-1123"/>
<polygon fill="#67e8f9" stroke="#67e8f9" points="755.28,-1126.5 765.28,-1123 755.28,-1119.5 755.28,-1126.5"/>
</g>
<!-- vision2054&#45;&gt;blog -->
<g id="edge43" class="edge">
<title>vision2054&#45;&gt;blog</title>
<path fill="none" stroke="#e879f9" d="M884.59,-1224.33C884.59,-1224.33 956.86,-1224.33 956.86,-1224.33"/>
<polygon fill="#e879f9" stroke="#e879f9" points="956.86,-1227.83 966.86,-1224.33 956.86,-1220.83 956.86,-1227.83"/>
</g>
<!-- vision2054&#45;&gt;unityremix -->
<g id="edge44" class="edge">
<title>vision2054&#45;&gt;unityremix</title>
<path fill="none" stroke="#67e8f9" d="M808,-1190.59C808,-1190.59 808,-1158.06 808,-1158.06"/>
<polygon fill="#67e8f9" stroke="#67e8f9" points="811.5,-1158.06 808,-1148.06 804.5,-1158.06 811.5,-1158.06"/>
</g>
<!-- dispatch -->
<g id="node13" class="node">
<title>dispatch</title>
<path fill="#67e8f9" stroke="black" d="M891,-715C891,-715 762,-715 762,-715 756,-715 750,-709 750,-703 750,-703 750,-677 750,-677 750,-671 756,-665 762,-665 762,-665 891,-665 891,-665 897,-665 903,-671 903,-677 903,-677 903,-703 903,-703 903,-709 897,-715 891,-715"/>
<text text-anchor="middle" x="826.5" y="-687.5" font-family="Arial" font-size="10.00" fill="white">dispatch&#45;revenue&#45;reporting.html</text>
</g>
<!-- interact&#45;&gt;dispatch -->
<g id="edge26" class="edge">
<title>interact&#45;&gt;dispatch</title>
<path fill="none" stroke="#67e8f9" d="M687.1,-745.5C720.88,-745.5 758,-745.5 758,-745.5 758,-745.5 758,-725.15 758,-725.15"/>
<polygon fill="#67e8f9" stroke="#67e8f9" points="761.5,-725.15 758,-715.15 754.5,-725.15 761.5,-725.15"/>
</g>
<!-- tictactoe -->
<g id="node14" class="node">
<title>tictactoe</title>
<path fill="#67e8f9" stroke="black" d="M868.5,-783C868.5,-783 784.5,-783 784.5,-783 778.5,-783 772.5,-777 772.5,-771 772.5,-771 772.5,-745 772.5,-745 772.5,-739 778.5,-733 784.5,-733 784.5,-733 868.5,-733 868.5,-733 874.5,-733 880.5,-739 880.5,-745 880.5,-745 880.5,-771 880.5,-771 880.5,-777 874.5,-783 868.5,-783"/>
<text text-anchor="middle" x="826.5" y="-755.5" font-family="Arial" font-size="10.00" fill="white">tic&#45;tac&#45;toe.html</text>
</g>
<!-- interact&#45;&gt;tictactoe -->
<g id="edge27" class="edge">
<title>interact&#45;&gt;tictactoe</title>
<path fill="none" stroke="#67e8f9" d="M687.16,-758C687.16,-758 762.36,-758 762.36,-758"/>
<polygon fill="#67e8f9" stroke="#67e8f9" points="762.36,-761.5 772.36,-758 762.36,-754.5 762.36,-761.5"/>
</g>
<!-- interact&#45;&gt;unityremix -->
<g id="edge28" class="edge">
<title>interact&#45;&gt;unityremix</title>
<path fill="none" stroke="#67e8f9" stroke-width="2" d="M687.14,-770.5C725.07,-770.5 769,-770.5 769,-770.5 769,-770.5 769,-1087.93 769,-1087.93"/>
<polygon fill="#67e8f9" stroke="#67e8f9" stroke-width="2" points="765.5,-1087.93 769,-1097.93 772.5,-1087.93 765.5,-1087.93"/>
</g>
<!-- aboutfounder -->
<g id="node16" class="node">
<title>aboutfounder</title>
<path fill="#34d399" stroke="black" d="M675,-524C675,-524 591,-524 591,-524 585,-524 579,-518 579,-512 579,-512 579,-486 579,-486 579,-480 585,-474 591,-474 591,-474 675,-474 675,-474 681,-474 687,-480 687,-486 687,-486 687,-512 687,-512 687,-518 681,-524 675,-524"/>
<text text-anchor="middle" x="633" y="-496.5" font-family="Arial" font-size="10.00" fill="white">about&#45;founder.html</text>
</g>
<!-- learn&#45;&gt;aboutfounder -->
<g id="edge29" class="edge">
<title>learn&#45;&gt;aboutfounder</title>
<path fill="none" stroke="#34d399" d="M381,-541.68C381,-522.35 381,-499 381,-499 381,-499 568.94,-499 568.94,-499"/>
<polygon fill="#34d399" stroke="#34d399" points="568.94,-502.5 578.94,-499 568.94,-495.5 568.94,-502.5"/>
</g>
<!-- whatwedo -->
<g id="node17" class="node">
<title>whatwedo</title>
<path fill="#34d399" stroke="black" d="M675,-592C675,-592 591,-592 591,-592 585,-592 579,-586 579,-580 579,-580 579,-554 579,-554 579,-548 585,-542 591,-542 591,-542 675,-542 675,-542 681,-542 687,-548 687,-554 687,-554 687,-580 687,-580 687,-586 681,-592 675,-592"/>
<text text-anchor="middle" x="633" y="-564.5" font-family="Arial" font-size="10.00" fill="white">what&#45;we&#45;do.html</text>
</g>
<!-- learn&#45;&gt;whatwedo -->
<g id="edge30" class="edge">
<title>learn&#45;&gt;whatwedo</title>
<path fill="none" stroke="#34d399" d="M435.06,-567C435.06,-567 568.59,-567 568.59,-567"/>
<polygon fill="#34d399" stroke="#34d399" points="568.59,-570.5 578.59,-567 568.59,-563.5 568.59,-570.5"/>
</g>
<!-- resume -->
<g id="node18" class="node">
<title>resume</title>
<path fill="#60a5fa" stroke="black" d="M917,-524C917,-524 736,-524 736,-524 730,-524 724,-518 724,-512 724,-512 724,-486 724,-486 724,-480 730,-474 736,-474 736,-474 917,-474 917,-474 923,-474 929,-480 929,-486 929,-486 929,-512 929,-512 929,-518 923,-524 917,-524"/>
<text text-anchor="middle" x="826.5" y="-496.5" font-family="Arial" font-size="10.00" fill="white">resume_cv/asabaal_horan_cv_202507.html</text>
</g>
<!-- aboutfounder&#45;&gt;resume -->
<g id="edge31" class="edge">
<title>aboutfounder&#45;&gt;resume</title>
<path fill="none" stroke="#60a5fa" d="M687.16,-499C687.16,-499 713.85,-499 713.85,-499"/>
<polygon fill="#60a5fa" stroke="#60a5fa" points="713.85,-502.5 723.85,-499 713.85,-495.5 713.85,-502.5"/>
</g>
<!-- products -->
<g id="node20" class="node">
<title>products</title>
<path fill="#fbbf24" stroke="black" d="M1063,-1080C1063,-1080 979,-1080 979,-1080 973,-1080 967,-1074 967,-1068 967,-1068 967,-1042 967,-1042 967,-1036 973,-1030 979,-1030 979,-1030 1063,-1030 1063,-1030 1069,-1030 1075,-1036 1075,-1042 1075,-1042 1075,-1068 1075,-1068 1075,-1074 1069,-1080 1063,-1080"/>
<text text-anchor="middle" x="1021" y="-1052.5" font-family="Arial" font-size="10.00">products.html</text>
</g>
<!-- dobusiness&#45;&gt;products -->
<g id="edge32" class="edge">
<title>dobusiness&#45;&gt;products</title>
<path fill="none" stroke="#fbbf24" d="M827,-1012.32C827,-1031.65 827,-1055 827,-1055 827,-1055 956.96,-1055 956.96,-1055"/>
<polygon fill="#fbbf24" stroke="#fbbf24" points="956.96,-1058.5 966.96,-1055 956.96,-1051.5 956.96,-1058.5"/>
</g>
<!-- services -->
<g id="node21" class="node">
<title>services</title>
<path fill="#fbbf24" stroke="black" d="M1063,-876C1063,-876 979,-876 979,-876 973,-876 967,-870 967,-864 967,-864 967,-838 967,-838 967,-832 973,-826 979,-826 979,-826 1063,-826 1063,-826 1069,-826 1075,-832 1075,-838 1075,-838 1075,-864 1075,-864 1075,-870 1069,-876 1063,-876"/>
<text text-anchor="middle" x="1021" y="-848.5" font-family="Arial" font-size="10.00">services.html</text>
</g>
<!-- dobusiness&#45;&gt;services -->
<g id="edge33" class="edge">
<title>dobusiness&#45;&gt;services</title>
<path fill="none" stroke="#fbbf24" d="M880.58,-987C882.73,-987 884,-987 884,-987 884,-987 884,-851 884,-851 884,-851 956.85,-851 956.85,-851"/>
<polygon fill="#fbbf24" stroke="#fbbf24" points="956.85,-854.5 966.85,-851 956.85,-847.5 956.85,-854.5"/>
</g>
<!-- partner -->
<g id="node22" class="node">
<title>partner</title>
<path fill="#fbbf24" stroke="black" d="M1063,-1148C1063,-1148 979,-1148 979,-1148 973,-1148 967,-1142 967,-1136 967,-1136 967,-1110 967,-1110 967,-1104 973,-1098 979,-1098 979,-1098 1063,-1098 1063,-1098 1069,-1098 1075,-1104 1075,-1110 1075,-1110 1075,-1136 1075,-1136 1075,-1142 1069,-1148 1063,-1148"/>
<text text-anchor="middle" x="1021" y="-1120.5" font-family="Arial" font-size="10.00">partner.html</text>
</g>
<!-- dobusiness&#45;&gt;partner -->
<g id="edge34" class="edge">
<title>dobusiness&#45;&gt;partner</title>
<path fill="none" stroke="#fbbf24" d="M880.69,-999.5C891.71,-999.5 900,-999.5 900,-999.5 900,-999.5 900,-1114.67 900,-1114.67 900,-1114.67 956.87,-1114.67 956.87,-1114.67"/>
<polygon fill="#fbbf24" stroke="#fbbf24" points="956.87,-1118.17 966.87,-1114.67 956.87,-1111.17 956.87,-1118.17"/>
</g>
<!-- advancements -->
<g id="node26" class="node">
<title>advancements</title>
<path fill="#f472b6" stroke="black" d="M1253,-876C1253,-876 1125,-876 1125,-876 1119,-876 1113,-870 1113,-864 1113,-864 1113,-838 1113,-838 1113,-832 1119,-826 1125,-826 1125,-826 1253,-826 1253,-826 1259,-826 1265,-832 1265,-838 1265,-838 1265,-864 1265,-864 1265,-870 1259,-876 1253,-876"/>
<text text-anchor="middle" x="1189" y="-848.5" font-family="Arial" font-size="10.00" fill="white">advancements&#45;by&#45;asabaal.html</text>
</g>
<!-- products&#45;&gt;advancements -->
<g id="edge38" class="edge">
<title>products&#45;&gt;advancements</title>
<path fill="none" stroke="#f472b6" d="M1075.1,-1055C1098.66,-1055 1121,-1055 1121,-1055 1121,-1055 1121,-886.01 1121,-886.01"/>
<polygon fill="#f472b6" stroke="#f472b6" points="1124.5,-886.01 1121,-876.01 1117.5,-886.01 1124.5,-886.01"/>
</g>
<!-- services&#45;&gt;dispatch -->
<g id="edge37" class="edge">
<title>services&#45;&gt;dispatch</title>
<path fill="none" stroke="#67e8f9" d="M966.67,-842.67C931.41,-842.67 892,-842.67 892,-842.67 892,-842.67 892,-725.21 892,-725.21"/>
<polygon fill="#67e8f9" stroke="#67e8f9" points="895.5,-725.21 892,-715.21 888.5,-725.21 895.5,-725.21"/>
</g>
<!-- buildwithme -->
<g id="node23" class="node">
<title>buildwithme</title>
<path fill="#fcd34d" stroke="black" d="M1231,-944C1231,-944 1147,-944 1147,-944 1141,-944 1135,-938 1135,-932 1135,-932 1135,-906 1135,-906 1135,-900 1141,-894 1147,-894 1147,-894 1231,-894 1231,-894 1237,-894 1243,-900 1243,-906 1243,-906 1243,-932 1243,-932 1243,-938 1237,-944 1231,-944"/>
<text text-anchor="middle" x="1189" y="-916.5" font-family="Arial" font-size="10.00">build&#45;with&#45;me.html</text>
</g>
<!-- services&#45;&gt;buildwithme -->
<g id="edge35" class="edge">
<title>services&#45;&gt;buildwithme</title>
<path fill="none" stroke="#fcd34d" d="M1075.25,-842.67C1089.51,-842.67 1101,-842.67 1101,-842.67 1101,-842.67 1101,-919 1101,-919 1101,-919 1124.77,-919 1124.77,-919"/>
<polygon fill="#fcd34d" stroke="#fcd34d" points="1124.77,-922.5 1134.77,-919 1124.77,-915.5 1124.77,-922.5"/>
</g>
<!-- buildwithyou -->
<g id="node24" class="node">
<title>buildwithyou</title>
<path fill="#fcd34d" stroke="black" d="M1231,-1012C1231,-1012 1147,-1012 1147,-1012 1141,-1012 1135,-1006 1135,-1000 1135,-1000 1135,-974 1135,-974 1135,-968 1141,-962 1147,-962 1147,-962 1231,-962 1231,-962 1237,-962 1243,-968 1243,-974 1243,-974 1243,-1000 1243,-1000 1243,-1006 1237,-1012 1231,-1012"/>
<text text-anchor="middle" x="1189" y="-984.5" font-family="Arial" font-size="10.00">build&#45;with&#45;you.html</text>
</g>
<!-- services&#45;&gt;buildwithyou -->
<g id="edge36" class="edge">
<title>services&#45;&gt;buildwithyou</title>
<path fill="none" stroke="#fcd34d" d="M1075.24,-859.33C1083.32,-859.33 1089,-859.33 1089,-859.33 1089,-859.33 1089,-987 1089,-987 1089,-987 1124.9,-987 1124.9,-987"/>
<polygon fill="#fcd34d" stroke="#fcd34d" points="1124.9,-990.5 1134.9,-987 1124.9,-983.5 1124.9,-990.5"/>
</g>
<!-- asabaal -->
<g id="node25" class="node">
<title>asabaal</title>
<path fill="#f472b6" stroke="black" d="M868.5,-876C868.5,-876 784.5,-876 784.5,-876 778.5,-876 772.5,-870 772.5,-864 772.5,-864 772.5,-838 772.5,-838 772.5,-832 778.5,-826 784.5,-826 784.5,-826 868.5,-826 868.5,-826 874.5,-826 880.5,-832 880.5,-838 880.5,-838 880.5,-864 880.5,-864 880.5,-870 874.5,-876 868.5,-876"/>
<text text-anchor="middle" x="826.5" y="-848.5" font-family="Arial" font-size="10.00" fill="white">asabaal.html</text>
</g>
<!-- asabaalprojects -->
<g id="node27" class="node">
<title>asabaalprojects</title>
<path fill="#fbcfe8" stroke="black" d="M1064,-944C1064,-944 978,-944 978,-944 972,-944 966,-938 966,-932 966,-932 966,-906 966,-906 966,-900 972,-894 978,-894 978,-894 1064,-894 1064,-894 1070,-894 1076,-900 1076,-906 1076,-906 1076,-932 1076,-932 1076,-938 1070,-944 1064,-944"/>
<text text-anchor="middle" x="1021" y="-916.5" font-family="Arial" font-size="10.00">asabaal&#45;projects.html</text>
</g>
<!-- asabaal&#45;&gt;asabaalprojects -->
<g id="edge39" class="edge">
<title>asabaal&#45;&gt;asabaalprojects</title>
<path fill="none" stroke="#fbcfe8" d="M880.51,-859.33C883.91,-859.33 886,-859.33 886,-859.33 886,-859.33 886,-919 886,-919 886,-919 955.7,-919 955.7,-919"/>
<polygon fill="#fbcfe8" stroke="#fbcfe8" points="955.7,-922.5 965.7,-919 955.7,-915.5 955.7,-922.5"/>
</g>
<!-- playlists -->
<g id="node28" class="node">
<title>playlists</title>
<path fill="#fbcfe8" stroke="black" d="M1063,-1012C1063,-1012 979,-1012 979,-1012 973,-1012 967,-1006 967,-1000 967,-1000 967,-974 967,-974 967,-968 973,-962 979,-962 979,-962 1063,-962 1063,-962 1069,-962 1075,-968 1075,-974 1075,-974 1075,-1000 1075,-1000 1075,-1006 1069,-1012 1063,-1012"/>
<text text-anchor="middle" x="1021" y="-984.5" font-family="Arial" font-size="10.00">playlists.html</text>
</g>
<!-- asabaal&#45;&gt;playlists -->
<g id="edge40" class="edge">
<title>asabaal&#45;&gt;playlists</title>
<path fill="none" stroke="#fbcfe8" d="M880.57,-867.67C882.12,-867.67 883,-867.67 883,-867.67 883,-867.67 883,-974.5 883,-974.5 883,-974.5 956.85,-974.5 956.85,-974.5"/>
<polygon fill="#fbcfe8" stroke="#fbcfe8" points="956.85,-978 966.85,-974.5 956.85,-971 956.85,-978"/>
</g>
<!-- extern_music -->
<g id="node37" class="node">
<title>extern_music</title>
<ellipse fill="#d1d5db" stroke="black" cx="1021" cy="-177" rx="54" ry="25"/>
<text text-anchor="middle" x="1021" y="-174.5" font-family="Arial" font-size="10.00">Music Platforms</text>
</g>
<!-- asabaal&#45;&gt;extern_music -->
<g id="edge51" class="edge">
<title>asabaal&#45;&gt;extern_music</title>
<path fill="none" stroke="#9ca3af" stroke-dasharray="5,2" d="M880.53,-834.33C910.59,-834.33 942,-834.33 942,-834.33 942,-834.33 942,-185.33 942,-185.33 942,-185.33 960.07,-185.33 960.07,-185.33"/>
<polygon fill="#9ca3af" stroke="#9ca3af" points="960.07,-188.83 970.07,-185.33 960.07,-181.83 960.07,-188.83"/>
</g>
<!-- advancements&#45;&gt;vision2054 -->
<g id="edge42" class="edge">
<title>advancements&#45;&gt;vision2054</title>
<path fill="none" stroke="#c084fc" d="M1128,-876.26C1128,-951.59 1128,-1169.5 1128,-1169.5 1128,-1169.5 846,-1169.5 846,-1169.5 846,-1169.5 846,-1180.84 846,-1180.84"/>
<polygon fill="#c084fc" stroke="#c084fc" points="842.5,-1180.84 846,-1190.84 849.5,-1180.84 842.5,-1180.84"/>
</g>
<!-- opensource -->
<g id="node30" class="node">
<title>opensource</title>
<path fill="#c084fc" stroke="black" d="M1411,-876C1411,-876 1314,-876 1314,-876 1308,-876 1302,-870 1302,-864 1302,-864 1302,-838 1302,-838 1302,-832 1308,-826 1314,-826 1314,-826 1411,-826 1411,-826 1417,-826 1423,-832 1423,-838 1423,-838 1423,-864 1423,-864 1423,-870 1417,-876 1411,-876"/>
<text text-anchor="middle" x="1362.5" y="-848.5" font-family="Arial" font-size="10.00" fill="white">open&#45;source&#45;model.html</text>
</g>
<!-- advancements&#45;&gt;opensource -->
<g id="edge41" class="edge">
<title>advancements&#45;&gt;opensource</title>
<path fill="none" stroke="#c084fc" d="M1265.1,-851C1265.1,-851 1291.84,-851 1291.84,-851"/>
<polygon fill="#c084fc" stroke="#c084fc" points="1291.84,-854.5 1301.84,-851 1291.84,-847.5 1291.84,-854.5"/>
</g>
<!-- acts -->
<g id="node29" class="node">
<title>acts</title>
<path fill="#fbcfe8" stroke="black" d="M868.5,-944C868.5,-944 784.5,-944 784.5,-944 778.5,-944 772.5,-938 772.5,-932 772.5,-932 772.5,-906 772.5,-906 772.5,-900 778.5,-894 784.5,-894 784.5,-894 868.5,-894 868.5,-894 874.5,-894 880.5,-900 880.5,-906 880.5,-906 880.5,-932 880.5,-932 880.5,-938 874.5,-944 868.5,-944"/>
<text text-anchor="middle" x="826.5" y="-916.5" font-family="Arial" font-size="10.00">acts&#45;of&#45;asabaal.html</text>
</g>
<!-- unityremix&#45;&gt;blog -->
<g id="edge45" class="edge">
<title>unityremix&#45;&gt;blog</title>
<path fill="none" stroke="#e879f9" d="M887.75,-1131.33C892.79,-1131.33 896,-1131.33 896,-1131.33 896,-1131.33 896,-1207.67 896,-1207.67 896,-1207.67 956.9,-1207.67 956.9,-1207.67"/>
<polygon fill="#e879f9" stroke="#e879f9" points="956.9,-1211.17 966.9,-1207.67 956.9,-1204.17 956.9,-1211.17"/>
</g>
<!-- privacy -->
<g id="node34" class="node">
<title>privacy</title>
<path fill="#6b7280" stroke="black" d="M1063,-431C1063,-431 979,-431 979,-431 973,-431 967,-425 967,-419 967,-419 967,-393 967,-393 967,-387 973,-381 979,-381 979,-381 1063,-381 1063,-381 1069,-381 1075,-387 1075,-393 1075,-393 1075,-419 1075,-419 1075,-425 1069,-431 1063,-431"/>
<text text-anchor="middle" x="1021" y="-403.5" font-family="Arial" font-size="10.00" fill="white">privacy.html</text>
</g>
<!-- connect&#45;&gt;privacy -->
<g id="edge46" class="edge">
<title>connect&#45;&gt;privacy</title>
<path fill="none" stroke="#6b7280" d="M880.68,-414.33C880.68,-414.33 956.77,-414.33 956.77,-414.33"/>
<polygon fill="#6b7280" stroke="#6b7280" points="956.77,-417.83 966.77,-414.33 956.77,-410.83 956.77,-417.83"/>
</g>
<!-- terms -->
<g id="node35" class="node">
<title>terms</title>
<path fill="#6b7280" stroke="black" d="M1231,-399C1231,-399 1147,-399 1147,-399 1141,-399 1135,-393 1135,-387 1135,-387 1135,-361 1135,-361 1135,-355 1141,-349 1147,-349 1147,-349 1231,-349 1231,-349 1237,-349 1243,-355 1243,-361 1243,-361 1243,-387 1243,-387 1243,-393 1237,-399 1231,-399"/>
<text text-anchor="middle" x="1189" y="-371.5" font-family="Arial" font-size="10.00" fill="white">terms.html</text>
</g>
<!-- connect&#45;&gt;terms -->
<g id="edge47" class="edge">
<title>connect&#45;&gt;terms</title>
<path fill="none" stroke="#6b7280" d="M827,-380.93C827,-375.84 827,-372 827,-372 827,-372 1124.8,-372 1124.8,-372"/>
<polygon fill="#6b7280" stroke="#6b7280" points="1124.8,-375.5 1134.8,-372 1124.8,-368.5 1124.8,-375.5"/>
</g>
<!-- extern_email -->
<g id="node38" class="node">
<title>extern_email</title>
<ellipse fill="#d1d5db" stroke="black" cx="1021" cy="-245" rx="54" ry="25"/>
<text text-anchor="middle" x="1021" y="-242.5" font-family="Arial" font-size="10.00">Email</text>
</g>
<!-- connect&#45;&gt;extern_email -->
<g id="edge52" class="edge">
<title>connect&#45;&gt;extern_email</title>
<path fill="none" stroke="#9ca3af" stroke-dasharray="5,2" d="M880.57,-397.67C915.32,-397.67 954,-397.67 954,-397.67 954,-397.67 954,-245 954,-245 954,-245 956.92,-245 956.92,-245"/>
<polygon fill="#9ca3af" stroke="#9ca3af" points="956.92,-248.5 966.92,-245 956.92,-241.5 956.92,-248.5"/>
</g>
<!-- extern_social -->
<g id="node36" class="node">
<title>extern_social</title>
<ellipse fill="#d1d5db" stroke="black" cx="1021" cy="-109" rx="54" ry="25"/>
<text text-anchor="middle" x="1021" y="-106.5" font-family="Arial" font-size="10.00">Social Platforms</text>
</g>
<!-- links&#45;&gt;extern_social -->
<g id="edge49" class="edge">
<title>links&#45;&gt;extern_social</title>
<path fill="none" stroke="#9ca3af" stroke-width="2" stroke-dasharray="5,2" d="M809,-312.62C809,-253 809,-109 809,-109 809,-109 956.95,-109 956.95,-109"/>
<polygon fill="#9ca3af" stroke="#9ca3af" stroke-width="2" points="956.95,-112.5 966.95,-109 956.95,-105.5 956.95,-112.5"/>
</g>
<!-- links&#45;&gt;extern_music -->
<g id="edge50" class="edge">
<title>links&#45;&gt;extern_music</title>
<path fill="none" stroke="#9ca3af" stroke-width="2" stroke-dasharray="5,2" d="M845,-312.65C845,-265.41 845,-168.67 845,-168.67 845,-168.67 959.62,-168.67 959.62,-168.67"/>
<polygon fill="#9ca3af" stroke="#9ca3af" stroke-width="2" points="959.62,-172.17 969.62,-168.67 959.62,-165.17 959.62,-172.17"/>
</g>
<!-- privacy&#45;&gt;terms -->
<g id="edge48" class="edge">
<title>privacy&#45;&gt;terms</title>
<path fill="none" stroke="#6b7280" d="M1075.08,-390C1075.08,-390 1124.73,-390 1124.73,-390"/>
<polygon fill="#6b7280" stroke="#6b7280" points="1124.73,-393.5 1134.73,-390 1124.73,-386.5 1124.73,-393.5"/>
</g>
<!-- extern_website -->
<g id="node39" class="node">
<title>extern_website</title>
<ellipse fill="#d1d5db" stroke="black" cx="1021" cy="-41" rx="54" ry="25"/>
<text text-anchor="middle" x="1021" y="-38.5" font-family="Arial" font-size="10.00">Websites</text>
</g>
<!-- brands&#45;&gt;consume -->
<g id="edge8" class="edge">
<title>brands&#45;&gt;consume</title>
<path fill="none" stroke="#8b5cf6" d="M226,-783.28C226,-783.28 226,-1180.8 226,-1180.8"/>
<polygon fill="#8b5cf6" stroke="#8b5cf6" points="222.5,-1180.8 226,-1190.8 229.5,-1180.8 222.5,-1180.8"/>
</g>
<!-- brands&#45;&gt;amusements -->
<g id="edge15" class="edge">
<title>brands&#45;&gt;amusements</title>
<path fill="none" stroke="#a78bfa" d="M290.23,-770.5C324.75,-770.5 363,-770.5 363,-770.5 363,-770.5 363,-1180.77 363,-1180.77"/>
<polygon fill="#a78bfa" stroke="#a78bfa" points="359.5,-1180.77 363,-1190.77 366.5,-1180.77 359.5,-1180.77"/>
</g>
<!-- brands&#45;&gt;interact -->
<g id="edge9" class="edge">
<title>brands&#45;&gt;interact</title>
<path fill="none" stroke="#06b6d4" d="M290.37,-758C290.37,-758 568.97,-758 568.97,-758"/>
<polygon fill="#06b6d4" stroke="#06b6d4" points="568.97,-761.5 578.97,-758 568.97,-754.5 568.97,-761.5"/>
</g>
<!-- brands&#45;&gt;learn -->
<g id="edge10" class="edge">
<title>brands&#45;&gt;learn</title>
<path fill="none" stroke="#10b981" d="M290.28,-745.5C337.69,-745.5 399,-745.5 399,-745.5 399,-745.5 399,-602.2 399,-602.2"/>
<polygon fill="#10b981" stroke="#10b981" points="402.5,-602.2 399,-592.2 395.5,-602.2 402.5,-602.2"/>
</g>
<!-- brands&#45;&gt;dobusiness -->
<g id="edge11" class="edge">
<title>brands&#45;&gt;dobusiness</title>
<path fill="none" stroke="#f59e0b" d="M247,-783.31C247,-841.28 247,-978.67 247,-978.67 247,-978.67 762.24,-978.67 762.24,-978.67"/>
<polygon fill="#f59e0b" stroke="#f59e0b" points="762.24,-982.17 772.24,-978.67 762.24,-975.17 762.24,-982.17"/>
</g>
<!-- brands&#45;&gt;asabaal -->
<g id="edge13" class="edge">
<title>brands&#45;&gt;asabaal</title>
<path fill="none" stroke="#f472b6" d="M269,-783.41C269,-810.95 269,-851 269,-851 269,-851 762.28,-851 762.28,-851"/>
<polygon fill="#f472b6" stroke="#f472b6" points="762.28,-854.5 772.28,-851 762.28,-847.5 762.28,-854.5"/>
</g>
<!-- brands&#45;&gt;advancements -->
<g id="edge14" class="edge">
<title>brands&#45;&gt;advancements</title>
<path fill="none" stroke="#f472b6" d="M204,-783.16C204,-794.11 204,-804.5 204,-804.5 204,-804.5 1124,-804.5 1124,-804.5 1124,-804.5 1124,-815.84 1124,-815.84"/>
<polygon fill="#f472b6" stroke="#f472b6" points="1120.5,-815.84 1124,-825.84 1127.5,-815.84 1120.5,-815.84"/>
</g>
<!-- brands&#45;&gt;connect -->
<g id="edge12" class="edge">
<title>brands&#45;&gt;connect</title>
<path fill="none" stroke="#6b7280" d="M254,-732.73C254,-653.36 254,-414.33 254,-414.33 254,-414.33 762.38,-414.33 762.38,-414.33"/>
<polygon fill="#6b7280" stroke="#6b7280" points="762.38,-417.83 772.38,-414.33 762.38,-410.83 762.38,-417.83"/>
</g>
<!-- brands&#45;&gt;extern_website -->
<g id="edge53" class="edge">
<title>brands&#45;&gt;extern_website</title>
<path fill="none" stroke="#9ca3af" stroke-dasharray="5,2" d="M218,-732.9C218,-606 218,-41 218,-41 218,-41 956.75,-41 956.75,-41"/>
<polygon fill="#9ca3af" stroke="#9ca3af" points="956.75,-44.5 966.75,-41 956.75,-37.5 956.75,-44.5"/>
</g>
</g>
</svg>
