<?xml version="1.0" encoding="UTF-8" standalone="no"?>
<!DOCTYPE svg PUBLIC "-//W3C//DTD SVG 1.1//EN"
 "http://www.w3.org/Graphics/SVG/1.1/DTD/svg11.dtd">
<!-- Generated by graphviz version 2.43.0 (0)
 -->
<!-- Title: NavigationByMode Pages: 1 -->
<svg width="2575pt" height="2262pt"
 viewBox="0.00 0.00 1236.00 1086.00" xmlns="http://www.w3.org/2000/svg" xmlns:xlink="http://www.w3.org/1999/xlink">
<g id="graph0" class="graph" transform="scale(2.08 2.08) rotate(0) translate(4 1082)">
<title>NavigationByMode</title>
<polygon fill="#1a1a2e" stroke="transparent" points="-4,4 -4,-1082 1232,-1082 1232,4 -4,4"/>
<g id="clust1" class="cluster">
<title>cluster_entry</title>
<polygon fill="#ffd700" fill-opacity="0.133333" stroke="#ffd700" points="436.74,-612.53 436.74,-697.53 560.74,-697.53 560.74,-612.53 436.74,-612.53"/>
<text text-anchor="middle" x="498.74" y="-685.53" font-family="Arial" font-size="10.00">Entry Points</text>
</g>
<g id="clust2" class="cluster">
<title>cluster_consume</title>
<polygon fill="#8b5cf6" fill-opacity="0.133333" stroke="#8b5cf6" points="748.78,-681.44 748.78,-1078.44 1197.78,-1078.44 1197.78,-681.44 748.78,-681.44"/>
<text text-anchor="middle" x="973.28" y="-1066.44" font-family="Arial" font-size="10.00">Consume Mode</text>
</g>
<g id="clust3" class="cluster">
<title>cluster_interact</title>
<polygon fill="#06b6d4" fill-opacity="0.133333" stroke="#06b6d4" points="447.2,-825.4 447.2,-976.4 734.2,-976.4 734.2,-825.4 447.2,-825.4"/>
<text text-anchor="middle" x="590.7" y="-964.4" font-family="Arial" font-size="10.00">Interact Mode</text>
</g>
<g id="clust4" class="cluster">
<title>cluster_learn</title>
<polygon fill="#10b981" fill-opacity="0.133333" stroke="#10b981" points="-0.1,-538 -0.1,-813 273.9,-813 273.9,-538 -0.1,-538"/>
<text text-anchor="middle" x="136.9" y="-801" font-family="Arial" font-size="10.00">Learn Mode</text>
</g>
<g id="clust5" class="cluster">
<title>cluster_business</title>
<polygon fill="#f59e0b" fill-opacity="0.133333" stroke="#f59e0b" points="794.29,-252.24 794.29,-667.24 1228.29,-667.24 1228.29,-252.24 794.29,-252.24"/>
<text text-anchor="middle" x="1011.29" y="-655.24" font-family="Arial" font-size="10.00">Business Mode</text>
</g>
<g id="clust6" class="cluster">
<title>cluster_utility</title>
<polygon fill="#6b7280" fill-opacity="0.133333" stroke="#6b7280" points="71.58,-182.08 71.58,-411.08 387.58,-411.08 387.58,-182.08 71.58,-182.08"/>
<text text-anchor="middle" x="229.58" y="-399.08" font-family="Arial" font-size="10.00">Utility Pages</text>
</g>
<g id="clust7" class="cluster">
<title>cluster_external</title>
<polygon fill="#9ca3af" fill-opacity="0.133333" stroke="#9ca3af" points="485,0.41 485,-185.59 758,-185.59 758,0.41 485,0.41"/>
<text text-anchor="middle" x="621.5" y="-173.59" font-family="Arial" font-size="10.00">External Platforms</text>
</g>
<!-- index -->
<g id="node1" class="node">
<title>index</title>
<path fill="#ffd700" stroke="black" stroke-width="2" d="M540.5,-670.24C540.5,-670.24 456.5,-670.24 456.5,-670.24 450.5,-670.24 444.5,-664.24 444.5,-658.24 444.5,-658.24 444.5,-632.24 444.5,-632.24 444.5,-626.24 450.5,-620.24 456.5,-620.24 456.5,-620.24 540.5,-620.24 540.5,-620.24 546.5,-620.24 552.5,-626.24 552.5,-632.24 552.5,-632.24 552.5,-658.24 552.5,-658.24 552.5,-664.24 546.5,-670.24 540.5,-670.24"/>
<text text-anchor="middle" x="498.5" y="-642.14" font-family="Arial" font-size="12.00">index.html</text>
</g>
<!-- consume -->
<g id="node2" class="node">
<title>consume</title>
<path fill="#8b5cf6" stroke="black" stroke-width="2" d="M905.17,-940.36C905.17,-940.36 821.17,-940.36 821.17,-940.36 815.17,-940.36 809.17,-934.36 809.17,-928.36 809.17,-928.36 809.17,-902.36 809.17,-902.36 809.17,-896.36 815.17,-890.36 821.17,-890.36 821.17,-890.36 905.17,-890.36 905.17,-890.36 911.17,-890.36 917.17,-896.36 917.17,-902.36 917.17,-902.36 917.17,-928.36 917.17,-928.36 917.17,-934.36 911.17,-940.36 905.17,-940.36"/>
<text text-anchor="middle" x="863.17" y="-912.56" font-family="Arial" font-size="11.00" fill="white">consume.html</text>
</g>
<!-- index&#45;&gt;consume -->
<g id="edge2" class="edge">
<title>index&#45;&gt;consume</title>
<path fill="none" stroke="#8b5cf6" stroke-width="3" d="M552.63,-655C617.81,-655 718.62,-655 718.62,-655 718.62,-655 718.62,-893 718.62,-893 718.62,-893 798.93,-893 798.93,-893"/>
<polygon fill="#8b5cf6" stroke="#8b5cf6" stroke-width="3" points="798.93,-896.5 808.93,-893 798.93,-889.5 798.93,-896.5"/>
</g>
<!-- interact -->
<g id="node12" class="node">
<title>interact</title>
<path fill="#06b6d4" stroke="black" stroke-width="2" d="M551.01,-911.78C551.01,-911.78 467.01,-911.78 467.01,-911.78 461.01,-911.78 455.01,-905.78 455.01,-899.78 455.01,-899.78 455.01,-873.78 455.01,-873.78 455.01,-867.78 461.01,-861.78 467.01,-861.78 467.01,-861.78 551.01,-861.78 551.01,-861.78 557.01,-861.78 563.01,-867.78 563.01,-873.78 563.01,-873.78 563.01,-899.78 563.01,-899.78 563.01,-905.78 557.01,-911.78 551.01,-911.78"/>
<text text-anchor="middle" x="509.01" y="-883.98" font-family="Arial" font-size="11.00" fill="white">interact.html</text>
</g>
<!-- index&#45;&gt;interact -->
<g id="edge3" class="edge">
<title>index&#45;&gt;interact</title>
<path fill="none" stroke="#06b6d4" stroke-width="3" d="M503.76,-670.63C503.76,-670.63 503.76,-851.73 503.76,-851.73"/>
<polygon fill="#06b6d4" stroke="#06b6d4" stroke-width="3" points="500.26,-851.73 503.76,-861.73 507.26,-851.73 500.26,-851.73"/>
</g>
<!-- learn -->
<g id="node15" class="node">
<title>learn</title>
<path fill="#10b981" stroke="black" stroke-width="2" d="M123.75,-786.35C123.75,-786.35 39.75,-786.35 39.75,-786.35 33.75,-786.35 27.75,-780.35 27.75,-774.35 27.75,-774.35 27.75,-748.35 27.75,-748.35 27.75,-742.35 33.75,-736.35 39.75,-736.35 39.75,-736.35 123.75,-736.35 123.75,-736.35 129.75,-736.35 135.75,-742.35 135.75,-748.35 135.75,-748.35 135.75,-774.35 135.75,-774.35 135.75,-780.35 129.75,-786.35 123.75,-786.35"/>
<text text-anchor="middle" x="81.75" y="-758.55" font-family="Arial" font-size="11.00" fill="white">learn.html</text>
</g>
<!-- index&#45;&gt;learn -->
<g id="edge4" class="edge">
<title>index&#45;&gt;learn</title>
<path fill="none" stroke="#10b981" stroke-width="3" d="M449.76,-670.5C449.76,-702.35 449.76,-753 449.76,-753 449.76,-753 146.05,-753 146.05,-753"/>
<polygon fill="#10b981" stroke="#10b981" stroke-width="3" points="146.05,-749.5 136.05,-753 146.05,-756.5 146.05,-749.5"/>
</g>
<!-- dobusiness -->
<g id="node19" class="node">
<title>dobusiness</title>
<path fill="#f59e0b" stroke="black" stroke-width="2" d="M1050.03,-379C1050.03,-379 966.03,-379 966.03,-379 960.03,-379 954.03,-373 954.03,-367 954.03,-367 954.03,-341 954.03,-341 954.03,-335 960.03,-329 966.03,-329 966.03,-329 1050.03,-329 1050.03,-329 1056.03,-329 1062.03,-335 1062.03,-341 1062.03,-341 1062.03,-367 1062.03,-367 1062.03,-373 1056.03,-379 1050.03,-379"/>
<text text-anchor="middle" x="1008.03" y="-351.2" font-family="Arial" font-size="11.00" fill="white">do&#45;business.html</text>
</g>
<!-- index&#45;&gt;dobusiness -->
<g id="edge5" class="edge">
<title>index&#45;&gt;dobusiness</title>
<path fill="none" stroke="#f59e0b" stroke-width="3" d="M496.54,-619.91C496.54,-554.68 496.54,-386 496.54,-386 496.54,-386 995.63,-386 995.63,-386 995.63,-386 995.63,-385.32 995.63,-385.32"/>
<polygon fill="#f59e0b" stroke="#f59e0b" stroke-width="3" points="999.13,-389.21 995.63,-379.21 992.13,-389.21 999.13,-389.21"/>
</g>
<!-- connect -->
<g id="node32" class="node">
<title>connect</title>
<path fill="#6b7280" stroke="black" d="M268.75,-239.79C268.75,-239.79 184.75,-239.79 184.75,-239.79 178.75,-239.79 172.75,-233.79 172.75,-227.79 172.75,-227.79 172.75,-201.79 172.75,-201.79 172.75,-195.79 178.75,-189.79 184.75,-189.79 184.75,-189.79 268.75,-189.79 268.75,-189.79 274.75,-189.79 280.75,-195.79 280.75,-201.79 280.75,-201.79 280.75,-227.79 280.75,-227.79 280.75,-233.79 274.75,-239.79 268.75,-239.79"/>
<text text-anchor="middle" x="226.75" y="-212.29" font-family="Arial" font-size="10.00" fill="white">connect.html</text>
</g>
<!-- index&#45;&gt;connect -->
<g id="edge6" class="edge">
<title>index&#45;&gt;connect</title>
<path fill="none" stroke="#6b7280" stroke-width="2" d="M477,-620.17C477,-528.8 477,-219 477,-219 477,-219 291.05,-219 291.05,-219"/>
<polygon fill="#6b7280" stroke="#6b7280" stroke-width="2" points="291.05,-215.5 281.05,-219 291.05,-222.5 291.05,-215.5"/>
</g>
<!-- links -->
<g id="node33" class="node">
<title>links</title>
<path fill="#6b7280" stroke="black" d="M175.81,-301.04C175.81,-301.04 91.81,-301.04 91.81,-301.04 85.81,-301.04 79.81,-295.04 79.81,-289.04 79.81,-289.04 79.81,-263.04 79.81,-263.04 79.81,-257.04 85.81,-251.04 91.81,-251.04 91.81,-251.04 175.81,-251.04 175.81,-251.04 181.81,-251.04 187.81,-257.04 187.81,-263.04 187.81,-263.04 187.81,-289.04 187.81,-289.04 187.81,-295.04 181.81,-301.04 175.81,-301.04"/>
<text text-anchor="middle" x="133.81" y="-273.54" font-family="Arial" font-size="10.00" fill="white">links.html</text>
</g>
<!-- index&#45;&gt;links -->
<g id="edge7" class="edge">
<title>index&#45;&gt;links</title>
<path fill="none" stroke="#6b7280" d="M460.75,-620.06C460.75,-534.03 460.75,-257 460.75,-257 460.75,-257 198.17,-257 198.17,-257"/>
<polygon fill="#6b7280" stroke="#6b7280" points="198.17,-253.5 188.17,-257 198.17,-260.5 198.17,-253.5"/>
</g>
<!-- brands -->
<g id="node40" class="node">
<title>brands</title>
<path fill="lightgrey" stroke="black" d="M599.12,-528.53C599.12,-528.53 515.12,-528.53 515.12,-528.53 509.12,-528.53 503.12,-522.53 503.12,-516.53 503.12,-516.53 503.12,-490.53 503.12,-490.53 503.12,-484.53 509.12,-478.53 515.12,-478.53 515.12,-478.53 599.12,-478.53 599.12,-478.53 605.12,-478.53 611.12,-484.53 611.12,-490.53 611.12,-490.53 611.12,-516.53 611.12,-516.53 611.12,-522.53 605.12,-528.53 599.12,-528.53"/>
<text text-anchor="middle" x="557.12" y="-501.03" font-family="Arial" font-size="10.00">brands</text>
</g>
<!-- index&#45;&gt;brands -->
<g id="edge1" class="edge">
<title>index&#45;&gt;brands</title>
<path fill="none" stroke="#ffd700" stroke-width="3" d="M527.81,-620.23C527.81,-620.23 527.81,-538.77 527.81,-538.77"/>
<polygon fill="#ffd700" stroke="#ffd700" stroke-width="3" points="531.31,-538.77 527.81,-528.77 524.31,-538.77 531.31,-538.77"/>
<text text-anchor="middle" x="516.81" y="-582.1" font-family="Arial" font-size="8.00">Home</text>
</g>
<!-- amusements -->
<g id="node3" class="node">
<title>amusements</title>
<path fill="#a78bfa" stroke="black" d="M1031.27,-902.18C1031.27,-902.18 947.27,-902.18 947.27,-902.18 941.27,-902.18 935.27,-896.18 935.27,-890.18 935.27,-890.18 935.27,-864.18 935.27,-864.18 935.27,-858.18 941.27,-852.18 947.27,-852.18 947.27,-852.18 1031.27,-852.18 1031.27,-852.18 1037.27,-852.18 1043.27,-858.18 1043.27,-864.18 1043.27,-864.18 1043.27,-890.18 1043.27,-890.18 1043.27,-896.18 1037.27,-902.18 1031.27,-902.18"/>
<text text-anchor="middle" x="989.27" y="-874.68" font-family="Arial" font-size="10.00" fill="white">amusements.html</text>
</g>
<!-- consume&#45;&gt;amusements -->
<g id="edge16" class="edge">
<title>consume&#45;&gt;amusements</title>
<path fill="none" stroke="#a78bfa" stroke-width="2" d="M917.38,-896C917.38,-896 925.1,-896 925.1,-896"/>
<polygon fill="#a78bfa" stroke="#a78bfa" stroke-width="2" points="925.1,-899.5 935.1,-896 925.1,-892.5 925.1,-899.5"/>
</g>
<!-- bloglisting -->
<g id="node4" class="node">
<title>bloglisting</title>
<path fill="#a78bfa" stroke="black" d="M1074.01,-973.08C1074.01,-973.08 990.01,-973.08 990.01,-973.08 984.01,-973.08 978.01,-967.08 978.01,-961.08 978.01,-961.08 978.01,-935.08 978.01,-935.08 978.01,-929.08 984.01,-923.08 990.01,-923.08 990.01,-923.08 1074.01,-923.08 1074.01,-923.08 1080.01,-923.08 1086.01,-929.08 1086.01,-935.08 1086.01,-935.08 1086.01,-961.08 1086.01,-961.08 1086.01,-967.08 1080.01,-973.08 1074.01,-973.08"/>
<text text-anchor="middle" x="1032.01" y="-945.58" font-family="Arial" font-size="10.00" fill="white">blog&#45;listing.html</text>
</g>
<!-- consume&#45;&gt;bloglisting -->
<g id="edge17" class="edge">
<title>consume&#45;&gt;bloglisting</title>
<path fill="none" stroke="#a78bfa" d="M917.52,-934C917.52,-934 967.76,-934 967.76,-934"/>
<polygon fill="#a78bfa" stroke="#a78bfa" points="967.76,-937.5 977.76,-934 967.76,-930.5 967.76,-937.5"/>
</g>
<!-- blogsselection -->
<g id="node5" class="node">
<title>blogsselection</title>
<path fill="#a78bfa" stroke="black" d="M944.01,-1012.08C944.01,-1012.08 860.01,-1012.08 860.01,-1012.08 854.01,-1012.08 848.01,-1006.08 848.01,-1000.08 848.01,-1000.08 848.01,-974.08 848.01,-974.08 848.01,-968.08 854.01,-962.08 860.01,-962.08 860.01,-962.08 944.01,-962.08 944.01,-962.08 950.01,-962.08 956.01,-968.08 956.01,-974.08 956.01,-974.08 956.01,-1000.08 956.01,-1000.08 956.01,-1006.08 950.01,-1012.08 944.01,-1012.08"/>
<text text-anchor="middle" x="902.01" y="-984.58" font-family="Arial" font-size="10.00" fill="white">blogs&#45;selection.html</text>
</g>
<!-- consume&#45;&gt;blogsselection -->
<g id="edge18" class="edge">
<title>consume&#45;&gt;blogsselection</title>
<path fill="none" stroke="#a78bfa" d="M882.59,-940.45C882.59,-940.45 882.59,-951.89 882.59,-951.89"/>
<polygon fill="#a78bfa" stroke="#a78bfa" points="879.09,-951.89 882.59,-961.89 886.09,-951.89 879.09,-951.89"/>
</g>
<!-- shows -->
<g id="node6" class="node">
<title>shows</title>
<path fill="#c4b5fd" stroke="black" d="M1048.01,-765.08C1048.01,-765.08 964.01,-765.08 964.01,-765.08 958.01,-765.08 952.01,-759.08 952.01,-753.08 952.01,-753.08 952.01,-727.08 952.01,-727.08 952.01,-721.08 958.01,-715.08 964.01,-715.08 964.01,-715.08 1048.01,-715.08 1048.01,-715.08 1054.01,-715.08 1060.01,-721.08 1060.01,-727.08 1060.01,-727.08 1060.01,-753.08 1060.01,-753.08 1060.01,-759.08 1054.01,-765.08 1048.01,-765.08"/>
<text text-anchor="middle" x="1006.01" y="-737.58" font-family="Arial" font-size="10.00" fill="white">shows.html</text>
</g>
<!-- amusements&#45;&gt;shows -->
<g id="edge19" class="edge">
<title>amusements&#45;&gt;shows</title>
<path fill="none" stroke="#c4b5fd" d="M940.4,-852.07C940.4,-812.98 940.4,-742 940.4,-742 940.4,-742 941.83,-742 941.83,-742"/>
<polygon fill="#c4b5fd" stroke="#c4b5fd" points="941.83,-745.5 951.83,-742 941.83,-738.5 941.83,-745.5"/>
</g>
<!-- games -->
<g id="node7" class="node">
<title>games</title>
<path fill="#c4b5fd" stroke="black" d="M852.48,-880.2C852.48,-880.2 768.48,-880.2 768.48,-880.2 762.48,-880.2 756.48,-874.2 756.48,-868.2 756.48,-868.2 756.48,-842.2 756.48,-842.2 756.48,-836.2 762.48,-830.2 768.48,-830.2 768.48,-830.2 852.48,-830.2 852.48,-830.2 858.48,-830.2 864.48,-836.2 864.48,-842.2 864.48,-842.2 864.48,-868.2 864.48,-868.2 864.48,-874.2 858.48,-880.2 852.48,-880.2"/>
<text text-anchor="middle" x="810.48" y="-852.7" font-family="Arial" font-size="10.00" fill="white">games.html</text>
</g>
<!-- amusements&#45;&gt;games -->
<g id="edge20" class="edge">
<title>amusements&#45;&gt;games</title>
<path fill="none" stroke="#c4b5fd" d="M935.14,-866C935.14,-866 874.73,-866 874.73,-866"/>
<polygon fill="#c4b5fd" stroke="#c4b5fd" points="874.73,-862.5 864.73,-866 874.73,-869.5 874.73,-862.5"/>
</g>
<!-- blog -->
<g id="node11" class="node">
<title>blog</title>
<path fill="#e879f9" stroke="black" d="M919.25,-817.71C919.25,-817.71 835.25,-817.71 835.25,-817.71 829.25,-817.71 823.25,-811.71 823.25,-805.71 823.25,-805.71 823.25,-779.71 823.25,-779.71 823.25,-773.71 829.25,-767.71 835.25,-767.71 835.25,-767.71 919.25,-767.71 919.25,-767.71 925.25,-767.71 931.25,-773.71 931.25,-779.71 931.25,-779.71 931.25,-805.71 931.25,-805.71 931.25,-811.71 925.25,-817.71 919.25,-817.71"/>
<text text-anchor="middle" x="877.25" y="-790.21" font-family="Arial" font-size="10.00" fill="white">blog.html</text>
</g>
<!-- bloglisting&#45;&gt;blog -->
<g id="edge25" class="edge">
<title>bloglisting&#45;&gt;blog</title>
<path fill="none" stroke="#e879f9" d="M977.79,-928C950.95,-928 924.21,-928 924.21,-928 924.21,-928 924.21,-827.84 924.21,-827.84"/>
<polygon fill="#e879f9" stroke="#e879f9" points="927.71,-827.84 924.21,-817.84 920.71,-827.84 927.71,-827.84"/>
</g>
<!-- musicalpoetry -->
<g id="node10" class="node">
<title>musicalpoetry</title>
<path fill="#fb923c" stroke="black" d="M1178.01,-739.08C1178.01,-739.08 1094.01,-739.08 1094.01,-739.08 1088.01,-739.08 1082.01,-733.08 1082.01,-727.08 1082.01,-727.08 1082.01,-701.08 1082.01,-701.08 1082.01,-695.08 1088.01,-689.08 1094.01,-689.08 1094.01,-689.08 1178.01,-689.08 1178.01,-689.08 1184.01,-689.08 1190.01,-695.08 1190.01,-701.08 1190.01,-701.08 1190.01,-727.08 1190.01,-727.08 1190.01,-733.08 1184.01,-739.08 1178.01,-739.08"/>
<text text-anchor="middle" x="1136.01" y="-711.58" font-family="Arial" font-size="10.00" fill="white">musical&#45;poetry.html</text>
</g>
<!-- blogsselection&#45;&gt;musicalpoetry -->
<g id="edge23" class="edge">
<title>blogsselection&#45;&gt;musicalpoetry</title>
<path fill="none" stroke="#fb923c" d="M956.09,-987C1018.32,-987 1112.01,-987 1112.01,-987 1112.01,-987 1112.01,-749.27 1112.01,-749.27"/>
<polygon fill="#fb923c" stroke="#fb923c" points="1115.51,-749.27 1112.01,-739.27 1108.51,-749.27 1115.51,-749.27"/>
</g>
<!-- vision2054 -->
<g id="node8" class="node">
<title>vision2054</title>
<path fill="#c084fc" stroke="black" d="M1050.69,-833.99C1050.69,-833.99 958.69,-833.99 958.69,-833.99 952.69,-833.99 946.69,-827.99 946.69,-821.99 946.69,-821.99 946.69,-795.99 946.69,-795.99 946.69,-789.99 952.69,-783.99 958.69,-783.99 958.69,-783.99 1050.69,-783.99 1050.69,-783.99 1056.69,-783.99 1062.69,-789.99 1062.69,-795.99 1062.69,-795.99 1062.69,-821.99 1062.69,-821.99 1062.69,-827.99 1056.69,-833.99 1050.69,-833.99"/>
<text text-anchor="middle" x="1004.69" y="-806.49" font-family="Arial" font-size="10.00" fill="white">vision_2054_page.html</text>
</g>
<!-- shows&#45;&gt;vision2054 -->
<g id="edge21" class="edge">
<title>shows&#45;&gt;vision2054</title>
<path fill="none" stroke="#c084fc" d="M1006.01,-765.35C1006.01,-765.35 1006.01,-773.72 1006.01,-773.72"/>
<polygon fill="#c084fc" stroke="#c084fc" points="1002.51,-773.72 1006.01,-783.72 1009.51,-773.72 1002.51,-773.72"/>
</g>
<!-- lifeisyourword -->
<g id="node9" class="node">
<title>lifeisyourword</title>
<path fill="#fb923c" stroke="black" d="M1152.01,-1051.08C1152.01,-1051.08 1068.01,-1051.08 1068.01,-1051.08 1062.01,-1051.08 1056.01,-1045.08 1056.01,-1039.08 1056.01,-1039.08 1056.01,-1013.08 1056.01,-1013.08 1056.01,-1007.08 1062.01,-1001.08 1068.01,-1001.08 1068.01,-1001.08 1152.01,-1001.08 1152.01,-1001.08 1158.01,-1001.08 1164.01,-1007.08 1164.01,-1013.08 1164.01,-1013.08 1164.01,-1039.08 1164.01,-1039.08 1164.01,-1045.08 1158.01,-1051.08 1152.01,-1051.08"/>
<text text-anchor="middle" x="1110.01" y="-1023.58" font-family="Arial" font-size="10.00" fill="white">life&#45;is&#45;your&#45;word.html</text>
</g>
<!-- shows&#45;&gt;lifeisyourword -->
<g id="edge22" class="edge">
<title>shows&#45;&gt;lifeisyourword</title>
<path fill="none" stroke="#fb923c" d="M1060.08,-752C1096.54,-752 1138.01,-752 1138.01,-752 1138.01,-752 1138.01,-990.79 1138.01,-990.79"/>
<polygon fill="#fb923c" stroke="#fb923c" points="1134.51,-990.79 1138.01,-1000.79 1141.51,-990.79 1134.51,-990.79"/>
</g>
<!-- unityremix -->
<g id="node31" class="node">
<title>unityremix</title>
<path fill="#67e8f9" stroke="black" d="M1072.43,-445.59C1072.43,-445.59 974.43,-445.59 974.43,-445.59 968.43,-445.59 962.43,-439.59 962.43,-433.59 962.43,-433.59 962.43,-407.59 962.43,-407.59 962.43,-401.59 968.43,-395.59 974.43,-395.59 974.43,-395.59 1072.43,-395.59 1072.43,-395.59 1078.43,-395.59 1084.43,-401.59 1084.43,-407.59 1084.43,-407.59 1084.43,-433.59 1084.43,-433.59 1084.43,-439.59 1078.43,-445.59 1072.43,-445.59"/>
<text text-anchor="middle" x="1023.43" y="-418.09" font-family="Arial" font-size="10.00" fill="white">unity&#45;remix&#45;contest.html</text>
</g>
<!-- games&#45;&gt;unityremix -->
<g id="edge24" class="edge">
<title>games&#45;&gt;unityremix</title>
<path fill="none" stroke="#67e8f9" d="M806.2,-830.04C806.2,-741.99 806.2,-453 806.2,-453 806.2,-453 991.97,-453 991.97,-453 991.97,-453 991.97,-452.28 991.97,-452.28"/>
<polygon fill="#67e8f9" stroke="#67e8f9" points="995.47,-455.81 991.97,-445.81 988.47,-455.81 995.47,-455.81"/>
</g>
<!-- vision2054&#45;&gt;blog -->
<g id="edge43" class="edge">
<title>vision2054&#45;&gt;blog</title>
<path fill="none" stroke="#e879f9" d="M946.56,-800C946.56,-800 941.58,-800 941.58,-800"/>
<polygon fill="#e879f9" stroke="#e879f9" points="941.58,-796.5 931.58,-800 941.58,-803.5 941.58,-796.5"/>
</g>
<!-- vision2054&#45;&gt;unityremix -->
<g id="edge44" class="edge">
<title>vision2054&#45;&gt;unityremix</title>
<path fill="none" stroke="#67e8f9" d="M1062.71,-808C1121.95,-808 1205.27,-808 1205.27,-808 1205.27,-808 1205.27,-432 1205.27,-432 1205.27,-432 1094.49,-432 1094.49,-432"/>
<polygon fill="#67e8f9" stroke="#67e8f9" points="1094.49,-428.5 1084.49,-432 1094.49,-435.5 1094.49,-428.5"/>
</g>
<!-- dispatch -->
<g id="node13" class="node">
<title>dispatch</title>
<path fill="#67e8f9" stroke="black" d="M714.21,-949.26C714.21,-949.26 585.21,-949.26 585.21,-949.26 579.21,-949.26 573.21,-943.26 573.21,-937.26 573.21,-937.26 573.21,-911.26 573.21,-911.26 573.21,-905.26 579.21,-899.26 585.21,-899.26 585.21,-899.26 714.21,-899.26 714.21,-899.26 720.21,-899.26 726.21,-905.26 726.21,-911.26 726.21,-911.26 726.21,-937.26 726.21,-937.26 726.21,-943.26 720.21,-949.26 714.21,-949.26"/>
<text text-anchor="middle" x="649.71" y="-921.76" font-family="Arial" font-size="10.00" fill="white">dispatch&#45;revenue&#45;reporting.html</text>
</g>
<!-- interact&#45;&gt;dispatch -->
<g id="edge26" class="edge">
<title>interact&#45;&gt;dispatch</title>
<path fill="none" stroke="#67e8f9" d="M563.41,-905C563.41,-905 564.35,-905 564.35,-905"/>
<polygon fill="#67e8f9" stroke="#67e8f9" points="562.79,-908.5 572.79,-905 562.79,-901.5 562.79,-908.5"/>
</g>
<!-- tictactoe -->
<g id="node14" class="node">
<title>tictactoe</title>
<path fill="#67e8f9" stroke="black" d="M691.44,-883.04C691.44,-883.04 607.44,-883.04 607.44,-883.04 601.44,-883.04 595.44,-877.04 595.44,-871.04 595.44,-871.04 595.44,-845.04 595.44,-845.04 595.44,-839.04 601.44,-833.04 607.44,-833.04 607.44,-833.04 691.44,-833.04 691.44,-833.04 697.44,-833.04 703.44,-839.04 703.44,-845.04 703.44,-845.04 703.44,-871.04 703.44,-871.04 703.44,-877.04 697.44,-883.04 691.44,-883.04"/>
<text text-anchor="middle" x="649.44" y="-855.54" font-family="Arial" font-size="10.00" fill="white">tic&#45;tac&#45;toe.html</text>
</g>
<!-- interact&#45;&gt;tictactoe -->
<g id="edge27" class="edge">
<title>interact&#45;&gt;tictactoe</title>
<path fill="none" stroke="#67e8f9" d="M563.3,-872C563.3,-872 585.29,-872 585.29,-872"/>
<polygon fill="#67e8f9" stroke="#67e8f9" points="585.29,-875.5 595.29,-872 585.29,-868.5 585.29,-875.5"/>
</g>
<!-- interact&#45;&gt;unityremix -->
<g id="edge28" class="edge">
<title>interact&#45;&gt;unityremix</title>
<path fill="none" stroke="#67e8f9" stroke-width="2" d="M560.38,-861.69C560.38,-787.94 560.38,-577 560.38,-577 560.38,-577 1026.02,-577 1026.02,-577 1026.02,-577 1026.02,-455.72 1026.02,-455.72"/>
<polygon fill="#67e8f9" stroke="#67e8f9" stroke-width="2" points="1029.52,-455.72 1026.02,-445.72 1022.52,-455.72 1029.52,-455.72"/>
</g>
<!-- aboutfounder -->
<g id="node16" class="node">
<title>aboutfounder</title>
<path fill="#34d399" stroke="black" d="M254.14,-735.64C254.14,-735.64 170.14,-735.64 170.14,-735.64 164.14,-735.64 158.14,-729.64 158.14,-723.64 158.14,-723.64 158.14,-697.64 158.14,-697.64 158.14,-691.64 164.14,-685.64 170.14,-685.64 170.14,-685.64 254.14,-685.64 254.14,-685.64 260.14,-685.64 266.14,-691.64 266.14,-697.64 266.14,-697.64 266.14,-723.64 266.14,-723.64 266.14,-729.64 260.14,-735.64 254.14,-735.64"/>
<text text-anchor="middle" x="212.14" y="-708.14" font-family="Arial" font-size="10.00" fill="white">about&#45;founder.html</text>
</g>
<!-- learn&#45;&gt;aboutfounder -->
<g id="edge29" class="edge">
<title>learn&#45;&gt;aboutfounder</title>
<path fill="none" stroke="#34d399" d="M135.91,-747C171.74,-747 212.14,-747 212.14,-747 212.14,-747 212.14,-745.89 212.14,-745.89"/>
<polygon fill="#34d399" stroke="#34d399" points="215.64,-745.89 212.14,-735.89 208.64,-745.89 215.64,-745.89"/>
</g>
<!-- whatwedo -->
<g id="node17" class="node">
<title>whatwedo</title>
<path fill="#34d399" stroke="black" d="M214.14,-595.64C214.14,-595.64 130.14,-595.64 130.14,-595.64 124.14,-595.64 118.14,-589.64 118.14,-583.64 118.14,-583.64 118.14,-557.64 118.14,-557.64 118.14,-551.64 124.14,-545.64 130.14,-545.64 130.14,-545.64 214.14,-545.64 214.14,-545.64 220.14,-545.64 226.14,-551.64 226.14,-557.64 226.14,-557.64 226.14,-583.64 226.14,-583.64 226.14,-589.64 220.14,-595.64 214.14,-595.64"/>
<text text-anchor="middle" x="172.14" y="-568.14" font-family="Arial" font-size="10.00" fill="white">what&#45;we&#45;do.html</text>
</g>
<!-- learn&#45;&gt;whatwedo -->
<g id="edge30" class="edge">
<title>learn&#45;&gt;whatwedo</title>
<path fill="none" stroke="#34d399" d="M81.75,-736.04C81.75,-711.2 81.75,-677 81.75,-677 81.75,-677 219.39,-677 219.39,-677 219.39,-677 219.39,-605.85 219.39,-605.85"/>
<polygon fill="#34d399" stroke="#34d399" points="222.89,-605.85 219.39,-595.85 215.89,-605.85 222.89,-605.85"/>
</g>
<!-- resume -->
<g id="node18" class="node">
<title>resume</title>
<path fill="#60a5fa" stroke="black" d="M200.64,-665.64C200.64,-665.64 19.64,-665.64 19.64,-665.64 13.64,-665.64 7.64,-659.64 7.64,-653.64 7.64,-653.64 7.64,-627.64 7.64,-627.64 7.64,-621.64 13.64,-615.64 19.64,-615.64 19.64,-615.64 200.64,-615.64 200.64,-615.64 206.64,-615.64 212.64,-621.64 212.64,-627.64 212.64,-627.64 212.64,-653.64 212.64,-653.64 212.64,-659.64 206.64,-665.64 200.64,-665.64"/>
<text text-anchor="middle" x="110.14" y="-638.14" font-family="Arial" font-size="10.00" fill="white">resume_cv/asabaal_horan_cv_202507.html</text>
</g>
<!-- aboutfounder&#45;&gt;resume -->
<g id="edge31" class="edge">
<title>aboutfounder&#45;&gt;resume</title>
<path fill="none" stroke="#60a5fa" d="M185.39,-685.37C185.39,-685.37 185.39,-676.11 185.39,-676.11"/>
<polygon fill="#60a5fa" stroke="#60a5fa" points="188.89,-676.11 185.39,-666.11 181.89,-676.11 188.89,-676.11"/>
</g>
<!-- products -->
<g id="node20" class="node">
<title>products</title>
<path fill="#fbbf24" stroke="black" d="M1041.53,-639.88C1041.53,-639.88 957.53,-639.88 957.53,-639.88 951.53,-639.88 945.53,-633.88 945.53,-627.88 945.53,-627.88 945.53,-601.88 945.53,-601.88 945.53,-595.88 951.53,-589.88 957.53,-589.88 957.53,-589.88 1041.53,-589.88 1041.53,-589.88 1047.53,-589.88 1053.53,-595.88 1053.53,-601.88 1053.53,-601.88 1053.53,-627.88 1053.53,-627.88 1053.53,-633.88 1047.53,-639.88 1041.53,-639.88"/>
<text text-anchor="middle" x="999.53" y="-612.38" font-family="Arial" font-size="10.00">products.html</text>
</g>
<!-- dobusiness&#45;&gt;products -->
<g id="edge32" class="edge">
<title>dobusiness&#45;&gt;products</title>
<path fill="none" stroke="#fbbf24" d="M958.23,-379.23C958.23,-407.97 958.23,-451 958.23,-451 958.23,-451 1039.53,-451 1039.53,-451 1039.53,-451 1039.53,-579.63 1039.53,-579.63"/>
<polygon fill="#fbbf24" stroke="#fbbf24" points="1036.03,-579.63 1039.53,-589.63 1043.03,-579.63 1036.03,-579.63"/>
</g>
<!-- services -->
<g id="node21" class="node">
<title>services</title>
<path fill="#fbbf24" stroke="black" d="M935.08,-447.19C935.08,-447.19 851.08,-447.19 851.08,-447.19 845.08,-447.19 839.08,-441.19 839.08,-435.19 839.08,-435.19 839.08,-409.19 839.08,-409.19 839.08,-403.19 845.08,-397.19 851.08,-397.19 851.08,-397.19 935.08,-397.19 935.08,-397.19 941.08,-397.19 947.08,-403.19 947.08,-409.19 947.08,-409.19 947.08,-435.19 947.08,-435.19 947.08,-441.19 941.08,-447.19 935.08,-447.19"/>
<text text-anchor="middle" x="893.08" y="-419.69" font-family="Arial" font-size="10.00">services.html</text>
</g>
<!-- dobusiness&#45;&gt;services -->
<g id="edge33" class="edge">
<title>dobusiness&#45;&gt;services</title>
<path fill="none" stroke="#fbbf24" d="M956.13,-379.33C956.13,-398.3 956.13,-421 956.13,-421 956.13,-421 955.23,-421 955.23,-421"/>
<polygon fill="#fbbf24" stroke="#fbbf24" points="957.1,-417.5 947.1,-421 957.1,-424.5 957.1,-417.5"/>
</g>
<!-- partner -->
<g id="node22" class="node">
<title>partner</title>
<path fill="#fbbf24" stroke="black" d="M1173.53,-584.88C1173.53,-584.88 1089.53,-584.88 1089.53,-584.88 1083.53,-584.88 1077.53,-578.88 1077.53,-572.88 1077.53,-572.88 1077.53,-546.88 1077.53,-546.88 1077.53,-540.88 1083.53,-534.88 1089.53,-534.88 1089.53,-534.88 1173.53,-534.88 1173.53,-534.88 1179.53,-534.88 1185.53,-540.88 1185.53,-546.88 1185.53,-546.88 1185.53,-572.88 1185.53,-572.88 1185.53,-578.88 1179.53,-584.88 1173.53,-584.88"/>
<text text-anchor="middle" x="1131.53" y="-557.38" font-family="Arial" font-size="10.00">partner.html</text>
</g>
<!-- dobusiness&#45;&gt;partner -->
<g id="edge34" class="edge">
<title>dobusiness&#45;&gt;partner</title>
<path fill="none" stroke="#fbbf24" d="M960.33,-379.46C960.33,-407.6 960.33,-449 960.33,-449 960.33,-449 1175.28,-449 1175.28,-449 1175.28,-449 1175.28,-524.72 1175.28,-524.72"/>
<polygon fill="#fbbf24" stroke="#fbbf24" points="1171.78,-524.72 1175.28,-534.72 1178.78,-524.72 1171.78,-524.72"/>
</g>
<!-- advancements -->
<g id="node26" class="node">
<title>advancements</title>
<path fill="#f472b6" stroke="black" d="M1009.51,-505.44C1009.51,-505.44 881.51,-505.44 881.51,-505.44 875.51,-505.44 869.51,-499.44 869.51,-493.44 869.51,-493.44 869.51,-467.44 869.51,-467.44 869.51,-461.44 875.51,-455.44 881.51,-455.44 881.51,-455.44 1009.51,-455.44 1009.51,-455.44 1015.51,-455.44 1021.51,-461.44 1021.51,-467.44 1021.51,-467.44 1021.51,-493.44 1021.51,-493.44 1021.51,-499.44 1015.51,-505.44 1009.51,-505.44"/>
<text text-anchor="middle" x="945.51" y="-477.94" font-family="Arial" font-size="10.00" fill="white">advancements&#45;by&#45;asabaal.html</text>
</g>
<!-- products&#45;&gt;advancements -->
<g id="edge38" class="edge">
<title>products&#45;&gt;advancements</title>
<path fill="none" stroke="#f472b6" d="M1035.02,-589.63C1035.02,-553.93 1035.02,-493 1035.02,-493 1035.02,-493 1031.82,-493 1031.82,-493"/>
<polygon fill="#f472b6" stroke="#f472b6" points="1031.82,-489.5 1021.82,-493 1031.82,-496.5 1031.82,-489.5"/>
</g>
<!-- services&#45;&gt;dispatch -->
<g id="edge37" class="edge">
<title>services&#45;&gt;dispatch</title>
<path fill="none" stroke="#67e8f9" d="M838.95,-422C785.29,-422 711.03,-422 711.03,-422 711.03,-422 711.03,-889.01 711.03,-889.01"/>
<polygon fill="#67e8f9" stroke="#67e8f9" points="707.53,-889.01 711.03,-899.01 714.53,-889.01 707.53,-889.01"/>
</g>
<!-- buildwithme -->
<g id="node23" class="node">
<title>buildwithme</title>
<path fill="#fcd34d" stroke="black" d="M1184.53,-353.88C1184.53,-353.88 1100.53,-353.88 1100.53,-353.88 1094.53,-353.88 1088.53,-347.88 1088.53,-341.88 1088.53,-341.88 1088.53,-315.88 1088.53,-315.88 1088.53,-309.88 1094.53,-303.88 1100.53,-303.88 1100.53,-303.88 1184.53,-303.88 1184.53,-303.88 1190.53,-303.88 1196.53,-309.88 1196.53,-315.88 1196.53,-315.88 1196.53,-341.88 1196.53,-341.88 1196.53,-347.88 1190.53,-353.88 1184.53,-353.88"/>
<text text-anchor="middle" x="1142.53" y="-326.38" font-family="Arial" font-size="10.00">build&#45;with&#45;me.html</text>
</g>
<!-- services&#45;&gt;buildwithme -->
<g id="edge35" class="edge">
<title>services&#45;&gt;buildwithme</title>
<path fill="none" stroke="#fcd34d" d="M908.36,-397.14C908.36,-392.99 908.36,-390 908.36,-390 908.36,-390 1099.53,-390 1099.53,-390 1099.53,-390 1099.53,-364.09 1099.53,-364.09"/>
<polygon fill="#fcd34d" stroke="#fcd34d" points="1103.03,-364.09 1099.53,-354.09 1096.03,-364.09 1103.03,-364.09"/>
</g>
<!-- buildwithyou -->
<g id="node24" class="node">
<title>buildwithyou</title>
<path fill="#fcd34d" stroke="black" d="M1008.53,-573.88C1008.53,-573.88 924.53,-573.88 924.53,-573.88 918.53,-573.88 912.53,-567.88 912.53,-561.88 912.53,-561.88 912.53,-535.88 912.53,-535.88 912.53,-529.88 918.53,-523.88 924.53,-523.88 924.53,-523.88 1008.53,-523.88 1008.53,-523.88 1014.53,-523.88 1020.53,-529.88 1020.53,-535.88 1020.53,-535.88 1020.53,-561.88 1020.53,-561.88 1020.53,-567.88 1014.53,-573.88 1008.53,-573.88"/>
<text text-anchor="middle" x="966.53" y="-546.38" font-family="Arial" font-size="10.00">build&#45;with&#45;you.html</text>
</g>
<!-- services&#45;&gt;buildwithyou -->
<g id="edge36" class="edge">
<title>services&#45;&gt;buildwithyou</title>
<path fill="none" stroke="#fcd34d" d="M854.3,-447.38C854.3,-481.18 854.3,-537 854.3,-537 854.3,-537 902.39,-537 902.39,-537"/>
<polygon fill="#fcd34d" stroke="#fcd34d" points="902.39,-540.5 912.39,-537 902.39,-533.5 902.39,-540.5"/>
</g>
<!-- asabaal -->
<g id="node25" class="node">
<title>asabaal</title>
<path fill="#f472b6" stroke="black" d="M931,-376.4C931,-376.4 847,-376.4 847,-376.4 841,-376.4 835,-370.4 835,-364.4 835,-364.4 835,-338.4 835,-338.4 835,-332.4 841,-326.4 847,-326.4 847,-326.4 931,-326.4 931,-326.4 937,-326.4 943,-332.4 943,-338.4 943,-338.4 943,-364.4 943,-364.4 943,-370.4 937,-376.4 931,-376.4"/>
<text text-anchor="middle" x="889" y="-348.9" font-family="Arial" font-size="10.00" fill="white">asabaal.html</text>
</g>
<!-- asabaalprojects -->
<g id="node27" class="node">
<title>asabaalprojects</title>
<path fill="#fbcfe8" stroke="black" d="M1208.53,-419.88C1208.53,-419.88 1122.53,-419.88 1122.53,-419.88 1116.53,-419.88 1110.53,-413.88 1110.53,-407.88 1110.53,-407.88 1110.53,-381.88 1110.53,-381.88 1110.53,-375.88 1116.53,-369.88 1122.53,-369.88 1122.53,-369.88 1208.53,-369.88 1208.53,-369.88 1214.53,-369.88 1220.53,-375.88 1220.53,-381.88 1220.53,-381.88 1220.53,-407.88 1220.53,-407.88 1220.53,-413.88 1214.53,-419.88 1208.53,-419.88"/>
<text text-anchor="middle" x="1165.53" y="-392.38" font-family="Arial" font-size="10.00">asabaal&#45;projects.html</text>
</g>
<!-- asabaal&#45;&gt;asabaalprojects -->
<g id="edge39" class="edge">
<title>asabaal&#45;&gt;asabaalprojects</title>
<path fill="none" stroke="#fbcfe8" d="M873.72,-376.56C873.72,-385.32 873.72,-393 873.72,-393 873.72,-393 1100.3,-393 1100.3,-393"/>
<polygon fill="#fbcfe8" stroke="#fbcfe8" points="1100.3,-396.5 1110.3,-393 1100.3,-389.5 1100.3,-396.5"/>
</g>
<!-- playlists -->
<g id="node28" class="node">
<title>playlists</title>
<path fill="#fbcfe8" stroke="black" d="M909.53,-639.88C909.53,-639.88 825.53,-639.88 825.53,-639.88 819.53,-639.88 813.53,-633.88 813.53,-627.88 813.53,-627.88 813.53,-601.88 813.53,-601.88 813.53,-595.88 819.53,-589.88 825.53,-589.88 825.53,-589.88 909.53,-589.88 909.53,-589.88 915.53,-589.88 921.53,-595.88 921.53,-601.88 921.53,-601.88 921.53,-627.88 921.53,-627.88 921.53,-633.88 915.53,-639.88 909.53,-639.88"/>
<text text-anchor="middle" x="867.53" y="-612.38" font-family="Arial" font-size="10.00">playlists.html</text>
</g>
<!-- asabaal&#45;&gt;playlists -->
<g id="edge40" class="edge">
<title>asabaal&#45;&gt;playlists</title>
<path fill="none" stroke="#fbcfe8" d="M834.96,-362C828.57,-362 824.27,-362 824.27,-362 824.27,-362 824.27,-579.71 824.27,-579.71"/>
<polygon fill="#fbcfe8" stroke="#fbcfe8" points="820.77,-579.71 824.27,-589.71 827.77,-579.71 820.77,-579.71"/>
</g>
<!-- extern_music -->
<g id="node37" class="node">
<title>extern_music</title>
<ellipse fill="#d1d5db" stroke="black" cx="667.46" cy="-32.55" rx="54" ry="25"/>
<text text-anchor="middle" x="667.46" y="-30.05" font-family="Arial" font-size="10.00">Music Platforms</text>
</g>
<!-- asabaal&#45;&gt;extern_music -->
<g id="edge51" class="edge">
<title>asabaal&#45;&gt;extern_music</title>
<path fill="none" stroke="#9ca3af" stroke-dasharray="5,2" d="M834.74,-330C760.43,-330 636.08,-330 636.08,-330 636.08,-330 636.08,-62.99 636.08,-62.99"/>
<polygon fill="#9ca3af" stroke="#9ca3af" points="639.58,-62.99 636.08,-52.99 632.58,-62.99 639.58,-62.99"/>
</g>
<!-- advancements&#45;&gt;vision2054 -->
<g id="edge42" class="edge">
<title>advancements&#45;&gt;vision2054</title>
<path fill="none" stroke="#c084fc" d="M869.36,-498C838.44,-498 809.86,-498 809.86,-498 809.86,-498 809.86,-823 809.86,-823 809.86,-823 936.5,-823 936.5,-823"/>
<polygon fill="#c084fc" stroke="#c084fc" points="936.5,-826.5 946.5,-823 936.5,-819.5 936.5,-826.5"/>
</g>
<!-- opensource -->
<g id="node30" class="node">
<title>opensource</title>
<path fill="#c084fc" stroke="black" d="M1153.03,-518.88C1153.03,-518.88 1056.03,-518.88 1056.03,-518.88 1050.03,-518.88 1044.03,-512.88 1044.03,-506.88 1044.03,-506.88 1044.03,-480.88 1044.03,-480.88 1044.03,-474.88 1050.03,-468.88 1056.03,-468.88 1056.03,-468.88 1153.03,-468.88 1153.03,-468.88 1159.03,-468.88 1165.03,-474.88 1165.03,-480.88 1165.03,-480.88 1165.03,-506.88 1165.03,-506.88 1165.03,-512.88 1159.03,-518.88 1153.03,-518.88"/>
<text text-anchor="middle" x="1104.53" y="-491.38" font-family="Arial" font-size="10.00" fill="white">open&#45;source&#45;model.html</text>
</g>
<!-- advancements&#45;&gt;opensource -->
<g id="edge41" class="edge">
<title>advancements&#45;&gt;opensource</title>
<path fill="none" stroke="#c084fc" d="M1021.76,-481C1021.76,-481 1033.62,-481 1033.62,-481"/>
<polygon fill="#c084fc" stroke="#c084fc" points="1033.62,-484.5 1043.62,-481 1033.62,-477.5 1033.62,-484.5"/>
</g>
<!-- acts -->
<g id="node29" class="node">
<title>acts</title>
<path fill="#fbcfe8" stroke="black" d="M898.53,-309.88C898.53,-309.88 814.53,-309.88 814.53,-309.88 808.53,-309.88 802.53,-303.88 802.53,-297.88 802.53,-297.88 802.53,-271.88 802.53,-271.88 802.53,-265.88 808.53,-259.88 814.53,-259.88 814.53,-259.88 898.53,-259.88 898.53,-259.88 904.53,-259.88 910.53,-265.88 910.53,-271.88 910.53,-271.88 910.53,-297.88 910.53,-297.88 910.53,-303.88 904.53,-309.88 898.53,-309.88"/>
<text text-anchor="middle" x="856.53" y="-282.38" font-family="Arial" font-size="10.00">acts&#45;of&#45;asabaal.html</text>
</g>
<!-- unityremix&#45;&gt;blog -->
<g id="edge45" class="edge">
<title>unityremix&#45;&gt;blog</title>
<path fill="none" stroke="#e879f9" d="M1030.52,-445.66C1030.52,-490.77 1030.52,-581 1030.52,-581 1030.52,-581 926.39,-581 926.39,-581 926.39,-581 926.39,-757.6 926.39,-757.6"/>
<polygon fill="#e879f9" stroke="#e879f9" points="922.89,-757.6 926.39,-767.6 929.89,-757.6 922.89,-757.6"/>
</g>
<!-- privacy -->
<g id="node34" class="node">
<title>privacy</title>
<path fill="#6b7280" stroke="black" d="M307.82,-311.72C307.82,-311.72 223.82,-311.72 223.82,-311.72 217.82,-311.72 211.82,-305.72 211.82,-299.72 211.82,-299.72 211.82,-273.72 211.82,-273.72 211.82,-267.72 217.82,-261.72 223.82,-261.72 223.82,-261.72 307.82,-261.72 307.82,-261.72 313.82,-261.72 319.82,-267.72 319.82,-273.72 319.82,-273.72 319.82,-299.72 319.82,-299.72 319.82,-305.72 313.82,-311.72 307.82,-311.72"/>
<text text-anchor="middle" x="265.82" y="-284.22" font-family="Arial" font-size="10.00" fill="white">privacy.html</text>
</g>
<!-- connect&#45;&gt;privacy -->
<g id="edge46" class="edge">
<title>connect&#45;&gt;privacy</title>
<path fill="none" stroke="#6b7280" d="M246.28,-239.95C246.28,-239.95 246.28,-251.45 246.28,-251.45"/>
<polygon fill="#6b7280" stroke="#6b7280" points="242.78,-251.45 246.28,-261.45 249.78,-251.45 242.78,-251.45"/>
</g>
<!-- terms -->
<g id="node35" class="node">
<title>terms</title>
<path fill="#6b7280" stroke="black" d="M367.82,-383.72C367.82,-383.72 283.82,-383.72 283.82,-383.72 277.82,-383.72 271.82,-377.72 271.82,-371.72 271.82,-371.72 271.82,-345.72 271.82,-345.72 271.82,-339.72 277.82,-333.72 283.82,-333.72 283.82,-333.72 367.82,-333.72 367.82,-333.72 373.82,-333.72 379.82,-339.72 379.82,-345.72 379.82,-345.72 379.82,-371.72 379.82,-371.72 379.82,-377.72 373.82,-383.72 367.82,-383.72"/>
<text text-anchor="middle" x="325.82" y="-356.22" font-family="Arial" font-size="10.00" fill="white">terms.html</text>
</g>
<!-- connect&#45;&gt;terms -->
<g id="edge47" class="edge">
<title>connect&#45;&gt;terms</title>
<path fill="none" stroke="#6b7280" d="M281.09,-229C314.05,-229 349.82,-229 349.82,-229 349.82,-229 349.82,-323.71 349.82,-323.71"/>
<polygon fill="#6b7280" stroke="#6b7280" points="346.32,-323.71 349.82,-333.71 353.32,-323.71 346.32,-323.71"/>
</g>
<!-- extern_email -->
<g id="node38" class="node">
<title>extern_email</title>
<ellipse fill="#d1d5db" stroke="black" cx="570.31" cy="-133.79" rx="54" ry="25"/>
<text text-anchor="middle" x="570.31" y="-131.29" font-family="Arial" font-size="10.00">Email</text>
</g>
<!-- connect&#45;&gt;extern_email -->
<g id="edge52" class="edge">
<title>connect&#45;&gt;extern_email</title>
<path fill="none" stroke="#9ca3af" stroke-dasharray="5,2" d="M281.14,-199C381.89,-199 587.42,-199 587.42,-199 587.42,-199 587.42,-167.7 587.42,-167.7"/>
<polygon fill="#9ca3af" stroke="#9ca3af" points="590.92,-167.7 587.42,-157.7 583.92,-167.7 590.92,-167.7"/>
</g>
<!-- extern_social -->
<g id="node36" class="node">
<title>extern_social</title>
<ellipse fill="#d1d5db" stroke="black" cx="547.25" cy="-64.76" rx="54" ry="25"/>
<text text-anchor="middle" x="547.25" y="-62.26" font-family="Arial" font-size="10.00">Social Platforms</text>
</g>
<!-- links&#45;&gt;extern_social -->
<g id="edge49" class="edge">
<title>links&#45;&gt;extern_social</title>
<path fill="none" stroke="#9ca3af" stroke-width="2" stroke-dasharray="5,2" d="M187.82,-253C289.63,-253 499.83,-253 499.83,-253 499.83,-253 499.83,-86.82 499.83,-86.82"/>
<polygon fill="#9ca3af" stroke="#9ca3af" stroke-width="2" points="503.33,-86.82 499.83,-76.82 496.33,-86.82 503.33,-86.82"/>
</g>
<!-- links&#45;&gt;extern_music -->
<g id="edge50" class="edge">
<title>links&#45;&gt;extern_music</title>
<path fill="none" stroke="#9ca3af" stroke-width="2" stroke-dasharray="5,2" d="M187.88,-255C316.53,-255 630.19,-255 630.19,-255 630.19,-255 630.19,-60.75 630.19,-60.75"/>
<polygon fill="#9ca3af" stroke="#9ca3af" stroke-width="2" points="633.7,-60.75 630.19,-50.75 626.7,-60.75 633.7,-60.75"/>
</g>
<!-- privacy&#45;&gt;terms -->
<g id="edge48" class="edge">
<title>privacy&#45;&gt;terms</title>
<path fill="none" stroke="#6b7280" d="M295.82,-311.9C295.82,-311.9 295.82,-323.43 295.82,-323.43"/>
<polygon fill="#6b7280" stroke="#6b7280" points="292.32,-323.43 295.82,-333.43 299.32,-323.43 292.32,-323.43"/>
</g>
<!-- extern_website -->
<g id="node39" class="node">
<title>extern_website</title>
<ellipse fill="#d1d5db" stroke="black" cx="695.96" cy="-98.39" rx="54" ry="25"/>
<text text-anchor="middle" x="695.96" y="-95.89" font-family="Arial" font-size="10.00">Websites</text>
</g>
<!-- brands&#45;&gt;consume -->
<g id="edge8" class="edge">
<title>brands&#45;&gt;consume</title>
<path fill="none" stroke="#8b5cf6" d="M580.62,-528.68C580.62,-615.3 580.62,-896 580.62,-896 580.62,-896 799.02,-896 799.02,-896"/>
<polygon fill="#8b5cf6" stroke="#8b5cf6" points="799.02,-899.5 809.02,-896 799.02,-892.5 799.02,-899.5"/>
</g>
<!-- brands&#45;&gt;amusements -->
<g id="edge15" class="edge">
<title>brands&#45;&gt;amusements</title>
<path fill="none" stroke="#a78bfa" d="M588.03,-528.63C588.03,-613.72 588.03,-886 588.03,-886 588.03,-886 925.16,-886 925.16,-886"/>
<polygon fill="#a78bfa" stroke="#a78bfa" points="925.16,-889.5 935.16,-886 925.16,-882.5 925.16,-889.5"/>
</g>
<!-- brands&#45;&gt;interact -->
<g id="edge9" class="edge">
<title>brands&#45;&gt;interact</title>
<path fill="none" stroke="#06b6d4" d="M557.76,-528.68C557.76,-528.68 557.76,-851.54 557.76,-851.54"/>
<polygon fill="#06b6d4" stroke="#06b6d4" points="554.26,-851.54 557.76,-861.54 561.26,-851.54 554.26,-851.54"/>
</g>
<!-- brands&#45;&gt;learn -->
<g id="edge10" class="edge">
<title>brands&#45;&gt;learn</title>
<path fill="none" stroke="#10b981" d="M555.13,-528.96C555.13,-593.58 555.13,-759 555.13,-759 555.13,-759 146.05,-759 146.05,-759"/>
<polygon fill="#10b981" stroke="#10b981" points="146.05,-755.5 136.05,-759 146.05,-762.5 146.05,-755.5"/>
</g>
<!-- brands&#45;&gt;dobusiness -->
<g id="edge11" class="edge">
<title>brands&#45;&gt;dobusiness</title>
<path fill="none" stroke="#f59e0b" d="M563.72,-478.46C563.72,-444.49 563.72,-388 563.72,-388 563.72,-388 1028.83,-388 1028.83,-388 1028.83,-388 1028.83,-387.11 1028.83,-387.11"/>
<polygon fill="#f59e0b" stroke="#f59e0b" points="1032.33,-389.07 1028.83,-379.07 1025.33,-389.07 1032.33,-389.07"/>
</g>
<!-- brands&#45;&gt;asabaal -->
<g id="edge13" class="edge">
<title>brands&#45;&gt;asabaal</title>
<path fill="none" stroke="#f472b6" d="M540.01,-478.38C540.01,-434.14 540.01,-347 540.01,-347 540.01,-347 824.86,-347 824.86,-347"/>
<polygon fill="#f472b6" stroke="#f472b6" points="824.86,-350.5 834.86,-347 824.86,-343.5 824.86,-350.5"/>
</g>
<!-- brands&#45;&gt;advancements -->
<g id="edge14" class="edge">
<title>brands&#45;&gt;advancements</title>
<path fill="none" stroke="#f472b6" d="M611.13,-491C611.13,-491 859.27,-491 859.27,-491"/>
<polygon fill="#f472b6" stroke="#f472b6" points="859.27,-494.5 869.27,-491 859.27,-487.5 859.27,-494.5"/>
</g>
<!-- brands&#45;&gt;connect -->
<g id="edge12" class="edge">
<title>brands&#45;&gt;connect</title>
<path fill="none" stroke="#6b7280" d="M509.72,-478.42C509.72,-407.2 509.72,-209 509.72,-209 509.72,-209 290.97,-209 290.97,-209"/>
<polygon fill="#6b7280" stroke="#6b7280" points="290.97,-205.5 280.97,-209 290.97,-212.5 290.97,-205.5"/>
</g>
<!-- brands&#45;&gt;extern_website -->
<g id="edge53" class="edge">
<title>brands&#45;&gt;extern_website</title>
<path fill="none" stroke="#9ca3af" stroke-dasharray="5,2" d="M611.19,-485C641.27,-485 672.7,-485 672.7,-485 672.7,-485 672.7,-131.13 672.7,-131.13"/>
<polygon fill="#9ca3af" stroke="#9ca3af" points="676.2,-131.13 672.7,-121.13 669.2,-131.13 676.2,-131.13"/>
</g>
</g>
</svg>
