<?xml version="1.0" encoding="UTF-8" standalone="no"?>
<!DOCTYPE svg PUBLIC "-//W3C//DTD SVG 1.1//EN"
 "http://www.w3.org/Graphics/SVG/1.1/DTD/svg11.dtd">
<!-- Generated by graphviz version 2.43.0 (0)
 -->
<!-- Title: WebsiteNavigationSimple Pages: 1 -->
<svg width="3177pt" height="2425pt"
 viewBox="0.00 0.00 1525.00 1164.00" xmlns="http://www.w3.org/2000/svg" xmlns:xlink="http://www.w3.org/1999/xlink">
<g id="graph0" class="graph" transform="scale(2.08 2.08) rotate(0) translate(4 1160)">
<title>WebsiteNavigationSimple</title>
<polygon fill="#1a1a2e" stroke="transparent" points="-4,4 -4,-1160 1521,-1160 1521,4 -4,4"/>
<g id="clust1" class="cluster">
<title>cluster_legend</title>
<polygon fill="#2d3748" stroke="#e5e7eb" points="1199.74,-899.64 1199.74,-1155.64 1516.74,-1155.64 1516.74,-899.64 1199.74,-899.64"/>
<text text-anchor="middle" x="1358.24" y="-1143.64" font-family="Arial" font-size="10.00" fill="white">Navigation Types</text>
</g>
<!-- index -->
<g id="node1" class="node">
<title>index</title>
<path fill="#ffd700" stroke="black" stroke-width="2" d="M478.24,-229.64C478.24,-229.64 372.24,-229.64 372.24,-229.64 366.24,-229.64 360.24,-223.64 360.24,-217.64 360.24,-217.64 360.24,-191.64 360.24,-191.64 360.24,-185.64 366.24,-179.64 372.24,-179.64 372.24,-179.64 478.24,-179.64 478.24,-179.64 484.24,-179.64 490.24,-185.64 490.24,-191.64 490.24,-191.64 490.24,-217.64 490.24,-217.64 490.24,-223.64 484.24,-229.64 478.24,-229.64"/>
<text text-anchor="middle" x="425.24" y="-201.54" font-family="Arial" font-size="12.00">index.html</text>
</g>
<!-- brands -->
<g id="node2" class="node">
<title>brands</title>
<path fill="#e5e7eb" stroke="black" d="M773.58,-571.78C773.58,-571.78 667.58,-571.78 667.58,-571.78 661.58,-571.78 655.58,-565.78 655.58,-559.78 655.58,-559.78 655.58,-533.78 655.58,-533.78 655.58,-527.78 661.58,-521.78 667.58,-521.78 667.58,-521.78 773.58,-521.78 773.58,-521.78 779.58,-521.78 785.58,-527.78 785.58,-533.78 785.58,-533.78 785.58,-559.78 785.58,-559.78 785.58,-565.78 779.58,-571.78 773.58,-571.78"/>
<text text-anchor="middle" x="720.58" y="-543.98" font-family="Arial" font-size="11.00">brands.html</text>
</g>
<!-- consume -->
<g id="node3" class="node">
<title>consume</title>
<path fill="#8b5cf6" stroke="black" stroke-width="2" d="M914.87,-230.05C914.87,-230.05 808.87,-230.05 808.87,-230.05 802.87,-230.05 796.87,-224.05 796.87,-218.05 796.87,-218.05 796.87,-192.05 796.87,-192.05 796.87,-186.05 802.87,-180.05 808.87,-180.05 808.87,-180.05 914.87,-180.05 914.87,-180.05 920.87,-180.05 926.87,-186.05 926.87,-192.05 926.87,-192.05 926.87,-218.05 926.87,-218.05 926.87,-224.05 920.87,-230.05 914.87,-230.05"/>
<text text-anchor="middle" x="861.87" y="-202.25" font-family="Arial" font-size="11.00" fill="white">consume.html</text>
</g>
<!-- brands&#45;&gt;consume -->
<g id="edge1" class="edge">
<title>brands&#45;&gt;consume</title>
<path fill="none" stroke="#8b5cf6" d="M730.41,-521.67C730.41,-500.97 730.41,-475 730.41,-475 730.41,-475 855.2,-475 855.2,-475 855.2,-475 855.2,-240.45 855.2,-240.45"/>
<polygon fill="#8b5cf6" stroke="#8b5cf6" points="858.7,-240.45 855.2,-230.45 851.7,-240.45 858.7,-240.45"/>
</g>
<!-- interact -->
<g id="node4" class="node">
<title>interact</title>
<path fill="#06b6d4" stroke="black" stroke-width="2" d="M1086.12,-680.48C1086.12,-680.48 980.12,-680.48 980.12,-680.48 974.12,-680.48 968.12,-674.48 968.12,-668.48 968.12,-668.48 968.12,-642.48 968.12,-642.48 968.12,-636.48 974.12,-630.48 980.12,-630.48 980.12,-630.48 1086.12,-630.48 1086.12,-630.48 1092.12,-630.48 1098.12,-636.48 1098.12,-642.48 1098.12,-642.48 1098.12,-668.48 1098.12,-668.48 1098.12,-674.48 1092.12,-680.48 1086.12,-680.48"/>
<text text-anchor="middle" x="1033.12" y="-652.68" font-family="Arial" font-size="11.00" fill="white">interact.html</text>
</g>
<!-- brands&#45;&gt;interact -->
<g id="edge2" class="edge">
<title>brands&#45;&gt;interact</title>
<path fill="none" stroke="#06b6d4" d="M738.3,-571.79C738.3,-600.01 738.3,-642 738.3,-642 738.3,-642 958.06,-642 958.06,-642"/>
<polygon fill="#06b6d4" stroke="#06b6d4" points="958.06,-645.5 968.06,-642 958.06,-638.5 958.06,-645.5"/>
</g>
<!-- learn -->
<g id="node5" class="node">
<title>learn</title>
<path fill="#10b981" stroke="black" stroke-width="2" d="M717.67,-264.24C717.67,-264.24 611.67,-264.24 611.67,-264.24 605.67,-264.24 599.67,-258.24 599.67,-252.24 599.67,-252.24 599.67,-226.24 599.67,-226.24 599.67,-220.24 605.67,-214.24 611.67,-214.24 611.67,-214.24 717.67,-214.24 717.67,-214.24 723.67,-214.24 729.67,-220.24 729.67,-226.24 729.67,-226.24 729.67,-252.24 729.67,-252.24 729.67,-258.24 723.67,-264.24 717.67,-264.24"/>
<text text-anchor="middle" x="664.67" y="-236.44" font-family="Arial" font-size="11.00" fill="white">learn.html</text>
</g>
<!-- brands&#45;&gt;learn -->
<g id="edge3" class="edge">
<title>brands&#45;&gt;learn</title>
<path fill="none" stroke="#10b981" d="M665.41,-521.61C665.41,-521.61 665.41,-274.32 665.41,-274.32"/>
<polygon fill="#10b981" stroke="#10b981" points="668.91,-274.32 665.41,-264.32 661.91,-274.32 668.91,-274.32"/>
</g>
<!-- dobusiness -->
<g id="node6" class="node">
<title>dobusiness</title>
<path fill="#f59e0b" stroke="black" stroke-width="2" d="M304.7,-758.23C304.7,-758.23 198.7,-758.23 198.7,-758.23 192.7,-758.23 186.7,-752.23 186.7,-746.23 186.7,-746.23 186.7,-720.23 186.7,-720.23 186.7,-714.23 192.7,-708.23 198.7,-708.23 198.7,-708.23 304.7,-708.23 304.7,-708.23 310.7,-708.23 316.7,-714.23 316.7,-720.23 316.7,-720.23 316.7,-746.23 316.7,-746.23 316.7,-752.23 310.7,-758.23 304.7,-758.23"/>
<text text-anchor="middle" x="251.7" y="-730.43" font-family="Arial" font-size="11.00" fill="white">do&#45;business.html</text>
</g>
<!-- brands&#45;&gt;dobusiness -->
<g id="edge4" class="edge">
<title>brands&#45;&gt;dobusiness</title>
<path fill="none" stroke="#f59e0b" d="M655.37,-553C537.32,-553 300.29,-553 300.29,-553 300.29,-553 300.29,-698.17 300.29,-698.17"/>
<polygon fill="#f59e0b" stroke="#f59e0b" points="296.79,-698.17 300.29,-708.17 303.79,-698.17 296.79,-698.17"/>
</g>
<!-- connect -->
<g id="node7" class="node">
<title>connect</title>
<path fill="#6b7280" stroke="black" d="M1067.37,-531.11C1067.37,-531.11 961.37,-531.11 961.37,-531.11 955.37,-531.11 949.37,-525.11 949.37,-519.11 949.37,-519.11 949.37,-493.11 949.37,-493.11 949.37,-487.11 955.37,-481.11 961.37,-481.11 961.37,-481.11 1067.37,-481.11 1067.37,-481.11 1073.37,-481.11 1079.37,-487.11 1079.37,-493.11 1079.37,-493.11 1079.37,-519.11 1079.37,-519.11 1079.37,-525.11 1073.37,-531.11 1067.37,-531.11"/>
<text text-anchor="middle" x="1014.37" y="-503.61" font-family="Arial" font-size="10.00" fill="white">connect.html</text>
</g>
<!-- brands&#45;&gt;connect -->
<g id="edge5" class="edge">
<title>brands&#45;&gt;connect</title>
<path fill="none" stroke="#6b7280" d="M758,-521.4C758,-512.19 758,-504 758,-504 758,-504 939.34,-504 939.34,-504"/>
<polygon fill="#6b7280" stroke="#6b7280" points="939.34,-507.5 949.34,-504 939.34,-500.5 939.34,-507.5"/>
</g>
<!-- amusements -->
<g id="node11" class="node">
<title>amusements</title>
<path fill="#a78bfa" stroke="black" d="M793.24,-447.37C793.24,-447.37 687.24,-447.37 687.24,-447.37 681.24,-447.37 675.24,-441.37 675.24,-435.37 675.24,-435.37 675.24,-409.37 675.24,-409.37 675.24,-403.37 681.24,-397.37 687.24,-397.37 687.24,-397.37 793.24,-397.37 793.24,-397.37 799.24,-397.37 805.24,-403.37 805.24,-409.37 805.24,-409.37 805.24,-435.37 805.24,-435.37 805.24,-441.37 799.24,-447.37 793.24,-447.37"/>
<text text-anchor="middle" x="740.24" y="-419.87" font-family="Arial" font-size="10.00" fill="white">amusements.html</text>
</g>
<!-- brands&#45;&gt;amusements -->
<g id="edge8" class="edge">
<title>brands&#45;&gt;amusements</title>
<path fill="none" stroke="#a78bfa" d="M702.82,-521.6C702.82,-521.6 702.82,-457.51 702.82,-457.51"/>
<polygon fill="#a78bfa" stroke="#a78bfa" points="706.32,-457.51 702.82,-447.51 699.32,-457.51 706.32,-457.51"/>
</g>
<!-- asabaal -->
<g id="node24" class="node">
<title>asabaal</title>
<path fill="#f472b6" stroke="black" d="M616.96,-891.31C616.96,-891.31 510.96,-891.31 510.96,-891.31 504.96,-891.31 498.96,-885.31 498.96,-879.31 498.96,-879.31 498.96,-853.31 498.96,-853.31 498.96,-847.31 504.96,-841.31 510.96,-841.31 510.96,-841.31 616.96,-841.31 616.96,-841.31 622.96,-841.31 628.96,-847.31 628.96,-853.31 628.96,-853.31 628.96,-879.31 628.96,-879.31 628.96,-885.31 622.96,-891.31 616.96,-891.31"/>
<text text-anchor="middle" x="563.96" y="-863.81" font-family="Arial" font-size="10.00" fill="white">asabaal.html</text>
</g>
<!-- brands&#45;&gt;asabaal -->
<g id="edge6" class="edge">
<title>brands&#45;&gt;asabaal</title>
<path fill="none" stroke="#f472b6" d="M655.35,-562C635.98,-562 619.83,-562 619.83,-562 619.83,-562 619.83,-831.15 619.83,-831.15"/>
<polygon fill="#f472b6" stroke="#f472b6" points="616.33,-831.15 619.83,-841.15 623.33,-831.15 616.33,-831.15"/>
</g>
<!-- advancements -->
<g id="node25" class="node">
<title>advancements</title>
<path fill="#f472b6" stroke="black" d="M767.66,-789.37C767.66,-789.37 639.66,-789.37 639.66,-789.37 633.66,-789.37 627.66,-783.37 627.66,-777.37 627.66,-777.37 627.66,-751.37 627.66,-751.37 627.66,-745.37 633.66,-739.37 639.66,-739.37 639.66,-739.37 767.66,-739.37 767.66,-739.37 773.66,-739.37 779.66,-745.37 779.66,-751.37 779.66,-751.37 779.66,-777.37 779.66,-777.37 779.66,-783.37 773.66,-789.37 767.66,-789.37"/>
<text text-anchor="middle" x="703.66" y="-761.87" font-family="Arial" font-size="10.00" fill="white">advancements&#45;by&#45;asabaal.html</text>
</g>
<!-- brands&#45;&gt;advancements -->
<g id="edge7" class="edge">
<title>brands&#45;&gt;advancements</title>
<path fill="none" stroke="#f472b6" d="M696.94,-572.16C696.94,-572.16 696.94,-729.15 696.94,-729.15"/>
<polygon fill="#f472b6" stroke="#f472b6" points="693.44,-729.15 696.94,-739.15 700.44,-729.15 693.44,-729.15"/>
</g>
<!-- consume&#45;&gt;amusements -->
<g id="edge9" class="edge">
<title>consume&#45;&gt;amusements</title>
<path fill="none" stroke="#a78bfa" stroke-width="2" d="M801.05,-230.4C801.05,-230.4 801.05,-387.18 801.05,-387.18"/>
<polygon fill="#a78bfa" stroke="#a78bfa" stroke-width="2" points="797.55,-387.18 801.05,-397.18 804.55,-387.18 797.55,-387.18"/>
</g>
<!-- bloglisting -->
<g id="node12" class="node">
<title>bloglisting</title>
<path fill="#a78bfa" stroke="black" d="M848.74,-49.85C848.74,-49.85 742.74,-49.85 742.74,-49.85 736.74,-49.85 730.74,-43.85 730.74,-37.85 730.74,-37.85 730.74,-11.85 730.74,-11.85 730.74,-5.85 736.74,0.15 742.74,0.15 742.74,0.15 848.74,0.15 848.74,0.15 854.74,0.15 860.74,-5.85 860.74,-11.85 860.74,-11.85 860.74,-37.85 860.74,-37.85 860.74,-43.85 854.74,-49.85 848.74,-49.85"/>
<text text-anchor="middle" x="795.74" y="-22.35" font-family="Arial" font-size="10.00" fill="white">blog&#45;listing.html</text>
</g>
<!-- consume&#45;&gt;bloglisting -->
<g id="edge10" class="edge">
<title>consume&#45;&gt;bloglisting</title>
<path fill="none" stroke="#a78bfa" d="M828.81,-179.99C828.81,-179.99 828.81,-59.98 828.81,-59.98"/>
<polygon fill="#a78bfa" stroke="#a78bfa" points="832.31,-59.98 828.81,-49.98 825.31,-59.98 832.31,-59.98"/>
</g>
<!-- blogsselection -->
<g id="node13" class="node">
<title>blogsselection</title>
<path fill="#a78bfa" stroke="black" d="M1107.85,-102.54C1107.85,-102.54 1001.85,-102.54 1001.85,-102.54 995.85,-102.54 989.85,-96.54 989.85,-90.54 989.85,-90.54 989.85,-64.54 989.85,-64.54 989.85,-58.54 995.85,-52.54 1001.85,-52.54 1001.85,-52.54 1107.85,-52.54 1107.85,-52.54 1113.85,-52.54 1119.85,-58.54 1119.85,-64.54 1119.85,-64.54 1119.85,-90.54 1119.85,-90.54 1119.85,-96.54 1113.85,-102.54 1107.85,-102.54"/>
<text text-anchor="middle" x="1054.85" y="-75.04" font-family="Arial" font-size="10.00" fill="white">blogs&#45;selection.html</text>
</g>
<!-- consume&#45;&gt;blogsselection -->
<g id="edge11" class="edge">
<title>consume&#45;&gt;blogsselection</title>
<path fill="none" stroke="#a78bfa" d="M893.81,-180.04C893.81,-143.55 893.81,-80 893.81,-80 893.81,-80 979.81,-80 979.81,-80"/>
<polygon fill="#a78bfa" stroke="#a78bfa" points="979.81,-83.5 989.81,-80 979.81,-76.5 979.81,-83.5"/>
</g>
<!-- dispatch -->
<g id="node16" class="node">
<title>dispatch</title>
<path fill="#67e8f9" stroke="black" d="M1252.4,-392.95C1252.4,-392.95 1123.4,-392.95 1123.4,-392.95 1117.4,-392.95 1111.4,-386.95 1111.4,-380.95 1111.4,-380.95 1111.4,-354.95 1111.4,-354.95 1111.4,-348.95 1117.4,-342.95 1123.4,-342.95 1123.4,-342.95 1252.4,-342.95 1252.4,-342.95 1258.4,-342.95 1264.4,-348.95 1264.4,-354.95 1264.4,-354.95 1264.4,-380.95 1264.4,-380.95 1264.4,-386.95 1258.4,-392.95 1252.4,-392.95"/>
<text text-anchor="middle" x="1187.9" y="-365.45" font-family="Arial" font-size="10.00" fill="white">dispatch&#45;revenue&#45;reporting.html</text>
</g>
<!-- interact&#45;&gt;dispatch -->
<g id="edge15" class="edge">
<title>interact&#45;&gt;dispatch</title>
<path fill="none" stroke="#67e8f9" d="M1088.74,-630.18C1088.74,-561.39 1088.74,-376 1088.74,-376 1088.74,-376 1101.24,-376 1101.24,-376"/>
<polygon fill="#67e8f9" stroke="#67e8f9" points="1101.24,-379.5 1111.24,-376 1101.24,-372.5 1101.24,-379.5"/>
</g>
<!-- tictactoe -->
<g id="node17" class="node">
<title>tictactoe</title>
<path fill="#67e8f9" stroke="black" d="M1314.03,-832.55C1314.03,-832.55 1208.03,-832.55 1208.03,-832.55 1202.03,-832.55 1196.03,-826.55 1196.03,-820.55 1196.03,-820.55 1196.03,-794.55 1196.03,-794.55 1196.03,-788.55 1202.03,-782.55 1208.03,-782.55 1208.03,-782.55 1314.03,-782.55 1314.03,-782.55 1320.03,-782.55 1326.03,-788.55 1326.03,-794.55 1326.03,-794.55 1326.03,-820.55 1326.03,-820.55 1326.03,-826.55 1320.03,-832.55 1314.03,-832.55"/>
<text text-anchor="middle" x="1261.03" y="-805.05" font-family="Arial" font-size="10.00" fill="white">tic&#45;tac&#45;toe.html</text>
</g>
<!-- interact&#45;&gt;tictactoe -->
<g id="edge16" class="edge">
<title>interact&#45;&gt;tictactoe</title>
<path fill="none" stroke="#67e8f9" d="M1093.18,-680.5C1093.18,-723.07 1093.18,-805 1093.18,-805 1093.18,-805 1185.65,-805 1185.65,-805"/>
<polygon fill="#67e8f9" stroke="#67e8f9" points="1185.65,-808.5 1195.65,-805 1185.65,-801.5 1185.65,-808.5"/>
</g>
<!-- unityremix -->
<g id="node18" class="node">
<title>unityremix</title>
<path fill="#67e8f9" stroke="black" d="M1076.24,-959.14C1076.24,-959.14 970.24,-959.14 970.24,-959.14 964.24,-959.14 958.24,-953.14 958.24,-947.14 958.24,-947.14 958.24,-921.14 958.24,-921.14 958.24,-915.14 964.24,-909.14 970.24,-909.14 970.24,-909.14 1076.24,-909.14 1076.24,-909.14 1082.24,-909.14 1088.24,-915.14 1088.24,-921.14 1088.24,-921.14 1088.24,-947.14 1088.24,-947.14 1088.24,-953.14 1082.24,-959.14 1076.24,-959.14"/>
<text text-anchor="middle" x="1023.24" y="-931.64" font-family="Arial" font-size="10.00" fill="white">unity&#45;remix&#45;contest.html</text>
</g>
<!-- interact&#45;&gt;unityremix -->
<g id="edge17" class="edge">
<title>interact&#45;&gt;unityremix</title>
<path fill="none" stroke="#67e8f9" stroke-width="2" d="M1028.18,-680.7C1028.18,-680.7 1028.18,-898.77 1028.18,-898.77"/>
<polygon fill="#67e8f9" stroke="#67e8f9" stroke-width="2" points="1024.68,-898.77 1028.18,-908.77 1031.68,-898.77 1024.68,-898.77"/>
</g>
<!-- aboutfounder -->
<g id="node19" class="node">
<title>aboutfounder</title>
<path fill="#34d399" stroke="black" d="M1060.48,-291.15C1060.48,-291.15 954.48,-291.15 954.48,-291.15 948.48,-291.15 942.48,-285.15 942.48,-279.15 942.48,-279.15 942.48,-253.15 942.48,-253.15 942.48,-247.15 948.48,-241.15 954.48,-241.15 954.48,-241.15 1060.48,-241.15 1060.48,-241.15 1066.48,-241.15 1072.48,-247.15 1072.48,-253.15 1072.48,-253.15 1072.48,-279.15 1072.48,-279.15 1072.48,-285.15 1066.48,-291.15 1060.48,-291.15"/>
<text text-anchor="middle" x="1007.48" y="-263.65" font-family="Arial" font-size="10.00" fill="white">about&#45;founder.html</text>
</g>
<!-- learn&#45;&gt;aboutfounder -->
<g id="edge18" class="edge">
<title>learn&#45;&gt;aboutfounder</title>
<path fill="none" stroke="#34d399" d="M729.95,-252C729.95,-252 932.43,-252 932.43,-252"/>
<polygon fill="#34d399" stroke="#34d399" points="932.43,-255.5 942.43,-252 932.43,-248.5 932.43,-255.5"/>
</g>
<!-- whatwedo -->
<g id="node20" class="node">
<title>whatwedo</title>
<path fill="#34d399" stroke="black" d="M625.73,-108.44C625.73,-108.44 519.73,-108.44 519.73,-108.44 513.73,-108.44 507.73,-102.44 507.73,-96.44 507.73,-96.44 507.73,-70.44 507.73,-70.44 507.73,-64.44 513.73,-58.44 519.73,-58.44 519.73,-58.44 625.73,-58.44 625.73,-58.44 631.73,-58.44 637.73,-64.44 637.73,-70.44 637.73,-70.44 637.73,-96.44 637.73,-96.44 637.73,-102.44 631.73,-108.44 625.73,-108.44"/>
<text text-anchor="middle" x="572.73" y="-80.94" font-family="Arial" font-size="10.00" fill="white">what&#45;we&#45;do.html</text>
</g>
<!-- learn&#45;&gt;whatwedo -->
<g id="edge19" class="edge">
<title>learn&#45;&gt;whatwedo</title>
<path fill="none" stroke="#34d399" d="M618.7,-214.21C618.7,-214.21 618.7,-118.67 618.7,-118.67"/>
<polygon fill="#34d399" stroke="#34d399" points="622.2,-118.67 618.7,-108.67 615.2,-118.67 622.2,-118.67"/>
</g>
<!-- products -->
<g id="node21" class="node">
<title>products</title>
<path fill="#fbbf24" stroke="black" d="M225.58,-965.65C225.58,-965.65 119.58,-965.65 119.58,-965.65 113.58,-965.65 107.58,-959.65 107.58,-953.65 107.58,-953.65 107.58,-927.65 107.58,-927.65 107.58,-921.65 113.58,-915.65 119.58,-915.65 119.58,-915.65 225.58,-915.65 225.58,-915.65 231.58,-915.65 237.58,-921.65 237.58,-927.65 237.58,-927.65 237.58,-953.65 237.58,-953.65 237.58,-959.65 231.58,-965.65 225.58,-965.65"/>
<text text-anchor="middle" x="172.58" y="-938.15" font-family="Arial" font-size="10.00">products.html</text>
</g>
<!-- dobusiness&#45;&gt;products -->
<g id="edge20" class="edge">
<title>dobusiness&#45;&gt;products</title>
<path fill="none" stroke="#fbbf24" d="M220.62,-758.25C220.62,-758.25 220.62,-905.54 220.62,-905.54"/>
<polygon fill="#fbbf24" stroke="#fbbf24" points="217.12,-905.54 220.62,-915.54 224.12,-905.54 217.12,-905.54"/>
</g>
<!-- services -->
<g id="node22" class="node">
<title>services</title>
<path fill="#fbbf24" stroke="black" d="M154.09,-627.11C154.09,-627.11 48.09,-627.11 48.09,-627.11 42.09,-627.11 36.09,-621.11 36.09,-615.11 36.09,-615.11 36.09,-589.11 36.09,-589.11 36.09,-583.11 42.09,-577.11 48.09,-577.11 48.09,-577.11 154.09,-577.11 154.09,-577.11 160.09,-577.11 166.09,-583.11 166.09,-589.11 166.09,-589.11 166.09,-615.11 166.09,-615.11 166.09,-621.11 160.09,-627.11 154.09,-627.11"/>
<text text-anchor="middle" x="101.09" y="-599.61" font-family="Arial" font-size="10.00">services.html</text>
</g>
<!-- dobusiness&#45;&gt;services -->
<g id="edge21" class="edge">
<title>dobusiness&#45;&gt;services</title>
<path fill="none" stroke="#fbbf24" d="M186.49,-733C165.84,-733 148.27,-733 148.27,-733 148.27,-733 148.27,-637.35 148.27,-637.35"/>
<polygon fill="#fbbf24" stroke="#fbbf24" points="151.77,-637.35 148.27,-627.35 144.77,-637.35 151.77,-637.35"/>
</g>
<!-- partner -->
<g id="node23" class="node">
<title>partner</title>
<path fill="#fbbf24" stroke="black" d="M118.46,-811.96C118.46,-811.96 12.46,-811.96 12.46,-811.96 6.46,-811.96 0.46,-805.96 0.46,-799.96 0.46,-799.96 0.46,-773.96 0.46,-773.96 0.46,-767.96 6.46,-761.96 12.46,-761.96 12.46,-761.96 118.46,-761.96 118.46,-761.96 124.46,-761.96 130.46,-767.96 130.46,-773.96 130.46,-773.96 130.46,-799.96 130.46,-799.96 130.46,-805.96 124.46,-811.96 118.46,-811.96"/>
<text text-anchor="middle" x="65.46" y="-784.46" font-family="Arial" font-size="10.00">partner.html</text>
</g>
<!-- dobusiness&#45;&gt;partner -->
<g id="edge22" class="edge">
<title>dobusiness&#45;&gt;partner</title>
<path fill="none" stroke="#fbbf24" d="M203.66,-758.49C203.66,-767.29 203.66,-775 203.66,-775 203.66,-775 140.51,-775 140.51,-775"/>
<polygon fill="#fbbf24" stroke="#fbbf24" points="140.51,-771.5 130.51,-775 140.51,-778.5 140.51,-771.5"/>
</g>
<!-- extern_email -->
<g id="node33" class="node">
<title>extern_email</title>
<ellipse fill="#d1d5db" stroke="black" cx="1325.96" cy="-562.29" rx="65" ry="25"/>
<text text-anchor="middle" x="1325.96" y="-559.79" font-family="Arial" font-size="10.00">Email Contact</text>
</g>
<!-- connect&#45;&gt;extern_email -->
<g id="edge31" class="edge">
<title>connect&#45;&gt;extern_email</title>
<path fill="none" stroke="#9ca3af" stroke-dasharray="5,2" d="M1023.74,-531.2C1023.74,-542.35 1023.74,-553 1023.74,-553 1023.74,-553 1255.53,-553 1255.53,-553"/>
<polygon fill="#9ca3af" stroke="#9ca3af" points="1255.53,-556.5 1265.53,-553 1255.53,-549.5 1255.53,-556.5"/>
</g>
<!-- links -->
<g id="node8" class="node">
<title>links</title>
<path fill="#6b7280" stroke="black" d="M401.88,-544.11C401.88,-544.11 295.88,-544.11 295.88,-544.11 289.88,-544.11 283.88,-538.11 283.88,-532.11 283.88,-532.11 283.88,-506.11 283.88,-506.11 283.88,-500.11 289.88,-494.11 295.88,-494.11 295.88,-494.11 401.88,-494.11 401.88,-494.11 407.88,-494.11 413.88,-500.11 413.88,-506.11 413.88,-506.11 413.88,-532.11 413.88,-532.11 413.88,-538.11 407.88,-544.11 401.88,-544.11"/>
<text text-anchor="middle" x="348.88" y="-516.61" font-family="Arial" font-size="10.00" fill="white">links.html</text>
</g>
<!-- extern_social -->
<g id="node31" class="node">
<title>extern_social</title>
<ellipse fill="#d1d5db" stroke="black" cx="206.05" cy="-320.51" rx="65" ry="25"/>
<text text-anchor="middle" x="206.05" y="-318.01" font-family="Arial" font-size="10.00">Social Platforms</text>
</g>
<!-- links&#45;&gt;extern_social -->
<g id="edge29" class="edge">
<title>links&#45;&gt;extern_social</title>
<path fill="none" stroke="#9ca3af" stroke-width="2" stroke-dasharray="5,2" d="M322.06,-493.74C322.06,-440.51 322.06,-322 322.06,-322 322.06,-322 281.18,-322 281.18,-322"/>
<polygon fill="#9ca3af" stroke="#9ca3af" stroke-width="2" points="281.18,-318.5 271.18,-322 281.18,-325.5 281.18,-318.5"/>
</g>
<!-- extern_music -->
<g id="node32" class="node">
<title>extern_music</title>
<ellipse fill="#d1d5db" stroke="black" cx="425.55" cy="-678.99" rx="65" ry="25"/>
<text text-anchor="middle" x="425.55" y="-676.49" font-family="Arial" font-size="10.00">Music Platforms</text>
</g>
<!-- links&#45;&gt;extern_music -->
<g id="edge30" class="edge">
<title>links&#45;&gt;extern_music</title>
<path fill="none" stroke="#9ca3af" stroke-width="2" stroke-dasharray="5,2" d="M387.21,-544.44C387.21,-544.44 387.21,-648.35 387.21,-648.35"/>
<polygon fill="#9ca3af" stroke="#9ca3af" stroke-width="2" points="383.71,-648.35 387.21,-658.35 390.71,-648.35 383.71,-648.35"/>
</g>
<!-- privacy -->
<g id="node9" class="node">
<title>privacy</title>
<path fill="#6b7280" stroke="black" d="M538.24,-469.64C538.24,-469.64 432.24,-469.64 432.24,-469.64 426.24,-469.64 420.24,-463.64 420.24,-457.64 420.24,-457.64 420.24,-431.64 420.24,-431.64 420.24,-425.64 426.24,-419.64 432.24,-419.64 432.24,-419.64 538.24,-419.64 538.24,-419.64 544.24,-419.64 550.24,-425.64 550.24,-431.64 550.24,-431.64 550.24,-457.64 550.24,-457.64 550.24,-463.64 544.24,-469.64 538.24,-469.64"/>
<text text-anchor="middle" x="485.24" y="-442.14" font-family="Arial" font-size="10.00" fill="white">privacy.html</text>
</g>
<!-- terms -->
<g id="node10" class="node">
<title>terms</title>
<path fill="#6b7280" stroke="black" d="M1018.24,-409.64C1018.24,-409.64 912.24,-409.64 912.24,-409.64 906.24,-409.64 900.24,-403.64 900.24,-397.64 900.24,-397.64 900.24,-371.64 900.24,-371.64 900.24,-365.64 906.24,-359.64 912.24,-359.64 912.24,-359.64 1018.24,-359.64 1018.24,-359.64 1024.24,-359.64 1030.24,-365.64 1030.24,-371.64 1030.24,-371.64 1030.24,-397.64 1030.24,-397.64 1030.24,-403.64 1024.24,-409.64 1018.24,-409.64"/>
<text text-anchor="middle" x="965.24" y="-382.14" font-family="Arial" font-size="10.00" fill="white">terms.html</text>
</g>
<!-- shows -->
<g id="node14" class="node">
<title>shows</title>
<path fill="#c4b5fd" stroke="black" d="M928.17,-570.03C928.17,-570.03 822.17,-570.03 822.17,-570.03 816.17,-570.03 810.17,-564.03 810.17,-558.03 810.17,-558.03 810.17,-532.03 810.17,-532.03 810.17,-526.03 816.17,-520.03 822.17,-520.03 822.17,-520.03 928.17,-520.03 928.17,-520.03 934.17,-520.03 940.17,-526.03 940.17,-532.03 940.17,-532.03 940.17,-558.03 940.17,-558.03 940.17,-564.03 934.17,-570.03 928.17,-570.03"/>
<text text-anchor="middle" x="875.17" y="-542.53" font-family="Arial" font-size="10.00" fill="white">shows.html</text>
</g>
<!-- amusements&#45;&gt;shows -->
<g id="edge12" class="edge">
<title>amusements&#45;&gt;shows</title>
<path fill="none" stroke="#c4b5fd" d="M796.45,-447.48C796.45,-483.36 796.45,-545 796.45,-545 796.45,-545 800.16,-545 800.16,-545"/>
<polygon fill="#c4b5fd" stroke="#c4b5fd" points="800.16,-548.5 810.16,-545 800.16,-541.5 800.16,-548.5"/>
</g>
<!-- games -->
<g id="node15" class="node">
<title>games</title>
<path fill="#c4b5fd" stroke="black" d="M587.57,-350.24C587.57,-350.24 481.57,-350.24 481.57,-350.24 475.57,-350.24 469.57,-344.24 469.57,-338.24 469.57,-338.24 469.57,-312.24 469.57,-312.24 469.57,-306.24 475.57,-300.24 481.57,-300.24 481.57,-300.24 587.57,-300.24 587.57,-300.24 593.57,-300.24 599.57,-306.24 599.57,-312.24 599.57,-312.24 599.57,-338.24 599.57,-338.24 599.57,-344.24 593.57,-350.24 587.57,-350.24"/>
<text text-anchor="middle" x="534.57" y="-322.74" font-family="Arial" font-size="10.00" fill="white">games.html</text>
</g>
<!-- amusements&#45;&gt;games -->
<g id="edge13" class="edge">
<title>amusements&#45;&gt;games</title>
<path fill="none" stroke="#c4b5fd" d="M702.45,-397.36C702.45,-375.09 702.45,-346 702.45,-346 702.45,-346 609.96,-346 609.96,-346"/>
<polygon fill="#c4b5fd" stroke="#c4b5fd" points="609.96,-342.5 599.96,-346 609.96,-349.5 609.96,-342.5"/>
</g>
<!-- vision2054 -->
<g id="node28" class="node">
<title>vision2054</title>
<path fill="#c084fc" stroke="black" d="M905.66,-828.18C905.66,-828.18 799.66,-828.18 799.66,-828.18 793.66,-828.18 787.66,-822.18 787.66,-816.18 787.66,-816.18 787.66,-790.18 787.66,-790.18 787.66,-784.18 793.66,-778.18 799.66,-778.18 799.66,-778.18 905.66,-778.18 905.66,-778.18 911.66,-778.18 917.66,-784.18 917.66,-790.18 917.66,-790.18 917.66,-816.18 917.66,-816.18 917.66,-822.18 911.66,-828.18 905.66,-828.18"/>
<text text-anchor="middle" x="852.66" y="-800.68" font-family="Arial" font-size="10.00" fill="white">vision_2054_page.html</text>
</g>
<!-- shows&#45;&gt;vision2054 -->
<g id="edge14" class="edge">
<title>shows&#45;&gt;vision2054</title>
<path fill="none" stroke="#c084fc" d="M863.92,-570.25C863.92,-570.25 863.92,-767.85 863.92,-767.85"/>
<polygon fill="#c084fc" stroke="#c084fc" points="860.42,-767.85 863.92,-777.85 867.42,-767.85 860.42,-767.85"/>
</g>
<!-- blog -->
<g id="node30" class="node">
<title>blog</title>
<path fill="#e879f9" stroke="black" d="M886.3,-953.7C886.3,-953.7 780.3,-953.7 780.3,-953.7 774.3,-953.7 768.3,-947.7 768.3,-941.7 768.3,-941.7 768.3,-915.7 768.3,-915.7 768.3,-909.7 774.3,-903.7 780.3,-903.7 780.3,-903.7 886.3,-903.7 886.3,-903.7 892.3,-903.7 898.3,-909.7 898.3,-915.7 898.3,-915.7 898.3,-941.7 898.3,-941.7 898.3,-947.7 892.3,-953.7 886.3,-953.7"/>
<text text-anchor="middle" x="833.3" y="-926.2" font-family="Arial" font-size="10.00" fill="white">blog.html</text>
</g>
<!-- unityremix&#45;&gt;blog -->
<g id="edge33" class="edge">
<title>unityremix&#45;&gt;blog</title>
<path fill="none" stroke="#e879f9" d="M958.14,-931C958.14,-931 908.31,-931 908.31,-931"/>
<polygon fill="#e879f9" stroke="#e879f9" points="908.31,-927.5 898.31,-931 908.31,-934.5 908.31,-927.5"/>
</g>
<!-- asabaalprojects -->
<g id="node26" class="node">
<title>asabaalprojects</title>
<path fill="#fbcfe8" stroke="black" d="M635.23,-1077.6C635.23,-1077.6 529.23,-1077.6 529.23,-1077.6 523.23,-1077.6 517.23,-1071.6 517.23,-1065.6 517.23,-1065.6 517.23,-1039.6 517.23,-1039.6 517.23,-1033.6 523.23,-1027.6 529.23,-1027.6 529.23,-1027.6 635.23,-1027.6 635.23,-1027.6 641.23,-1027.6 647.23,-1033.6 647.23,-1039.6 647.23,-1039.6 647.23,-1065.6 647.23,-1065.6 647.23,-1071.6 641.23,-1077.6 635.23,-1077.6"/>
<text text-anchor="middle" x="582.23" y="-1050.1" font-family="Arial" font-size="10.00">asabaal&#45;projects.html</text>
</g>
<!-- asabaal&#45;&gt;asabaalprojects -->
<g id="edge23" class="edge">
<title>asabaal&#45;&gt;asabaalprojects</title>
<path fill="none" stroke="#fbcfe8" d="M573.09,-891.44C573.09,-891.44 573.09,-1017.58 573.09,-1017.58"/>
<polygon fill="#fbcfe8" stroke="#fbcfe8" points="569.59,-1017.58 573.09,-1027.58 576.59,-1017.58 569.59,-1017.58"/>
</g>
<!-- playlists -->
<g id="node27" class="node">
<title>playlists</title>
<path fill="#fbcfe8" stroke="black" d="M459.57,-994.17C459.57,-994.17 353.57,-994.17 353.57,-994.17 347.57,-994.17 341.57,-988.17 341.57,-982.17 341.57,-982.17 341.57,-956.17 341.57,-956.17 341.57,-950.17 347.57,-944.17 353.57,-944.17 353.57,-944.17 459.57,-944.17 459.57,-944.17 465.57,-944.17 471.57,-950.17 471.57,-956.17 471.57,-956.17 471.57,-982.17 471.57,-982.17 471.57,-988.17 465.57,-994.17 459.57,-994.17"/>
<text text-anchor="middle" x="406.57" y="-966.67" font-family="Arial" font-size="10.00">playlists.html</text>
</g>
<!-- asabaal&#45;&gt;playlists -->
<g id="edge24" class="edge">
<title>asabaal&#45;&gt;playlists</title>
<path fill="none" stroke="#fbcfe8" d="M508.09,-891.71C508.09,-915.69 508.09,-948 508.09,-948 508.09,-948 481.73,-948 481.73,-948"/>
<polygon fill="#fbcfe8" stroke="#fbcfe8" points="481.73,-944.5 471.73,-948 481.73,-951.5 481.73,-944.5"/>
</g>
<!-- asabaal&#45;&gt;extern_music -->
<g id="edge25" class="edge">
<title>asabaal&#45;&gt;extern_music</title>
<path fill="none" stroke="#9ca3af" stroke-dasharray="5,2" d="M498.64,-866C488.36,-866 481.06,-866 481.06,-866 481.06,-866 481.06,-702.14 481.06,-702.14"/>
<polygon fill="#9ca3af" stroke="#9ca3af" points="484.56,-702.14 481.06,-692.14 477.56,-702.14 484.56,-702.14"/>
</g>
<!-- advancements&#45;&gt;vision2054 -->
<g id="edge26" class="edge">
<title>advancements&#45;&gt;vision2054</title>
<path fill="none" stroke="#c084fc" d="M779.91,-783C779.91,-783 780.68,-783 780.68,-783"/>
<polygon fill="#c084fc" stroke="#c084fc" points="777.62,-786.5 787.62,-783 777.62,-779.5 777.62,-786.5"/>
</g>
<!-- opensource -->
<g id="node29" class="node">
<title>opensource</title>
<path fill="#c084fc" stroke="black" d="M600,-539.06C600,-539.06 494,-539.06 494,-539.06 488,-539.06 482,-533.06 482,-527.06 482,-527.06 482,-501.06 482,-501.06 482,-495.06 488,-489.06 494,-489.06 494,-489.06 600,-489.06 600,-489.06 606,-489.06 612,-495.06 612,-501.06 612,-501.06 612,-527.06 612,-527.06 612,-533.06 606,-539.06 600,-539.06"/>
<text text-anchor="middle" x="547" y="-511.56" font-family="Arial" font-size="10.00" fill="white">open&#45;source&#45;model.html</text>
</g>
<!-- advancements&#45;&gt;opensource -->
<g id="edge28" class="edge">
<title>advancements&#45;&gt;opensource</title>
<path fill="none" stroke="#c084fc" d="M641.62,-739.29C641.62,-678.83 641.62,-530 641.62,-530 641.62,-530 622.2,-530 622.2,-530"/>
<polygon fill="#c084fc" stroke="#c084fc" points="622.2,-526.5 612.2,-530 622.2,-533.5 622.2,-526.5"/>
</g>
<!-- advancements&#45;&gt;blog -->
<g id="edge27" class="edge">
<title>advancements&#45;&gt;blog</title>
<path fill="none" stroke="#e879f9" d="M773.98,-789.69C773.98,-789.69 773.98,-893.62 773.98,-893.62"/>
<polygon fill="#e879f9" stroke="#e879f9" points="770.48,-893.62 773.98,-903.62 777.48,-893.62 770.48,-893.62"/>
</g>
<!-- vision2054&#45;&gt;blog -->
<g id="edge32" class="edge">
<title>vision2054&#45;&gt;blog</title>
<path fill="none" stroke="#e879f9" d="M842.98,-828.28C842.98,-828.28 842.98,-893.64 842.98,-893.64"/>
<polygon fill="#e879f9" stroke="#e879f9" points="839.48,-893.64 842.98,-903.64 846.48,-893.64 839.48,-893.64"/>
</g>
<!-- legend_title -->
<g id="node34" class="node">
<title>legend_title</title>
<path fill="transparent" stroke="transparent" d="M1352.98,-1002.28C1352.98,-1002.28 1246.98,-1002.28 1246.98,-1002.28 1240.98,-1002.28 1234.98,-996.28 1234.98,-990.28 1234.98,-990.28 1234.98,-964.28 1234.98,-964.28 1234.98,-958.28 1240.98,-952.28 1246.98,-952.28 1246.98,-952.28 1352.98,-952.28 1352.98,-952.28 1358.98,-952.28 1364.98,-958.28 1364.98,-964.28 1364.98,-964.28 1364.98,-990.28 1364.98,-990.28 1364.98,-996.28 1358.98,-1002.28 1352.98,-1002.28"/>
<text text-anchor="middle" x="1299.98" y="-974.78" font-family="Arial" font-size="10.00" fill="white">Key:</text>
</g>
<!-- legend_primary -->
<g id="node35" class="node">
<title>legend_primary</title>
<path fill="transparent" stroke="transparent" d="M1469.98,-1074.28C1469.98,-1074.28 1363.98,-1074.28 1363.98,-1074.28 1357.98,-1074.28 1351.98,-1068.28 1351.98,-1062.28 1351.98,-1062.28 1351.98,-1036.28 1351.98,-1036.28 1351.98,-1030.28 1357.98,-1024.28 1363.98,-1024.28 1363.98,-1024.28 1469.98,-1024.28 1469.98,-1024.28 1475.98,-1024.28 1481.98,-1030.28 1481.98,-1036.28 1481.98,-1036.28 1481.98,-1062.28 1481.98,-1062.28 1481.98,-1068.28 1475.98,-1074.28 1469.98,-1074.28"/>
<text text-anchor="middle" x="1416.98" y="-1046.78" font-family="Arial" font-size="10.00" fill="white">Primary Nav (thick)</text>
</g>
<!-- legend_secondary -->
<g id="node36" class="node">
<title>legend_secondary</title>
<path fill="transparent" stroke="transparent" d="M1496.98,-957.28C1496.98,-957.28 1390.98,-957.28 1390.98,-957.28 1384.98,-957.28 1378.98,-951.28 1378.98,-945.28 1378.98,-945.28 1378.98,-919.28 1378.98,-919.28 1378.98,-913.28 1384.98,-907.28 1390.98,-907.28 1390.98,-907.28 1496.98,-907.28 1496.98,-907.28 1502.98,-907.28 1508.98,-913.28 1508.98,-919.28 1508.98,-919.28 1508.98,-945.28 1508.98,-945.28 1508.98,-951.28 1502.98,-957.28 1496.98,-957.28"/>
<text text-anchor="middle" x="1443.98" y="-929.78" font-family="Arial" font-size="10.00" fill="white">Content Links</text>
</g>
<!-- legend_external -->
<g id="node37" class="node">
<title>legend_external</title>
<path fill="transparent" stroke="transparent" d="M1325.98,-1128.28C1325.98,-1128.28 1219.98,-1128.28 1219.98,-1128.28 1213.98,-1128.28 1207.98,-1122.28 1207.98,-1116.28 1207.98,-1116.28 1207.98,-1090.28 1207.98,-1090.28 1207.98,-1084.28 1213.98,-1078.28 1219.98,-1078.28 1219.98,-1078.28 1325.98,-1078.28 1325.98,-1078.28 1331.98,-1078.28 1337.98,-1084.28 1337.98,-1090.28 1337.98,-1090.28 1337.98,-1116.28 1337.98,-1116.28 1337.98,-1122.28 1331.98,-1128.28 1325.98,-1128.28"/>
<text text-anchor="middle" x="1272.98" y="-1100.78" font-family="Arial" font-size="10.00" fill="white">External Links (dashed)</text>
</g>
</g>
</svg>
