<svg xmlns="http://www.w3.org/2000/svg" xmlns:xlink="http://www.w3.org/1999/xlink" width="328" zoomAndPan="magnify" viewBox="0 0 246 98.999996" height="132" preserveAspectRatio="xMidYMid meet" version="1.0"><defs><g/><clipPath id="6c932c7ca4"><path d="M 18.898438 67.75 L 30.898438 67.75 L 30.898438 79.75 L 18.898438 79.75 Z M 18.898438 67.75 " clip-rule="nonzero"/></clipPath><clipPath id="2f4f4c6b24"><path d="M 30.902344 73.746094 C 30.902344 74.820312 30.632812 75.824219 30.09375 76.75 C 29.558594 77.675781 28.824219 78.40625 27.898438 78.941406 C 26.972656 79.476562 25.96875 79.746094 24.898438 79.746094 C 23.824219 79.746094 22.828125 79.480469 21.902344 78.941406 C 20.976562 78.410156 20.242188 77.679688 19.707031 76.75 C 19.167969 75.824219 18.898438 74.820312 18.898438 73.746094 C 18.898438 72.671875 19.167969 71.679688 19.703125 70.746094 C 20.242188 69.816406 20.972656 69.085938 21.898438 68.550781 C 22.828125 68.015625 23.828125 67.75 24.898438 67.75 C 25.964844 67.75 26.972656 68.015625 27.898438 68.550781 C 28.824219 69.085938 29.558594 69.816406 30.09375 70.746094 C 30.632812 71.679688 30.902344 72.675781 30.902344 73.746094 Z M 29.738281 73.746094 C 29.738281 72.410156 29.265625 71.269531 28.320312 70.324219 C 27.371094 69.378906 26.230469 68.90625 24.894531 68.90625 C 23.558594 68.90625 22.417969 69.378906 21.472656 70.324219 C 20.523438 71.269531 20.050781 72.410156 20.050781 73.746094 C 20.050781 75.082031 20.527344 76.222656 21.472656 77.171875 C 22.417969 78.117188 23.558594 78.589844 24.894531 78.589844 C 26.230469 78.589844 27.371094 78.117188 28.320312 77.171875 C 29.265625 76.226562 29.738281 75.082031 29.738281 73.746094 Z M 26.292969 74.484375 L 27.914062 74.871094 C 27.714844 75.503906 27.4375 75.992188 27.085938 76.332031 C 26.535156 76.863281 25.820312 77.128906 24.933594 77.128906 C 23.96875 77.128906 23.183594 76.816406 22.574219 76.195312 C 21.964844 75.574219 21.664062 74.753906 21.664062 73.730469 C 21.664062 72.761719 21.972656 71.960938 22.597656 71.332031 C 23.222656 70.699219 24.003906 70.382812 24.941406 70.382812 C 25.699219 70.382812 26.339844 70.585938 26.859375 70.988281 C 27.375 71.394531 27.703125 71.914062 27.839844 72.554688 L 26.292969 72.789062 C 26.199219 72.363281 26.027344 72.046875 25.777344 71.839844 C 25.527344 71.636719 25.226562 71.53125 24.871094 71.53125 C 24.460938 71.53125 24.117188 71.707031 23.839844 72.054688 C 23.5625 72.402344 23.421875 72.949219 23.421875 73.691406 C 23.421875 74.4375 23.515625 74.976562 23.707031 75.296875 C 23.984375 75.757812 24.378906 75.988281 24.886719 75.988281 C 25.207031 75.988281 25.492188 75.871094 25.746094 75.632812 C 26 75.398438 26.183594 75.015625 26.292969 74.488281 Z M 26.292969 74.484375 " clip-rule="nonzero"/></clipPath><linearGradient x1="39.560001" gradientTransform="matrix(0.151707, 0, 0, 0.151707, 18.898043, 67.7486)" y1="79.079998" x2="39.560001" gradientUnits="userSpaceOnUse" y2="-0.00000278734" id="2f684ee0c9"><stop stop-opacity="1" stop-color="rgb(0%, 36.898804%, 100%)" offset="0"/><stop stop-opacity="1" stop-color="rgb(0%, 37.113953%, 100%)" offset="0.00390625"/><stop stop-opacity="1" stop-color="rgb(0%, 37.329102%, 100%)" offset="0.0078125"/><stop stop-opacity="1" stop-color="rgb(0%, 37.547302%, 100%)" offset="0.0117188"/><stop stop-opacity="1" stop-color="rgb(0%, 37.767029%, 100%)" offset="0.015625"/><stop stop-opacity="1" stop-color="rgb(0%, 37.985229%, 100%)" offset="0.0195313"/><stop stop-opacity="1" stop-color="rgb(0%, 38.204956%, 100%)" offset="0.0234375"/><stop stop-opacity="1" stop-color="rgb(0%, 38.423157%, 100%)" offset="0.0273438"/><stop stop-opacity="1" stop-color="rgb(0%, 38.642883%, 100%)" offset="0.03125"/><stop stop-opacity="1" stop-color="rgb(0%, 38.861084%, 100%)" offset="0.0351562"/><stop stop-opacity="1" stop-color="rgb(0%, 39.079285%, 100%)" offset="0.0390625"/><stop stop-opacity="1" stop-color="rgb(0%, 39.297485%, 100%)" offset="0.0429688"/><stop stop-opacity="1" stop-color="rgb(0%, 39.517212%, 100%)" offset="0.046875"/><stop stop-opacity="1" stop-color="rgb(0%, 39.735413%, 100%)" offset="0.0507812"/><stop stop-opacity="1" stop-color="rgb(0%, 39.955139%, 100%)" offset="0.0546875"/><stop stop-opacity="1" stop-color="rgb(0%, 40.17334%, 100%)" offset="0.0585938"/><stop stop-opacity="1" stop-color="rgb(0%, 40.393066%, 100%)" offset="0.0625"/><stop stop-opacity="1" stop-color="rgb(0%, 40.611267%, 100%)" offset="0.0664062"/><stop stop-opacity="1" stop-color="rgb(0%, 40.829468%, 100%)" offset="0.0703125"/><stop stop-opacity="1" stop-color="rgb(0%, 41.047668%, 100%)" offset="0.0742188"/><stop stop-opacity="1" stop-color="rgb(0%, 41.267395%, 100%)" offset="0.078125"/><stop stop-opacity="1" stop-color="rgb(0%, 41.485596%, 100%)" offset="0.0820312"/><stop stop-opacity="1" stop-color="rgb(0%, 41.705322%, 100%)" offset="0.0859375"/><stop stop-opacity="1" stop-color="rgb(0%, 41.923523%, 100%)" offset="0.0898438"/><stop stop-opacity="1" stop-color="rgb(0%, 42.14325%, 100%)" offset="0.09375"/><stop stop-opacity="1" stop-color="rgb(0%, 42.36145%, 100%)" offset="0.0976563"/><stop stop-opacity="1" stop-color="rgb(0%, 42.579651%, 100%)" offset="0.101563"/><stop stop-opacity="1" stop-color="rgb(0%, 42.797852%, 100%)" offset="0.105469"/><stop stop-opacity="1" stop-color="rgb(0%, 43.017578%, 100%)" offset="0.109375"/><stop stop-opacity="1" stop-color="rgb(0%, 43.235779%, 100%)" offset="0.113281"/><stop stop-opacity="1" stop-color="rgb(0%, 43.455505%, 100%)" offset="0.117188"/><stop stop-opacity="1" stop-color="rgb(0%, 43.673706%, 100%)" offset="0.121094"/><stop stop-opacity="1" stop-color="rgb(0%, 43.893433%, 100%)" offset="0.125"/><stop stop-opacity="1" stop-color="rgb(0%, 44.111633%, 100%)" offset="0.128906"/><stop stop-opacity="1" stop-color="rgb(0%, 44.329834%, 100%)" offset="0.132812"/><stop stop-opacity="1" stop-color="rgb(0%, 44.548035%, 100%)" offset="0.136719"/><stop stop-opacity="1" stop-color="rgb(0%, 44.767761%, 100%)" offset="0.140625"/><stop stop-opacity="1" stop-color="rgb(0%, 44.985962%, 100%)" offset="0.144531"/><stop stop-opacity="1" stop-color="rgb(0%, 45.205688%, 100%)" offset="0.148438"/><stop stop-opacity="1" stop-color="rgb(0%, 45.423889%, 100%)" offset="0.152344"/><stop stop-opacity="1" stop-color="rgb(0%, 45.643616%, 100%)" offset="0.15625"/><stop stop-opacity="1" stop-color="rgb(0%, 45.861816%, 100%)" offset="0.160156"/><stop stop-opacity="1" stop-color="rgb(0%, 46.081543%, 100%)" offset="0.164062"/><stop stop-opacity="1" stop-color="rgb(0%, 46.299744%, 100%)" offset="0.167969"/><stop stop-opacity="1" stop-color="rgb(0%, 46.517944%, 100%)" offset="0.171875"/><stop stop-opacity="1" stop-color="rgb(0%, 46.736145%, 100%)" offset="0.175781"/><stop stop-opacity="1" stop-color="rgb(0%, 46.955872%, 100%)" offset="0.179688"/><stop stop-opacity="1" stop-color="rgb(0%, 47.174072%, 100%)" offset="0.183594"/><stop stop-opacity="1" stop-color="rgb(0%, 47.393799%, 100%)" offset="0.1875"/><stop stop-opacity="1" stop-color="rgb(0%, 47.612%, 100%)" offset="0.191406"/><stop stop-opacity="1" stop-color="rgb(0%, 47.831726%, 100%)" offset="0.195312"/><stop stop-opacity="1" stop-color="rgb(0%, 48.049927%, 100%)" offset="0.199219"/><stop stop-opacity="1" stop-color="rgb(0%, 48.268127%, 100%)" offset="0.203125"/><stop stop-opacity="1" stop-color="rgb(0%, 48.486328%, 100%)" offset="0.207031"/><stop stop-opacity="1" stop-color="rgb(0%, 48.706055%, 100%)" offset="0.210938"/><stop stop-opacity="1" stop-color="rgb(0%, 48.924255%, 100%)" offset="0.214844"/><stop stop-opacity="1" stop-color="rgb(0%, 49.143982%, 100%)" offset="0.21875"/><stop stop-opacity="1" stop-color="rgb(0%, 49.362183%, 100%)" offset="0.222656"/><stop stop-opacity="1" stop-color="rgb(0%, 49.581909%, 100%)" offset="0.226562"/><stop stop-opacity="1" stop-color="rgb(0%, 49.80011%, 100%)" offset="0.230469"/><stop stop-opacity="1" stop-color="rgb(0%, 50.018311%, 100%)" offset="0.234375"/><stop stop-opacity="1" stop-color="rgb(0%, 50.236511%, 100%)" offset="0.238281"/><stop stop-opacity="1" stop-color="rgb(0%, 50.456238%, 100%)" offset="0.242188"/><stop stop-opacity="1" stop-color="rgb(0%, 50.674438%, 100%)" offset="0.246094"/><stop stop-opacity="1" stop-color="rgb(0%, 50.894165%, 100%)" offset="0.25"/><stop stop-opacity="1" stop-color="rgb(0%, 51.112366%, 100%)" offset="0.253906"/><stop stop-opacity="1" stop-color="rgb(0%, 51.332092%, 100%)" offset="0.257812"/><stop stop-opacity="1" stop-color="rgb(0%, 51.550293%, 100%)" offset="0.261719"/><stop stop-opacity="1" stop-color="rgb(0%, 51.768494%, 100%)" offset="0.265625"/><stop stop-opacity="1" stop-color="rgb(0%, 51.986694%, 100%)" offset="0.269531"/><stop stop-opacity="1" stop-color="rgb(0%, 52.206421%, 100%)" offset="0.273438"/><stop stop-opacity="1" stop-color="rgb(0%, 52.424622%, 100%)" offset="0.277344"/><stop stop-opacity="1" stop-color="rgb(0%, 52.644348%, 100%)" offset="0.28125"/><stop stop-opacity="1" stop-color="rgb(0%, 52.862549%, 100%)" offset="0.285156"/><stop stop-opacity="1" stop-color="rgb(0%, 53.082275%, 100%)" offset="0.289063"/><stop stop-opacity="1" stop-color="rgb(0%, 53.300476%, 100%)" offset="0.292969"/><stop stop-opacity="1" stop-color="rgb(0%, 53.518677%, 100%)" offset="0.296875"/><stop stop-opacity="1" stop-color="rgb(0%, 53.736877%, 100%)" offset="0.300781"/><stop stop-opacity="1" stop-color="rgb(0%, 53.956604%, 100%)" offset="0.304688"/><stop stop-opacity="1" stop-color="rgb(0%, 54.174805%, 100%)" offset="0.308594"/><stop stop-opacity="1" stop-color="rgb(0%, 54.394531%, 100%)" offset="0.3125"/><stop stop-opacity="1" stop-color="rgb(0%, 54.612732%, 100%)" offset="0.316406"/><stop stop-opacity="1" stop-color="rgb(0%, 54.832458%, 100%)" offset="0.320313"/><stop stop-opacity="1" stop-color="rgb(0%, 55.050659%, 100%)" offset="0.324219"/><stop stop-opacity="1" stop-color="rgb(0%, 55.26886%, 100%)" offset="0.328125"/><stop stop-opacity="1" stop-color="rgb(0%, 55.487061%, 100%)" offset="0.332031"/><stop stop-opacity="1" stop-color="rgb(0%, 55.706787%, 100%)" offset="0.335938"/><stop stop-opacity="1" stop-color="rgb(0%, 55.924988%, 100%)" offset="0.339844"/><stop stop-opacity="1" stop-color="rgb(0%, 56.144714%, 100%)" offset="0.34375"/><stop stop-opacity="1" stop-color="rgb(0%, 56.362915%, 100%)" offset="0.347656"/><stop stop-opacity="1" stop-color="rgb(0%, 56.582642%, 100%)" offset="0.351563"/><stop stop-opacity="1" stop-color="rgb(0%, 56.800842%, 100%)" offset="0.355469"/><stop stop-opacity="1" stop-color="rgb(0%, 57.019043%, 100%)" offset="0.359375"/><stop stop-opacity="1" stop-color="rgb(0%, 57.237244%, 100%)" offset="0.363281"/><stop stop-opacity="1" stop-color="rgb(0%, 57.45697%, 100%)" offset="0.367188"/><stop stop-opacity="1" stop-color="rgb(0%, 57.675171%, 100%)" offset="0.371094"/><stop stop-opacity="1" stop-color="rgb(0%, 57.894897%, 100%)" offset="0.375"/><stop stop-opacity="1" stop-color="rgb(0%, 58.113098%, 100%)" offset="0.378906"/><stop stop-opacity="1" stop-color="rgb(0%, 58.332825%, 100%)" offset="0.382813"/><stop stop-opacity="1" stop-color="rgb(0%, 58.551025%, 100%)" offset="0.386719"/><stop stop-opacity="1" stop-color="rgb(0%, 58.769226%, 100%)" offset="0.390625"/><stop stop-opacity="1" stop-color="rgb(0%, 58.987427%, 100%)" offset="0.394531"/><stop stop-opacity="1" stop-color="rgb(0%, 59.207153%, 100%)" offset="0.398438"/><stop stop-opacity="1" stop-color="rgb(0%, 59.425354%, 100%)" offset="0.402344"/><stop stop-opacity="1" stop-color="rgb(0%, 59.645081%, 100%)" offset="0.40625"/><stop stop-opacity="1" stop-color="rgb(0%, 59.863281%, 100%)" offset="0.410156"/><stop stop-opacity="1" stop-color="rgb(0%, 60.083008%, 100%)" offset="0.414063"/><stop stop-opacity="1" stop-color="rgb(0%, 60.301208%, 100%)" offset="0.417969"/><stop stop-opacity="1" stop-color="rgb(0%, 60.519409%, 100%)" offset="0.421875"/><stop stop-opacity="1" stop-color="rgb(0%, 60.73761%, 100%)" offset="0.425781"/><stop stop-opacity="1" stop-color="rgb(0%, 60.957336%, 100%)" offset="0.429688"/><stop stop-opacity="1" stop-color="rgb(0%, 61.175537%, 100%)" offset="0.433594"/><stop stop-opacity="1" stop-color="rgb(0%, 61.395264%, 100%)" offset="0.4375"/><stop stop-opacity="1" stop-color="rgb(0%, 61.613464%, 100%)" offset="0.441406"/><stop stop-opacity="1" stop-color="rgb(0%, 61.833191%, 100%)" offset="0.445313"/><stop stop-opacity="1" stop-color="rgb(0%, 62.051392%, 100%)" offset="0.449219"/><stop stop-opacity="1" stop-color="rgb(0%, 62.271118%, 100%)" offset="0.453125"/><stop stop-opacity="1" stop-color="rgb(0%, 62.489319%, 100%)" offset="0.457031"/><stop stop-opacity="1" stop-color="rgb(0%, 62.70752%, 100%)" offset="0.460938"/><stop stop-opacity="1" stop-color="rgb(0%, 62.92572%, 100%)" offset="0.464844"/><stop stop-opacity="1" stop-color="rgb(0%, 63.145447%, 100%)" offset="0.46875"/><stop stop-opacity="1" stop-color="rgb(0%, 63.363647%, 100%)" offset="0.472656"/><stop stop-opacity="1" stop-color="rgb(0%, 63.583374%, 100%)" offset="0.476563"/><stop stop-opacity="1" stop-color="rgb(0%, 63.801575%, 100%)" offset="0.480469"/><stop stop-opacity="1" stop-color="rgb(0%, 64.021301%, 100%)" offset="0.484375"/><stop stop-opacity="1" stop-color="rgb(0%, 64.239502%, 100%)" offset="0.488281"/><stop stop-opacity="1" stop-color="rgb(0%, 64.457703%, 100%)" offset="0.492188"/><stop stop-opacity="1" stop-color="rgb(0%, 64.675903%, 100%)" offset="0.496094"/><stop stop-opacity="1" stop-color="rgb(0%, 64.89563%, 100%)" offset="0.5"/><stop stop-opacity="1" stop-color="rgb(0%, 65.113831%, 100%)" offset="0.503906"/><stop stop-opacity="1" stop-color="rgb(0%, 65.333557%, 100%)" offset="0.507812"/><stop stop-opacity="1" stop-color="rgb(0%, 65.551758%, 100%)" offset="0.511719"/><stop stop-opacity="1" stop-color="rgb(0%, 65.771484%, 100%)" offset="0.515625"/><stop stop-opacity="1" stop-color="rgb(0%, 65.989685%, 100%)" offset="0.519531"/><stop stop-opacity="1" stop-color="rgb(0%, 66.207886%, 100%)" offset="0.523438"/><stop stop-opacity="1" stop-color="rgb(0%, 66.426086%, 100%)" offset="0.527344"/><stop stop-opacity="1" stop-color="rgb(0%, 66.645813%, 100%)" offset="0.53125"/><stop stop-opacity="1" stop-color="rgb(0%, 66.864014%, 100%)" offset="0.535156"/><stop stop-opacity="1" stop-color="rgb(0%, 67.08374%, 100%)" offset="0.539062"/><stop stop-opacity="1" stop-color="rgb(0%, 67.301941%, 100%)" offset="0.542969"/><stop stop-opacity="1" stop-color="rgb(0%, 67.521667%, 100%)" offset="0.546875"/><stop stop-opacity="1" stop-color="rgb(0%, 67.739868%, 100%)" offset="0.550781"/><stop stop-opacity="1" stop-color="rgb(0%, 67.958069%, 100%)" offset="0.554688"/><stop stop-opacity="1" stop-color="rgb(0%, 68.17627%, 100%)" offset="0.558594"/><stop stop-opacity="1" stop-color="rgb(0%, 68.395996%, 100%)" offset="0.5625"/><stop stop-opacity="1" stop-color="rgb(0%, 68.614197%, 100%)" offset="0.566406"/><stop stop-opacity="1" stop-color="rgb(0%, 68.833923%, 100%)" offset="0.570312"/><stop stop-opacity="1" stop-color="rgb(0%, 69.052124%, 100%)" offset="0.574219"/><stop stop-opacity="1" stop-color="rgb(0%, 69.271851%, 100%)" offset="0.578125"/><stop stop-opacity="1" stop-color="rgb(0%, 69.490051%, 100%)" offset="0.582031"/><stop stop-opacity="1" stop-color="rgb(0%, 69.708252%, 100%)" offset="0.585938"/><stop stop-opacity="1" stop-color="rgb(0%, 69.926453%, 100%)" offset="0.589844"/><stop stop-opacity="1" stop-color="rgb(0%, 70.146179%, 100%)" offset="0.59375"/><stop stop-opacity="1" stop-color="rgb(0%, 70.36438%, 100%)" offset="0.597656"/><stop stop-opacity="1" stop-color="rgb(0%, 70.584106%, 100%)" offset="0.601562"/><stop stop-opacity="1" stop-color="rgb(0%, 70.802307%, 100%)" offset="0.605469"/><stop stop-opacity="1" stop-color="rgb(0%, 71.022034%, 100%)" offset="0.609375"/><stop stop-opacity="1" stop-color="rgb(0%, 71.240234%, 100%)" offset="0.613281"/><stop stop-opacity="1" stop-color="rgb(0%, 71.458435%, 100%)" offset="0.617187"/><stop stop-opacity="1" stop-color="rgb(0%, 71.676636%, 100%)" offset="0.621094"/><stop stop-opacity="1" stop-color="rgb(0%, 71.896362%, 100%)" offset="0.625"/><stop stop-opacity="1" stop-color="rgb(0%, 72.114563%, 100%)" offset="0.628906"/><stop stop-opacity="1" stop-color="rgb(0%, 72.33429%, 100%)" offset="0.632813"/><stop stop-opacity="1" stop-color="rgb(0%, 72.55249%, 100%)" offset="0.636719"/><stop stop-opacity="1" stop-color="rgb(0%, 72.772217%, 100%)" offset="0.640625"/><stop stop-opacity="1" stop-color="rgb(0%, 72.990417%, 100%)" offset="0.644531"/><stop stop-opacity="1" stop-color="rgb(0%, 73.208618%, 100%)" offset="0.648438"/><stop stop-opacity="1" stop-color="rgb(0%, 73.426819%, 100%)" offset="0.652344"/><stop stop-opacity="1" stop-color="rgb(0%, 73.646545%, 100%)" offset="0.65625"/><stop stop-opacity="1" stop-color="rgb(0%, 73.864746%, 100%)" offset="0.660156"/><stop stop-opacity="1" stop-color="rgb(0%, 74.084473%, 100%)" offset="0.664062"/><stop stop-opacity="1" stop-color="rgb(0%, 74.302673%, 100%)" offset="0.667969"/><stop stop-opacity="1" stop-color="rgb(0%, 74.5224%, 100%)" offset="0.671875"/><stop stop-opacity="1" stop-color="rgb(0%, 74.740601%, 100%)" offset="0.675781"/><stop stop-opacity="1" stop-color="rgb(0%, 74.958801%, 100%)" offset="0.679688"/><stop stop-opacity="1" stop-color="rgb(0%, 75.177002%, 100%)" offset="0.683594"/><stop stop-opacity="1" stop-color="rgb(0%, 75.396729%, 100%)" offset="0.6875"/><stop stop-opacity="1" stop-color="rgb(0%, 75.614929%, 100%)" offset="0.691406"/><stop stop-opacity="1" stop-color="rgb(0%, 75.834656%, 100%)" offset="0.695312"/><stop stop-opacity="1" stop-color="rgb(0%, 76.052856%, 100%)" offset="0.699219"/><stop stop-opacity="1" stop-color="rgb(0%, 76.272583%, 100%)" offset="0.703125"/><stop stop-opacity="1" stop-color="rgb(0%, 76.490784%, 100%)" offset="0.707031"/><stop stop-opacity="1" stop-color="rgb(0%, 76.708984%, 100%)" offset="0.710938"/><stop stop-opacity="1" stop-color="rgb(0%, 76.927185%, 100%)" offset="0.714844"/><stop stop-opacity="1" stop-color="rgb(0%, 77.146912%, 100%)" offset="0.71875"/><stop stop-opacity="1" stop-color="rgb(0%, 77.365112%, 100%)" offset="0.722656"/><stop stop-opacity="1" stop-color="rgb(0%, 77.584839%, 100%)" offset="0.726562"/><stop stop-opacity="1" stop-color="rgb(0%, 77.80304%, 100%)" offset="0.730469"/><stop stop-opacity="1" stop-color="rgb(0%, 78.022766%, 100%)" offset="0.734375"/><stop stop-opacity="1" stop-color="rgb(0%, 78.240967%, 100%)" offset="0.738281"/><stop stop-opacity="1" stop-color="rgb(0%, 78.459167%, 100%)" offset="0.742188"/><stop stop-opacity="1" stop-color="rgb(0%, 78.677368%, 100%)" offset="0.746094"/><stop stop-opacity="1" stop-color="rgb(0%, 78.897095%, 100%)" offset="0.75"/><stop stop-opacity="1" stop-color="rgb(0%, 79.115295%, 100%)" offset="0.753906"/><stop stop-opacity="1" stop-color="rgb(0%, 79.335022%, 100%)" offset="0.757812"/><stop stop-opacity="1" stop-color="rgb(0%, 79.553223%, 100%)" offset="0.761719"/><stop stop-opacity="1" stop-color="rgb(0%, 79.772949%, 100%)" offset="0.765625"/><stop stop-opacity="1" stop-color="rgb(0%, 79.99115%, 100%)" offset="0.769531"/><stop stop-opacity="1" stop-color="rgb(0%, 80.210876%, 100%)" offset="0.773438"/><stop stop-opacity="1" stop-color="rgb(0%, 80.429077%, 100%)" offset="0.777344"/><stop stop-opacity="1" stop-color="rgb(0%, 80.647278%, 100%)" offset="0.78125"/><stop stop-opacity="1" stop-color="rgb(0%, 80.865479%, 100%)" offset="0.785156"/><stop stop-opacity="1" stop-color="rgb(0%, 81.085205%, 100%)" offset="0.789062"/><stop stop-opacity="1" stop-color="rgb(0%, 81.303406%, 100%)" offset="0.792969"/><stop stop-opacity="1" stop-color="rgb(0%, 81.523132%, 100%)" offset="0.796875"/><stop stop-opacity="1" stop-color="rgb(0%, 81.741333%, 100%)" offset="0.800781"/><stop stop-opacity="1" stop-color="rgb(0%, 81.96106%, 100%)" offset="0.804688"/><stop stop-opacity="1" stop-color="rgb(0%, 82.17926%, 100%)" offset="0.808594"/><stop stop-opacity="1" stop-color="rgb(0%, 82.397461%, 100%)" offset="0.8125"/><stop stop-opacity="1" stop-color="rgb(0%, 82.615662%, 100%)" offset="0.816406"/><stop stop-opacity="1" stop-color="rgb(0%, 82.835388%, 100%)" offset="0.820312"/><stop stop-opacity="1" stop-color="rgb(0%, 83.053589%, 100%)" offset="0.824219"/><stop stop-opacity="1" stop-color="rgb(0%, 83.273315%, 100%)" offset="0.828125"/><stop stop-opacity="1" stop-color="rgb(0%, 83.491516%, 100%)" offset="0.832031"/><stop stop-opacity="1" stop-color="rgb(0%, 83.711243%, 100%)" offset="0.835938"/><stop stop-opacity="1" stop-color="rgb(0%, 83.929443%, 100%)" offset="0.839844"/><stop stop-opacity="1" stop-color="rgb(0%, 84.147644%, 100%)" offset="0.84375"/><stop stop-opacity="1" stop-color="rgb(0%, 84.365845%, 100%)" offset="0.847656"/><stop stop-opacity="1" stop-color="rgb(0%, 84.585571%, 100%)" offset="0.851562"/><stop stop-opacity="1" stop-color="rgb(0%, 84.803772%, 100%)" offset="0.855469"/><stop stop-opacity="1" stop-color="rgb(0%, 85.023499%, 100%)" offset="0.859375"/><stop stop-opacity="1" stop-color="rgb(0%, 85.241699%, 100%)" offset="0.863281"/><stop stop-opacity="1" stop-color="rgb(0%, 85.461426%, 100%)" offset="0.867187"/><stop stop-opacity="1" stop-color="rgb(0%, 85.679626%, 100%)" offset="0.871094"/><stop stop-opacity="1" stop-color="rgb(0%, 85.897827%, 100%)" offset="0.875"/><stop stop-opacity="1" stop-color="rgb(0%, 86.116028%, 100%)" offset="0.878906"/><stop stop-opacity="1" stop-color="rgb(0%, 86.335754%, 100%)" offset="0.882813"/><stop stop-opacity="1" stop-color="rgb(0%, 86.553955%, 100%)" offset="0.886719"/><stop stop-opacity="1" stop-color="rgb(0%, 86.773682%, 100%)" offset="0.890625"/><stop stop-opacity="1" stop-color="rgb(0%, 86.991882%, 100%)" offset="0.894531"/><stop stop-opacity="1" stop-color="rgb(0%, 87.211609%, 100%)" offset="0.898438"/><stop stop-opacity="1" stop-color="rgb(0%, 87.42981%, 100%)" offset="0.902344"/><stop stop-opacity="1" stop-color="rgb(0%, 87.64801%, 100%)" offset="0.90625"/><stop stop-opacity="1" stop-color="rgb(0%, 87.866211%, 100%)" offset="0.910156"/><stop stop-opacity="1" stop-color="rgb(0%, 88.085938%, 100%)" offset="0.914062"/><stop stop-opacity="1" stop-color="rgb(0%, 88.304138%, 100%)" offset="0.917969"/><stop stop-opacity="1" stop-color="rgb(0%, 88.523865%, 100%)" offset="0.921875"/><stop stop-opacity="1" stop-color="rgb(0%, 88.742065%, 100%)" offset="0.925781"/><stop stop-opacity="1" stop-color="rgb(0%, 88.961792%, 100%)" offset="0.929688"/><stop stop-opacity="1" stop-color="rgb(0%, 89.179993%, 100%)" offset="0.933594"/><stop stop-opacity="1" stop-color="rgb(0%, 89.398193%, 100%)" offset="0.9375"/><stop stop-opacity="1" stop-color="rgb(0%, 89.616394%, 100%)" offset="0.941406"/><stop stop-opacity="1" stop-color="rgb(0%, 89.836121%, 100%)" offset="0.945312"/><stop stop-opacity="1" stop-color="rgb(0%, 90.054321%, 100%)" offset="0.949219"/><stop stop-opacity="1" stop-color="rgb(0%, 90.274048%, 100%)" offset="0.953125"/><stop stop-opacity="1" stop-color="rgb(0%, 90.492249%, 100%)" offset="0.957031"/><stop stop-opacity="1" stop-color="rgb(0%, 90.711975%, 100%)" offset="0.960938"/><stop stop-opacity="1" stop-color="rgb(0%, 90.930176%, 100%)" offset="0.964844"/><stop stop-opacity="1" stop-color="rgb(0%, 91.148376%, 100%)" offset="0.96875"/><stop stop-opacity="1" stop-color="rgb(0%, 91.366577%, 100%)" offset="0.972656"/><stop stop-opacity="1" stop-color="rgb(0%, 91.586304%, 100%)" offset="0.976562"/><stop stop-opacity="1" stop-color="rgb(0%, 91.804504%, 100%)" offset="0.980469"/><stop stop-opacity="1" stop-color="rgb(0%, 92.024231%, 100%)" offset="0.984375"/><stop stop-opacity="1" stop-color="rgb(0%, 92.242432%, 100%)" offset="0.988281"/><stop stop-opacity="1" stop-color="rgb(0%, 92.462158%, 100%)" offset="0.992188"/><stop stop-opacity="1" stop-color="rgb(0%, 92.680359%, 100%)" offset="0.996094"/><stop stop-opacity="1" stop-color="rgb(0%, 92.89856%, 100%)" offset="1"/></linearGradient></defs><g fill="#cb697f" fill-opacity="1"><g transform="translate(20.451914, 63.276613)"><g><path d="M 24.53125 -42.25 L 41.582031 0 L 31.238281 0 L 28.113281 -8.449219 L 12.035156 -8.449219 L 8.910156 0 L -1.433594 0 L 15.617188 -42.25 Z M 24.835938 -16.898438 L 20.125 -29.191406 L 20.023438 -29.191406 L 15.3125 -16.898438 Z M 24.835938 -16.898438 "/></g></g></g><g fill="#cb697f" fill-opacity="1"><g transform="translate(55.778003, 63.276613)"><g><path d="M 14.492188 -27.039062 C 15.996094 -27.039062 17.480469 -26.867188 18.949219 -26.527344 C 20.414062 -26.183594 21.507812 -25.84375 22.226562 -25.503906 L 23.300781 -24.992188 L 20.332031 -19.050781 C 18.28125 -20.144531 16.335938 -20.6875 14.492188 -20.6875 C 13.46875 -20.6875 12.742188 -20.578125 12.316406 -20.355469 C 11.890625 -20.132812 11.675781 -19.714844 11.675781 -19.101562 C 11.675781 -18.964844 11.691406 -18.828125 11.726562 -18.691406 C 11.761719 -18.554688 11.828125 -18.425781 11.933594 -18.308594 C 12.035156 -18.1875 12.128906 -18.085938 12.214844 -18 C 12.300781 -17.914062 12.445312 -17.820312 12.648438 -17.71875 C 12.855469 -17.617188 13.015625 -17.539062 13.136719 -17.488281 C 13.253906 -17.4375 13.449219 -17.359375 13.722656 -17.257812 C 13.996094 -17.15625 14.203125 -17.078125 14.339844 -17.027344 C 14.476562 -16.976562 14.707031 -16.898438 15.03125 -16.796875 C 15.355469 -16.695312 15.601562 -16.625 15.773438 -16.59375 C 16.832031 -16.285156 17.753906 -15.945312 18.539062 -15.566406 C 19.324219 -15.191406 20.152344 -14.679688 21.023438 -14.03125 C 21.890625 -13.382812 22.566406 -12.5625 23.042969 -11.574219 C 23.523438 -10.582031 23.761719 -9.457031 23.761719 -8.195312 C 23.761719 -2.21875 19.613281 0.769531 11.316406 0.769531 C 9.441406 0.769531 7.65625 0.476562 5.964844 -0.101562 C 4.277344 -0.683594 3.054688 -1.261719 2.304688 -1.84375 L 1.179688 -2.765625 L 4.863281 -8.960938 C 5.136719 -8.722656 5.496094 -8.441406 5.941406 -8.117188 C 6.382812 -7.792969 7.1875 -7.347656 8.347656 -6.785156 C 9.507812 -6.222656 10.515625 -5.941406 11.367188 -5.941406 C 13.246094 -5.941406 14.183594 -6.570312 14.183594 -7.835938 C 14.183594 -8.414062 13.945312 -8.867188 13.46875 -9.191406 C 12.992188 -9.515625 12.179688 -9.882812 11.035156 -10.292969 C 9.890625 -10.703125 8.996094 -11.078125 8.347656 -11.417969 C 6.707031 -12.273438 5.410156 -13.238281 4.457031 -14.3125 C 3.5 -15.386719 3.019531 -16.8125 3.019531 -18.589844 C 3.019531 -21.253906 4.054688 -23.324219 6.121094 -24.8125 C 8.183594 -26.296875 10.976562 -27.039062 14.492188 -27.039062 Z M 14.492188 -27.039062 "/></g></g></g><g fill="#cb697f" fill-opacity="1"><g transform="translate(76.153909, 63.276613)"><g><path d="M 4.863281 -3.25 C 2.40625 -5.933594 1.179688 -9.21875 1.179688 -13.109375 C 1.179688 -17 2.40625 -20.296875 4.863281 -22.992188 C 7.324219 -25.691406 10.445312 -27.039062 14.238281 -27.039062 C 17.71875 -27.039062 20.585938 -25.945312 22.839844 -23.761719 L 22.839844 -26.269531 L 31.902344 -26.269531 L 31.902344 0 L 22.941406 0 L 22.941406 -2.96875 L 22.839844 -2.96875 C 20.585938 -0.476562 17.71875 0.769531 14.238281 0.769531 C 10.445312 0.769531 7.324219 -0.570312 4.863281 -3.25 Z M 12.570312 -17.566406 C 11.394531 -16.402344 10.804688 -14.917969 10.804688 -13.109375 C 10.804688 -11.300781 11.367188 -9.824219 12.496094 -8.679688 C 13.621094 -7.535156 15.105469 -6.964844 16.949219 -6.964844 C 18.726562 -6.964844 20.183594 -7.546875 21.328125 -8.707031 C 22.472656 -9.867188 23.042969 -11.335938 23.042969 -13.109375 C 23.042969 -14.917969 22.457031 -16.402344 21.277344 -17.566406 C 20.101562 -18.726562 18.65625 -19.304688 16.949219 -19.304688 C 15.210938 -19.304688 13.75 -18.726562 12.570312 -17.566406 Z M 12.570312 -17.566406 "/></g></g></g><g fill="#cb697f" fill-opacity="1"><g transform="translate(106.308871, 63.276613)"><g><path d="M 30.113281 -22.992188 C 32.570312 -20.296875 33.796875 -17 33.796875 -13.109375 C 33.796875 -9.21875 32.570312 -5.933594 30.113281 -3.25 C 27.652344 -0.570312 24.53125 0.769531 20.738281 0.769531 C 17.257812 0.769531 14.390625 -0.476562 12.136719 -2.96875 L 12.035156 -2.96875 L 12.035156 0 L 3.074219 0 L 3.074219 -44.039062 L 12.136719 -44.039062 L 12.136719 -23.761719 C 14.390625 -25.945312 17.257812 -27.039062 20.738281 -27.039062 C 24.53125 -27.039062 27.652344 -25.691406 30.113281 -22.992188 Z M 22.480469 -8.679688 C 23.609375 -9.824219 24.171875 -11.300781 24.171875 -13.109375 C 24.171875 -14.917969 23.582031 -16.402344 22.40625 -17.566406 C 21.226562 -18.726562 19.765625 -19.304688 18.027344 -19.304688 C 16.320312 -19.304688 14.875 -18.726562 13.699219 -17.566406 C 12.519531 -16.402344 11.933594 -14.917969 11.933594 -13.109375 C 11.933594 -11.335938 12.503906 -9.867188 13.648438 -8.707031 C 14.792969 -7.546875 16.25 -6.964844 18.027344 -6.964844 C 19.871094 -6.964844 21.355469 -7.535156 22.480469 -8.679688 Z M 22.480469 -8.679688 "/></g></g></g><g fill="#cb697f" fill-opacity="1"><g transform="translate(136.463832, 63.276613)"><g><path d="M 4.863281 -3.25 C 2.40625 -5.933594 1.179688 -9.21875 1.179688 -13.109375 C 1.179688 -17 2.40625 -20.296875 4.863281 -22.992188 C 7.324219 -25.691406 10.445312 -27.039062 14.238281 -27.039062 C 17.71875 -27.039062 20.585938 -25.945312 22.839844 -23.761719 L 22.839844 -26.269531 L 31.902344 -26.269531 L 31.902344 0 L 22.941406 0 L 22.941406 -2.96875 L 22.839844 -2.96875 C 20.585938 -0.476562 17.71875 0.769531 14.238281 0.769531 C 10.445312 0.769531 7.324219 -0.570312 4.863281 -3.25 Z M 12.570312 -17.566406 C 11.394531 -16.402344 10.804688 -14.917969 10.804688 -13.109375 C 10.804688 -11.300781 11.367188 -9.824219 12.496094 -8.679688 C 13.621094 -7.535156 15.105469 -6.964844 16.949219 -6.964844 C 18.726562 -6.964844 20.183594 -7.546875 21.328125 -8.707031 C 22.472656 -9.867188 23.042969 -11.335938 23.042969 -13.109375 C 23.042969 -14.917969 22.457031 -16.402344 21.277344 -17.566406 C 20.101562 -18.726562 18.65625 -19.304688 16.949219 -19.304688 C 15.210938 -19.304688 13.75 -18.726562 12.570312 -17.566406 Z M 12.570312 -17.566406 "/></g></g></g><g fill="#cb697f" fill-opacity="1"><g transform="translate(166.618794, 63.276613)"><g><path d="M 4.863281 -3.25 C 2.40625 -5.933594 1.179688 -9.21875 1.179688 -13.109375 C 1.179688 -17 2.40625 -20.296875 4.863281 -22.992188 C 7.324219 -25.691406 10.445312 -27.039062 14.238281 -27.039062 C 17.71875 -27.039062 20.585938 -25.945312 22.839844 -23.761719 L 22.839844 -26.269531 L 31.902344 -26.269531 L 31.902344 0 L 22.941406 0 L 22.941406 -2.96875 L 22.839844 -2.96875 C 20.585938 -0.476562 17.71875 0.769531 14.238281 0.769531 C 10.445312 0.769531 7.324219 -0.570312 4.863281 -3.25 Z M 12.570312 -17.566406 C 11.394531 -16.402344 10.804688 -14.917969 10.804688 -13.109375 C 10.804688 -11.300781 11.367188 -9.824219 12.496094 -8.679688 C 13.621094 -7.535156 15.105469 -6.964844 16.949219 -6.964844 C 18.726562 -6.964844 20.183594 -7.546875 21.328125 -8.707031 C 22.472656 -9.867188 23.042969 -11.335938 23.042969 -13.109375 C 23.042969 -14.917969 22.457031 -16.402344 21.277344 -17.566406 C 20.101562 -18.726562 18.65625 -19.304688 16.949219 -19.304688 C 15.210938 -19.304688 13.75 -18.726562 12.570312 -17.566406 Z M 12.570312 -17.566406 "/></g></g></g><g fill="#cb697f" fill-opacity="1"><g transform="translate(196.773756, 63.276613)"><g><path d="M 3.074219 -44.039062 L 12.136719 -44.039062 L 12.136719 0 L 3.074219 0 Z M 3.074219 -44.039062 "/></g></g></g><g fill="#cb697f" fill-opacity="1"><g transform="translate(207.165803, 63.276613)"><g><path d="M 8.910156 -10.957031 C 10.550781 -10.957031 11.941406 -10.386719 13.085938 -9.242188 C 14.226562 -8.101562 14.800781 -6.707031 14.800781 -5.070312 C 14.800781 -3.464844 14.226562 -2.089844 13.085938 -0.949219 C 11.941406 0.195312 10.550781 0.769531 8.910156 0.769531 C 7.304688 0.769531 5.933594 0.195312 4.789062 -0.949219 C 3.644531 -2.089844 3.074219 -3.464844 3.074219 -5.070312 C 3.074219 -6.707031 3.644531 -8.101562 4.789062 -9.242188 C 5.933594 -10.386719 7.304688 -10.957031 8.910156 -10.957031 Z M 8.910156 -10.957031 "/></g></g></g><g clip-path="url(#6c932c7ca4)"><g clip-path="url(#2f4f4c6b24)"><path fill="url(#2f684ee0c9)" d="M 18.898438 67.75 L 18.898438 79.746094 L 30.898438 79.746094 L 30.898438 67.75 Z M 18.898438 67.75 " fill-rule="nonzero"/></g></g><g fill="#000000" fill-opacity="1"><g transform="translate(77.96786, 77.152471)"><g><path d="M 4.855469 -5.453125 C 4.984375 -5.453125 5.09375 -5.410156 5.183594 -5.324219 C 5.273438 -5.238281 5.316406 -5.136719 5.316406 -5.019531 C 5.316406 -4.957031 5.292969 -4.871094 5.246094 -4.761719 L 3.289062 -0.308594 C 3.246094 -0.21875 3.1875 -0.148438 3.113281 -0.09375 C 3.035156 -0.0390625 2.953125 -0.0078125 2.863281 0 C 2.753906 0.015625 2.652344 -0.0078125 2.5625 -0.0625 C 2.46875 -0.117188 2.398438 -0.199219 2.347656 -0.308594 L 0.390625 -4.761719 C 0.355469 -4.863281 0.339844 -4.949219 0.339844 -5.019531 C 0.339844 -5.128906 0.382812 -5.226562 0.472656 -5.316406 C 0.5625 -5.40625 0.679688 -5.453125 0.824219 -5.453125 C 0.925781 -5.453125 1.019531 -5.425781 1.101562 -5.375 C 1.183594 -5.324219 1.25 -5.246094 1.296875 -5.140625 L 2.855469 -1.523438 L 4.410156 -5.140625 C 4.507812 -5.347656 4.65625 -5.453125 4.855469 -5.453125 Z M 4.855469 -5.453125 "/></g></g></g><g fill="#000000" fill-opacity="1"><g transform="translate(90.332891, 77.152471)"><g><path d="M 5.472656 -2.90625 C 5.464844 -2.78125 5.414062 -2.675781 5.316406 -2.589844 C 5.222656 -2.503906 5.109375 -2.464844 4.976562 -2.464844 L 1.351562 -2.464844 C 1.398438 -1.960938 1.589844 -1.558594 1.921875 -1.257812 C 2.253906 -0.953125 2.664062 -0.804688 3.144531 -0.804688 C 3.472656 -0.804688 3.742188 -0.851562 3.945312 -0.949219 C 4.152344 -1.042969 4.335938 -1.167969 4.492188 -1.320312 C 4.597656 -1.382812 4.695312 -1.410156 4.792969 -1.410156 C 4.910156 -1.410156 5.007812 -1.371094 5.085938 -1.289062 C 5.164062 -1.207031 5.203125 -1.109375 5.203125 -1 C 5.203125 -0.855469 5.136719 -0.726562 4.996094 -0.609375 C 4.796875 -0.410156 4.535156 -0.242188 4.203125 -0.101562 C 3.875 0.0351562 3.539062 0.101562 3.195312 0.101562 C 2.636719 0.101562 2.148438 -0.015625 1.726562 -0.246094 C 1.304688 -0.480469 0.976562 -0.808594 0.746094 -1.226562 C 0.515625 -1.644531 0.402344 -2.121094 0.402344 -2.648438 C 0.402344 -3.226562 0.519531 -3.730469 0.757812 -4.167969 C 0.996094 -4.605469 1.308594 -4.941406 1.695312 -5.171875 C 2.082031 -5.40625 2.5 -5.523438 2.945312 -5.523438 C 3.386719 -5.523438 3.800781 -5.410156 4.183594 -5.183594 C 4.570312 -4.957031 4.878906 -4.644531 5.109375 -4.246094 C 5.34375 -3.847656 5.464844 -3.402344 5.472656 -2.90625 Z M 2.945312 -4.617188 C 2.5625 -4.617188 2.230469 -4.507812 1.949219 -4.292969 C 1.664062 -4.074219 1.480469 -3.742188 1.390625 -3.289062 L 4.429688 -3.289062 L 4.429688 -3.371094 C 4.398438 -3.734375 4.234375 -4.03125 3.941406 -4.265625 C 3.648438 -4.5 3.316406 -4.617188 2.945312 -4.617188 Z M 2.945312 -4.617188 "/></g></g></g><g fill="#000000" fill-opacity="1"><g transform="translate(102.924538, 77.152471)"><g><path d="M 3.484375 -5.523438 C 4.71875 -5.523438 5.339844 -4.78125 5.339844 -3.296875 L 5.339844 -0.496094 C 5.339844 -0.355469 5.292969 -0.242188 5.199219 -0.144531 C 5.105469 -0.046875 4.988281 0 4.84375 0 C 4.707031 0 4.589844 -0.046875 4.5 -0.144531 C 4.40625 -0.242188 4.359375 -0.355469 4.359375 -0.496094 L 4.359375 -3.289062 C 4.359375 -3.691406 4.265625 -4.015625 4.082031 -4.257812 C 3.894531 -4.496094 3.59375 -4.617188 3.175781 -4.617188 C 2.898438 -4.617188 2.648438 -4.554688 2.425781 -4.4375 C 2.203125 -4.316406 2.027344 -4.15625 1.902344 -3.953125 C 1.773438 -3.75 1.710938 -3.527344 1.710938 -3.289062 L 1.710938 -0.496094 C 1.710938 -0.355469 1.664062 -0.242188 1.570312 -0.144531 C 1.480469 -0.046875 1.359375 0 1.214844 0 C 1.070312 0 0.953125 -0.046875 0.867188 -0.140625 C 0.777344 -0.230469 0.730469 -0.351562 0.730469 -0.496094 L 0.730469 -4.90625 C 0.730469 -5.042969 0.777344 -5.160156 0.871094 -5.253906 C 0.964844 -5.351562 1.078125 -5.398438 1.214844 -5.398438 C 1.359375 -5.398438 1.480469 -5.351562 1.570312 -5.253906 C 1.664062 -5.160156 1.710938 -5.042969 1.710938 -4.90625 L 1.710938 -4.542969 C 1.890625 -4.820312 2.136719 -5.050781 2.457031 -5.238281 C 2.777344 -5.429688 3.117188 -5.523438 3.484375 -5.523438 Z M 3.484375 -5.523438 "/></g></g></g><g fill="#000000" fill-opacity="1"><g transform="translate(115.711902, 77.152471)"><g><path d="M 2.195312 -4.441406 L 2.195312 -1.371094 C 2.195312 -1.027344 2.347656 -0.855469 2.660156 -0.855469 C 2.707031 -0.855469 2.773438 -0.867188 2.855469 -0.890625 C 2.9375 -0.914062 3.003906 -0.925781 3.050781 -0.925781 C 3.140625 -0.925781 3.214844 -0.890625 3.277344 -0.8125 C 3.339844 -0.738281 3.371094 -0.640625 3.371094 -0.527344 C 3.371094 -0.382812 3.289062 -0.257812 3.121094 -0.15625 C 2.957031 -0.0507812 2.773438 0 2.566406 0 C 2.339844 0 2.132812 -0.0234375 1.941406 -0.0703125 C 1.753906 -0.121094 1.585938 -0.242188 1.4375 -0.4375 C 1.289062 -0.632812 1.214844 -0.929688 1.214844 -1.328125 L 1.214844 -4.441406 L 0.617188 -4.441406 C 0.488281 -4.441406 0.378906 -4.484375 0.292969 -4.570312 C 0.207031 -4.65625 0.164062 -4.765625 0.164062 -4.894531 C 0.164062 -5.027344 0.207031 -5.132812 0.292969 -5.214844 C 0.378906 -5.296875 0.488281 -5.339844 0.617188 -5.339844 L 1.214844 -5.339844 L 1.214844 -6.203125 C 1.214844 -6.339844 1.261719 -6.457031 1.355469 -6.554688 C 1.449219 -6.648438 1.566406 -6.699219 1.710938 -6.699219 C 1.847656 -6.699219 1.964844 -6.648438 2.054688 -6.554688 C 2.148438 -6.457031 2.195312 -6.339844 2.195312 -6.203125 L 2.195312 -5.339844 L 3.050781 -5.339844 C 3.179688 -5.339844 3.289062 -5.296875 3.375 -5.210938 C 3.460938 -5.125 3.503906 -5.015625 3.503906 -4.882812 C 3.503906 -4.753906 3.460938 -4.648438 3.375 -4.566406 C 3.289062 -4.484375 3.179688 -4.441406 3.050781 -4.441406 Z M 2.195312 -4.441406 "/></g></g></g><g fill="#000000" fill-opacity="1"><g transform="translate(126.346415, 77.152471)"><g><path d="M 4.75 -5.398438 C 4.894531 -5.398438 5.011719 -5.351562 5.105469 -5.253906 C 5.199219 -5.160156 5.246094 -5.042969 5.246094 -4.90625 L 5.246094 -2.164062 C 5.246094 -1.449219 5.046875 -0.894531 4.652344 -0.5 C 4.257812 -0.105469 3.699219 0.09375 2.976562 0.09375 C 2.261719 0.09375 1.710938 -0.105469 1.320312 -0.5 C 0.925781 -0.894531 0.730469 -1.449219 0.730469 -2.164062 L 0.730469 -4.90625 C 0.730469 -5.042969 0.777344 -5.160156 0.871094 -5.253906 C 0.964844 -5.351562 1.078125 -5.398438 1.214844 -5.398438 C 1.359375 -5.398438 1.480469 -5.351562 1.570312 -5.253906 C 1.664062 -5.160156 1.710938 -5.042969 1.710938 -4.90625 L 1.710938 -2.164062 C 1.710938 -1.265625 2.132812 -0.8125 2.976562 -0.8125 C 3.398438 -0.8125 3.714844 -0.925781 3.9375 -1.152344 C 4.15625 -1.382812 4.265625 -1.71875 4.265625 -2.164062 L 4.265625 -4.90625 C 4.265625 -5.042969 4.3125 -5.160156 4.40625 -5.253906 C 4.5 -5.351562 4.613281 -5.398438 4.75 -5.398438 Z M 4.75 -5.398438 "/></g></g></g><g fill="#000000" fill-opacity="1"><g transform="translate(139.04107, 77.152471)"><g><path d="M 3.421875 -5.523438 C 3.601562 -5.523438 3.753906 -5.476562 3.886719 -5.382812 C 4.015625 -5.292969 4.082031 -5.175781 4.082031 -5.039062 C 4.082031 -4.875 4.039062 -4.75 3.953125 -4.664062 C 3.867188 -4.578125 3.761719 -4.535156 3.636719 -4.535156 C 3.574219 -4.535156 3.484375 -4.554688 3.359375 -4.597656 C 3.214844 -4.644531 3.101562 -4.667969 3.019531 -4.667969 C 2.804688 -4.667969 2.597656 -4.59375 2.394531 -4.445312 C 2.191406 -4.300781 2.027344 -4.097656 1.902344 -3.839844 C 1.773438 -3.582031 1.710938 -3.292969 1.710938 -2.976562 L 1.710938 -0.496094 C 1.710938 -0.355469 1.664062 -0.242188 1.570312 -0.144531 C 1.480469 -0.046875 1.359375 0 1.214844 0 C 1.070312 0 0.953125 -0.046875 0.867188 -0.140625 C 0.777344 -0.230469 0.730469 -0.351562 0.730469 -0.496094 L 0.730469 -4.90625 C 0.730469 -5.042969 0.777344 -5.160156 0.871094 -5.253906 C 0.964844 -5.351562 1.078125 -5.398438 1.214844 -5.398438 C 1.359375 -5.398438 1.480469 -5.351562 1.570312 -5.253906 C 1.664062 -5.160156 1.710938 -5.042969 1.710938 -4.90625 L 1.710938 -4.378906 C 1.863281 -4.714844 2.089844 -4.988281 2.390625 -5.199219 C 2.691406 -5.410156 3.035156 -5.515625 3.421875 -5.523438 Z M 3.421875 -5.523438 "/></g></g></g><g fill="#000000" fill-opacity="1"><g transform="translate(150.015507, 77.152471)"><g><path d="M 5.472656 -2.90625 C 5.464844 -2.78125 5.414062 -2.675781 5.316406 -2.589844 C 5.222656 -2.503906 5.109375 -2.464844 4.976562 -2.464844 L 1.351562 -2.464844 C 1.398438 -1.960938 1.589844 -1.558594 1.921875 -1.257812 C 2.253906 -0.953125 2.664062 -0.804688 3.144531 -0.804688 C 3.472656 -0.804688 3.742188 -0.851562 3.945312 -0.949219 C 4.152344 -1.042969 4.335938 -1.167969 4.492188 -1.320312 C 4.597656 -1.382812 4.695312 -1.410156 4.792969 -1.410156 C 4.910156 -1.410156 5.007812 -1.371094 5.085938 -1.289062 C 5.164062 -1.207031 5.203125 -1.109375 5.203125 -1 C 5.203125 -0.855469 5.136719 -0.726562 4.996094 -0.609375 C 4.796875 -0.410156 4.535156 -0.242188 4.203125 -0.101562 C 3.875 0.0351562 3.539062 0.101562 3.195312 0.101562 C 2.636719 0.101562 2.148438 -0.015625 1.726562 -0.246094 C 1.304688 -0.480469 0.976562 -0.808594 0.746094 -1.226562 C 0.515625 -1.644531 0.402344 -2.121094 0.402344 -2.648438 C 0.402344 -3.226562 0.519531 -3.730469 0.757812 -4.167969 C 0.996094 -4.605469 1.308594 -4.941406 1.695312 -5.171875 C 2.082031 -5.40625 2.5 -5.523438 2.945312 -5.523438 C 3.386719 -5.523438 3.800781 -5.410156 4.183594 -5.183594 C 4.570312 -4.957031 4.878906 -4.644531 5.109375 -4.246094 C 5.34375 -3.847656 5.464844 -3.402344 5.472656 -2.90625 Z M 2.945312 -4.617188 C 2.5625 -4.617188 2.230469 -4.507812 1.949219 -4.292969 C 1.664062 -4.074219 1.480469 -3.742188 1.390625 -3.289062 L 4.429688 -3.289062 L 4.429688 -3.371094 C 4.398438 -3.734375 4.234375 -4.03125 3.941406 -4.265625 C 3.648438 -4.5 3.316406 -4.617188 2.945312 -4.617188 Z M 2.945312 -4.617188 "/></g></g></g><g fill="#000000" fill-opacity="1"><g transform="translate(162.607154, 77.152471)"><g><path d="M 0.421875 -0.84375 C 0.359375 -0.941406 0.328125 -1.035156 0.328125 -1.125 C 0.328125 -1.261719 0.402344 -1.378906 0.546875 -1.472656 C 0.613281 -1.523438 0.695312 -1.546875 0.78125 -1.546875 C 0.90625 -1.546875 1.019531 -1.496094 1.125 -1.390625 C 1.328125 -1.15625 1.550781 -0.980469 1.789062 -0.867188 C 2.023438 -0.75 2.308594 -0.691406 2.636719 -0.691406 C 2.898438 -0.699219 3.128906 -0.757812 3.328125 -0.871094 C 3.527344 -0.984375 3.628906 -1.167969 3.628906 -1.421875 C 3.628906 -1.65625 3.527344 -1.835938 3.324219 -1.957031 C 3.121094 -2.082031 2.824219 -2.195312 2.433594 -2.296875 C 2.046875 -2.402344 1.726562 -2.507812 1.472656 -2.621094 C 1.21875 -2.734375 1.003906 -2.902344 0.828125 -3.117188 C 0.65625 -3.332031 0.566406 -3.617188 0.566406 -3.96875 C 0.566406 -4.277344 0.65625 -4.546875 0.828125 -4.78125 C 1.003906 -5.015625 1.238281 -5.195312 1.53125 -5.328125 C 1.824219 -5.457031 2.140625 -5.523438 2.484375 -5.523438 C 2.8125 -5.523438 3.140625 -5.460938 3.46875 -5.339844 C 3.792969 -5.214844 4.058594 -5.027344 4.265625 -4.769531 C 4.347656 -4.675781 4.390625 -4.574219 4.390625 -4.472656 C 4.390625 -4.363281 4.335938 -4.257812 4.226562 -4.152344 C 4.15625 -4.089844 4.070312 -4.058594 3.96875 -4.058594 C 3.84375 -4.058594 3.746094 -4.101562 3.667969 -4.183594 C 3.523438 -4.347656 3.347656 -4.476562 3.136719 -4.566406 C 2.929688 -4.65625 2.695312 -4.699219 2.441406 -4.699219 C 2.179688 -4.699219 1.960938 -4.644531 1.777344 -4.539062 C 1.59375 -4.433594 1.503906 -4.253906 1.503906 -4 C 1.511719 -3.757812 1.617188 -3.578125 1.820312 -3.460938 C 2.023438 -3.34375 2.332031 -3.230469 2.75 -3.121094 C 3.117188 -3.027344 3.417969 -2.921875 3.660156 -2.8125 C 3.898438 -2.703125 4.101562 -2.539062 4.265625 -2.324219 C 4.429688 -2.105469 4.511719 -1.824219 4.511719 -1.472656 C 4.511719 -1.152344 4.421875 -0.871094 4.234375 -0.632812 C 4.050781 -0.398438 3.808594 -0.214844 3.507812 -0.0859375 C 3.210938 0.0390625 2.890625 0.101562 2.554688 0.101562 C 2.121094 0.101562 1.722656 0.0273438 1.355469 -0.125 C 0.988281 -0.273438 0.675781 -0.515625 0.421875 -0.84375 Z M 0.421875 -0.84375 "/></g></g></g><g fill="#000000" fill-opacity="1"><g transform="translate(126.654897, 24.898036)"><g><path d="M 0.421875 -0.84375 C 0.359375 -0.941406 0.328125 -1.035156 0.328125 -1.125 C 0.328125 -1.261719 0.402344 -1.378906 0.546875 -1.472656 C 0.613281 -1.523438 0.695312 -1.546875 0.78125 -1.546875 C 0.90625 -1.546875 1.019531 -1.496094 1.125 -1.390625 C 1.328125 -1.15625 1.550781 -0.980469 1.789062 -0.867188 C 2.023438 -0.75 2.308594 -0.691406 2.636719 -0.691406 C 2.898438 -0.699219 3.128906 -0.757812 3.328125 -0.871094 C 3.527344 -0.984375 3.628906 -1.167969 3.628906 -1.421875 C 3.628906 -1.65625 3.527344 -1.835938 3.324219 -1.957031 C 3.121094 -2.082031 2.824219 -2.195312 2.433594 -2.296875 C 2.046875 -2.402344 1.726562 -2.507812 1.472656 -2.621094 C 1.21875 -2.734375 1.003906 -2.902344 0.828125 -3.117188 C 0.65625 -3.332031 0.566406 -3.617188 0.566406 -3.96875 C 0.566406 -4.277344 0.65625 -4.546875 0.828125 -4.78125 C 1.003906 -5.015625 1.238281 -5.195312 1.53125 -5.328125 C 1.824219 -5.457031 2.140625 -5.523438 2.484375 -5.523438 C 2.8125 -5.523438 3.140625 -5.460938 3.46875 -5.339844 C 3.792969 -5.214844 4.058594 -5.027344 4.265625 -4.769531 C 4.347656 -4.675781 4.390625 -4.574219 4.390625 -4.472656 C 4.390625 -4.363281 4.335938 -4.257812 4.226562 -4.152344 C 4.15625 -4.089844 4.070312 -4.058594 3.96875 -4.058594 C 3.84375 -4.058594 3.746094 -4.101562 3.667969 -4.183594 C 3.523438 -4.347656 3.347656 -4.476562 3.136719 -4.566406 C 2.929688 -4.65625 2.695312 -4.699219 2.441406 -4.699219 C 2.179688 -4.699219 1.960938 -4.644531 1.777344 -4.539062 C 1.59375 -4.433594 1.503906 -4.253906 1.503906 -4 C 1.511719 -3.757812 1.617188 -3.578125 1.820312 -3.460938 C 2.023438 -3.34375 2.332031 -3.230469 2.75 -3.121094 C 3.117188 -3.027344 3.417969 -2.921875 3.660156 -2.8125 C 3.898438 -2.703125 4.101562 -2.539062 4.265625 -2.324219 C 4.429688 -2.105469 4.511719 -1.824219 4.511719 -1.472656 C 4.511719 -1.152344 4.421875 -0.871094 4.234375 -0.632812 C 4.050781 -0.398438 3.808594 -0.214844 3.507812 -0.0859375 C 3.210938 0.0390625 2.890625 0.101562 2.554688 0.101562 C 2.121094 0.101562 1.722656 0.0273438 1.355469 -0.125 C 0.988281 -0.273438 0.675781 -0.515625 0.421875 -0.84375 Z M 0.421875 -0.84375 "/></g></g></g><g fill="#000000" fill-opacity="1"><g transform="translate(132.186776, 24.898036)"><g><path d="M 1.660156 -0.496094 C 1.660156 -0.355469 1.613281 -0.242188 1.519531 -0.144531 C 1.425781 -0.046875 1.308594 0 1.164062 0 C 1.027344 0 0.910156 -0.046875 0.820312 -0.144531 C 0.726562 -0.242188 0.679688 -0.355469 0.679688 -0.496094 L 0.679688 -4.957031 C 0.679688 -5.09375 0.726562 -5.210938 0.820312 -5.308594 C 0.910156 -5.402344 1.027344 -5.453125 1.164062 -5.453125 C 1.308594 -5.453125 1.425781 -5.402344 1.519531 -5.308594 C 1.613281 -5.210938 1.660156 -5.09375 1.660156 -4.957031 Z M 1.164062 -6.132812 C 0.964844 -6.132812 0.824219 -6.167969 0.738281 -6.238281 C 0.652344 -6.3125 0.609375 -6.425781 0.609375 -6.585938 L 0.609375 -6.75 C 0.609375 -6.914062 0.65625 -7.03125 0.746094 -7.101562 C 0.839844 -7.167969 0.980469 -7.203125 1.175781 -7.203125 C 1.367188 -7.203125 1.507812 -7.167969 1.59375 -7.09375 C 1.679688 -7.023438 1.722656 -6.90625 1.722656 -6.75 L 1.722656 -6.585938 C 1.722656 -6.421875 1.675781 -6.304688 1.585938 -6.234375 C 1.496094 -6.164062 1.355469 -6.132812 1.164062 -6.132812 Z M 1.164062 -6.132812 "/></g></g></g><g fill="#000000" fill-opacity="1"><g transform="translate(135.14346, 24.898036)"><g><path d="M 3.484375 -5.523438 C 4.71875 -5.523438 5.339844 -4.78125 5.339844 -3.296875 L 5.339844 -0.496094 C 5.339844 -0.355469 5.292969 -0.242188 5.199219 -0.144531 C 5.105469 -0.046875 4.988281 0 4.84375 0 C 4.707031 0 4.589844 -0.046875 4.5 -0.144531 C 4.40625 -0.242188 4.359375 -0.355469 4.359375 -0.496094 L 4.359375 -3.289062 C 4.359375 -3.691406 4.265625 -4.015625 4.082031 -4.257812 C 3.894531 -4.496094 3.59375 -4.617188 3.175781 -4.617188 C 2.898438 -4.617188 2.648438 -4.554688 2.425781 -4.4375 C 2.203125 -4.316406 2.027344 -4.15625 1.902344 -3.953125 C 1.773438 -3.75 1.710938 -3.527344 1.710938 -3.289062 L 1.710938 -0.496094 C 1.710938 -0.355469 1.664062 -0.242188 1.570312 -0.144531 C 1.480469 -0.046875 1.359375 0 1.214844 0 C 1.070312 0 0.953125 -0.046875 0.867188 -0.140625 C 0.777344 -0.230469 0.730469 -0.351562 0.730469 -0.496094 L 0.730469 -4.90625 C 0.730469 -5.042969 0.777344 -5.160156 0.871094 -5.253906 C 0.964844 -5.351562 1.078125 -5.398438 1.214844 -5.398438 C 1.359375 -5.398438 1.480469 -5.351562 1.570312 -5.253906 C 1.664062 -5.160156 1.710938 -5.042969 1.710938 -4.90625 L 1.710938 -4.542969 C 1.890625 -4.820312 2.136719 -5.050781 2.457031 -5.238281 C 2.777344 -5.429688 3.117188 -5.523438 3.484375 -5.523438 Z M 3.484375 -5.523438 "/></g></g></g><g fill="#000000" fill-opacity="1"><g transform="translate(141.829018, 24.898036)"><g><path d="M 3.082031 -5.523438 C 3.625 -5.523438 4.074219 -5.4375 4.4375 -5.265625 C 4.796875 -5.09375 4.976562 -4.875 4.976562 -4.605469 C 4.976562 -4.488281 4.941406 -4.386719 4.863281 -4.292969 C 4.789062 -4.199219 4.691406 -4.152344 4.574219 -4.152344 C 4.484375 -4.152344 4.414062 -4.167969 4.363281 -4.195312 C 4.3125 -4.222656 4.242188 -4.265625 4.152344 -4.328125 C 4.113281 -4.371094 4.046875 -4.417969 3.957031 -4.472656 C 3.875 -4.511719 3.757812 -4.546875 3.605469 -4.574219 C 3.457031 -4.601562 3.316406 -4.617188 3.195312 -4.617188 C 2.835938 -4.617188 2.519531 -4.535156 2.246094 -4.371094 C 1.972656 -4.203125 1.757812 -3.976562 1.609375 -3.683594 C 1.457031 -3.390625 1.382812 -3.066406 1.382812 -2.710938 C 1.382812 -2.347656 1.453125 -2.019531 1.601562 -1.730469 C 1.75 -1.441406 1.957031 -1.214844 2.226562 -1.050781 C 2.492188 -0.886719 2.800781 -0.804688 3.144531 -0.804688 C 3.5 -0.804688 3.789062 -0.859375 4.007812 -0.96875 C 4.058594 -0.996094 4.121094 -1.039062 4.203125 -1.101562 C 4.273438 -1.15625 4.332031 -1.199219 4.386719 -1.226562 C 4.4375 -1.253906 4.5 -1.265625 4.574219 -1.265625 C 4.710938 -1.265625 4.820312 -1.222656 4.898438 -1.140625 C 4.980469 -1.054688 5.019531 -0.941406 5.019531 -0.804688 C 5.019531 -0.660156 4.925781 -0.515625 4.746094 -0.375 C 4.5625 -0.234375 4.320312 -0.121094 4.015625 -0.03125 C 3.707031 0.0585938 3.378906 0.101562 3.03125 0.101562 C 2.507812 0.101562 2.046875 -0.0195312 1.648438 -0.261719 C 1.25 -0.507812 0.941406 -0.84375 0.726562 -1.273438 C 0.511719 -1.703125 0.402344 -2.179688 0.402344 -2.710938 C 0.402344 -3.238281 0.515625 -3.71875 0.742188 -4.148438 C 0.96875 -4.578125 1.285156 -4.914062 1.691406 -5.15625 C 2.09375 -5.402344 2.558594 -5.523438 3.082031 -5.523438 Z M 3.082031 -5.523438 "/></g></g></g><g fill="#000000" fill-opacity="1"><g transform="translate(147.742019, 24.898036)"><g><path d="M 5.472656 -2.90625 C 5.464844 -2.78125 5.414062 -2.675781 5.316406 -2.589844 C 5.222656 -2.503906 5.109375 -2.464844 4.976562 -2.464844 L 1.351562 -2.464844 C 1.398438 -1.960938 1.589844 -1.558594 1.921875 -1.257812 C 2.253906 -0.953125 2.664062 -0.804688 3.144531 -0.804688 C 3.472656 -0.804688 3.742188 -0.851562 3.945312 -0.949219 C 4.152344 -1.042969 4.335938 -1.167969 4.492188 -1.320312 C 4.597656 -1.382812 4.695312 -1.410156 4.792969 -1.410156 C 4.910156 -1.410156 5.007812 -1.371094 5.085938 -1.289062 C 5.164062 -1.207031 5.203125 -1.109375 5.203125 -1 C 5.203125 -0.855469 5.136719 -0.726562 4.996094 -0.609375 C 4.796875 -0.410156 4.535156 -0.242188 4.203125 -0.101562 C 3.875 0.0351562 3.539062 0.101562 3.195312 0.101562 C 2.636719 0.101562 2.148438 -0.015625 1.726562 -0.246094 C 1.304688 -0.480469 0.976562 -0.808594 0.746094 -1.226562 C 0.515625 -1.644531 0.402344 -2.121094 0.402344 -2.648438 C 0.402344 -3.226562 0.519531 -3.730469 0.757812 -4.167969 C 0.996094 -4.605469 1.308594 -4.941406 1.695312 -5.171875 C 2.082031 -5.40625 2.5 -5.523438 2.945312 -5.523438 C 3.386719 -5.523438 3.800781 -5.410156 4.183594 -5.183594 C 4.570312 -4.957031 4.878906 -4.644531 5.109375 -4.246094 C 5.34375 -3.847656 5.464844 -3.402344 5.472656 -2.90625 Z M 2.945312 -4.617188 C 2.5625 -4.617188 2.230469 -4.507812 1.949219 -4.292969 C 1.664062 -4.074219 1.480469 -3.742188 1.390625 -3.289062 L 4.429688 -3.289062 L 4.429688 -3.371094 C 4.398438 -3.734375 4.234375 -4.03125 3.941406 -4.265625 C 3.648438 -4.5 3.316406 -4.617188 2.945312 -4.617188 Z M 2.945312 -4.617188 "/></g></g></g><g fill="#000000" fill-opacity="1"><g transform="translate(127.111928, 34.648035)"><g><path d="M 4.824219 -0.90625 C 4.953125 -0.90625 5.0625 -0.863281 5.152344 -0.773438 C 5.242188 -0.683594 5.285156 -0.574219 5.285156 -0.441406 C 5.285156 -0.3125 5.242188 -0.207031 5.152344 -0.125 C 5.0625 -0.0429688 4.953125 0 4.824219 0 L 1.164062 0 C 1.027344 0 0.914062 -0.0429688 0.824219 -0.128906 C 0.734375 -0.214844 0.691406 -0.328125 0.691406 -0.472656 C 0.691406 -0.597656 0.738281 -0.714844 0.835938 -0.824219 L 3.132812 -3.316406 C 3.773438 -4 4.089844 -4.597656 4.089844 -5.121094 C 4.089844 -5.492188 3.96875 -5.800781 3.726562 -6.042969 C 3.480469 -6.289062 3.171875 -6.410156 2.792969 -6.410156 C 2.539062 -6.410156 2.292969 -6.335938 2.0625 -6.191406 C 1.828125 -6.050781 1.636719 -5.84375 1.496094 -5.574219 C 1.382812 -5.429688 1.253906 -5.359375 1.101562 -5.359375 C 0.984375 -5.359375 0.875 -5.402344 0.773438 -5.492188 C 0.667969 -5.582031 0.617188 -5.683594 0.617188 -5.800781 C 0.617188 -5.878906 0.644531 -5.957031 0.695312 -6.039062 C 0.746094 -6.121094 0.820312 -6.21875 0.917969 -6.328125 C 1.144531 -6.628906 1.433594 -6.871094 1.78125 -7.046875 C 2.132812 -7.226562 2.488281 -7.316406 2.84375 -7.316406 C 3.304688 -7.316406 3.703125 -7.222656 4.039062 -7.039062 C 4.375 -6.851562 4.636719 -6.597656 4.816406 -6.277344 C 5 -5.953125 5.089844 -5.582031 5.089844 -5.164062 C 5.089844 -4.371094 4.664062 -3.519531 3.8125 -2.605469 L 2.257812 -0.90625 Z M 4.824219 -0.90625 "/></g></g></g><g fill="#000000" fill-opacity="1"><g transform="translate(133.385453, 34.648035)"><g><path d="M 3.121094 0.101562 C 2.558594 0.101562 2.078125 -0.0546875 1.679688 -0.371094 C 1.28125 -0.6875 0.980469 -1.125 0.777344 -1.679688 C 0.574219 -2.234375 0.472656 -2.878906 0.472656 -3.605469 C 0.472656 -4.335938 0.574219 -4.976562 0.777344 -5.535156 C 0.980469 -6.089844 1.28125 -6.527344 1.679688 -6.84375 C 2.078125 -7.160156 2.558594 -7.316406 3.121094 -7.316406 C 3.6875 -7.316406 4.167969 -7.160156 4.566406 -6.84375 C 4.964844 -6.527344 5.265625 -6.089844 5.46875 -5.535156 C 5.667969 -4.976562 5.769531 -4.335938 5.769531 -3.605469 C 5.769531 -2.878906 5.667969 -2.234375 5.46875 -1.679688 C 5.265625 -1.125 4.964844 -0.6875 4.566406 -0.371094 C 4.167969 -0.0546875 3.6875 0.101562 3.121094 0.101562 Z M 3.121094 -0.886719 C 3.625 -0.886719 4.015625 -1.125 4.292969 -1.597656 C 4.570312 -2.070312 4.710938 -2.742188 4.710938 -3.605469 C 4.710938 -4.472656 4.570312 -5.140625 4.292969 -5.617188 C 4.015625 -6.089844 3.625 -6.328125 3.121094 -6.328125 C 2.621094 -6.328125 2.230469 -6.089844 1.953125 -5.617188 C 1.675781 -5.140625 1.535156 -4.472656 1.535156 -3.605469 C 1.535156 -2.742188 1.675781 -2.070312 1.953125 -1.597656 C 2.230469 -1.125 2.621094 -0.886719 3.121094 -0.886719 Z M 3.121094 -0.886719 "/></g></g></g><g fill="#000000" fill-opacity="1"><g transform="translate(140.246128, 34.648035)"><g><path d="M 4.824219 -0.90625 C 4.953125 -0.90625 5.0625 -0.863281 5.152344 -0.773438 C 5.242188 -0.683594 5.285156 -0.574219 5.285156 -0.441406 C 5.285156 -0.3125 5.242188 -0.207031 5.152344 -0.125 C 5.0625 -0.0429688 4.953125 0 4.824219 0 L 1.164062 0 C 1.027344 0 0.914062 -0.0429688 0.824219 -0.128906 C 0.734375 -0.214844 0.691406 -0.328125 0.691406 -0.472656 C 0.691406 -0.597656 0.738281 -0.714844 0.835938 -0.824219 L 3.132812 -3.316406 C 3.773438 -4 4.089844 -4.597656 4.089844 -5.121094 C 4.089844 -5.492188 3.96875 -5.800781 3.726562 -6.042969 C 3.480469 -6.289062 3.171875 -6.410156 2.792969 -6.410156 C 2.539062 -6.410156 2.292969 -6.335938 2.0625 -6.191406 C 1.828125 -6.050781 1.636719 -5.84375 1.496094 -5.574219 C 1.382812 -5.429688 1.253906 -5.359375 1.101562 -5.359375 C 0.984375 -5.359375 0.875 -5.402344 0.773438 -5.492188 C 0.667969 -5.582031 0.617188 -5.683594 0.617188 -5.800781 C 0.617188 -5.878906 0.644531 -5.957031 0.695312 -6.039062 C 0.746094 -6.121094 0.820312 -6.21875 0.917969 -6.328125 C 1.144531 -6.628906 1.433594 -6.871094 1.78125 -7.046875 C 2.132812 -7.226562 2.488281 -7.316406 2.84375 -7.316406 C 3.304688 -7.316406 3.703125 -7.222656 4.039062 -7.039062 C 4.375 -6.851562 4.636719 -6.597656 4.816406 -6.277344 C 5 -5.953125 5.089844 -5.582031 5.089844 -5.164062 C 5.089844 -4.371094 4.664062 -3.519531 3.8125 -2.605469 L 2.257812 -0.90625 Z M 4.824219 -0.90625 "/></g></g></g><g fill="#000000" fill-opacity="1"><g transform="translate(146.519653, 34.648035)"><g><path d="M 5.523438 -2.96875 C 5.652344 -2.96875 5.765625 -2.925781 5.851562 -2.839844 C 5.941406 -2.753906 5.988281 -2.644531 5.988281 -2.515625 C 5.988281 -2.382812 5.941406 -2.277344 5.851562 -2.195312 C 5.765625 -2.113281 5.652344 -2.070312 5.523438 -2.070312 L 4.976562 -2.070312 L 4.976562 -0.496094 C 4.976562 -0.355469 4.929688 -0.242188 4.832031 -0.144531 C 4.738281 -0.046875 4.621094 0 4.484375 0 C 4.34375 0 4.230469 -0.046875 4.136719 -0.144531 C 4.042969 -0.242188 4 -0.355469 4 -0.496094 L 4 -2.070312 L 1.175781 -2.070312 C 1.050781 -2.070312 0.941406 -2.121094 0.839844 -2.214844 C 0.742188 -2.3125 0.691406 -2.425781 0.691406 -2.554688 C 0.691406 -2.679688 0.726562 -2.789062 0.804688 -2.886719 L 4.089844 -7.019531 C 4.140625 -7.078125 4.199219 -7.128906 4.269531 -7.160156 C 4.34375 -7.195312 4.417969 -7.214844 4.492188 -7.214844 C 4.628906 -7.214844 4.746094 -7.164062 4.839844 -7.070312 C 4.929688 -6.972656 4.976562 -6.855469 4.976562 -6.71875 L 4.976562 -2.96875 Z M 1.988281 -2.96875 L 4 -2.96875 L 4 -5.542969 Z M 1.988281 -2.96875 "/></g></g></g></svg>