<svg width="40" height="40" viewBox="0 0 40 40" fill="none" xmlns="http://www.w3.org/2000/svg">
  <rect width="40" height="40" rx="8" fill="rgba(255,255,255,0.1)" />
  <path d="M20 7C13.925 7 9 11.925 9 18C9 24.075 13.925 29 20 29C26.075 29 31 24.075 31 18C31 11.925 26.075 7 20 7ZM20 11C22.206 11 24 12.794 24 15C24 17.206 22.206 19 20 19C17.794 19 16 17.206 16 15C16 12.794 17.794 11 20 11ZM20 27.2C17.5 27.2 15.29 26.18 13.8 24.52C13.84 21.26 17 19.4 20 19.4C22.99 19.4 26.16 21.26 26.2 24.52C24.71 26.18 22.5 27.2 20 27.2Z" fill="white" />
  <circle cx="14" cy="13" r="2" fill="#00bfff" />
  <circle cx="26" cy="13" r="2" fill="#00bfff" />
</svg>