<?xml version="1.0" encoding="UTF-8"?><svg id="a" xmlns="http://www.w3.org/2000/svg" viewBox="0 0 1113.62 245.98"><defs><style>.b{fill:#006ba6;}.c{fill:#707070;}</style></defs><g><path class="b" d="M69.49,6.07l46.19,118.21h-17.38l-12.91-35.6H35.39l-13.24,35.6H6.08L52.11,6.07h17.38Zm10.93,69.37L60.72,20.31h-.33l-20.03,55.13h40.07Z"/><path class="b" d="M137.5,38.69v18.05h.33c3.42-6.95,7.62-12.09,12.58-15.4,4.96-3.31,11.26-4.85,18.87-4.63v14.9c-5.63,0-10.43,.77-14.4,2.32-3.98,1.55-7.18,3.81-9.6,6.79-2.43,2.98-4.19,6.59-5.3,10.84-1.1,4.25-1.65,9.13-1.65,14.65v38.08h-14.07V38.69h13.24Z"/><path class="b" d="M241.76,148.45c-6.4,6.95-16.45,10.43-30.13,10.43-3.97,0-8.03-.44-12.17-1.32-4.14-.89-7.89-2.32-11.26-4.3-3.37-1.99-6.15-4.58-8.36-7.78s-3.42-7.12-3.64-11.75h14.07c.11,2.54,.91,4.69,2.4,6.46,1.49,1.76,3.31,3.2,5.46,4.3,2.15,1.1,4.5,1.91,7.04,2.4,2.54,.5,4.96,.74,7.28,.74,4.64,0,8.55-.8,11.76-2.4,3.2-1.6,5.85-3.81,7.95-6.62,2.09-2.82,3.61-6.21,4.55-10.18,.94-3.97,1.41-8.33,1.41-13.08v-5.63h-.33c-2.43,5.3-6.1,9.19-11.01,11.67s-10.13,3.73-15.64,3.73c-6.4,0-11.98-1.16-16.72-3.48-4.75-2.32-8.72-5.43-11.92-9.35-3.2-3.92-5.6-8.5-7.2-13.74-1.6-5.24-2.4-10.79-2.4-16.64,0-5.07,.66-10.29,1.99-15.64,1.33-5.35,3.53-10.21,6.62-14.57,3.09-4.36,7.18-7.95,12.25-10.76,5.07-2.82,11.31-4.22,18.71-4.22,5.41,0,10.38,1.19,14.9,3.56,4.52,2.38,8.06,5.93,10.6,10.68h.17v-12.25h13.24V117c0,14.02-3.2,24.5-9.6,31.46Zm-17.96-38.49c3.25-1.93,5.88-4.47,7.86-7.62,1.99-3.14,3.45-6.7,4.39-10.68s1.41-7.95,1.41-11.92c0-3.75-.44-7.45-1.32-11.09-.89-3.64-2.29-6.93-4.22-9.85-1.93-2.92-4.45-5.27-7.53-7.04-3.09-1.76-6.84-2.65-11.26-2.65s-8.39,.86-11.59,2.57c-3.2,1.71-5.82,4-7.86,6.87-2.04,2.87-3.53,6.18-4.47,9.93-.94,3.75-1.4,7.67-1.4,11.76,0,3.86,.38,7.73,1.16,11.59,.77,3.86,2.1,7.37,3.97,10.51,1.88,3.15,4.36,5.69,7.45,7.62,3.09,1.93,6.95,2.9,11.59,2.9s8.58-.96,11.84-2.9Z"/><path class="b" d="M327.81,124.28v-13.58h-.33c-2.98,5.3-6.79,9.19-11.42,11.67-4.64,2.48-10.1,3.73-16.39,3.73-5.63,0-10.32-.74-14.07-2.23-3.75-1.49-6.79-3.62-9.11-6.38-2.32-2.76-3.95-6.04-4.88-9.85-.94-3.81-1.41-8.03-1.41-12.67V38.69h14.07v57.94c0,5.3,1.55,9.49,4.64,12.58,3.09,3.09,7.34,4.64,12.75,4.64,4.3,0,8.03-.66,11.17-1.99,3.15-1.33,5.77-3.2,7.86-5.63,2.1-2.43,3.67-5.27,4.72-8.52,1.05-3.26,1.57-6.82,1.57-10.68V38.69h14.07V124.28h-13.24Z"/><path class="b" d="M371.37,105.16c1.33,2.15,3.06,3.87,5.21,5.13,2.16,1.27,4.58,2.18,7.29,2.73,2.7,.55,5.49,.83,8.36,.83,2.21,0,4.52-.17,6.95-.5,2.42-.33,4.66-.94,6.7-1.82,2.04-.88,3.73-2.18,5.05-3.89,1.33-1.71,1.99-3.89,1.99-6.54,0-3.64-1.38-6.4-4.14-8.28-2.76-1.87-6.21-3.39-10.34-4.55-4.14-1.16-8.64-2.21-13.5-3.15-4.86-.94-9.35-2.26-13.49-3.97s-7.59-4.11-10.35-7.2-4.14-7.4-4.14-12.91c0-4.3,.96-8,2.9-11.09,1.93-3.09,4.41-5.6,7.45-7.54,3.03-1.93,6.46-3.36,10.26-4.3,3.81-.94,7.59-1.4,11.34-1.4,4.86,0,9.33,.41,13.41,1.24,4.08,.83,7.7,2.26,10.85,4.31s5.66,4.8,7.53,8.28c1.88,3.48,2.98,7.81,3.31,12.99h-14.07c-.22-2.76-.94-5.05-2.15-6.87-1.22-1.82-2.76-3.28-4.64-4.39s-3.95-1.91-6.21-2.4-4.55-.74-6.87-.74c-2.1,0-4.22,.17-6.38,.5s-4.11,.91-5.88,1.74c-1.76,.83-3.2,1.93-4.3,3.31-1.1,1.38-1.65,3.18-1.65,5.38,0,2.43,.85,4.45,2.57,6.04,1.71,1.6,3.89,2.92,6.54,3.97,2.65,1.05,5.63,1.93,8.94,2.65,3.31,.72,6.62,1.46,9.93,2.23,3.53,.78,6.98,1.71,10.35,2.82,3.37,1.1,6.35,2.57,8.94,4.39,2.59,1.82,4.69,4.11,6.29,6.87,1.6,2.76,2.4,6.18,2.4,10.26,0,5.19-1.08,9.49-3.23,12.91-2.15,3.43-4.97,6.18-8.44,8.28-3.48,2.1-7.4,3.56-11.76,4.39-4.36,.83-8.69,1.24-13,1.24-4.75,0-9.27-.5-13.58-1.49-4.3-.99-8.11-2.62-11.42-4.88-3.31-2.26-5.96-5.24-7.95-8.94s-3.09-8.2-3.31-13.5h14.07c.11,3.09,.83,5.71,2.15,7.86Z"/><path class="b" d="M541.24,6.07l46.19,118.21h-17.38l-12.91-35.6h-50l-13.24,35.6h-16.06L523.85,6.07h17.38Zm10.93,69.37l-19.7-55.13h-.33l-20.03,55.13h40.07Z"/><path class="b" d="M655.87,124.28v-11.59h-.33c-2.32,4.75-5.96,8.17-10.93,10.27-4.97,2.09-10.43,3.14-16.39,3.14-6.62,0-12.39-1.21-17.3-3.64-4.91-2.43-9-5.68-12.25-9.77-3.26-4.08-5.71-8.83-7.37-14.24s-2.48-11.15-2.48-17.22,.8-11.81,2.4-17.22c1.6-5.41,4.03-10.12,7.28-14.16,3.26-4.03,7.34-7.23,12.25-9.6,4.91-2.37,10.62-3.56,17.14-3.56,2.21,0,4.58,.22,7.12,.66,2.54,.44,5.08,1.19,7.62,2.24,2.54,1.05,4.94,2.43,7.2,4.14s4.17,3.84,5.71,6.37h.33V6.07h14.07V124.28h-14.07Zm-50.58-30.38c1.05,3.81,2.65,7.2,4.8,10.18s4.91,5.36,8.28,7.12c3.37,1.77,7.31,2.65,11.84,2.65s8.77-.94,12.08-2.82c3.31-1.88,6.02-4.33,8.11-7.37,2.1-3.03,3.62-6.48,4.55-10.35,.94-3.86,1.41-7.78,1.41-11.76,0-4.19-.5-8.25-1.49-12.17-.99-3.92-2.57-7.37-4.72-10.35-2.15-2.98-4.94-5.38-8.36-7.2s-7.56-2.73-12.42-2.73-8.77,.94-12.09,2.82c-3.31,1.88-5.96,4.36-7.95,7.45-1.99,3.09-3.42,6.62-4.3,10.6-.89,3.97-1.32,8.06-1.32,12.25,0,3.97,.52,7.86,1.57,11.67Z"/><path class="b" d="M712.33,124.28l-31.79-85.59h15.73l24.01,71.35h.33l23.34-71.35h14.74l-31.29,85.59h-15.07Z"/><path class="b" d="M769.51,23.29V6.07h14.07V23.29h-14.07Zm14.07,15.4V124.28h-14.07V38.69h14.07Z"/><path class="b" d="M814.47,105.16c1.33,2.15,3.06,3.87,5.21,5.13,2.16,1.27,4.58,2.18,7.29,2.73,2.7,.55,5.49,.83,8.36,.83,2.21,0,4.52-.17,6.95-.5,2.42-.33,4.66-.94,6.7-1.82,2.04-.88,3.73-2.18,5.05-3.89,1.33-1.71,1.99-3.89,1.99-6.54,0-3.64-1.38-6.4-4.14-8.28-2.76-1.87-6.21-3.39-10.34-4.55-4.14-1.16-8.64-2.21-13.5-3.15-4.86-.94-9.35-2.26-13.49-3.97s-7.59-4.11-10.35-7.2-4.14-7.4-4.14-12.91c0-4.3,.96-8,2.9-11.09,1.93-3.09,4.41-5.6,7.45-7.54,3.03-1.93,6.46-3.36,10.26-4.3,3.81-.94,7.59-1.4,11.34-1.4,4.86,0,9.33,.41,13.41,1.24,4.08,.83,7.7,2.26,10.85,4.31s5.66,4.8,7.53,8.28c1.88,3.48,2.98,7.81,3.31,12.99h-14.07c-.22-2.76-.94-5.05-2.15-6.87-1.22-1.82-2.76-3.28-4.64-4.39s-3.95-1.91-6.21-2.4-4.55-.74-6.87-.74c-2.1,0-4.22,.17-6.38,.5s-4.11,.91-5.88,1.74c-1.76,.83-3.2,1.93-4.3,3.31-1.1,1.38-1.65,3.18-1.65,5.38,0,2.43,.85,4.45,2.57,6.04,1.71,1.6,3.89,2.92,6.54,3.97,2.65,1.05,5.63,1.93,8.94,2.65,3.31,.72,6.62,1.46,9.93,2.23,3.53,.78,6.98,1.71,10.35,2.82,3.37,1.1,6.35,2.57,8.94,4.39,2.59,1.82,4.69,4.11,6.29,6.87,1.6,2.76,2.4,6.18,2.4,10.26,0,5.19-1.08,9.49-3.23,12.91-2.15,3.43-4.97,6.18-8.44,8.28-3.48,2.1-7.4,3.56-11.76,4.39-4.36,.83-8.69,1.24-13,1.24-4.75,0-9.27-.5-13.58-1.49-4.3-.99-8.11-2.62-11.42-4.88-3.31-2.26-5.96-5.24-7.95-8.94s-3.09-8.2-3.31-13.5h14.07c.11,3.09,.83,5.71,2.15,7.86Z"/><path class="b" d="M882.48,63.94c1.76-5.46,4.41-10.21,7.95-14.24,3.53-4.03,7.89-7.2,13.08-9.52,5.19-2.32,11.15-3.48,17.88-3.48s12.83,1.16,17.96,3.48,9.46,5.49,13,9.52c3.53,4.03,6.18,8.77,7.95,14.24,1.76,5.46,2.65,11.34,2.65,17.63s-.89,12.14-2.65,17.55c-1.77,5.41-4.42,10.13-7.95,14.16-3.53,4.03-7.86,7.18-13,9.44s-11.12,3.39-17.96,3.39-12.69-1.13-17.88-3.39c-5.19-2.26-9.55-5.41-13.08-9.44-3.53-4.03-6.18-8.74-7.95-14.16-1.77-5.41-2.65-11.26-2.65-17.55s.88-12.17,2.65-17.63Zm14.32,31.46c1.38,4.03,3.28,7.4,5.71,10.1,2.43,2.71,5.27,4.78,8.53,6.21,3.25,1.44,6.7,2.15,10.35,2.15s7.09-.72,10.34-2.15c3.26-1.43,6.1-3.5,8.53-6.21,2.43-2.7,4.33-6.07,5.71-10.1,1.38-4.03,2.07-8.64,2.07-13.83s-.69-9.79-2.07-13.82c-1.38-4.03-3.28-7.42-5.71-10.18-2.43-2.76-5.27-4.85-8.53-6.29-3.26-1.43-6.7-2.15-10.34-2.15s-7.09,.72-10.35,2.15c-3.26,1.44-6.1,3.53-8.53,6.29-2.43,2.76-4.33,6.15-5.71,10.18s-2.07,8.64-2.07,13.82,.69,9.8,2.07,13.83Z"/><path class="b" d="M990.53,38.69v18.05h.33c3.42-6.95,7.62-12.09,12.58-15.4,4.96-3.31,11.26-4.85,18.87-4.63v14.9c-5.63,0-10.43,.77-14.4,2.32-3.98,1.55-7.18,3.81-9.6,6.79-2.43,2.98-4.19,6.59-5.3,10.84-1.1,4.25-1.65,9.13-1.65,14.65v38.08h-14.07V38.69h13.24Z"/><path class="b" d="M1070.15,135.71c-1.65,4.19-3.28,7.72-4.88,10.6-1.6,2.87-3.37,5.21-5.3,7.04-1.93,1.82-4.09,3.15-6.46,3.98-2.37,.83-5.11,1.24-8.2,1.24-1.65,0-3.31-.11-4.97-.33-1.65-.22-3.26-.61-4.8-1.16v-12.91c1.21,.55,2.62,1.02,4.22,1.41,1.6,.38,2.95,.58,4.06,.58,2.87,0,5.27-.69,7.2-2.07,1.93-1.38,3.39-3.34,4.39-5.88l5.79-14.41-33.94-85.1h15.89l25,70.03h.33l24.01-70.03h14.9l-37.25,97.02Z"/></g><g><path class="c" d="M17.57,212.23l-4.93,10.4H7.41v-.66l19.6-41.61h2.28l19.42,41.61v.66h-5.17l-4.93-10.4H17.57Zm1.68-4.33h17.68l-8.84-19.66-8.84,19.66Z"/><path class="c" d="M62.43,185.05v-4.51h30.85v4.51h-12.99v37.58h-4.87v-37.58h-12.99Z"/><path class="c" d="M108.44,193.11c2.53,0,4.81,.72,6.8,2.16l-1.14,3.97c-1.86-1.2-3.91-1.92-6.13-1.92-4.15,0-8,2.95-8,7.52v17.8h-4.63v-21.95c0-2.65-.06-4.27-3.49-3.97l-.06-3.13c4.51-.78,7.7-.3,7.88,4.15,1.74-3.37,5.11-4.63,8.78-4.63Z"/><path class="c" d="M128.1,223.18c-5.35,0-10.22-2.59-10.22-8.48,0-6.43,5.05-9.62,11.06-9.62,3.31,0,7.1,.48,9.98,2.11v-4.21c0-4.87-5.17-6.07-9.14-6.07-3.31,0-6.37,.66-8.84,2.1l-.78-3.73c2.83-1.44,6.49-2.16,10.34-2.16,6.55,0,12.87,2.41,12.69,9.98v12.09c0,3.19-.18,5.05,3.37,4.57l.06,3.07c-4.81,.78-7.1-.12-7.1-5.41-2.1,4.03-7.04,5.77-11.42,5.77Zm10.76-12.39c-1.8-1.08-5.47-2.04-8.84-2.04-3.73,0-7.52,1.5-7.52,5.65,0,3.73,3.19,4.75,6.43,4.75,3.79,0,8.72-1.8,9.92-6.49v-1.86Z"/><path class="c" d="M175.19,222.64v-17.14c0-5.23-3.37-8.48-8.12-8.48s-8.66,3.37-8.66,8.24v17.38h-4.69v-20.68c0-3.91-.3-4.93-3.37-4.63l-.06-3.73c3.37-.48,7.82-1.2,7.82,4.39,2.59-3.91,6.13-4.87,10.22-4.87,7.64,0,11.61,5.29,11.61,12.39v17.14h-4.75Z"/><path class="c" d="M191.13,214.46c.3,3.67,4.39,4.93,8.3,4.93s8-1.5,8.18-5.05c0-3.31-2.77-4.03-8.12-4.81-5.71-.66-11.97-1.86-12.15-7.88-.18-6.01,6.01-8.54,12.03-8.54s12.21,2.71,12.03,8.3h-4.51c0-3.13-3.73-4.57-7.52-4.57s-7.76,1.32-7.58,4.69c.06,2.83,2.77,3.55,8.12,4.33,6.07,.78,12.45,1.62,12.27,8.48,0,5.95-6.01,8.66-12.75,8.84-6.31,0-12.39-2.1-12.87-8.72h4.57Z"/><path class="c" d="M219.4,208.32v-27.78h5.05v27.72c0,6.68,4.69,10.4,11.12,10.4s11.06-3.73,11.06-10.4v-27.72h4.93v27.78c0,9.44-6.92,14.85-16,14.85s-16.17-5.41-16.17-14.85Z"/><path class="c" d="M283.44,222.64v-17.14c0-5.23-3.37-8.48-8.12-8.48s-8.66,3.37-8.66,8.24v17.38h-4.69v-20.68c0-3.91-.3-4.93-3.37-4.63l-.06-3.73c3.37-.48,7.82-1.2,7.82,4.39,2.59-3.91,6.13-4.87,10.22-4.87,7.64,0,11.61,5.29,11.61,12.39v17.14h-4.75Z"/><path class="c" d="M302.44,184.09c0,4.03-5.95,4.03-5.95,0s5.95-3.97,5.95,0Zm-.66,38.54h-4.69v-28.98h4.69v28.98Z"/><path class="c" d="M324.33,223.18c-7.58-.06-15.15-5.05-15.15-15.09s7.7-14.97,15.33-14.97,15.21,4.93,15.21,14.97-7.7,15.15-15.39,15.09Zm.18-3.91c5.29,0,10.52-3.79,10.52-11.19s-5.29-10.94-10.58-10.94-10.52,3.61-10.52,10.94,5.29,11.19,10.58,11.19Z"/><path class="c" d="M369.44,222.64v-17.14c0-5.23-3.37-8.48-8.12-8.48s-8.66,3.37-8.66,8.24v17.38h-4.69v-20.68c0-3.91-.3-4.93-3.37-4.63l-.06-3.73c3.37-.48,7.82-1.2,7.82,4.39,2.59-3.91,6.13-4.87,10.22-4.87,7.64,0,11.61,5.29,11.61,12.39v17.14h-4.75Z"/><path class="c" d="M380.4,190.34c0-15.95,23.73-15.95,23.73,0s-23.73,16.02-23.73,0Zm21.66,0c0-13.53-19.56-13.53-19.56,0s19.56,13.5,19.56,0Zm-4.49,5.47v.28h-1.86l-2.98-4.03h-2.49v4.03h-1.79v-11.46h4.7c2.28,0,4.07,1.37,4.07,3.75,0,1.72-1.05,3.12-2.7,3.44l3.05,4Zm-7.33-5.22h2.77c1.4,0,2.42-.84,2.42-2.21s-1.02-2.21-2.42-2.21h-2.77v4.42Z"/><path class="c" d="M446,180c8.12,0,16.18,4.39,18.7,13.17h-4.87c-2.59-5.71-7.76-8.54-13.83-8.54-9.68-.18-16.17,7.16-16.17,16.96s6.43,16.9,16.11,16.9c6.44,0,11.91-3.25,14.13-9.32h4.87c-2.4,9.44-10.52,13.95-18.94,13.95-11.72,0-21.29-8.3-21.29-21.53s9.44-21.77,21.29-21.59Z"/><path class="c" d="M485.39,223.18c-7.58-.06-15.15-5.05-15.15-15.09s7.7-14.97,15.33-14.97,15.21,4.93,15.21,14.97-7.7,15.15-15.39,15.09Zm.18-3.91c5.29,0,10.52-3.79,10.52-11.19s-5.29-10.94-10.58-10.94-10.52,3.61-10.52,10.94,5.29,11.19,10.58,11.19Z"/><path class="c" d="M548.3,222.64v-17.26c0-4.63-1.68-8.36-6.55-8.36s-8.54,3.55-8.54,8.72v16.9h-4.69v-17.02c0-4.87-1.68-8.6-6.74-8.6s-8.12,3.49-8.12,8.78v16.84h-4.69v-20.99c0-3.85-.3-4.99-3.37-4.69l-.06-3.43c4.09-.66,7.7-1.02,7.7,4.69,2.11-3.85,5.65-5.11,9.8-5.11,4.81,0,7.82,2.1,8.96,6.19,2.28-4.57,6.25-6.19,11.06-6.19,7.76,0,10.04,5.59,10.04,12.27v17.26h-4.81Z"/><path class="c" d="M577.41,193.11c8.48,0,13.11,6.55,13.11,14.85,0,9.26-6.49,15.21-13.95,15.21-3.01,0-6.13-.54-9.08-2.53v16.9h-4.69v-34.21c0-3.73,.42-6.73-3.43-6.25l-.06-3.49c4.57-.78,7.7,.3,7.52,4.87,2.47-4.03,6.68-5.35,10.58-5.35Zm-10.04,23.15c2.65,2.1,5.59,2.77,8.36,2.77,5.35,0,9.98-4.03,9.98-11.06,0-5.77-2.71-10.58-9.2-10.58-5.53,0-8.96,4.39-9.14,9.38v9.5Z"/><path class="c" d="M605.91,223.18c-5.35,0-10.22-2.59-10.22-8.48,0-6.43,5.05-9.62,11.06-9.62,3.31,0,7.1,.48,9.98,2.11v-4.21c0-4.87-5.17-6.07-9.14-6.07-3.31,0-6.37,.66-8.84,2.1l-.78-3.73c2.83-1.44,6.49-2.16,10.34-2.16,6.55,0,12.87,2.41,12.69,9.98v12.09c0,3.19-.18,5.05,3.37,4.57l.06,3.07c-4.81,.78-7.09-.12-7.09-5.41-2.11,4.03-7.04,5.77-11.43,5.77Zm10.76-12.39c-1.8-1.08-5.47-2.04-8.84-2.04-3.73,0-7.52,1.5-7.52,5.65,0,3.73,3.19,4.75,6.43,4.75,3.79,0,8.72-1.8,9.92-6.49v-1.86Z"/><path class="c" d="M653,222.64v-17.14c0-5.23-3.37-8.48-8.12-8.48s-8.66,3.37-8.66,8.24v17.38h-4.69v-20.68c0-3.91-.3-4.93-3.37-4.63l-.06-3.73c3.37-.48,7.82-1.2,7.82,4.39,2.59-3.91,6.13-4.87,10.22-4.87,7.64,0,11.61,5.29,11.61,12.39v17.14h-4.75Z"/><path class="c" d="M679.64,224.68c-3.25,7.76-6.55,15.75-16.05,11.61l.66-3.49c5.53,2.59,7.82-1.02,9.74-5.83l1.69-4.09-13.29-28.74v-.48h4.99l5.77,12.93,4.75,11.49h.06l4.39-11.37,5.29-13.05h4.75v.48l-12.75,30.55Z"/></g></svg>